<svg width="40" height="40" viewBox="0 0 40 40" fill="none" xmlns="http://www.w3.org/2000/svg">
<circle cx="20" cy="20" r="20" fill="#CBCBCB"/>
<circle cx="20" cy="20" r="15" fill="#E8E8E8"/>
<path d="M25 27H15.2868V24.7657L19.761 19.7691C20.8636 18.4353 21.4149 17.3758 21.4149 16.5904C21.4149 15.954 21.2843 15.4699 21.0229 15.1381C20.7616 14.8064 20.3824 14.6405 19.8853 14.6405C19.3945 14.6405 18.9962 14.8639 18.6902 15.3108C18.3843 15.7508 18.2314 16.3026 18.2314 16.9661H15C15 16.0589 15.2135 15.2227 15.6405 14.4577C16.0676 13.6858 16.6603 13.0833 17.4187 12.65C18.1772 12.2167 19.0249 12 19.9618 12C21.4659 12 22.6227 12.369 23.4321 13.107C24.2479 13.845 24.6558 14.9045 24.6558 16.2857C24.6558 16.868 24.5539 17.4367 24.3499 17.9919C24.146 18.5403 23.8273 19.1192 23.3939 19.7285C22.9669 20.3311 22.2753 21.1401 21.3193 22.1557L19.522 24.3595H25V27Z" fill="#B4B4B4"/>
</svg>
