<svg width="40" height="40" viewBox="0 0 40 40" fill="none" xmlns="http://www.w3.org/2000/svg">
<circle cx="20" cy="20" r="20" fill="#E78717"/>
<circle cx="20" cy="20" r="15" fill="#FFBE72"/>
<path d="M18.3081 18.0922H19.811C21.0019 18.0922 21.5974 17.4743 21.5974 16.2385C21.5974 15.7575 21.4556 15.3667 21.172 15.0661C20.8885 14.7589 20.4883 14.6052 19.9716 14.6052C19.5495 14.6052 19.1808 14.7355 18.8658 14.996C18.557 15.2565 18.4026 15.5805 18.4026 15.9679H15.2174C15.2174 15.1997 15.419 14.515 15.8223 13.9138C16.2256 13.3126 16.7832 12.845 17.4953 12.511C18.2136 12.1703 19.0013 12 19.8582 12C21.3894 12 22.5929 12.3707 23.4688 13.1122C24.3447 13.8537 24.7826 14.8724 24.7826 16.1683C24.7826 16.7963 24.5999 17.3908 24.2344 17.9519C23.8752 18.5063 23.3491 18.9572 22.656 19.3046C23.3869 19.5852 23.9603 20.0127 24.3762 20.5872C24.7921 21.155 25 21.8597 25 22.7014C25 24.004 24.5274 25.0461 23.5822 25.8277C22.6371 26.6092 21.3957 27 19.8582 27C18.9572 27 18.1191 26.8196 17.344 26.4589C16.5753 26.0915 15.9924 25.5872 15.5955 24.9459C15.1985 24.2979 15 23.5631 15 22.7415H18.2042C18.2042 23.189 18.3743 23.5765 18.7146 23.9038C19.0548 24.2311 19.4738 24.3948 19.9716 24.3948C20.5325 24.3948 20.9798 24.2311 21.3138 23.9038C21.6478 23.5698 21.8147 23.1456 21.8147 22.6313C21.8147 21.8965 21.6415 21.3754 21.2949 21.0681C20.9483 20.7609 20.4694 20.6072 19.8582 20.6072H18.3081V18.0922Z" fill="#B26000"/>
</svg>
