<svg width="649" height="420" viewBox="0 0 649 420" fill="none" xmlns="http://www.w3.org/2000/svg">
<g clip-path="url(#clip0_13_8573)">
<g clip-path="url(#clip1_13_8573)">
<path d="M592.581 -1433.86L650.913 -260.146L1598.66 500.125L1595.06 500.995L560.687 753.313L300.585 1845.71L298.144 1842.12L-399.248 828.428L-1507.78 743.305L-1505.68 740.228L-902.314 -138.558L-1327.29 -1283.57L-253.266 -811.335L592.581 -1433.86ZM647.187 -258.395L647.164 -259.43L589.193 -1425.99L-252.294 -806.719L-253.272 -807.155L-1320.74 -1276.53L-897.994 -137.45L-898.515 -136.675L-1500.32 739.837L-397.561 824.53L-396.931 825.454L298.662 1836.53L557.41 749.794L558.317 749.586L1589.99 497.96L647.187 -258.395Z" fill="#02489F"/>
<path d="M582.759 -1407.29L647.525 -256.202L1572.66 495.305L1569.13 496.196L558.102 751.306L295.701 1819.18L293.338 1815.71L-396.053 826.284L-1483.36 734.765L-1481.33 731.743L-896.399 -134.843L-1305.99 -1259.28L-1302.32 -1257.7L-251.381 -803.836L582.759 -1407.29ZM643.848 -254.485L643.797 -255.499L579.431 -1399.64L-250.456 -799.335L-251.402 -799.74L-1299.62 -1252.41L-892.136 -133.758L-892.652 -132.976L-1476.13 731.364L-394.404 822.453L-393.789 823.356L293.825 1810.21L554.874 747.828L555.775 747.613L1564.19 493.148L643.848 -254.485Z" fill="#02489F"/>
<path d="M572.946 -1380.72L573.188 -1376.82L644.157 -252.248L1546.66 490.491L1543.24 491.383L555.54 749.328L290.846 1792.68L-392.892 824.163L-1459 726.256L-1457.04 723.302L-890.472 -131.133L-1284.64 -1235.02L-1281.07 -1233.51L-249.537 -796.402L572.946 -1380.72ZM640.516 -250.556L640.451 -251.561L569.68 -1373.26L-248.606 -791.925L-249.546 -792.335L-1278.45 -1228.29L-886.284 -130.081L-886.806 -129.307L-1451.91 722.967L-391.244 820.376L-390.649 821.251L289.007 1783.94L552.343 745.912L1538.41 488.399L640.516 -250.556Z" fill="#02489F"/>
<path d="M563.124 -1354.14L563.388 -1350.37L640.758 -248.29L1520.66 485.668L552.997 747.321L285.98 1766.18L283.665 1762.95L-389.734 822.041L-1434.64 717.752L-1432.76 714.857L-884.55 -127.425L-1263.36 -1210.72L-1259.89 -1209.27L-247.679 -788.93L563.124 -1354.14ZM637.18 -246.629L637.1 -247.624L559.922 -1346.9L-246.754 -784.523L-247.686 -784.937L-1257.3 -1204.17L-880.408 -126.364L-880.893 -125.614L-1427.7 714.527L-388.093 818.29L-387.512 819.143L284.181 1757.65L549.808 743.931L550.686 743.68L1512.63 483.574L637.18 -246.629Z" fill="#02489F"/>
<path d="M553.305 -1327.58L553.588 -1323.9L637.362 -244.359L1494.65 480.834L1491.45 481.735L550.393 745.36L281.116 1739.68L-386.576 819.933L-1410.3 709.254L-1408.49 706.427L-878.652 -123.739L-1242.05 -1186.43L-1238.67 -1185.06L-245.821 -781.474L553.305 -1327.58ZM633.868 -242.714L550.217 -1320.5L-244.885 -777.127L-245.759 -777.486L-1236.13 -1180.05L-874.548 -122.672L-875.012 -121.936L-1403.51 706.088L-384.921 816.204L-384.354 817.035L279.366 1731.36L547.298 742.032L548.127 741.803L1486.83 478.86L633.868 -242.714Z" fill="#02489F"/>
<path d="M543.458 -1300.99L633.998 -240.387L1468.67 476.041L1465.58 476.944L547.831 743.381L276.293 1713.14L-383.334 817.759L-1385.89 700.722L-872.71 -120.008L-1220.72 -1162.13L-1217.43 -1160.83L-243.963 -773.976L543.458 -1300.99ZM630.515 -238.771L630.441 -239.696L540.462 -1294.1L-243.049 -769.708L-243.901 -770.051L-1214.97 -1155.93L-868.7 -118.972L-869.148 -118.258L-1379.29 697.657L-381.774 814.136L-381.227 814.939L274.526 1705.08L544.785 740.094L545.59 739.86L1461.04 474.085L630.515 -238.771Z" fill="#02489F"/>
<path d="M533.648 -1274.48L630.616 -236.437L1442.68 471.222L545.257 741.388L271.393 1686.67L-380.203 815.626L-1361.53 692.176L-866.808 -116.316L-1199.42 -1137.87L-1196.22 -1136.63L-242.05 -766.548L533.648 -1274.48ZM627.188 -234.848L627.102 -235.744L530.718 -1267.71L-241.202 -762.299L-1193.8 -1131.81L-862.817 -115.277L-1355.09 689.218L-378.609 812.054L-378.082 812.828L269.717 1678.79L542.262 738.16L543.036 737.927L1435.25 469.341L627.188 -234.848Z" fill="#02489F"/>
<path d="M523.849 -1247.87L524.199 -1244.5L627.21 -232.471L1416.67 466.423L542.683 739.415L266.532 1660.18L-377.011 813.525L-1337.14 683.686L-1335.56 681.052L-860.842 -112.604L-1178.1 -1113.58L-1175 -1112.41L-240.221 -759.054L523.849 -1247.87ZM623.832 -230.947L623.747 -231.812L520.96 -1241.34L-239.357 -754.889L-240.16 -755.191L-1172.64 -1107.68L-856.96 -111.586L-857.364 -110.901L-1330.88 680.781L-375.453 809.977L-374.965 810.694L264.872 1652.47L539.681 736.223L540.424 735.99L1409.44 464.557L623.832 -230.947Z" fill="#02489F"/>
<path d="M514.031 -1221.31L514.389 -1218.05L623.85 -228.536L1390.68 461.591L1387.9 462.498L540.12 737.435L261.669 1633.68L-373.858 811.408L-1312.79 675.186L-854.958 -108.879L-1156.79 -1089.3L-238.353 -751.585L514.031 -1221.31ZM620.519 -226.991L511.232 -1214.93L-237.473 -747.505L-1151.44 -1083.58L-851.09 -107.882L-851.471 -107.224L-1306.67 672.342L-372.295 807.898L-371.763 808.586L260.078 1626.2L537.202 734.29L537.926 734.06L1383.64 459.785L620.519 -226.991Z" fill="#02489F"/>
<path d="M504.21 -1194.74L504.593 -1191.59L620.466 -224.584L1364.69 456.78L1362.01 457.682L537.582 735.469L256.837 1607.2L-370.616 809.274L-1288.39 666.656L-1286.95 664.145L-849.036 -105.168L-1135.46 -1065.04L-1132.55 -1064L-236.489 -744.115L504.21 -1194.74ZM617.182 -223.061L617.085 -223.866L501.5 -1188.57L-235.607 -740.141L-1130.26 -1059.49L-845.238 -104.197L-1282.47 663.905L-369.153 805.801L-368.622 806.488L255.269 1599.86L534.677 732.358L535.37 732.128L1357.83 455.021L617.182 -223.061Z" fill="#02489F"/>
<path d="M494.414 -1168.18L617.087 -220.634L1338.71 451.961L1336.16 452.837L534.987 733.47L251.956 1580.67L-367.454 807.121L-1264.01 658.136L-843.13 -101.445L-1114.18 -1040.73L-234.63 -736.649L494.414 -1168.18ZM613.851 -219.133L613.754 -219.907L491.753 -1162.14L-233.799 -732.672L-234.513 -732.919L-1109.13 -1035.32L-839.35 -100.515L-839.692 -99.8934L-1258.26 655.466L-365.983 803.737L-365.478 804.369L250.471 1573.59L532.157 730.424L1332.04 450.25L613.851 -219.133Z" fill="#02489F"/>
<path d="M484.581 -1141.61L613.696 -216.697L1312.71 447.128L1310.23 448.03L532.419 731.485L247.084 1554.19L245.145 1551.8L-364.25 804.971L-1239.61 649.605L-1238.33 647.233L-837.155 -97.7697L-1092.86 -1016.47L-232.772 -729.193L484.581 -1141.61ZM610.525 -215.209L610.421 -215.946L482.009 -1135.75L-231.939 -725.259L-232.631 -725.491L-1087.96 -1011.19L-833.492 -96.7806L-833.818 -96.1809L-1234.04 647.023L-362.824 801.66L-362.332 802.259L245.65 1547.29L529.666 728.459L530.296 728.23L1306.27 445.461L610.525 -215.209Z" fill="#02489F"/>
<path d="M474.765 -1115.04L475.205 -1112.2L610.322 -212.732L1286.72 442.328L529.845 729.511L242.232 1527.71L240.336 1525.44L-361.114 802.866L-1215.26 641.106L-1214.05 638.802L-831.276 -94.031L-1071.55 -992.192L-1068.89 -991.362L-230.898 -721.71L474.765 -1115.04ZM607.189 -211.28L607.085 -211.986L472.269 -1109.35L-230.099 -717.857L-1066.8 -987.065L-827.645 -93.104L-827.947 -92.531L-1209.84 638.585L-359.668 799.583L-359.196 800.153L240.861 1520.99L527.105 726.551L527.704 726.321L1280.42 440.72L607.189 -211.28Z" fill="#02489F"/>
<path d="M464.948 -1088.48L465.386 -1085.76L606.941 -208.782L1260.75 437.499L527.277 727.524L237.36 1501.2L235.513 1499.02L-357.916 800.751L-1190.87 632.602L-825.309 -90.34L-1050.19 -967.922L-1047.65 -967.134L-229.029 -714.242L464.948 -1088.48ZM603.856 -207.352L603.746 -208.023L462.526 -1082.95L-228.248 -710.461L-228.884 -710.657L-1045.64 -962.956L-821.784 -89.4144L-1185.62 630.141L-356.509 797.504L-356.049 798.041L236.008 1494.7L524.584 724.616L525.144 724.392L1254.62 435.953L603.856 -207.352Z" fill="#02489F"/>
<path d="M455.136 -1061.92L603.559 -204.83L1234.75 432.691L1232.57 433.595L524.708 725.54L232.501 1474.71L230.703 1472.64L-354.749 798.595L-1166.53 624.078L-1165.47 621.907L-819.409 -86.6336L-1028.91 -943.655L-227.145 -706.792L455.136 -1061.92ZM600.522 -203.422L600.412 -204.061L452.783 -1056.56L-226.39 -703.035L-226.994 -703.212L-1024.46 -938.804L-815.92 -85.7149L-816.176 -85.1833L-1161.37 621.675L-353.324 795.39L-352.879 795.905L231.187 1468.4L522.056 722.677L522.59 722.46L1228.81 431.183L600.522 -203.422Z" fill="#02489F"/>
<path d="M445.316 -1035.37L600.177 -200.88L1208.78 427.863L522.136 723.565L227.635 1448.22L-351.535 796.478L-1142.13 615.576L-813.514 -82.9064L-1007.63 -919.364L-1005.27 -918.696L-225.307 -699.305L445.316 -1035.37ZM597.216 -199.514L597.107 -200.122L443.073 -1030.17L-224.503 -695.645L-225.084 -695.805L-1003.26 -914.694L-810.057 -82.0187L-810.297 -81.5089L-1137.2 613.261L-350.162 793.319L226.366 1442.1L519.568 720.718L520.071 720.502L1203.04 426.399L597.216 -199.514Z" fill="#02489F"/>
<path d="M435.498 -1008.8L596.795 -196.929L1182.74 423.053L519.526 721.535L222.734 1421.68L221.035 1419.82L-348.406 794.359L-1117.82 607.083L-807.596 -79.1911L-986.342 -895.11L-984.091 -894.545L-223.44 -691.835L435.498 -1008.8ZM593.854 -195.566L593.745 -196.142L433.325 -1003.79L-222.689 -688.222L-223.229 -688.368L-982.114 -890.55L-804.197 -78.3268L-804.413 -77.8437L-1112.98 604.826L-347.05 791.252L-346.641 791.698L221.535 1415.79L517.005 718.803L517.474 718.598L1177.2 421.651L593.854 -195.566Z" fill="#02489F"/>
<path d="M425.688 -982.246L593.405 -192.993L1156.78 418.252L1154.91 419.139L517.005 719.601L217.925 1395.23L216.275 1393.47L-345.208 792.213L-1093.42 598.544L-1092.57 596.57L-801.675 -75.4897L-965.01 -870.812L-962.835 -870.268L-221.576 -684.373L425.688 -982.246ZM590.521 -191.637L590.412 -192.182L423.551 -977.36L-220.862 -680.799L-221.375 -680.921L-960.971 -866.407L-798.331 -74.6297L-798.531 -74.1683L-1088.77 596.382L-343.895 789.198L-343.511 789.608L216.713 1389.48L514.447 716.893L514.893 716.684L1151.36 416.898L590.521 -191.637Z" fill="#02489F"/>
<path d="M415.874 -955.689L416.343 -953.459L590.025 -189.035L1130.8 413.441L514.452 717.644L213.076 1368.77L-342.01 790.106L-1069.04 590.051L-1068.24 588.144L-795.726 -71.756L-943.708 -846.506L-941.623 -846.017L-219.718 -676.898L415.874 -955.689ZM587.185 -187.708L587.074 -188.21L413.805 -950.964L-218.988 -673.408L-219.46 -673.517L-939.769 -842.295L-792.462 -70.9361L-1064.55 587.94L-340.746 787.126L-340.382 787.507L211.875 1363.22L511.913 715.008L512.32 714.804L1125.54 412.174L587.185 -187.708Z" fill="#02489F"/>
<path d="M406.064 -929.133L406.576 -927.026L586.651 -185.077L1104.82 408.623L1103.14 409.496L511.876 715.643L208.21 1342.26L-338.843 787.961L-1044.69 581.534L-789.84 -68.0617L-922.406 -822.272L-920.411 -821.836L-217.861 -669.432L406.064 -929.133ZM583.824 -183.761L583.714 -184.231L404.033 -924.538L-217.162 -665.973L-217.605 -666.069L-918.592 -818.164L-786.6 -67.2463L-786.76 -66.8335L-1040.33 579.491L-337.557 785.028L-337.212 785.381L207.086 1336.9L509.425 712.999L509.806 712.803L1099.77 407.333L583.824 -183.761Z" fill="#02489F"/>
<path d="M396.251 -902.575L396.769 -900.567L583.267 -181.126L1078.84 403.813L1077.25 404.672L509.305 713.658L203.349 1315.77L-335.664 785.827L-1020.35 572.985L-1019.69 571.214L-783.923 -64.3584L-901.133 -797.977L-899.232 -797.603L-215.988 -661.966L396.251 -902.575ZM580.517 -179.851L580.411 -180.283L394.314 -898.15L-215.281 -658.587L-215.691 -658.665L-897.424 -794.07L-780.738 -63.5473L-780.886 -63.1634L-1016.12 571.049L-334.406 782.945L-334.086 783.262L202.288 1310.57L506.9 711.067L1073.94 402.532L580.517 -179.851Z" fill="#02489F"/>
<path d="M386.442 -876.019L579.909 -177.19L1052.87 398.99L1051.36 399.851L506.709 711.691L198.449 1289.31L197.011 1287.94L-332.523 783.72L-995.992 564.531L-995.401 562.827L-778.004 -60.6448L-879.796 -773.735L-877.979 -773.408L-214.124 -654.505L386.442 -876.019ZM577.195 -175.909L577.09 -176.309L384.551 -871.773L-213.451 -651.207L-213.824 -651.278L-876.251 -769.916L-774.872 -59.8501L-774.996 -59.4929L-991.854 562.584L-331.246 780.867L-330.95 781.148L197.436 1284.28L504.375 709.125L504.669 708.925L1048.12 397.776L577.195 -175.909Z" fill="#02489F"/>
<path d="M376.624 -849.469L377.157 -847.671L576.511 -173.23L1026.86 394.155L1025.47 394.996L504.153 709.664L193.623 1262.81L192.236 1261.53L-329.309 781.572L-971.6 555.997L-772.088 -56.9307L-858.505 -749.463L-856.785 -749.186L-212.258 -647.036L376.624 -849.469ZM573.855 -171.987L573.755 -172.349L374.819 -845.344L-211.573 -643.766L-211.918 -643.826L-855.043 -745.766L-769.009 -56.1836L-769.114 -55.8603L-967.677 554.165L-328.065 778.763L-327.789 779.015L192.597 1257.94L501.831 707.163L502.096 706.983L1022.29 392.982L573.855 -171.987Z" fill="#02489F"/>
<path d="M366.786 -822.948L367.34 -821.226L573.128 -169.278L1000.89 389.353L999.585 390.179L501.592 707.693L188.764 1236.3L-326.136 779.411L-947.251 547.462L-946.781 545.904L-766.17 -53.2281L-837.207 -725.196L-835.572 -724.966L-210.404 -639.568L366.786 -822.948ZM570.497 -168.106L570.4 -168.417L365.071 -818.936L-209.727 -636.357L-210.031 -636.402L-833.879 -721.618L-763.147 -52.454L-943.467 545.703L-324.93 776.701L-324.685 776.922L187.806 1231.68L499.314 705.257L499.558 705.091L996.497 388.294L570.497 -168.106Z" fill="#02489F"/>
<path d="M357.013 -796.354L569.748 -165.328L974.918 384.555L499.033 705.733L183.913 1209.85L182.629 1208.75L-322.948 777.314L-922.883 538.979L-760.25 -49.5146L-815.905 -700.929L-814.367 -700.749L-208.535 -632.1L357.013 -796.354ZM567.187 -164.13L355.328 -792.53L-207.873 -628.941L-208.14 -628.979L-812.716 -697.509L-757.273 -48.7617L-757.347 -48.5013L-919.228 537.276L-321.751 774.652L182.968 1205.35L496.803 703.306L497.011 703.164L970.699 383.472L567.187 -164.13Z" fill="#02489F"/>
<path d="M347.191 -769.811L347.732 -768.323L566.372 -161.382L948.95 379.753L947.818 380.524L496.467 703.755L179.026 1183.33L-319.799 775.148L-898.551 530.434L-898.195 529.016L-754.34 -45.8072L-794.613 -676.669L-206.674 -624.637L347.191 -769.811ZM563.847 -160.208L563.761 -160.443L345.574 -766.118L-206.02 -621.536L-206.253 -621.555L-791.518 -673.342L-751.41 -45.0635L-751.471 -44.844L-895.001 528.824L-318.618 772.539L-318.417 772.696L178.143 1179.03L494.274 701.397L494.453 701.275L944.895 378.758L563.847 -160.208Z" fill="#02489F"/>
<path d="M337.382 -743.266L562.963 -157.411L922.956 374.971L921.934 375.75L493.909 701.783L174.203 1156.89L173.027 1155.98L-316.594 773.061L-874.167 521.961L-873.863 520.62L-748.433 -42.0952L-773.319 -652.397L-771.942 -652.286L-204.81 -617.175L337.382 -743.266ZM919.02 373.905L560.485 -156.322L335.834 -739.703L-204.166 -614.119L-204.356 -614.136L-770.336 -649.203L-745.566 -41.3509L-745.607 -41.1653L-870.785 520.381L-315.456 770.45L-315.294 770.581L173.321 1152.72L491.733 699.435L491.877 699.338L919.02 373.905Z" fill="#02489F"/>
<path d="M327.572 -716.722L328.107 -715.429L559.616 -153.486L897.023 370.143L491.343 699.804L169.344 1130.42L-313.409 770.932L-849.794 513.491L-849.552 512.214L-742.503 -38.3916L-752.019 -628.143L-750.754 -628.103L-202.949 -609.714L327.572 -716.722ZM893.233 369.199L557.191 -152.318L557.103 -152.447L326.079 -713.293L-202.301 -606.713L-202.455 -606.724L-749.139 -625.069L-739.675 -37.6733L-739.71 -37.5239L-846.546 511.93L-312.3 768.372L-312.162 768.467L168.496 1126.4L489.202 697.506L489.324 697.423L893.233 369.199Z" fill="#02489F"/>
<path d="M317.768 -690.183L318.295 -688.978L556.232 -149.535L871.055 365.341L870.204 366.078L488.793 697.846L164.494 1103.94L163.436 1103.2L-310.229 768.797L-825.456 504.953L-736.599 -34.6796L-730.733 -603.879L-729.555 -603.873L-201.088 -602.251L317.768 -690.183ZM867.39 364.395L553.808 -148.398L553.744 -148.491L316.325 -686.881L-200.483 -599.253L-200.594 -599.262L-727.988 -600.879L-733.812 -33.9754L-733.833 -33.867L-822.34 503.492L-309.141 766.282L-309.042 766.351L163.666 1100.08L486.668 695.558L486.754 695.5L867.39 364.395Z" fill="#02489F"/>
<path d="M307.959 -663.637L308.476 -662.54L552.89 -145.526L845.083 360.501L486.169 695.888L159.629 1077.49L-307.119 766.648L-801.112 496.455L-800.977 495.313L-730.69 -31.0537L-709.448 -579.632L-708.405 -579.671L-199.288 -594.819L307.959 -663.637ZM841.561 359.626L550.532 -144.414L306.578 -660.461L-198.604 -591.874L-198.655 -591.84L-706.759 -576.731L-727.916 -30.3084L-798.07 495.054L-306.043 764.163L158.838 1073.75L484.1 693.666L841.561 359.626Z" fill="#02489F"/>
<path d="M298.146 -637.1L298.654 -636.093L549.477 -141.639L819.089 355.717L483.641 693.884L154.778 1051.02L153.846 1050.44L-303.9 764.551L-776.76 487.95L-776.655 486.902L-724.768 -27.2898L-688.148 -555.366L-197.362 -587.327L298.146 -637.1ZM815.728 354.848L547.184 -140.539L296.838 -634.047L-196.775 -584.463L-685.59 -552.627L-722.071 -26.6089L-773.855 486.579L-302.843 762.099L154.011 1047.43L481.563 691.711L815.728 354.848Z" fill="#02489F"/>
<path d="M288.342 -610.56L546.093 -137.719L793.154 350.902L792.554 351.562L481.111 691.881L149.92 1024.55L149.073 1024.07L-300.665 762.482L-752.411 479.445L-752.346 478.478L-718.862 -23.5274L-666.882 -531.13L-665.971 -531.225L-195.48 -579.879L288.342 -610.56ZM789.896 350.078L543.805 -136.644L287.038 -607.594L-194.901 -577.042L-664.402 -528.475L-716.198 -22.8653L-749.616 478.129L-299.648 760.016L149.188 1021.1L479.093 689.719L789.896 350.078Z" fill="#02489F"/>
<path d="M278.545 -584.032L542.773 -133.681L767.187 346.082L766.664 346.701L478.533 689.925L478.476 689.964L145.05 998.098L-297.611 760.279L-728.079 470.956L-728.054 470.069L-712.954 -19.8459L-712.941 -19.9182L-645.575 -506.855L-644.759 -506.981L-193.651 -572.423L-193.601 -572.457L278.545 -584.032ZM540.474 -132.683L277.321 -581.194L-193.053 -569.62L-643.217 -504.316L-710.319 -19.1955L-725.372 469.679L-296.492 757.933L144.357 994.771L476.542 687.787L764.065 345.302L540.474 -132.683Z" fill="#02489F"/>
<path d="M268.739 -557.499L269.227 -556.782L539.369 -129.81L539.442 -129.702L741.256 341.255L740.808 341.844L476.02 687.975L475.92 688.043L140.252 971.648L139.515 971.29L-294.36 758.213L-294.429 758.113L-703.72 462.447L-703.729 461.634L-707.041 -16.1389L-707.018 -16.2595L-624.297 -482.605L-623.565 -482.746L-191.798 -564.944L-191.68 -564.94L268.739 -557.499ZM537.133 -128.749L267.535 -554.801L-191.188 -562.201L-621.983 -480.193L-704.442 -15.4954L-701.143 461.227L-293.331 755.843L139.532 968.435L474.003 685.844L738.219 340.522L537.133 -128.749Z" fill="#02489F"/>
<path d="M535.997 -125.869L536.105 -125.712L715.276 336.469L714.9 337.009L473.447 685.957L473.311 686.05L135.384 945.149L134.722 944.855L-291.154 756.058L-291.307 755.941L-679.388 453.952L-701.106 -12.6084L-603.002 -458.37L-602.361 -458.523L-189.894 -557.524L-189.721 -557.516L258.935 -530.972L259.369 -530.334L535.997 -125.869ZM712.381 335.745L533.774 -124.806L257.79 -528.356L-189.335 -554.778L-600.821 -456.015L-698.57 -11.7959L-676.892 452.766L-290.168 753.749L134.702 942.098L471.466 683.896L712.381 335.745Z" fill="#02489F"/>
<path d="M532.607 -121.901L532.749 -121.693L689.33 331.665L689.018 332.161L470.865 684.013L470.686 684.135L130.513 918.73L129.921 918.492L-287.985 753.995L-288.179 753.834L-655.048 445.446L-695.243 -8.72943L-695.183 -8.94881L-581.742 -434.116L-581.181 -434.278L-188.069 -550.056L-187.842 -550.031L249.108 -504.424L249.489 -503.865L532.607 -121.901ZM686.536 330.966L530.442 -120.877L248.044 -501.905L-187.493 -547.363L-579.622 -431.866L-692.705 -8.09736L-652.664 444.295L-287.056 751.663L129.846 915.795L468.892 681.978L686.536 330.966Z" fill="#02489F"/>
<path d="M529.268 -117.98L529.355 -117.683L663.381 326.859L663.133 327.312L468.31 682.048L468.088 682.199L125.682 892.311L125.161 892.131L-284.812 751.895L-630.695 436.991L-630.764 436.429L-689.359 -5.01567L-689.277 -5.28103L-560.492 -409.89L-560.023 -410.063L-186.21 -542.614L-185.919 -542.571L239.335 -477.917L239.703 -477.453L529.268 -117.98ZM660.681 326.19L527.085 -116.935L238.307 -475.485L-185.622 -539.918L-558.436 -407.734L-686.827 -4.37871L-628.408 435.853L-283.845 749.558L125.064 889.448L466.416 680.053L660.681 326.19Z" fill="#02489F"/>
<path d="M525.907 -114.044L526 -113.677L637.441 322.05L465.768 680.086L465.496 680.272L120.831 865.815L120.387 865.687L-281.618 749.732L-281.892 749.467L-606.383 428.461L-606.472 427.976L-683.451 -1.3154L-683.334 -1.63641L-539.19 -385.635L-184.35 -535.17L-184.008 -535.099L229.538 -451.4L229.879 -451.024L525.907 -114.044ZM634.835 321.412L523.732 -113.003L228.528 -449.033L-183.767 -532.482L-537.226 -383.552L-680.917 -0.69049L-604.152 427.393L-280.703 747.472L120.209 863.07L463.854 678.031L634.835 321.412Z" fill="#02489F"/>
<path d="M522.552 -110.101L611.503 317.259L611.358 317.6L463.218 678.128L462.869 678.293L115.966 839.39L115.582 839.305L-278.484 747.649L-582.054 419.971L-582.147 419.573L-677.562 2.38635L-677.4 2.02392L-517.954 -361.368L-517.635 -361.532L-182.495 -527.735L-182.085 -527.626L219.733 -424.88L220.025 -424.575L522.552 -110.101ZM608.982 316.636L520.372 -109.067L218.749 -422.583L-181.927 -525.037L-516.019 -359.359L-675.022 3.00637L-579.897 418.933L-277.505 745.345L115.378 836.726L461.291 676.083L608.982 316.636Z" fill="#02489F"/>
<path d="M519.202 -106.17L519.281 -105.668L585.561 312.442L585.463 312.729L460.669 676.183L460.245 676.346L111.093 812.92L110.792 812.863L-275.318 745.548L-275.654 745.147L-557.726 411.474L-671.671 6.08901L-671.456 5.6805L-496.652 -337.163L-496.415 -337.324L-180.652 -520.32L209.946 -398.369L210.189 -398.136L519.202 -106.17ZM583.126 311.855L517.017 -105.112L209.007 -396.145L-180.045 -517.596L-494.79 -335.199L-669.13 6.70907L-555.654 410.482L-274.351 743.242L110.548 810.364L458.739 674.119L583.126 311.855Z" fill="#02489F"/>
<path d="M515.848 -102.24L515.906 -101.66L559.637 307.641L559.569 307.865L458.124 674.232L106.265 786.521L106.039 786.497L-272.152 743.453L-272.489 742.958L-533.398 402.983L-533.477 402.744L-665.798 9.80018L-665.531 9.34546L-475.357 -312.948L-475.177 -313.07L-178.733 -512.867L-178.197 -512.666L200.148 -371.855L200.342 -371.693L515.848 -102.24ZM557.298 307.04L513.648 -101.172L199.219 -369.722L-178.181 -510.148L-473.594 -311.053L-663.224 10.4079L-531.378 402.007L-271.19 741.077L105.738 784.037L456.184 672.154L557.298 307.04Z" fill="#02489F"/>
<path d="M512.504 -98.305L512.534 -97.6438L533.703 302.846L533.669 302.996L455.603 672.276L455.027 672.416L101.392 760.059L101.238 760.048L-269.014 741.336L-269.404 740.762L-509.108 394.456L-509.2 394.32L-659.968 13.468L-659.632 12.9765L-454.125 -288.699L-454.003 -288.782L-176.917 -505.437L-176.323 -505.181L190.362 -345.348L190.492 -345.248L512.504 -98.305ZM531.384 302.275L510.271 -97.2252L189.469 -343.239L-176.319 -502.696L-452.346 -286.857L-657.336 14.0991L-507.083 393.518L-267.96 738.971L100.913 757.615L453.622 670.183L531.384 302.275Z" fill="#02489F"/>
<path d="M509.164 -94.3715L509.162 -93.6355L507.782 298.046L507.766 298.13L453.077 670.335L452.412 670.452L96.5476 733.632L96.4659 733.635L-265.852 739.246L-266.286 738.608L-484.824 385.989L-484.873 385.917L-654.112 17.1827L-653.699 16.6495L-432.894 -264.458L-432.829 -264.502L-175.077 -498.042L-174.417 -497.705L180.568 -318.844L180.612 -318.78L509.164 -94.3715ZM505.525 297.505L506.903 -93.2721L179.704 -316.787L-174.465 -495.249L-431.166 -262.707L-651.4 17.8227L-482.847 385.073L-264.837 736.887L96.0237 731.292L451.052 668.209L505.525 297.505Z" fill="#02489F"/>
<path d="M505.837 -90.4479L505.782 -89.6344L481.831 293.253L450.558 668.409L449.794 668.488L91.7419 707.25L-262.672 737.217L-460.445 377.527L-648.178 20.8749L-647.674 20.3217L-411.601 -240.261L-173.231 -490.633L-172.498 -490.219L170.762 -292.355L505.837 -90.4479ZM448.475 666.228L479.637 292.711L503.513 -89.3166L169.924 -290.336L-172.583 -487.758L-409.945 -238.461L-645.476 21.5318L-458.569 376.617L-261.634 734.736L91.2132 704.903L448.475 666.228Z" fill="#02489F"/>
<path d="M502.516 -86.528L502.395 -85.6273L455.933 288.509L448.018 666.498L447.15 666.533L86.8349 680.843L-259.498 735.181L-259.923 734.295L-436.162 369.017L-642.319 24.6289L-641.681 24.0262L-390.26 -216.053L-171.387 -483.242L-170.598 -482.73L161.041 -265.817L502.516 -86.528ZM445.9 664.236L453.766 287.991L500.123 -85.36L160.215 -263.828L-170.734 -480.266L-388.667 -214.315L-639.54 25.2443L-434.358 368.093L-258.473 732.604L86.3113 678.535L445.9 664.236Z" fill="#02489F"/>
<path d="M499.205 -82.6154L499.017 -81.6275L430.018 283.671L445.539 664.565L444.56 664.529L82.0495 654.427L-256.368 733.091L-411.851 360.56L-636.523 28.2564L-635.793 27.6649L-369.124 -191.844L-169.539 -475.865L151.205 -239.361L499.205 -82.6154ZM443.3 662.218L427.867 283.131L427.897 283.006L496.711 -81.4104L150.383 -237.395L-168.873 -472.762L-367.457 -190.104L-367.535 -190.05L-633.592 28.9256L-410.014 359.623L-409.936 359.738L-255.231 730.386L81.6002 652.088L81.718 652.092L443.3 662.218Z" fill="#02489F"/>
<path d="M495.911 -78.766L495.609 -77.6688L404.128 278.858L443.038 662.649L77.2063 628.019L-253.252 731.074L-253.658 729.923L-387.593 352.088L-630.723 31.9673L-629.863 31.3818L-347.894 -167.602L-167.696 -468.494L-166.775 -467.726L141.42 -212.873L495.911 -78.766ZM440.71 660.215L402.009 278.381L402.063 278.198L493.311 -77.4253L140.612 -210.917L-166.956 -465.252L-346.229 -165.913L-627.628 32.6926L-385.732 351.187L-385.662 351.382L-252.071 728.265L76.6713 625.77L76.8615 625.788L440.71 660.215Z" fill="#02489F"/>
<path d="M492.611 -74.8002L492.228 -73.6372L378.226 274.062L440.554 660.76L439.349 660.531L72.3577 601.623L-250.089 729.022L-363.262 343.605L-624.876 35.6427L-623.877 35.0462L-326.627 -143.41L-165.872 -461.145L131.633 -186.4L492.611 -74.8002ZM438.066 658.215L376.114 273.549L376.198 273.302L489.878 -73.4532L130.833 -184.448L130.627 -184.644L-165.094 -457.74L-324.989 -141.714L-325.197 -141.572L-621.658 36.4102L-361.441 342.721L-361.361 342.992L-248.871 726.084L71.8393 599.352L72.0995 599.396L438.066 658.215Z" fill="#02489F"/>
<path d="M489.343 -70.9021L352.335 269.275L438.093 658.882L436.722 658.578L67.5228 575.223L-246.951 727.004L-247.295 725.56L-338.962 335.129L-619.085 39.3211L-305.415 -119.184L-164.03 -453.811L-162.976 -452.725L121.864 -159.909L489.343 -70.9021ZM435.478 656.151L350.202 268.776L350.327 268.481L486.438 -69.4693L121.044 -157.955L120.799 -158.208L-163.219 -450.187L-303.739 -117.524L-303.99 -117.353L-615.64 40.1441L-337.149 334.219L-337.068 334.552L-245.662 723.892L67.0071 572.972L67.3301 573.046L435.478 656.151Z" fill="#02489F"/>
<path d="M486.083 -67.0162L485.426 -65.6557L326.412 264.492L435.634 657.06L62.6728 548.87L-243.817 725.078L-314.681 326.648L-613.319 42.9994L-611.971 42.438L-284.151 -95.0122L-162.203 -446.506L-161.055 -445.19L112.117 -133.41L486.083 -67.0162ZM432.86 654.081L324.329 263.959L324.492 263.628L482.949 -65.4586L111.278 -131.485L110.995 -131.806L-161.347 -442.662L-282.508 -93.3083L-282.853 -93.168L-609.663 43.8563L-312.865 325.757L-312.789 326.146L-242.447 721.668L62.1661 546.57L62.5448 546.68L432.86 654.081Z" fill="#02489F"/>
<path d="M482.861 -63.14L300.541 259.691L433.209 655.178L57.8421 522.434L-240.713 723.029L-240.919 721.186L-290.391 318.177L-607.579 46.669L-606.019 46.1415L-262.911 -70.8175L-160.372 -439.23L102.293 -106.947L482.861 -63.14ZM430.169 652.023L298.395 259.19L298.61 258.812L479.487 -61.4718L101.51 -105.018L-159.433 -435.032L-261.27 -69.1016L-261.67 -68.9655L-603.616 47.5902L-288.56 317.277L-239.225 719.423L57.3287 520.171L430.169 652.023Z" fill="#02489F"/>
<path d="M479.646 -59.2943L478.618 -57.7233L274.655 254.904L430.803 653.373L53.0083 496.06L-237.621 721.12L-266.105 309.704L-601.865 50.3196L-600.085 49.8526L-241.682 -46.62L-158.573 -431.979L92.5285 -80.4875L479.646 -59.2943ZM427.479 649.908L272.481 254.392L272.751 253.987L475.966 -57.4597L91.7116 -78.5145L91.3991 -78.9733L-157.517 -427.41L-239.972 -44.9096L-240.44 -44.78L-597.51 51.3092L-264.248 308.828L-264.211 309.359L-235.96 717.198L52.5117 493.806L53.002 494.018L427.479 649.908Z" fill="#02489F"/>
<path d="M469.467 -54.6391L268.363 253.439L421.44 644.241L419.582 643.47L50.9442 489.9L-234.109 710.565L-261.989 307.09L-591.244 52.6668L-237.985 -42.3491L-156.413 -420.249L-155.181 -418.518L89.7957 -75.5098L469.467 -54.6391ZM418.178 640.838L266.223 252.945L266.486 252.546L465.832 -52.8458L88.9955 -73.5586L88.6831 -74.0174L-155.375 -415.752L-236.349 -40.6403L-236.802 -40.5205L-586.954 53.638L-260.173 306.199L-260.141 306.723L-232.509 706.663L50.4356 487.644L50.9161 487.841L418.178 640.838Z" fill="#02489F"/>
<path d="M459.263 -50L458.276 -48.4776L262.077 251.989L412.079 635.105L48.8737 483.721L-230.621 699.982L-257.872 304.484L-580.62 55.0102L-234.286 -38.0701L-154.262 -408.526L87.057 -70.5193L459.263 -50ZM408.869 631.762L260.011 251.497L260.267 251.102L455.695 -48.2314L86.2708 -68.6092L-153.251 -404.084L-232.675 -36.3972L-233.128 -36.2774L-576.431 55.9871L-256.094 303.598L-256.055 304.117L-229.02 696.173L48.3801 481.518L48.8534 481.72L408.869 631.762Z" fill="#02489F"/>
<path d="M449.074 -45.3574L448.091 -43.859L255.775 250.512L402.723 625.97L400.924 625.223L46.8314 477.58L-227.091 689.457L-253.756 301.871L-569.998 57.3469L-230.582 -33.8024L-152.108 -396.802L84.3384 -65.5497L449.074 -45.3574ZM399.566 622.674L253.721 250.022L253.975 249.639L445.557 -43.6229L83.5401 -63.6418L83.2374 -64.0863L-151.109 -392.424L-229.004 -32.1484L-229.45 -32.0335L-565.869 58.3123L-251.995 301.007L-251.959 301.507L-225.539 685.683L46.3331 475.401L46.8016 475.596L399.566 622.674Z" fill="#02489F"/>
<path d="M438.873 -40.7179L437.876 -39.241L249.487 249.055L393.363 616.846L44.7718 471.428L-223.578 678.891L-223.705 676.963L-249.64 299.257L-559.385 59.6688L-557.697 59.222L-226.879 -29.5232L-149.944 -385.063L-148.766 -383.41L81.603 -60.5589L438.873 -40.7179ZM390.252 613.602L247.456 248.581L247.704 248.191L435.418 -39.0152L80.8259 -58.697L-148.996 -380.746L-225.326 -27.9051L-225.768 -27.783L-555.314 60.642L-247.913 298.406L-222.045 675.181L44.3003 469.272L44.7567 469.465L390.252 613.602Z" fill="#02489F"/>
<path d="M428.659 -36.111L243.199 247.598L384.005 607.711L42.7183 465.272L-220.062 668.375L-245.521 296.652L-548.744 62.0342L-547.087 61.5877L-223.183 -25.2506L-147.786 -373.332L78.8663 -55.5675L428.659 -36.111ZM380.921 604.491L241.178 247.096L241.425 246.718L425.283 -34.3995L78.1033 -53.7466L77.8152 -54.1695L-146.82 -369.11L-221.645 -23.654L-222.084 -23.5439L-544.762 62.9531L-243.82 295.808L-243.788 296.301L-218.561 664.698L42.2377 463.165L42.6892 463.35L380.921 604.491Z" fill="#02489F"/>
<path d="M418.486 -31.4407L417.555 -30.0198L236.898 246.127L374.638 598.58L372.926 597.867L40.6503 459.113L-216.575 657.792L-241.402 294.034L-538.12 64.3775L-219.478 -20.9765L-145.616 -361.611L-144.477 -360.015L76.1225 -50.5841L418.486 -31.4407ZM371.631 595.443L234.938 245.667L235.177 245.295L415.141 -29.7921L75.3832 -48.7899L75.0757 -49.2415L-144.701 -357.48L-217.978 -19.4059L-218.405 -19.2936L-534.18 65.2823L-239.78 293.212L-239.746 293.693L-215.116 654.175L40.1576 457.003L40.6043 457.182L371.631 595.443Z" fill="#02489F"/>
<path d="M408.286 -26.8021L407.372 -25.403L230.577 244.65L365.277 589.436L363.594 588.735L38.5937 452.948L-213.075 647.235L-213.202 645.401L-237.3 291.398L-527.512 66.6912L-215.78 -16.7056L-143.478 -349.866L73.3949 -45.5992L408.286 -26.8021ZM362.319 586.371L228.675 244.214L228.912 243.853L405.003 -25.1854L72.6624 -43.8412L72.3793 -44.257L-142.552 -345.796L-214.3 -15.1637L-214.72 -15.0563L-523.638 67.6206L-235.642 290.615L-211.61 643.719L38.1306 450.913L38.5701 451.096L362.319 586.371Z" fill="#02489F"/>
<path d="M398.111 -22.1692L397.209 -20.7991L224.335 243.184L355.918 580.312L36.5391 446.804L-209.595 636.713L-209.717 634.917L-233.165 288.814L-516.87 69.057L-212.078 -12.4255L-141.297 -338.149L70.6834 -40.6343L398.111 -22.1692ZM353.03 577.274L222.419 242.757L222.656 242.397L394.898 -20.5892L69.9748 -38.9029L69.7111 -39.29L-140.361 -334.127L-210.629 -10.9147L-211.037 -10.8049L-513.083 69.9512L-231.555 288.022L-231.523 288.483L-208.13 633.228L36.0835 444.795L36.5182 444.971L353.03 577.274Z" fill="#02489F"/>
<path d="M387.904 -17.5246L218.027 241.742L346.566 571.184L344.941 570.507L34.4825 440.64L-206.026 626.12L-206.169 624.37L-229.049 286.201L-506.221 71.3859L-504.669 70.9692L-208.38 -8.15348L-139.159 -326.404L67.9271 -35.6288L387.904 -17.5246ZM343.711 568.208L216.163 241.3L216.398 240.952L384.731 -15.9618L67.2253 -33.9336L-138.27 -322.465L-206.972 -6.65662L-502.485 72.2517L-227.465 285.416L-227.434 285.877L-204.63 622.735L34.0464 438.66L34.4689 438.834L343.711 568.208Z" fill="#02489F"/>
<path d="M377.706 -12.8782L211.732 240.278L337.2 562.053L32.4278 434.483L-202.546 615.585L-202.675 613.857L-224.936 283.587L-495.622 73.7364L-494.092 73.3344L-204.68 -3.87467L-137.002 -314.673L65.1917 -30.6504L377.706 -12.8782ZM334.398 559.124L209.905 239.843L210.132 239.499L374.59 -11.3544L64.5065 -28.9771L64.238 -29.3713L-136.123 -310.812L-203.258 -2.38758L-203.652 -2.28753L-491.956 74.6077L-223.373 282.817L-201.159 612.248L31.9969 432.542L32.4075 432.713L334.398 559.124Z" fill="#02489F"/>
<path d="M367.508 -8.2425L366.651 -6.94502L205.436 238.814L327.839 552.918L30.3597 428.325L-199.039 605.032L-199.153 603.325L-220.833 280.992L-484.999 76.0805L-483.507 75.6836L-200.98 0.393204L-134.837 -302.927L62.4742 -25.6422L367.508 -8.2425ZM325.074 550.058L203.63 238.397L203.855 238.065L364.453 -6.73858L61.7812 -24.0264L-133.986 -299.152L-199.597 1.82295L-199.983 1.9181L-481.439 76.8878L-219.268 280.209L-219.24 280.652L-197.661 601.743L29.934 426.422L30.3324 426.591L325.074 550.058Z" fill="#02489F"/>
<path d="M357.314 -3.60884L356.478 -2.32601L199.143 237.349L318.475 543.786L28.3069 422.168L-195.536 594.481L-195.63 592.803L-216.697 278.363L-474.396 78.3869L-197.283 4.66408L-132.693 -291.219L59.7189 -20.6812L357.314 -3.60884ZM315.772 540.957L197.381 236.933L197.599 236.607L354.314 -2.13194L59.0594 -19.0778L58.8055 -19.4505L-131.845 -287.494L-195.934 6.07493L-196.315 6.17726L-470.852 79.2474L-215.186 277.638L-215.163 278.074L-194.188 591.286L27.8962 420.317L28.2947 420.486L315.772 540.957Z" fill="#02489F"/>
<path d="M347.118 1.03879L192.85 235.886L309.118 534.651L26.2476 416.017L-192.044 583.899L-212.585 275.743L-463.744 80.7669L-193.581 8.94409L-130.565 -279.518L56.9664 -15.7303L347.118 1.03879ZM306.476 531.896L191.129 235.484L344.18 2.48386L56.3359 -14.1151L-129.71 -275.829L-192.263 10.324L-192.632 10.4286L-460.297 81.5779L-211.087 275.017L-190.71 580.776L25.8395 414.185L26.2259 414.352L306.476 531.896Z" fill="#02489F"/>
<path d="M336.923 5.67308L186.561 234.429L299.758 525.527L298.284 524.903L24.189 409.852L-188.522 573.378L-208.462 273.143L-453.137 83.1124L-189.885 13.2156L-128.383 -267.752L54.2612 -10.709L336.923 5.67308ZM297.155 522.798L184.857 234.005L334.04 7.09116L53.6131 -9.16587L53.369 -9.52424L-127.562 -264.176L-188.594 14.5404L-188.961 14.6329L-449.736 83.9021L-207.016 272.432L-206.995 272.848L-187.231 570.284L23.786 408.059L24.1676 408.219L297.155 522.798Z" fill="#02489F"/>
<path d="M326.733 10.3147L325.937 11.5177L180.268 232.964L290.428 516.371L288.969 515.769L22.1517 403.674L-184.996 562.802L-204.331 270.508L-442.505 85.3884L-186.192 17.4682L-126.225 -256.021L51.5195 -5.72561L326.733 10.3147ZM287.836 513.75L178.614 232.569L323.936 11.6742L50.9095 -4.21889L50.6654 -4.57732L-125.408 -252.527L-184.877 18.8289L-185.237 18.9166L-439.182 86.2318L-202.952 269.853L-202.929 270.257L-183.752 559.793L21.7374 401.941L22.114 402.094L287.836 513.75Z" fill="#02489F"/>
<path d="M316.531 14.9546L315.759 16.1309L174.003 231.481L281.029 507.252L279.586 506.672L20.0626 397.541L-181.503 552.27L-200.226 267.912L-431.871 87.7893L-430.516 87.4227L-182.481 21.7618L-124.067 -244.29L48.7759 -0.72981L316.531 14.9546ZM278.543 504.633L172.349 231.117L313.765 16.3138L48.1727 0.74075L47.9335 0.389489L-123.274 -240.832L-181.236 23.0653L-181.591 23.1602L-428.616 88.5636L-198.843 267.232L-198.819 267.636L-180.268 549.309L19.6844 395.816L20.0539 395.973L278.543 504.633Z" fill="#02489F"/>
<path d="M306.34 19.5959L167.679 230.036L271.685 498.138L18.0248 391.394L-178.009 541.694L-178.116 540.182L-196.108 265.306L-421.251 90.1254L-419.917 89.7734L-178.771 26.055L-121.91 -232.559L46.0549 4.23876L306.34 19.5959ZM269.249 495.578L166.091 229.659L303.624 20.921L45.4491 5.69012L45.2197 5.35323L-121.149 -229.195L-177.544 27.3179L-177.887 27.415L-418.052 90.8954L-194.753 264.645L-176.778 538.82L17.6251 389.683L17.9897 389.833L269.249 495.578Z" fill="#02489F"/>
<path d="M296.148 24.2313L161.388 228.573L262.313 488.993L15.9569 385.228L-174.489 531.166L-191.99 262.693L-410.622 92.4692L-409.322 92.1296L-175.075 30.3082L-119.764 -220.849L43.3134 9.2037L296.148 24.2313ZM259.976 486.471L159.836 228.203L160.028 227.915L293.482 25.5221L42.7341 10.6476L-118.978 -217.555L-173.889 31.5571L-174.225 31.6493L-407.469 93.1868L-190.662 262.04L-190.642 262.425L-173.301 528.321L15.5892 383.579L15.9418 383.728L259.976 486.471Z" fill="#02489F"/>
<path d="M285.951 28.8774L155.1 227.115L252.96 479.864L251.632 479.299L13.899 379.064L-170.979 520.611L-187.876 260.079L-399.995 94.8119L-171.369 34.5939L-117.591 -209.098L-116.736 -207.843L40.587 14.2082L285.951 28.8774ZM250.655 477.404L153.598 226.774L153.783 226.49L283.334 30.1775L39.9686 15.5947L39.7489 15.2721L-116.909 -205.879L-170.207 35.8069L-170.548 35.892L-396.944 95.5353L-186.576 259.446L-186.553 259.818L-169.817 517.837L13.5507 377.444L13.8985 377.585L250.655 477.404Z" fill="#02489F"/>
<path d="M275.756 33.5121L275.045 34.594L148.806 225.651L243.601 470.728L11.845 372.907L-167.448 510.043L-167.542 508.627L-183.754 257.461L-389.367 97.1434L-167.678 38.8588L-115.438 -197.374L37.8572 19.194L275.756 33.5121ZM241.334 468.337L147.314 225.293L147.503 225.016L273.248 34.7269L37.2987 20.5607L-114.728 -194.206L-166.538 40.0551L-166.86 40.1376L-386.395 97.8579L-182.484 256.847L-182.466 257.212L-166.316 507.331L11.5091 371.321L11.8448 371.459L241.334 468.337Z" fill="#02489F"/>
<path d="M265.557 38.1598L264.866 39.2079L142.511 224.188L234.235 461.598L9.78311 366.756L-163.968 499.509L-179.636 254.855L-378.742 99.4876L-163.979 43.1388L-113.281 -185.642L35.107 24.1522L265.557 38.1598ZM232.006 459.264L141.06 223.843L263.076 39.3671L34.57 25.5043L34.3601 25.196L-112.591 -182.565L-162.842 44.2847L-163.156 44.3623L-375.813 100.169L-178.363 254.261L-178.338 254.621L-162.848 496.857L9.43807 365.218L232.006 459.264Z" fill="#02489F"/>
<path d="M255.364 42.794L254.689 43.8203L136.219 222.723L224.879 452.461L7.72617 360.592L-160.467 488.94L-160.553 487.582L-175.525 252.234L-368.148 101.843L-160.322 47.3962L-111.122 -173.912L32.4104 29.1373L255.364 42.794ZM222.686 450.198L134.804 222.386L134.979 222.12L252.938 43.9744L31.8633 30.4437L-110.43 -170.909L-159.192 48.5471L-159.502 48.6318L-365.28 102.513L-174.305 251.655L-174.284 252.008L-159.406 486.37L7.38437 359.135L7.70082 359.277L222.686 450.198Z" fill="#02489F"/>
<path d="M245.186 47.4262L129.928 221.266L215.511 443.33L5.66292 354.44L-156.95 478.4L-171.408 249.628L-357.512 104.188L-356.356 103.884L-156.576 51.6845L-108.974 -162.176L-108.192 -161.029L29.6594 34.1569L245.186 47.4262ZM213.394 441.1L128.544 220.929L128.712 220.667L242.817 48.5675L29.1215 35.4152L28.9164 35.1142L-108.319 -159.243L-155.526 52.7951L-155.821 52.8701L-354.721 104.837L-170.214 249.056L-170.192 249.397L-155.891 475.874L5.3231 352.94L5.63954 353.081L213.394 441.1Z" fill="#02489F"/>
<path d="M234.973 52.075L123.638 219.802L206.161 434.201L3.60819 348.276L-153.453 467.836L-167.3 247L-346.895 106.498L-345.746 106.198L-152.876 55.9558L-106.776 -150.47L26.9434 39.1566L234.973 52.075ZM204.071 431.994L122.249 219.457L122.417 219.195L232.664 53.1965L26.4169 40.3547L-106.167 -147.59L-151.845 57.0378L-152.14 57.1128L-344.168 107.159L-166.135 246.447L-166.112 246.789L-152.408 465.382L3.29308 346.843L204.071 431.994Z" fill="#02489F"/>
<path d="M224.782 56.7179L117.343 218.339L196.79 425.064L195.64 424.577L1.54608 342.125L-149.935 457.297L-163.165 244.404L-336.241 108.854L-335.145 108.569L-149.181 60.2289L-104.655 -138.714L24.1859 44.1197L224.782 56.7179ZM194.782 422.948L116.038 218.01L116.204 217.76L222.523 57.8052L23.6591 45.2865L23.4638 44.9997L-104.06 -135.961L-148.173 61.2942L-148.461 61.3643L-333.614 109.478L-162.048 243.843L-162.03 244.177L-148.943 454.858L1.27915 340.701L1.5738 340.826L194.782 422.948Z" fill="#02489F"/>
<path d="M214.587 61.3524L213.969 62.2771L111.049 216.874L187.437 415.935L-0.526539 335.939L-146.425 446.742L-159.05 241.791L-325.607 111.192L-324.538 110.915L-145.461 64.5052L-102.497 -126.983L-101.774 -125.922L21.4569 49.1054L214.587 61.3524ZM185.48 413.878L109.767 216.562L109.926 216.318L212.395 62.415L20.9614 50.2719L-101.902 -124.261L-144.496 65.5373L-323.05 111.822L-157.952 241.263L-157.932 241.585L-145.438 444.402L-0.787949 334.585L-0.493312 334.71L185.48 413.878Z" fill="#02489F"/>
<path d="M204.356 66.011L104.741 215.42L178.066 406.828L-2.56641 329.804L-142.923 436.193L-142.996 434.993L-154.918 239.175L-314.941 113.549L-313.898 113.279L-141.778 68.7745L-100.347 -115.248L18.7218 54.0836L204.356 66.011ZM176.163 404.788L103.487 215.119L103.643 214.887L202.226 67.0417L18.2428 55.2283L18.0573 54.9559L-99.7766 -112.593L-140.827 69.7851L-141.096 69.8526L-312.475 114.168L-153.86 238.664L-153.845 238.979L-141.961 433.911L-2.85159 328.477L-2.569 328.599L176.163 404.788Z" fill="#02489F"/>
<path d="M194.198 70.6343L193.608 71.5083L98.4908 213.939L168.716 397.669L-4.60433 323.681L-139.41 425.639L-139.477 424.478L-150.814 236.572L-304.343 115.862L-303.327 115.6L-138.074 73.0545L-98.1786 -103.521L15.9711 59.0345L194.198 70.6343ZM166.835 395.676L97.2471 213.653L97.4034 213.421L192.111 71.6358L15.5234 60.1789L-97.6284 -100.957L-137.143 74.0364L-137.411 74.1039L-301.925 116.472L-149.752 236.1L-149.734 236.402L-138.499 423.434L-4.91101 322.369L-4.6333 322.484L166.835 395.676Z" fill="#02489F"/>
<path d="M183.999 75.2685L183.431 76.1278L92.1723 212.489L159.352 388.544L-6.68077 317.496L-135.909 415.077L-135.978 413.96L-146.703 233.958L-293.713 118.2L-292.723 117.945L-134.345 77.3015L-96.0288 -91.7976L13.2579 64.0486L183.999 75.2685ZM157.549 386.635L91.0005 212.186L91.1546 211.965L181.98 76.2765L12.8024 65.1353L12.6266 64.8773L-95.503 -89.27L-133.484 78.2577L-133.739 78.3155L-291.375 118.801L-145.681 233.472L-134.971 412.959L-7.00635 316.217L-6.74068 316.33L157.549 386.635Z" fill="#02489F"/>
<path d="M173.803 79.9142L173.246 80.7445L85.8598 210.995L149.995 379.407L-8.74561 311.336L-132.405 404.527L-142.576 231.346L-283.115 120.562L-282.151 120.315L-130.672 81.5991L-93.8555 -80.0463L-93.2208 -79.1144L10.5148 69.0431L173.803 79.9142ZM148.213 377.515L84.7483 210.703L84.8832 210.485L171.833 80.8568L10.0805 70.084L-93.3404 -77.6268L-129.78 82.5549L-130.029 82.6199L-280.793 121.153L-141.595 230.877L-141.58 231.16L-131.51 402.438L-9.00803 310.119L-8.74725 310.224L148.213 377.515Z" fill="#02489F"/>
<path d="M163.628 84.5789L163.117 85.3679L79.5868 209.561L140.631 370.277L139.677 369.878L-10.8077 305.166L-128.889 393.981L-138.455 228.741L-272.493 122.899L-271.555 122.659L-126.975 85.8721L-91.7183 -68.3308L7.7936 74.0253L163.628 84.5789ZM138.932 368.476L78.4778 209.288L78.6104 209.082L161.694 85.4658L7.35178 75.0398L7.19066 74.8032L-91.1941 -65.9595L-126.144 86.754L-126.386 86.8141L-270.299 123.441L-137.501 228.279L-137.491 228.556L-128.03 391.947L-11.06 303.994L138.932 368.476Z" fill="#02489F"/>
<path d="M153.41 89.1966L152.889 89.9713L73.2911 208.097L131.271 361.141L130.324 360.737L-12.8586 299.016L-125.387 383.419L-134.348 226.12L-261.876 125.248L-260.979 125.025L-123.276 90.1512L-89.5768 -56.6215L5.05017 79.0087L153.41 89.1966ZM129.63 359.394L72.2111 207.836L72.3437 207.63L151.536 90.095L4.59598 79.9896L-89.1037 -54.3099L-122.45 91.0259L-122.685 91.0811L-259.704 125.773L-133.417 225.685L-133.405 225.95L-124.541 381.458L-13.1106 297.876L-12.8618 297.979L129.63 359.394Z" fill="#02489F"/>
<path d="M143.217 93.8307L142.691 94.5983L67.004 206.639L121.948 351.993L-14.8459 292.815L-121.882 372.869L-130.249 223.528L-251.282 127.571L-250.385 127.349L-119.571 94.4176L-87.4026 -44.8698L2.30282 83.9653L143.217 93.8307ZM120.32 350.31L65.9553 206.378L66.0856 206.184L141.419 94.6875L1.91117 84.9456L1.75982 84.7233L-86.9255 -42.6448L-118.779 95.2734L-249.148 128.102L-129.323 223.086L-129.315 223.343L-121.087 370.942L-15.1816 291.721L-14.9401 291.829L120.32 350.31Z" fill="#02489F"/>
<path d="M133.026 98.4734L132.49 99.2266L60.709 205.176L112.548 342.875L-16.963 286.691L-118.374 362.316L-126.114 220.901L-240.611 129.937L-239.724 129.7L-115.896 98.6617L-85.246 -33.1382L-0.413259 88.9734L133.026 98.4734ZM111.012 341.235L59.6965 204.921L59.8196 204.733L131.264 99.2745L-0.812728 89.8961L-0.95921 89.681L-84.7865 -30.9852L-115.104 99.5175L-115.327 99.575L-238.589 130.427L-125.258 220.464L-125.243 220.717L-117.582 360.476L-17.2047 285.628L-16.98 285.726L111.012 341.235Z" fill="#02489F"/>
<path d="M122.822 103.113L122.346 103.816L54.4139 203.713L103.186 333.752L-19.032 280.576L-114.866 351.762L-121.985 218.235L-229.982 132.288L-112.177 102.97L-83.0894 -21.4069L-3.15128 93.9646L122.822 103.113ZM101.703 332.159L53.4229 203.443L53.5437 203.266L121.149 103.875L-3.53218 94.8222L-3.67865 94.6071L-82.6475 -19.3259L-111.436 103.766L-228.036 132.757L-121.166 217.897L-114.071 349.972L-19.2258 279.49L-19.006 279.582L101.703 332.159Z" fill="#02489F"/>
<path d="M112.638 107.762L112.173 108.435L48.1187 202.26L93.8288 324.615L92.998 324.257L-21.0923 274.391L-111.362 341.212L-111.41 340.31L-117.889 215.654L-219.369 134.609L-108.44 107.224L-80.9355 -9.68399L-5.8943 98.9594L112.638 107.762ZM92.3676 323.039L47.1736 202.011L111.003 108.518L-6.25368 99.8023L-6.37574 99.623L-80.4845 -7.65111L-107.737 108.025L-107.941 108.08L-217.481 135.117L-117.065 215.293L-117.053 215.526L-110.613 339.494L-21.2874 273.412L92.3676 323.039Z" fill="#02489F"/>
<path d="M102.445 112.397L41.8348 200.791L84.4809 315.506L-23.1554 268.233L-107.85 330.658L-107.898 329.788L-113.738 213.092L-208.726 136.974L-104.77 111.516L-78.7849 2.03267L-8.62154 103.914L102.445 112.397ZM83.0877 313.999L40.9186 200.555L41.0372 200.39L100.866 113.126L-8.96889 104.759L-78.3635 3.99123L-104.082 112.264L-206.918 137.411L-112.97 212.695L-107.16 329.023L-23.3599 267.271L-23.1522 267.36L83.0877 313.999Z" fill="#02489F"/>
<path d="M92.2647 117.022L35.541 199.327L75.108 306.348L-25.2091 262.076L-104.348 320.109L-104.388 319.265L-109.643 210.45L-198.112 139.284L-197.374 139.106L-101.041 115.775L-76.6266 13.7951L-11.3654 108.91L92.2647 117.022ZM73.7806 304.923L34.661 199.097L34.7723 198.938L90.7257 117.734L-11.6916 109.709L-11.8185 109.523L-76.2302 15.6553L-100.406 116.508L-100.602 116.558L-196.357 139.736L-108.884 210.101L-108.875 210.315L-103.647 318.519L-25.4061 261.14L-25.2056 261.235L73.7806 304.923Z" fill="#02489F"/>
<path d="M82.0515 121.678L81.632 122.278L29.2526 197.826L65.7461 297.224L-27.2713 255.924L-100.866 309.562L-100.896 308.763L-105.547 207.858L-187.514 141.634L-97.3963 120.081L-74.4823 25.5234L-14.101 113.92L82.0515 121.678ZM64.4818 295.861L28.4116 197.654L28.5158 197.499L80.5988 122.363L-14.4109 114.666L-14.5329 114.487L-74.0865 27.3211L-96.7329 120.763L-96.9152 120.803L-185.8 142.072L-104.793 207.502L-104.783 207.716L-100.163 308.023L-27.456 255.022L-27.2604 255.109L64.4818 295.861Z" fill="#02489F"/>
<path d="M71.849 126.317L22.9516 196.398L56.3804 288.093L55.6798 287.773L-29.3303 249.76L-97.3157 299.021L-101.392 205.258L-176.867 143.963L-176.181 143.8L-93.6721 124.333L-72.3033 37.2393L-16.8143 118.883L71.849 126.317ZM55.1669 286.758L22.1367 196.187L22.2458 196.04L70.4487 126.956L-17.1411 119.62L-17.2631 119.441L-71.9563 38.9653L-93.0689 125.003L-93.2464 125.051L-175.251 144.395L-100.664 204.878L-96.679 297.538L-29.5 248.91L-29.3212 248.988L55.1669 286.758Z" fill="#02489F"/>
<path d="M61.65 130.944L61.2588 131.494L16.6587 194.934L47.0232 278.957L46.3444 278.653L-31.3804 243.622L-93.8221 288.457L-97.2596 202.654L-166.211 146.349L-89.9413 128.655L-70.1007 49.0343L-69.6614 49.6794L-19.5072 123.845L61.65 130.944ZM45.8608 277.681L15.8799 194.73L15.9819 194.587L60.3096 131.563L-19.8727 124.555L-19.985 124.39L-69.8251 50.6094L-89.3967 129.239L-89.5719 129.274L-164.7 146.705L-96.6235 202.294L-93.1943 287.054L-31.5524 242.785L-31.3737 242.862L45.8608 277.681Z" fill="#02489F"/>
<path d="M51.4378 135.613L10.3715 193.477L37.6595 269.826L37.0168 269.529L-33.4471 237.444L-90.3207 277.889L-93.1729 199.998L-155.617 148.642L-86.2681 132.891L-67.9802 60.7076L-67.5603 61.3241L-22.2637 128.85L51.4378 135.613ZM36.5505 268.598L9.62885 193.28L9.72364 193.142L50.1909 136.2L-22.5286 129.523L-22.636 129.366L-67.6179 62.2868L-85.716 133.501L-154.127 149.044L-92.5193 199.71L-92.5174 199.897L-89.7114 276.55L-33.597 236.654L36.5505 268.598Z" fill="#02489F"/>
<path d="M41.2682 140.241L4.07672 192.014L28.2931 260.695L27.6794 260.41L-35.4875 231.278L-86.7977 267.325L-86.819 266.647L-89.0381 197.37L-144.983 151L-82.5563 137.173L-65.8113 72.4417L-25.0301 133.861L41.2682 140.241ZM27.2424 259.522L3.37508 191.83L3.46759 191.704L40.0353 140.787L-25.3028 134.477L-25.4102 134.319L-65.5412 73.9472L-82.0407 137.746L-82.1967 137.778L-143.575 151.374L-88.4347 197.117L-88.4305 197.292L-86.25 266.081L-35.6533 230.573L-35.4938 230.653L27.2424 259.522Z" fill="#02489F"/>
</g>
</g>
<defs>
<clipPath id="clip0_13_8573">
<rect width="420" height="649" fill="white" transform="translate(649) rotate(90)"/>
</clipPath>
<clipPath id="clip1_13_8573">
<rect width="3316.64" height="3215.97" fill="white" transform="translate(-181.156 -2061.84) rotate(45)"/>
</clipPath>
</defs>
</svg>
