<svg width="88" height="88" viewBox="0 0 88 88" fill="none" xmlns="http://www.w3.org/2000/svg">
<path d="M44.0213 75.7449C61.513 75.7449 75.6929 61.5538 75.6929 44.0482C75.6929 26.5426 61.513 12.3516 44.0213 12.3516C26.5295 12.3516 12.3496 26.5426 12.3496 44.0482C12.3496 61.5538 26.5295 75.7449 44.0213 75.7449Z" fill="url(#paint0_linear_13_89974)"/>
<path d="M44.0336 -0.0683594C19.7242 -0.0683594 0.0683594 19.6726 0.0683594 43.9316C0.0683594 68.1907 19.7937 87.9316 44.0336 87.9316C68.343 87.9316 87.9989 68.1907 87.9989 43.9316C87.9989 19.6726 68.343 -0.0683594 44.0336 -0.0683594ZM44.0336 78.7563C25.0028 78.7563 9.51429 63.325 9.51429 44.2097C9.51429 25.1639 24.9334 9.66308 44.0336 9.66308C63.1338 9.66308 78.5529 25.0944 78.5529 44.2097C78.4835 63.325 63.0644 78.7563 44.0336 78.7563Z" fill="url(#paint1_linear_13_89974)"/>
<path d="M58.828 56.2331C58.828 56.1636 58.828 56.0941 58.7586 56.0246C58.6197 55.677 58.4113 55.4685 58.1335 55.399C58.064 55.3295 57.9946 55.3295 57.9251 55.3295C57.9251 55.26 54.7996 54.9124 54.244 54.7734C54.244 54.7734 52.0909 54.6344 51.8825 54.5649C51.5352 54.4258 50.4934 54.4954 50.4239 54.4954C50.3545 54.4258 50.285 54.4258 50.2156 54.4258C50.0767 54.3563 49.7294 54.2868 49.5905 54.3563C49.5905 54.4258 49.521 54.4258 49.521 54.4954C49.4516 54.4954 49.4516 54.5649 49.4516 54.6344V54.7039C49.1737 55.1209 49.4516 55.677 49.3821 56.0941C48.757 56.2331 48.5486 55.6075 48.2708 55.26C48.2014 54.9124 48.3403 54.4258 48.2014 54.2173H47.9235C47.8541 54.1478 47.5763 54.1478 47.5068 54.2868V54.8429C47.4374 54.8429 47.5068 54.9819 47.4374 55.0514V55.1209C47.3679 55.3295 47.2984 55.538 47.2984 55.7465V55.8161C47.229 55.8856 47.229 56.0246 47.229 56.1636V56.2331C47.1595 56.3026 47.0901 56.3026 47.0206 56.3721C46.6039 56.0246 46.0482 55.7465 45.9788 54.9819V54.9124C46.0482 54.8429 45.9788 54.5649 46.0482 54.4258V54.3563C45.9788 54.2173 45.701 54.2868 45.4926 54.2868C45.3537 54.7039 45.2148 55.0514 45.2148 55.538C45.2148 55.677 45.2148 55.7465 45.2842 55.8161C45.3537 55.9551 45.4232 56.0941 45.3537 56.2331C45.0759 56.3721 44.7286 56.0941 44.4508 55.8856C44.034 55.6075 43.6173 55.3295 43.6868 54.7734V54.6344C43.6868 54.4954 43.6868 54.3563 43.6173 54.2868C43.5479 54.2868 43.3395 54.2173 43.27 54.3563H43.2006C43.0617 54.3563 42.7838 54.2868 42.7144 54.4258H42.6449C42.0198 54.4258 41.4642 54.6344 40.8391 54.6344C40.9086 53.7307 40.6307 53.1051 40.4224 52.41V52.3405C40.214 51.5064 40.0751 50.6028 39.9362 49.7687V49.6991C39.9362 49.6296 40.0056 49.4211 39.8667 49.4211V49.3516C39.8667 49.004 39.7973 48.6565 39.7278 48.3785V48.3089C39.7278 48.0309 39.7278 47.7529 39.6583 47.4748V47.4053C39.6583 47.2663 39.7278 47.0578 39.5889 47.0578V47.1273C39.5889 46.9187 39.6583 46.5712 39.5194 46.4322V46.3626C39.5194 46.0151 39.5889 45.5285 39.45 45.2505C39.45 45.2505 39.45 44.6944 39.45 44.6249V44.5554C39.45 44.4859 39.45 44.4164 39.45 44.3468V44.2773C39.45 43.9298 39.45 43.6517 39.45 43.3042V43.2347C39.45 43.1652 39.45 43.0957 39.45 43.0262V42.9566C39.45 42.8871 39.45 42.8176 39.45 42.8176V42.7481C39.45 42.6786 39.45 42.6786 39.45 42.6091V42.192C39.5194 42.053 39.5194 41.0104 39.5194 41.0104C39.5889 40.6628 39.6583 39.8982 39.6583 39.8982C39.7973 38.8555 40.0056 37.6044 40.214 36.7007C40.5613 34.8239 40.8391 34.0593 41.3947 32.3911C41.6726 31.557 42.1587 30.3058 42.506 29.5412C42.506 29.5412 42.506 29.5412 42.506 29.4716C42.5755 29.3326 42.6449 29.1241 42.7838 28.9156V28.8461C42.9227 28.707 42.9922 28.429 43.1311 28.2205V28.1509C43.27 28.0119 43.4089 27.8034 43.4784 27.5254V27.4558C43.6173 27.3168 43.6868 27.1778 43.7562 26.9693C43.7562 26.8998 43.8951 26.8998 43.8257 26.8303C43.8951 26.8303 43.9646 26.6912 43.9646 26.6217V26.5522C43.9646 26.5522 43.9646 26.4827 44.034 26.4827C44.5202 25.7876 44.8675 25.0925 45.2842 24.3974V24.3279C45.5621 24.0498 45.701 23.7023 45.9093 23.4242C47.0206 24.7449 47.7846 26.2742 49.2432 27.1778C49.521 27.3168 49.7988 27.3168 49.7988 27.0388C49.8683 26.7607 49.7988 26.8303 49.7988 26.7607C50.0072 26.5522 50.1461 26.4827 50.285 26.1351C50.285 26.0656 50.3545 25.9961 50.3545 25.9266C50.7712 25.0925 51.3963 24.3974 52.0214 23.8413C53.4105 25.162 54.7996 26.4132 56.1887 27.6644C55.5636 28.3595 55.2164 28.9156 54.6607 29.7497C51.813 34.6154 51.6741 35.4495 51.1185 36.9092C50.8407 37.6739 50.0072 40.4543 49.8683 40.9408C49.8683 40.9408 49.5905 41.9835 49.521 42.6091V42.6786C49.4516 42.7481 49.4516 42.9566 49.4516 43.1652V43.2347C49.3821 43.3737 49.3821 43.5822 49.3821 43.7213V43.6517C49.3126 43.8603 49.3126 44.1383 49.3126 44.3468V44.4164C49.2432 44.4164 49.3126 44.6249 49.2432 44.7639V44.8334C49.1737 44.9029 49.2432 45.1115 49.1737 45.181V45.2505C49.1043 45.459 49.1043 45.8066 49.1043 45.9456V46.0151C49.0348 46.9882 49.0348 47.9614 49.1043 48.865V48.9345C49.1043 49.0736 49.0348 49.3516 49.1737 49.4211V49.9077C49.1043 49.9077 49.1737 50.1162 49.1043 50.1857V50.2552C48.9654 50.4638 48.9654 50.8808 49.2432 50.8808C49.3126 50.9503 49.3821 50.9503 49.3821 50.8808C49.521 50.8808 49.5905 50.8113 49.5905 50.6723V50.6028H49.6599C49.6599 50.4638 49.7294 50.3942 49.7294 50.1857V50.1162C49.7988 50.1162 49.7294 49.9077 49.7988 49.8382V49.7687C50.1461 48.7955 50.3545 47.6138 50.5628 46.4322V46.3626C50.6323 46.2931 50.6323 46.1541 50.6323 46.0151V45.9456C50.7018 45.8761 50.7018 45.7371 50.7018 45.598V45.5285C50.7712 45.2505 50.9101 44.9724 50.9101 44.6249C50.9101 44.5554 50.9796 44.5554 50.9796 44.4859C51.049 44.4164 51.049 44.2773 51.049 44.1383C51.1185 44.0688 51.1185 43.9993 51.1185 43.9298C51.2574 43.5127 51.3268 43.0957 51.4658 42.6786C51.5352 42.5396 51.5352 42.4701 51.5352 42.3311C51.6741 42.053 51.6741 41.775 51.813 41.4969V41.4274C51.9519 41.1494 52.0214 40.9408 52.0909 40.5933C52.0909 40.5238 52.716 38.647 52.716 38.647C52.8549 38.1604 52.9938 37.6043 53.2021 37.1178C53.9662 34.8239 56.7444 30.3753 56.8138 30.1667C56.9527 30.0277 57.1611 29.6802 57.1611 29.6802C57.3 29.5412 57.3695 29.3326 57.5084 29.1936C57.5778 29.1936 57.5778 29.0546 57.6473 29.0546C57.7167 28.9156 57.7862 28.7765 57.8557 28.6375C58.2029 28.6375 58.4808 28.3595 58.3418 28.0119C58.3418 27.9424 58.3418 27.8729 58.4113 27.8729C58.4808 27.8729 58.6197 27.6644 58.4808 27.5949V27.5254C58.4808 27.2473 58.2724 27.0388 58.1335 26.8303C58.1335 26.6912 58.064 26.7607 58.064 26.6912C57.8557 26.4827 57.7168 26.2047 57.5084 25.9961C57.4389 25.9266 57.3695 25.8571 57.3 25.7181C57.1611 25.5791 57.0917 25.44 56.9527 25.301C56.8833 25.162 56.8138 25.0925 56.6749 24.9535C56.6055 24.8145 56.4666 24.6754 56.3971 24.6059C56.3276 24.4669 56.1887 24.3974 56.1193 24.2584C56.0498 24.1193 55.9109 24.0498 55.8414 23.9108C55.772 23.7718 55.6331 23.7023 55.4942 23.5633C55.4247 23.4938 55.2858 23.3547 55.2164 23.2852C55.0774 23.1462 55.008 23.0767 54.8691 22.9377C54.7996 22.8682 54.6607 22.7291 54.5913 22.6596C54.3134 22.3816 54.0356 22.1036 53.7578 21.895C53.6883 21.8255 53.6883 21.8255 53.6189 21.756C53.6189 21.756 53.6189 21.756 53.5494 21.6865L53.48 21.617C53.4105 21.617 53.4105 21.5475 53.3411 21.5475C53.2022 21.4084 52.9938 21.2694 52.8549 21.1304H52.7854C52.1603 20.9914 51.952 21.2694 51.6047 21.617C50.7018 22.5206 49.7294 23.3547 48.9654 24.2584C48.2708 23.6328 47.8541 22.7987 47.2984 22.1036V22.034C47.229 21.895 47.1595 21.756 47.0206 21.6865V21.617C46.9512 21.2694 46.6039 21.4084 46.3261 21.3389C46.3261 21.1304 46.1872 21.0609 46.1177 20.9219C45.5621 20.9219 45.2842 21.478 45.0064 21.756C44.5202 22.2426 41.742 26.6217 40.8391 28.6375C39.9362 30.5838 39.3805 31.835 38.3387 35.6581C38.0609 36.7702 37.7136 38.7165 37.6441 39.1336V39.2031C37.5747 39.4116 37.5747 39.6897 37.5747 39.8982V39.9677C37.5052 39.9677 37.5052 40.0372 37.5052 40.1067V40.1762C37.3663 40.9408 37.2274 42.8176 37.2969 42.8176C37.2969 42.8176 37.2274 43.3737 37.2969 43.3737C37.2969 43.3737 37.2274 44.2078 37.2969 44.4164V44.4859C37.2274 44.4859 37.2969 44.9724 37.2969 44.9724C37.2274 44.9724 37.2274 45.7371 37.2969 45.7371C37.2969 45.7371 37.2274 46.5712 37.3663 46.7797V46.8492C37.3663 47.1273 37.2969 47.4748 37.4358 47.6833V47.7529C37.4358 47.8919 37.3663 48.1699 37.5052 48.2394V48.3089C37.5052 48.448 37.4358 48.6565 37.5747 48.6565V48.726C37.6441 49.5601 37.7831 50.3247 37.9914 51.0198V51.0893C38.0609 51.2979 38.0609 51.5759 38.1303 51.7845V51.854C38.1303 52.0625 38.1998 52.2015 38.2692 52.3405C38.2692 52.41 38.2692 52.4796 38.3387 52.4796C38.4082 52.8966 38.5471 53.3137 38.7554 53.7307V53.8003C38.8249 54.0088 38.8943 54.2173 39.0333 54.4258C39.0333 54.4954 39.0333 54.4954 39.1027 54.5649C39.1722 54.8429 39.3805 55.0514 39.5194 55.1905C39.45 55.26 39.2416 55.1905 39.1722 55.26H39.1027C39.0333 55.26 38.8249 55.1905 38.8249 55.3295C38.7554 55.3295 38.686 55.3295 38.6165 55.399C38.2692 55.399 37.9914 55.4685 37.7136 55.538H37.6441C37.5052 55.538 37.4358 55.538 37.3663 55.6075H37.2969C37.0885 55.6075 36.9496 55.677 36.8107 55.7465H36.7412C36.1856 55.8856 35.6299 55.9551 35.1437 56.0941C35.0743 56.0941 35.0048 56.0941 34.9354 56.1636C34.6576 56.1636 34.5187 56.3026 34.3103 56.3026H34.2408C33.963 56.3721 33.6852 56.4416 33.4768 56.5807C33.4074 56.5807 33.3379 56.5807 33.3379 56.6502C32.7823 56.7892 32.1572 56.9282 31.671 57.1367C31.6015 57.1367 31.5321 57.1367 31.4626 57.2063C31.1153 57.2758 30.9764 57.4148 30.6291 57.4843C30.6291 57.3453 30.7681 57.3453 30.7681 57.2063V57.1367C31.1848 56.3721 31.4626 55.4685 31.8099 54.7039V54.6344C31.9488 54.5649 31.9488 54.3563 32.0183 54.2173V54.1478C32.1572 54.0783 32.1572 53.8003 32.2961 53.6612V53.3832C32.3655 53.3832 32.435 53.1052 32.5045 53.2442L32.435 53.3137V53.3832C32.2266 53.7307 32.1572 54.1478 32.0183 54.4954C31.9488 54.6344 31.8793 54.6344 31.8793 54.7734C31.8099 54.9124 31.671 54.9819 31.6015 55.1905C31.671 55.1905 31.671 55.26 31.671 55.3295C32.0877 55.3295 32.0877 54.9124 32.2961 54.6344V54.5649C32.5044 54.3563 32.6434 54.0783 32.7823 53.8003V53.7307C33.199 53.1052 33.4768 52.41 33.8241 51.7149V51.6454C33.8936 51.6454 33.963 51.5064 33.963 51.4369V51.3674C34.1019 51.1589 34.1714 51.0198 34.2408 50.7418V50.6723C34.3797 50.4638 34.4492 50.3247 34.5187 50.0467V49.9772C34.6576 49.7687 34.727 49.6296 34.7965 49.3516V49.2821C35.0048 48.9345 35.2827 48.5175 35.2132 48.0309C35.2132 47.9614 35.2132 47.8919 35.1437 47.8919C34.9354 47.4748 34.7965 47.0578 34.5187 46.7797V46.7102C34.4492 46.5017 34.3103 46.2931 34.1714 46.1541V46.0846C34.1019 45.9456 34.0325 45.7371 33.8936 45.598V45.5285C33.8936 45.3895 33.7546 45.32 33.6852 45.2505C33.6157 45.2505 33.6157 45.181 33.5463 45.181C33.3379 45.1115 33.0601 45.32 32.8517 45.3895C32.7128 45.181 32.5045 45.042 32.1572 45.042H32.0877C31.9488 44.9724 31.6015 45.042 31.3932 44.9724H30.5597C30.2124 44.9724 29.7957 44.9029 29.5179 45.042H29.4484C29.379 45.042 29.3095 45.042 29.3095 45.1115C29.1706 45.1115 29.0317 45.2505 29.0317 45.3895C28.8928 45.7371 28.8233 46.2236 28.7539 46.6407V47.1273C28.7539 47.1968 28.7539 47.2663 28.7539 47.3358V47.4053C28.8233 48.2394 29.3095 48.7955 29.7957 49.3516L29.8651 49.4211C29.8651 49.4906 29.9346 49.4906 29.9346 49.5601C30.004 49.5601 30.0735 49.5601 30.0735 49.4906H30.143C30.2124 49.4906 30.4208 49.5601 30.4208 49.4211H30.4902C30.7681 49.4211 31.2542 49.4211 30.9764 49.6991V49.7687C29.7957 51.2979 28.4066 52.5491 27.1564 54.0088C27.1564 54.0783 27.0175 54.1478 27.0869 54.2868C27.0175 54.2868 27.0175 54.3563 27.0175 54.4258V54.4954C26.948 54.4954 27.0175 54.6344 26.948 54.7039V54.7734C26.8786 54.7734 26.948 54.9819 26.8786 55.0514V55.1209C26.8091 55.1209 26.8786 55.3295 26.8091 55.399V55.4685C26.7397 55.4685 26.8091 55.6075 26.7397 55.677V55.7465C26.6702 55.7465 26.7396 55.9551 26.6702 56.0246V56.0941C26.4618 57.6233 27.2258 58.4574 27.5731 59.5001C27.5731 59.6391 27.6426 59.6391 27.6426 59.7086C27.712 59.7781 27.712 59.9172 27.7815 59.9867C27.7815 60.1257 27.8509 60.0562 27.8509 60.1257C27.9898 60.3342 28.0593 60.5428 28.2677 60.7513H28.3371C28.3371 60.8208 28.4066 60.8208 28.476 60.8208C28.5455 60.8903 28.7539 60.8208 28.8928 60.8903C28.9622 60.9598 29.1706 60.8903 29.1706 60.8208H29.24C29.379 60.8208 29.379 60.6818 29.5179 60.6123C29.5873 60.6818 29.6568 60.7513 29.7957 60.7513H29.8651C30.0041 61.5854 30.6291 61.7244 31.3237 61.2379H31.3932C31.5321 61.2379 31.6015 61.1683 31.671 61.0988C31.8099 61.0988 31.8794 61.0293 31.9488 61.0293C32.0877 60.9598 32.2961 60.9598 32.435 60.8903C32.5044 60.8903 32.5739 60.8903 32.5739 60.8208C33.1295 60.6818 34.1714 60.4732 34.1714 60.4732C34.3103 60.4037 36.8107 59.9172 37.0885 59.8477C37.0885 59.8477 38.9638 59.5001 39.45 59.4306H39.5194C39.5889 59.4306 40.3529 59.3611 40.3529 59.2916C40.3529 59.2916 40.978 59.2221 41.1864 59.1525L41.8809 59.083C41.9504 59.083 42.2282 59.0135 42.2282 59.0135C42.2977 59.0135 42.5755 58.944 42.5755 58.944C42.6449 58.944 43.27 58.8745 43.27 58.8745C43.3395 58.8745 43.5479 58.944 43.6173 58.805C43.6173 58.805 43.9646 58.8745 44.034 58.7355C44.034 58.7355 44.3813 58.805 44.4508 58.666H44.5202C44.5897 58.666 44.798 58.7355 44.8675 58.5965H44.937C45.0759 58.5965 45.2842 58.666 45.2842 58.527H45.4231C45.5621 58.527 45.7704 58.5965 45.8399 58.4574H45.9093C46.0482 58.4574 46.2566 58.527 46.3261 58.3879H46.5344C46.6733 58.3879 47.0206 58.4574 47.0901 58.3184C47.1595 58.3184 47.2984 58.3879 47.3679 58.3184C47.993 58.3184 49.3126 58.2489 49.3821 58.2489C49.3821 58.3184 49.7294 58.2489 49.7988 58.2489C49.7988 58.3184 50.4239 58.3184 50.4239 58.2489H50.4934C50.5628 58.2489 50.6323 58.2489 50.7018 58.2489C50.7712 58.2489 50.9796 58.2489 50.9796 58.2489C51.049 58.2489 56.1193 58.527 56.1887 58.527C56.2582 58.527 56.3276 58.527 56.3971 58.527C56.4666 58.527 56.536 58.527 56.6055 58.527C56.6749 58.527 56.7444 58.527 56.8138 58.527C56.8833 58.527 56.9527 58.527 57.0222 58.527C57.0916 58.527 57.1611 58.527 57.2306 58.4574C57.3 58.4574 57.3 58.4574 57.3 58.4574C57.3 58.4574 57.3695 58.4574 57.3695 58.3879C57.4389 58.3184 57.5084 58.3184 57.5778 58.2489L57.6473 58.1794C57.6473 58.1099 57.7167 58.1099 57.7167 58.0404C57.7167 57.9709 57.7167 57.9709 57.7167 57.9014C57.7167 57.8318 57.7167 57.8319 57.7167 57.7623C57.7167 57.6928 57.7167 57.6928 57.7167 57.6233C57.7167 57.6233 57.7167 57.6233 57.7167 57.5538C57.7167 57.4843 57.7167 57.4148 57.6473 57.3453H57.7167C58.1335 57.2063 58.4808 56.9977 58.5502 56.5112V56.4416C58.8975 56.5112 58.8975 56.2331 58.828 56.2331Z" fill="white"/>
<path d="M68.4112 39.1341C67.4389 34.4769 64.869 30.7233 61.5351 27.5258C61.4657 27.5258 61.3962 27.4563 61.2573 27.5258C61.1879 27.5258 61.1879 27.6649 61.2573 27.8039C62.577 29.0551 63.7577 30.4453 64.7996 31.9745C68.3418 37.1183 69.1753 43.2352 67.5778 49.0045C64.5217 60.3347 52.8532 69.5796 40.5596 69.093C27.2936 68.6064 18.1255 56.3031 17.431 44.2778C17.0837 38.0219 19.0285 31.6269 23.6125 27.1783C27.502 23.4942 32.8501 21.2004 38.1287 20.3663V20.2968C37.9898 20.2273 38.0592 20.0187 38.1981 19.9492C31.8777 20.8529 25.974 23.4942 21.7372 28.499C14.3749 37.2573 16.0419 51.0203 22.7096 59.9176C26.1824 64.5053 31.3221 68.0503 37.1563 69.1625C42.6433 70.2051 48.2692 69.1625 53.1311 66.7991C63.1326 61.7944 70.7033 50.3252 68.4112 39.1341Z" fill="white"/>
<path d="M38.2696 20.2967C39.5198 20.6443 41.2562 20.2272 41.8813 18.976C41.9507 18.837 41.8813 18.698 41.7424 18.698C40.6311 18.6285 39.3809 18.837 38.5474 19.6711C38.3391 19.8796 38.6169 20.1577 38.8252 19.9492C39.5198 19.2541 40.4227 19.0455 41.3951 19.0455C40.77 19.8796 39.4503 20.2272 38.4085 19.9492C38.1307 19.8796 38.0612 20.2272 38.2696 20.2967Z" fill="white"/>
<path d="M54.1031 70.0655C53.6864 70.0655 54.0337 68.9534 54.1031 68.8144C54.242 68.4668 54.4504 67.9802 54.7977 67.7022C54.8671 68.5363 54.6588 70.0655 54.1031 70.0655ZM53.6169 68.8144C53.478 69.3009 53.2697 70.2741 53.8948 70.4826C55.006 70.8996 55.4922 68.5363 55.2144 67.4937C55.2839 67.3547 55.2144 67.1461 55.0755 67.1461C55.0755 67.1461 55.0755 67.0766 55.006 67.0766C54.8671 66.8681 54.5199 67.0766 54.5893 67.2851C54.1031 67.6327 53.8253 68.2583 53.6169 68.8144Z" fill="white"/>
<path d="M54.8691 63.8106C54.8691 63.8801 54.8691 63.8801 54.8691 63.8801C54.7302 63.9496 54.6608 64.0191 54.7302 64.1581C54.8692 64.3667 53.2022 64.7142 52.9244 64.7837C52.3687 64.8533 50.9796 65.0618 50.7713 64.3667C50.6324 63.6021 53.9662 63.6716 54.8691 63.8106ZM50.4934 64.7837C50.9796 65.6179 52.5771 65.3398 53.3411 65.2008C53.6884 65.1313 55.4942 64.8533 55.2164 64.0886C55.2859 64.0886 55.2859 64.0191 55.2859 63.9496C55.3553 63.8106 55.3553 63.7411 55.3553 63.6021C55.3553 63.5325 55.2859 63.3935 55.2164 63.3935C54.383 63.185 49.4516 62.907 50.4934 64.7837Z" fill="white"/>
<path d="M45.0741 70.8299C45.1435 71.3165 45.8381 71.3165 46.1854 71.1079C46.6021 70.8994 47.0188 70.3433 47.1578 69.8568C47.2967 69.6482 47.2967 69.5092 47.3661 69.2312C47.3661 69.0226 47.2272 68.9531 47.0188 68.9531C46.5326 69.0226 46.1159 69.3702 45.7686 69.6482C45.4213 69.9958 45.0046 70.4128 45.0741 70.8299Z" fill="white"/>
<path d="M41.1851 71.109C41.6713 70.9005 42.2964 70.692 42.852 70.6225C42.5047 71.1786 41.9491 71.5956 41.4629 71.9432C41.1851 72.1517 39.3792 73.3334 39.3792 72.2907C39.3792 71.6651 40.6989 71.2481 41.1851 71.109ZM38.893 72.7078C39.7959 74.5846 42.7825 71.8042 43.4771 70.6225C43.7549 70.6225 43.8244 70.1359 43.4771 70.0664C42.4353 69.9274 38.129 71.0395 38.893 72.7078Z" fill="white"/>
<path d="M45.7698 67.0759C46.1171 67.215 46.5338 67.354 46.8116 67.632C46.256 67.771 45.1447 67.632 44.8669 67.215C44.6585 66.7979 45.6309 67.0064 45.7698 67.0759ZM44.3807 66.9369C44.1028 68.0491 46.3949 68.2576 47.02 68.0491C47.2284 67.9796 47.2284 67.7015 47.0895 67.5625C47.1589 67.493 47.2284 67.354 47.0895 67.215C46.6727 66.7979 44.6585 65.8248 44.3807 66.9369Z" fill="white"/>
<path d="M40.0039 66.7982C40.6985 67.0762 41.6014 67.4933 42.1571 68.1189C41.4625 68.2579 40.5596 68.0493 39.865 67.9103C39.3094 67.7713 37.5036 67.4237 37.5036 66.6591C37.4341 65.7555 39.7261 66.6591 40.0039 66.7982ZM42.4349 68.6054C42.5738 68.5359 42.6433 68.3969 42.6433 68.2579C42.7127 68.1884 42.7822 68.0493 42.7127 67.9103C42.0182 67.0762 37.7814 64.5043 37.0868 66.3116C36.3228 68.1884 41.3236 68.8835 42.4349 68.6054Z" fill="white"/>
<path d="M37.1573 70.1342V70.2037C37.1573 70.2732 37.1573 70.2732 37.1573 70.3427C37.0184 70.6208 36.7406 70.8293 36.4628 70.9683C36.4628 70.5513 36.7406 70.2037 37.1573 70.1342ZM35.9071 71.3159C35.9071 71.4549 36.046 71.5244 36.1849 71.5244C36.8795 71.4549 37.3657 70.9683 37.6435 70.3427C37.6435 70.2732 37.6435 70.2037 37.6435 70.1342C37.6435 70.0647 37.6435 69.9952 37.6435 69.8562C37.6435 69.7171 37.5741 69.6476 37.4351 69.5781C36.5322 69.5781 35.8377 70.4818 35.9071 71.3159Z" fill="white"/>
<path d="M32.1565 70.136C32.4344 69.6494 33.2678 69.4409 33.8235 69.3713C34.1013 69.3018 35.0737 69.1628 35.1431 69.5799C34.7958 70.0665 34.1013 70.3445 33.6151 70.553C33.1984 70.6225 31.6009 70.9701 32.1565 70.136ZM31.8093 70.8311C32.0871 71.1091 32.4344 71.1786 32.8511 71.1091C33.6151 71.0396 34.6569 70.553 35.2126 69.9274C35.282 69.9274 35.3515 69.8579 35.4209 69.7884C35.4209 69.7189 35.4904 69.6494 35.4904 69.6494C35.5598 69.5799 35.4904 69.5104 35.4904 69.5104C35.4209 69.0238 34.7264 68.8848 34.2402 68.9543C33.4067 69.0238 32.3649 69.3018 31.8093 69.9969C31.6704 70.136 31.6704 70.553 31.8093 70.8311Z" fill="white"/>
<path d="M34.2405 65.7556C34.4488 66.0336 34.7266 66.5897 34.6572 66.9373C34.0321 67.0763 33.2681 65.6861 33.407 65.1995C33.5459 64.852 34.2405 65.6861 34.2405 65.7556ZM33.407 66.5897C33.7543 67.0763 34.3099 67.7019 34.935 67.4238C35.0045 67.3543 35.0739 67.2848 35.0739 67.2153V67.1458C35.2128 66.5202 34.7961 65.8251 34.4488 65.3385C34.171 64.9215 33.4764 64.3654 33.0597 64.9215C32.7124 65.408 33.1292 66.1727 33.407 66.5897Z" fill="white"/>
<path d="M15.6953 44.4861C15.9037 44.7641 16.1815 45.3202 16.1121 45.6677C15.487 45.8068 14.7924 44.4166 14.9313 43.93C15.0008 43.5824 15.6259 44.4165 15.6953 44.4861ZM14.8619 45.3202C15.1397 45.8068 15.6953 46.3629 16.3204 46.0848C16.3899 46.0153 16.4593 45.9458 16.4593 45.8763V45.8068C16.5983 45.1812 16.1815 44.4861 15.8342 43.9995C15.5564 43.6519 14.8619 43.0958 14.4451 43.6519C14.1673 44.1385 14.584 44.9031 14.8619 45.3202Z" fill="white"/>
<path d="M28.8224 62.0031C29.5864 61.5165 30.9755 64.5749 31.3227 65.27H31.2533C29.9336 66.1041 27.6416 62.7677 28.8224 62.0031ZM28.8918 64.5749C29.4474 65.3395 30.4893 66.3127 31.4617 65.6871C31.5311 65.6176 31.6006 65.5481 31.5311 65.4786C31.67 65.4786 31.8089 65.3395 31.7395 65.2005C31.3922 64.3664 29.5864 60.4043 28.3362 61.9335C27.7111 62.6286 28.4056 63.8798 28.8918 64.5749Z" fill="white"/>
<path d="M29.4468 67.1457C28.7523 67.2848 26.7381 67.4238 26.9464 66.6592C27.0853 65.9641 29.0301 66.9372 29.4468 67.1457ZM26.4602 66.5897C26.113 67.9799 29.0301 67.7018 29.7246 67.4933C29.933 67.4238 29.933 67.0762 29.7246 67.0762C29.7941 67.0067 29.7941 66.8677 29.6552 66.7982C28.9606 66.3811 26.8075 65.269 26.4602 66.5897Z" fill="white"/>
<path d="M25.7664 57.9023C26.8082 57.5548 26.2526 60.5437 26.1137 60.9608V61.0303C25.2108 60.8217 24.8635 58.2499 25.7664 57.9023ZM26.5999 61.3778C26.8082 61.3083 26.6693 60.9608 26.461 60.9608C26.6693 60.1961 26.8082 59.2925 26.7388 58.4584C26.6693 57.7633 26.0442 56.9987 25.3497 57.6243C24.3773 58.5279 24.8635 62.0729 26.5999 61.3778Z" fill="white"/>
<path d="M23.4748 58.1099C23.6137 58.5269 23.822 58.7355 24.0999 58.7355C24.2388 58.805 24.3082 58.7355 24.3777 58.6659C24.5166 58.5964 24.586 58.5269 24.7249 58.3879C24.8639 58.2489 24.7249 58.0403 24.586 57.9708C24.7249 57.2062 24.7944 56.3026 24.0304 55.8855C23.8915 55.816 23.7526 55.816 23.6831 55.955C23.2664 56.5111 23.2664 57.4147 23.4748 58.1099Z" fill="white"/>
<path d="M25.0028 64.0871C24.5166 64.2261 23.8221 64.0176 23.3359 63.9481H23.2664C23.197 63.9481 23.058 63.8786 22.8497 63.8091C22.0857 63.531 21.5995 63.3225 21.5995 63.1139C21.5995 63.0444 21.5995 63.0444 21.5995 62.9749C21.6689 62.8359 21.9467 62.7664 22.7108 63.0444C22.9886 63.1139 23.1969 63.253 23.4053 63.3225C23.4748 63.3225 23.5442 63.392 23.5442 63.392L23.6137 63.4615C24.0304 63.531 24.5861 63.7395 25.0028 64.0871ZM21.1827 63.3225C21.3217 63.67 21.8773 63.9481 22.294 64.0871C23.2664 64.4346 24.5861 64.5042 25.2806 64.3651C25.3501 64.5042 25.5584 64.5042 25.6279 64.3651C25.6973 64.2956 25.6973 64.2261 25.6279 64.1566C25.6279 64.0871 25.6973 64.0871 25.6279 64.0176C25.6279 63.8786 25.489 63.8091 25.3501 63.8786C24.8639 63.392 24.0304 63.1139 23.4053 62.8359L23.1969 62.7664C23.1275 62.6969 22.9886 62.6969 22.8497 62.6274C21.8773 62.2798 21.3216 62.3493 21.1133 62.8359C21.1133 63.0444 21.1133 63.1835 21.1827 63.3225Z" fill="white"/>
<path d="M20.6273 59.4304C21.1135 59.7779 21.6691 60.2645 22.0164 60.7511C20.9746 60.9596 19.2382 60.334 18.9604 59.3609C18.752 58.3182 20.3495 59.2914 20.6273 59.4304ZM22.572 60.9596C22.7804 60.8206 22.6415 60.473 22.3637 60.6121C21.8775 59.8474 19.1687 57.3451 18.5436 59.0133C18.0574 60.6816 21.5997 61.6547 22.572 60.9596Z" fill="white"/>
<path d="M22.3618 56.2336C21.945 56.0946 22.1534 55.2604 22.2923 54.8434C22.5007 55.2604 22.5007 55.8165 22.3618 56.2336ZM22.2229 56.7202C22.2923 56.8592 22.5007 56.8592 22.6396 56.7202H22.7091C22.9174 56.7202 22.9174 56.4421 22.7785 56.3726C22.9869 55.6775 22.9869 54.8434 22.4312 54.2873C22.2923 54.1483 22.1534 54.2178 22.084 54.2873C21.5978 54.9129 21.3894 56.4421 22.2229 56.7202Z" fill="white"/>
<path d="M20.8344 58.1102C20.8344 58.1102 20.8344 58.0407 20.8344 58.1102C20.9039 57.9711 20.9039 57.7626 20.765 57.6236C20.765 57.4846 20.6261 57.4151 20.5566 57.4151C20.5566 57.4151 20.4871 57.4151 20.4871 57.3456C20.3482 57.137 20.0704 56.9285 19.7926 56.998C19.5842 57.0675 19.4453 57.276 19.4453 57.5541C19.4453 57.8321 19.5842 58.0407 19.7926 58.1102H19.862C20.0704 58.2492 20.2788 58.3187 20.5566 58.3187C20.6261 58.3187 20.6955 58.3187 20.765 58.2492L20.8344 58.1797C20.8344 58.1102 20.8344 58.1102 20.8344 58.1102Z" fill="white"/>
<path d="M18.4732 53.1751C18.1259 52.48 17.223 50.6727 16.2506 51.7849C15.6255 52.5495 16.9452 53.7312 17.7786 53.7312C17.9175 53.8007 18.0564 53.7312 18.1954 53.5922C18.1954 53.5922 18.1954 53.5226 18.2648 53.5226C18.4037 53.5226 18.5426 53.3836 18.4732 53.1751Z" fill="white"/>
<path d="M20.3486 46.919C20.4875 46.78 20.7653 46.5019 20.9737 46.78C21.1126 47.058 20.9042 47.5446 20.8347 47.8226C20.6264 48.3787 20.2096 49.1433 19.654 49.4909C19.5151 49.5604 19.654 49.5604 19.5151 49.5604C18.9595 49.6994 20.0013 47.3361 20.3486 46.919ZM20.0013 50.464C20.3486 50.464 20.3486 49.9775 20.0013 49.9775C19.9318 49.9775 19.8624 49.9775 19.7929 49.9079C19.8624 49.9079 19.9318 49.9079 20.0013 49.8384C20.6958 49.3519 21.3209 48.1702 21.4598 47.3361C21.5988 46.5715 21.1126 45.8069 20.2791 46.2934C19.3067 46.9885 17.9871 50.3945 20.0013 50.464Z" fill="white"/>
<path d="M18.8895 45.7366C18.9589 45.6671 19.1673 45.5976 19.2368 45.6671C19.3062 45.8061 19.2368 46.1536 19.1673 46.2927C19.1673 46.4317 19.0978 46.5012 19.0284 46.6402C19.0284 46.6402 19.0284 46.6402 19.0284 46.7097C18.8895 46.7097 18.7506 46.8487 18.82 46.9878C18.82 47.0573 18.8895 47.1268 18.9589 47.1268C18.8895 47.1963 18.8895 47.3353 18.82 47.4048C18.82 47.4048 18.7506 47.3353 18.7506 47.2658C18.6117 46.9878 18.6117 46.5707 18.6811 46.2231C18.7506 45.9451 18.82 45.8061 18.8895 45.7366ZM18.4727 47.4048C18.5422 47.6134 18.6811 47.7524 18.9589 47.6829C19.2368 47.6134 19.3757 47.2658 19.4451 46.9878C19.4451 46.9183 19.4451 46.8487 19.4451 46.8487V46.7792C19.584 46.5012 19.7229 46.0841 19.7229 45.7366C19.7229 45.389 19.5146 45.25 19.1673 45.25C18.8895 45.25 18.6811 45.4585 18.5422 45.6671C18.2644 46.1536 18.2644 46.8487 18.4727 47.4048Z" fill="white"/>
<path d="M15.07 46.9185C15.4173 46.988 15.6951 47.2661 15.9035 47.4746C16.1118 47.6831 16.6675 48.2392 16.6675 48.3087C16.7369 48.5868 17.0842 49.0038 16.8064 49.2124C16.5286 49.4904 14.7227 48.2392 14.5143 47.4051C14.4449 47.1271 14.7922 46.849 15.07 46.9185ZM17.0842 49.838C17.2231 49.838 17.2926 49.7685 17.362 49.6989C17.4315 49.6294 17.5009 49.5599 17.5009 49.4209C17.4315 49.2819 17.4315 49.1429 17.362 49.0734C17.4315 49.0038 17.5009 48.9343 17.4315 48.8648C17.1537 47.8222 15.2089 45.5283 14.2365 46.988C13.3336 48.1697 16.1118 49.6989 17.0842 49.838Z" fill="white"/>
<path d="M19.724 42.0531C20.1407 42.1226 19.0989 44.2774 18.6821 44.2774C17.7098 44.2079 19.6545 41.8446 19.724 42.0531ZM18.2654 44.5555C18.057 44.625 18.1265 44.9725 18.4043 44.903C19.5156 44.486 20.3491 42.8872 20.2796 41.8446C20.2796 41.7056 19.9323 41.497 19.7934 41.5665C19.0989 41.8446 17.2236 43.9299 18.2654 44.5555Z" fill="white"/>
<path d="M18.7513 39.8975C18.8903 39.6194 19.1681 39.2024 19.3764 39.0633C19.7237 38.7853 20.3488 38.3682 20.5572 38.5073C20.9045 38.7158 20.0015 40.3145 18.8903 40.8011C18.4735 40.6621 18.6124 40.0365 18.7513 39.8975ZM18.1262 40.0365C17.9873 40.523 18.1957 40.8706 18.4735 41.0791C18.4041 41.2877 18.6819 41.4962 18.8903 41.3572C18.9597 41.2877 19.0292 41.2877 19.0986 41.2181C19.3764 41.2181 19.6543 41.0791 19.9321 40.8706C20.071 40.7316 20.0015 40.5926 19.9321 40.523C20.6266 39.8279 21.0434 39.2024 20.9739 38.2987C20.9739 37.9512 20.5572 37.9512 20.4183 37.9512C19.4459 38.2987 18.4041 38.9243 18.1262 40.0365Z" fill="white"/>
<path d="M19.6552 34.7549C19.8636 34.5463 20.3498 34.1988 20.4887 34.2683C20.4887 35.1719 19.8636 36.0756 19.308 36.7707C18.9607 36.6316 19.0301 36.006 19.0996 35.7975C19.0996 35.45 19.3774 35.0329 19.6552 34.7549ZM18.4745 35.867C18.3356 36.4231 18.544 36.9792 18.9607 37.1877C19.0301 37.3267 19.1691 37.4658 19.3774 37.3267L19.4469 37.2572H19.5163C19.6552 37.2572 19.7247 37.0487 19.7247 36.9792C20.4193 36.0756 21.1138 35.0329 20.836 33.9207C20.7665 33.7122 20.5582 33.5732 20.3498 33.7122C19.5163 34.2683 18.7523 34.8244 18.4745 35.867Z" fill="white"/>
<path d="M17.0154 36.0745C16.6681 36.283 16.1125 35.2403 15.9736 35.0318C15.6958 34.5452 15.0707 33.5026 15.4179 33.2245C15.6958 32.9465 17.2932 36.0745 17.0154 36.0745ZM17.2932 36.4915C17.3627 36.4915 17.5016 36.422 17.5016 36.283C17.5711 36.144 17.5016 36.0745 17.4322 36.005C17.2238 34.6843 16.182 32.599 15.1401 32.8075C15.0707 32.8075 15.0012 32.877 14.9318 32.9465C14.3067 33.6416 16.2514 37.3952 17.2932 36.4915Z" fill="white"/>
<path d="M18.6828 29.8891C19.3079 30.0976 18.5439 32.0439 18.0577 32.9476C17.0158 32.6695 17.5715 29.5416 18.6828 29.8891ZM17.8493 33.4341C17.7104 33.7122 18.1271 33.9902 18.266 33.7122C18.3355 33.6427 18.3355 33.5037 18.405 33.4341C18.405 33.4341 18.4744 33.3646 18.4744 33.2951C19.0995 32.0439 20.2802 29.194 18.3355 29.333C16.8769 29.4721 16.4602 32.8781 17.8493 33.4341Z" fill="white"/>
<path d="M23.0577 30.4451C23.5439 30.167 24.3774 29.6805 24.933 30.028C25.6971 30.5146 24.0301 31.0707 23.7523 31.1402C23.2661 31.2792 22.641 31.4877 22.0159 31.4877C22.0854 31.1402 22.9188 30.5146 23.0577 30.4451ZM21.3214 31.9048C21.4603 31.9048 21.5297 31.9743 21.6686 31.9743C21.7381 32.0438 21.8075 32.0438 21.877 32.1133C22.0159 32.1828 22.1548 32.1133 22.1548 31.9743C22.9883 31.9048 23.8218 31.6963 24.5163 31.4182C25.2803 31.1402 26.0443 30.2365 25.072 29.611C24.2385 29.0549 22.9883 29.889 22.3632 30.3061C22.0159 30.5146 21.5297 31.0012 21.4603 31.4877C21.1824 31.3487 21.0435 31.8353 21.3214 31.9048Z" fill="white"/>
<path d="M20.4892 28.7072C20.4197 28.6377 20.3503 28.4987 20.3503 28.2902C20.2808 27.8731 20.3503 27.3865 20.5586 27.039C20.6976 26.9 20.8365 26.8305 21.1143 26.8305C21.3227 26.9 21.2532 27.178 21.1837 27.456C21.1143 27.8731 20.8365 28.3597 20.4892 28.7072ZM20.003 28.6377C20.0725 28.9158 20.2114 29.0548 20.4197 29.1243C20.6281 29.1938 20.9059 29.0548 21.1143 28.8463C21.1143 28.7767 21.1837 28.7767 21.1837 28.7072C21.1837 28.7072 21.1837 28.6377 21.1143 28.6377C21.4616 28.1511 21.6699 27.5256 21.6005 27.1085C21.6005 26.8305 21.3921 26.6219 21.1837 26.5524C20.9059 26.4829 20.4892 26.5524 20.2808 26.8305C19.8641 27.2475 19.8641 28.0816 20.003 28.6377Z" fill="white"/>
<path d="M23.8913 27.7331C24.6553 28.3587 25.6972 28.6367 26.6001 28.4282C27.0168 28.3587 27.5725 28.0111 27.8503 27.5941C27.9892 27.3856 27.9892 27.177 27.9197 26.9685C27.8503 26.76 27.7114 26.6209 27.4336 26.5514C27.1557 26.4819 26.8085 26.4124 26.3917 26.4819C25.6972 26.5514 24.7942 26.6904 24.3775 27.316C24.3775 27.3856 24.3081 27.4551 24.3775 27.4551C24.3775 27.5246 24.447 27.5941 24.5164 27.5941C24.5859 27.5941 24.6553 27.5941 24.7248 27.5246C25.1415 26.899 26.6001 26.76 27.2946 26.9685C27.3641 26.9685 27.4336 27.038 27.4336 27.038C27.503 27.1075 27.5725 27.1075 27.5725 27.177C27.5725 27.3856 27.3641 27.5941 27.2946 27.7331C27.0863 27.9416 26.739 28.0807 26.3223 28.1502C25.6277 28.2197 24.7942 27.9416 24.2386 27.4551C24.1691 27.3856 24.0302 27.3856 23.9608 27.5246C23.8219 27.5941 23.8219 27.6636 23.8913 27.7331Z" fill="white"/>
<path d="M24.2376 22.3127C24.8627 21.9651 24.7238 23.0078 24.6543 23.2858C24.5849 23.6334 24.5154 24.0505 24.446 24.398C24.3765 24.398 24.3071 24.4675 24.3071 24.537C24.2376 24.676 24.0987 24.8846 23.9598 24.7456C23.8209 24.537 23.7514 24.259 23.682 23.9809C23.543 23.4249 23.6819 22.6602 24.2376 22.3127ZM23.2652 24.676C23.4736 25.2321 23.9598 25.5102 24.3071 25.3016C24.446 25.3712 24.5849 25.3712 24.7238 25.2321V25.1626C25.0711 24.398 25.2794 23.4249 25.21 22.5907C25.1405 21.6871 24.3765 21.4091 23.6125 22.0347C22.9179 22.5907 22.9179 23.8419 23.2652 24.676Z" fill="white"/>
<path d="M28.8923 19.323C27.781 19.3925 26.6697 20.9912 26.5308 22.0339C26.3919 23.0765 27.5726 23.9802 28.1283 22.5899C28.1977 22.3814 27.9894 22.2424 27.781 22.3119C28.2672 21.7558 28.7534 21.1997 29.1701 20.5741C29.5174 20.0876 29.7952 19.1839 28.8923 19.323Z" fill="white"/>
<path d="M30.768 24.6754C30.4208 24.3974 30.004 24.2583 29.5873 24.1888C29.7262 24.0498 29.6567 23.7718 29.3789 23.7718C28.6149 23.7023 27.3647 23.9803 27.712 25.0229C28.0593 25.9266 29.1011 26.2046 30.004 26.0656C30.6986 25.9266 31.6015 25.301 30.768 24.6754Z" fill="white"/>
<path d="M35.6299 23.6333C36.0466 23.9809 35.5604 24.6065 35.2131 24.7455C34.8659 24.954 34.3102 24.8845 33.9629 24.815C33.1295 24.7455 32.0182 24.4675 31.532 23.7028C31.4626 23.6333 31.4626 23.6333 31.3931 23.5638C31.3931 23.4943 31.3931 23.4248 31.4626 23.4248C32.6433 23.2163 34.727 22.7992 35.6299 23.6333ZM31.0458 23.4943C31.0458 23.5638 31.0458 23.5638 31.0458 23.6333V23.7028C30.9764 23.7723 30.9764 23.8419 31.0458 23.9809C31.8793 25.3016 35.5604 26.4137 36.255 24.3284C36.9495 22.0346 32.0182 22.8687 30.9764 23.0077C30.6291 23.0077 30.6985 23.4248 31.0458 23.4943Z" fill="white"/>
<path d="M29.7256 21.2687C29.7256 21.4772 29.8645 21.6857 30.1424 21.7552C30.4202 21.7552 30.698 21.5467 30.8369 21.4077C30.9064 21.3382 30.9064 21.2687 30.9064 21.1991C31.1842 20.9211 31.462 20.5736 31.462 20.1565C31.462 19.8785 31.1147 19.6699 30.8369 19.6699C30.6285 19.6699 30.4202 19.8089 30.2118 19.948C29.934 20.365 29.6562 20.8516 29.7256 21.2687Z" fill="white"/>
<path d="M34.4483 16.7513C33.476 17.0989 32.8509 18.2805 32.7814 19.2537C32.7119 20.2963 33.5454 20.5744 34.4483 20.1573C34.7261 20.0183 34.5872 19.6707 34.3094 19.6707C34.3094 19.6707 34.3094 19.6707 34.3094 19.6012C34.9345 19.2537 35.5596 18.6281 35.9069 18.072C36.6015 16.9598 35.4207 16.4038 34.4483 16.7513Z" fill="white"/>
<path d="M39.24 22.5216C38.9621 21.9655 38.476 21.618 37.9203 21.479C37.9203 21.4095 37.8509 21.4095 37.7814 21.34C37.3647 21.1314 36.7396 21.0619 36.3229 21.2704C35.8367 21.479 35.6978 22.1741 35.9756 22.5911C36.5312 23.4253 38.1981 23.2862 39.0316 23.0082C39.1705 23.0082 39.3094 22.6606 39.24 22.5216Z" fill="white"/>
<path d="M14.3757 37.9523C14.5146 37.7438 14.6535 37.6743 14.8619 37.7438C15.2092 37.8828 15.5564 38.3694 15.6954 38.6474C15.8343 38.9255 15.9037 39.2035 16.0426 39.6206C16.0426 39.6901 16.1121 40.1071 16.0426 40.2462C15.9732 40.2462 15.9037 40.2462 15.8343 40.3157C15.7648 40.3852 15.7648 40.4547 15.7648 40.4547C15.6954 40.4547 15.6954 40.4547 15.6259 40.4547C15.3481 40.3852 14.9313 39.9681 14.7924 39.6901C14.6535 39.3425 14.0284 38.5084 14.3757 37.9523ZM13.8895 38.0913C13.8201 38.7864 14.3063 39.5511 14.5841 39.8986C14.7924 40.1071 15.2092 40.5937 15.6259 40.7327C15.9732 40.8718 16.251 40.7327 16.3899 40.3852C16.6677 39.9681 16.251 38.7169 16.251 38.7169C16.1121 38.2999 15.6954 37.5353 15.0703 37.3267C14.7924 37.2572 14.5146 37.2572 14.2368 37.4657C14.0284 37.6048 13.8895 37.8133 13.8895 38.0913Z" fill="white"/>
<path d="M19.862 55.5386C19.5842 54.8435 18.8202 54.2179 17.9172 53.9398C17.2921 53.7313 16.7365 53.7313 16.3892 53.8703C16.1809 53.9398 16.042 54.1484 15.9725 54.3569C15.903 54.8435 16.3198 55.3996 16.6671 55.6776C16.8754 55.8861 17.3616 56.2337 17.9867 56.4422C18.4729 56.5812 18.9591 56.5812 19.3064 56.3727C19.3758 56.3727 19.4453 56.3727 19.4453 56.3727C19.4453 56.4422 19.3758 56.5117 19.4453 56.5812C19.4453 56.6507 19.5147 56.7202 19.5842 56.7202C19.6536 56.7202 19.7925 56.7202 19.7925 56.6507C20.0009 56.3032 20.0009 55.9556 19.862 55.5386Z" fill="white"/>
<path d="M49.1724 72.4992C51.0477 73.7503 52.4368 69.2322 52.3674 68.12C52.3674 67.7725 51.8117 67.7725 51.8812 68.12C51.9506 69.1627 50.9783 72.4992 49.5197 72.1516C48.7557 71.9431 50.2837 69.9273 51.0477 69.0237C51.0477 69.1627 50.9783 69.2322 50.9088 69.3712C50.7699 69.6493 51.2561 69.8578 51.395 69.5102C51.6034 69.0932 51.6034 68.8151 51.5339 68.3286C51.4644 68.12 51.2561 68.0505 51.1172 68.1896C50.3532 68.8151 47.7833 71.5955 49.1724 72.4992Z" fill="white"/>
<path d="M39.3797 16.6816C39.3102 16.6816 39.3102 16.6816 39.2408 16.6816C37.7128 16.9597 36.3931 18.2804 35.6986 19.3925C35.6291 19.462 35.6291 19.5316 35.6986 19.6011C35.6986 19.6706 35.8375 19.7401 35.9069 19.7401C35.9764 19.7401 35.9764 19.7401 36.0459 19.7401C36.1153 19.8096 36.2542 19.8791 36.3237 19.8096L36.3931 19.7401C36.4626 19.7401 36.4626 19.7401 36.4626 19.6706C37.9906 18.8365 38.963 17.9328 39.4492 16.8902C39.4492 16.8207 39.4492 16.7511 39.4492 16.7511C39.5186 16.7511 39.4492 16.6816 39.3797 16.6816Z" fill="white"/>
<path d="M51.4652 66.1736C51.3263 65.9651 51.0484 65.7566 50.7706 65.6175C50.4233 65.4785 50.0761 65.4785 49.7288 65.4785C49.1037 65.4785 48.2702 65.548 48.0619 66.1041C47.9924 66.2431 47.9924 66.3822 48.0619 66.4517C48.1313 66.5907 48.2702 66.7297 48.548 66.7992C49.3121 67.0773 50.6317 66.9382 50.979 66.4517C51.0485 66.3822 51.0485 66.3126 50.979 66.2431C50.979 66.2431 50.979 66.2431 50.979 66.1736C50.979 66.1041 50.979 66.1041 50.979 66.0346C51.0485 66.1041 51.1179 66.1736 51.1874 66.2431C51.2568 66.3822 51.4652 66.3822 51.6041 66.2431C51.4652 66.3126 51.5346 66.2431 51.4652 66.1736Z" fill="white"/>
<path d="M66.8135 27.3864C67.2996 27.6644 66.6745 27.9425 66.3967 27.9425C66.0494 28.012 65.7022 28.012 65.2854 27.9425C64.7992 27.8729 63.8269 27.8034 63.4101 27.3169C63.8269 27.2474 64.2436 27.1778 64.5909 27.1778C65.3549 27.1083 66.1884 27.0388 66.8135 27.3864ZM62.9239 27.5949C62.9934 27.5949 62.9934 27.5254 63.0629 27.5254C63.688 28.4985 67.508 29.1936 67.4385 27.5949C67.3691 26.0657 63.3407 26.8303 62.5767 27.3169C62.3683 27.4559 62.6461 27.7339 62.9239 27.5949Z" fill="white"/>
<path d="M61.2571 29.9581C61.3265 30.7922 61.5349 31.6264 61.3266 32.391C61.2571 32.669 60.9793 32.391 60.8404 32.2519C60.632 32.0434 60.632 31.6264 60.7014 31.3483C60.7014 31.0008 60.9098 30.3057 61.2571 29.9581ZM61.0487 32.947C62.2989 33.3641 61.8127 30.3752 61.7433 29.6801C61.9516 29.541 61.8127 29.1935 61.5349 29.263C60.2153 29.6105 59.5207 32.4605 61.0487 32.947Z" fill="white"/>
<path d="M61.2573 38.0216C62.438 38.2996 63.4104 36.9094 63.8966 36.0058C64.4522 34.9632 64.9384 33.3644 64.1049 32.3913C63.8966 32.1132 63.4798 32.4608 63.6882 32.7388C64.73 33.9205 63.0631 37.396 61.5351 37.4655C60.2849 37.535 61.4656 35.5887 61.7435 35.1717C62.1602 34.5461 62.8547 33.712 63.6187 33.4339C63.966 33.2949 63.6882 32.8083 63.3409 32.9474C62.1602 33.4339 58.7569 37.396 61.2573 38.0216Z" fill="white"/>
<path d="M65.2166 37.5362C65.286 37.6058 65.4249 37.6058 65.5639 37.6058C65.6333 38.0228 65.286 38.5094 65.0777 38.7874C65.0082 38.8569 64.0358 39.8301 63.9664 39.4825C63.8275 38.996 64.6609 37.0497 65.2166 37.5362ZM63.4107 39.6911C64.0358 41.0813 66.6057 38.4399 65.9806 37.1887C65.9111 36.9802 65.7028 36.9802 65.5639 37.1192C64.4526 36.2155 62.994 38.7179 63.4107 39.6911Z" fill="white"/>
<path d="M65.3543 30.0282C66.2572 32.1135 68.966 31.9745 70.7024 31.0708C70.7718 31.0013 70.8413 30.8623 70.7718 30.7928C69.9384 29.1941 67.5074 29.9587 66.1183 29.8196C65.8405 29.8196 65.91 30.1672 66.1183 30.2367C67.2991 30.3062 69.4522 29.7501 70.2856 30.7928C68.8271 31.4879 66.4656 31.6269 65.7016 29.8892C65.6321 29.6806 65.2154 29.8196 65.3543 30.0282Z" fill="white"/>
<path d="M67.3689 32.8085C67.1606 32.878 67.1606 33.0865 67.2995 33.2255C67.1606 33.295 67.0911 33.5731 67.23 33.7121C68.0635 34.3377 70.9112 35.0328 71.189 33.5036C71.5363 32.0439 67.994 32.5304 67.3689 32.8085Z" fill="white"/>
<path d="M66.2593 40.8717C66.3983 40.8022 66.5372 40.8022 66.6761 40.8022C66.6761 40.8717 66.6761 40.8717 66.6761 40.9412C66.8844 41.4278 66.4677 42.1229 66.1204 42.4704C65.9815 42.6094 65.7732 42.818 65.5648 42.818C65.3564 42.818 65.3564 42.3314 65.3564 42.1924C65.3564 41.6363 65.7732 41.1497 66.2593 40.8717ZM64.8008 42.1924C64.8008 42.5399 64.8702 43.096 65.287 43.235C65.6342 43.4436 65.9815 43.235 66.2593 43.0265C66.5372 42.818 66.8844 42.4704 67.0234 42.0534C67.3706 41.7753 67.5095 40.5936 66.9539 40.3156C66.815 40.2461 66.6066 40.2461 66.3983 40.2461C65.5648 40.4546 64.8702 41.3583 64.8008 42.1924Z" fill="white"/>
<path d="M66.7436 44.6251C66.7436 44.6946 66.813 44.6946 66.8825 44.6946C67.2992 45.6677 66.4657 47.5445 65.7712 48.0311C62.8541 49.8384 65.4934 43.0959 66.7436 44.6251ZM64.1043 48.2396C64.1737 48.3091 64.3821 48.5872 64.4515 48.6567C65.1461 49.2128 66.4657 48.2396 66.9519 47.197C67.3687 46.2933 67.7159 44.6946 66.813 43.9995C66.6741 43.93 66.6047 43.9995 66.5352 44.069C66.1185 43.9995 65.6323 44.347 65.3545 44.7641C64.2432 45.8068 63.6181 47.614 64.1043 48.2396Z" fill="white"/>
<path d="M72.6487 49.6306C72.5793 48.866 70.6345 44.8344 69.7316 46.0161C69.5927 46.1551 69.7316 46.3637 69.8705 46.3637C69.8011 46.3637 69.8011 46.4332 69.7316 46.5027C69.2454 47.9624 70.2872 49.4916 71.1207 50.6038C71.3985 50.8818 71.8153 51.4379 72.232 51.1599C72.7876 50.9513 72.6487 50.0477 72.6487 49.6306Z" fill="white"/>
<path d="M67.7858 52.2716C67.4386 52.2021 67.4386 52.7582 67.7858 52.8277H67.8553C67.7164 52.8277 67.6469 52.9667 67.5775 53.1057C67.4386 54.2874 67.9942 55.4691 68.6193 56.4423C68.6888 56.5813 68.8277 56.6508 68.9666 56.5813C70.703 55.8167 69.3139 52.4802 67.7858 52.2716Z" fill="white"/>
<path d="M67.4378 55.7479C67.4378 55.5393 67.3684 55.4698 67.2295 55.4003C67.0211 55.1223 66.7433 54.9137 66.396 54.7747C66.0487 54.6357 65.9098 55.1223 66.2571 55.2613C66.3265 55.3308 66.396 55.3308 66.4655 55.4003C66.0487 55.4698 65.7709 55.9564 65.7014 56.582C65.5625 57.5551 65.9098 58.9454 66.8127 59.5014C66.9516 59.571 67.16 59.5014 67.2295 59.3624C67.5767 58.3198 67.8546 56.7905 67.4378 55.7479Z" fill="white"/>
<path d="M60.9089 55.0517C61.6035 54.2871 62.6453 54.009 63.6177 54.009C63.5482 54.0785 63.5482 54.2175 63.6871 54.3566C63.6871 54.4261 63.6177 54.4956 63.6177 54.6346C63.5482 54.8431 63.6871 54.9822 63.8955 54.9822C63.5482 55.7468 61.534 56.7199 61.1173 56.7894C59.7976 56.9285 60.4227 55.5382 60.9089 55.0517ZM60.7006 57.2065C61.7424 57.276 65.1457 55.3992 64.2428 54.0785C64.2428 53.9395 64.3122 53.8005 64.3122 53.6615C64.3122 53.5224 64.1733 53.3834 64.0344 53.3834C62.5064 53.3139 61.1173 53.8005 60.1449 55.0517C59.5893 55.8163 59.4504 57.137 60.7006 57.2065Z" fill="white"/>
<path d="M63.6889 60.1265C63.6195 60.1265 63.6195 60.1265 63.55 60.1265C63.55 60.057 63.4806 59.9875 63.4111 59.9875C63.2027 59.918 63.0638 59.918 62.8555 59.918C62.786 59.918 62.6471 59.9875 62.6471 60.057C62.6471 60.4045 62.7165 60.7521 62.786 61.0996C62.7165 61.0996 62.6471 61.1692 62.5776 61.1692C61.8831 61.5167 61.5358 62.5594 61.6747 63.2545C61.8136 63.9496 62.9249 64.8532 63.4111 64.0191C63.6195 63.602 63.6195 63.1155 63.6195 62.6289C63.9667 63.0459 64.2446 63.324 64.8002 63.463C65.078 63.5325 65.3558 63.1155 65.3558 63.0459C65.5642 61.8643 64.6613 60.6826 63.6889 60.1265Z" fill="white"/>
<path d="M57.5765 66.3814C57.2292 67.424 56.6041 69.5789 57.4376 70.552C57.507 70.691 57.6459 70.7605 57.7848 70.8301C58.6878 71.1081 59.4518 68.8838 59.4518 68.8838C59.799 67.9106 60.4241 65.4778 59.5212 64.2961C59.5212 64.2266 59.4518 64.2266 59.4518 64.2266C59.3823 64.2266 59.2434 64.2266 59.174 64.2961C59.1045 64.3656 59.1045 64.5046 59.174 64.5741C59.7296 65.2692 59.3129 68.8838 58.4794 69.9959C58.271 70.3435 58.0627 70.413 57.7848 70.274C57.2292 69.9959 57.6459 68.1192 57.7848 67.4936V67.3545C57.8543 67.0765 58.4099 65.2692 58.6878 65.0607C58.6878 65.0607 58.6878 65.0607 58.7572 65.0607C58.8961 65.1997 59.035 65.1302 59.1045 64.9912C59.1739 64.9217 59.174 64.7826 59.035 64.7131C58.9656 64.6436 58.8961 64.5741 58.8267 64.5741C58.6878 64.5046 58.6183 64.5741 58.4794 64.5741C57.9932 64.8522 57.7154 66.0338 57.5765 66.3814Z" fill="white"/>
<path d="M55.7008 62.559C55.6313 63.1846 56.6037 63.1151 56.951 63.0455C57.2983 62.976 57.8539 62.7675 57.9929 62.3504C58.0623 62.3504 58.0623 62.2809 58.0623 62.2114C58.2707 60.8907 55.7703 61.5163 55.7008 62.559Z" fill="white"/>
<path d="M70.0089 40.6635H70.0783C70.495 41.011 70.9118 41.4976 71.1896 41.8452C71.398 42.1232 72.3703 43.6524 71.4674 43.6524C70.495 43.6524 68.7587 40.8025 70.0089 40.6635ZM69.3143 40.3159C68.203 41.15 70.1478 44.278 71.4674 44.278C72.7176 44.278 72.3703 42.8183 72.0231 42.1232C71.5369 41.2196 70.5645 40.0379 69.5227 39.8294C69.2448 39.7598 69.1059 40.1074 69.3143 40.3159Z" fill="white"/>
<path d="M71.8149 37.2577C72.1622 37.4663 74.3153 39.4126 72.9957 39.3431C72.3011 39.3431 71.6066 38.9955 70.9815 38.7175C70.5648 38.5089 70.2175 38.1614 69.8702 37.7443C69.6618 37.4663 69.5229 37.1882 69.384 36.8407C69.1756 36.3541 69.0367 36.2151 69.5229 36.2846C69.5924 36.2846 69.6618 36.2151 69.6618 36.1456C70.4953 36.3541 71.1898 36.7712 71.8149 37.2577ZM68.7589 36.0066C68.7589 36.0761 68.6895 36.0761 68.6895 36.1456C69.0367 37.3273 69.7313 38.5089 70.912 39.065C71.6066 39.4126 72.7873 39.8991 73.5513 39.5516C74.3848 39.1345 73.0652 37.8138 72.7873 37.6053C71.815 36.6322 70.3564 35.7285 68.8978 35.7285C68.7589 35.7285 68.6895 35.937 68.7589 36.0066Z" fill="white"/>
<path d="M62.7853 25.3016C62.9936 24.9541 63.4104 24.676 63.7576 24.4675C64.3133 24.1199 65.0078 23.9114 65.7024 23.8419C65.1467 24.9541 63.7576 26.0662 62.5074 26.0662C62.5074 25.8577 62.6464 25.5102 62.7853 25.3016ZM62.2296 26.5528C62.5074 27.0394 63.202 26.6918 63.5493 26.4833C63.6187 26.4138 63.6187 26.3443 63.6187 26.2748C64.73 25.8577 65.7024 24.815 66.1191 23.7724C66.1886 23.6334 66.0497 23.5639 65.9802 23.5639C64.7995 23.4943 63.3409 24.1199 62.5769 25.0236C62.2296 25.3711 62.0213 26.0662 62.2296 26.5528Z" fill="white"/>
<path d="M62.0224 58.3887C61.953 58.3887 61.8835 58.3887 61.8835 58.3887C61.8141 58.3887 61.8141 58.4582 61.8141 58.5277C61.8141 58.5972 61.7446 58.6667 61.7446 58.8057C61.7446 58.7362 61.6752 58.6667 61.6057 58.5972C61.6057 58.5972 61.6057 58.5972 61.5362 58.5972C60.9112 58.5277 57.9246 59.0838 57.2995 59.9874C57.1606 60.196 57.1606 60.4045 57.2995 60.613C57.369 60.752 57.5773 60.8911 57.7162 60.9606C58.3413 61.1691 59.2442 60.752 59.7304 60.5435H59.7999C60.3555 60.335 61.953 59.6399 62.2308 58.6667C62.2308 58.5277 62.1614 58.4582 62.0224 58.3887Z" fill="white"/>
<path d="M33.3374 79.4492L33.9625 79.5882L33.7541 80.2833L36.0461 80.9089L35.1432 84.3845L34.4486 84.1759L35.2127 81.326L33.9625 80.9784L33.1985 83.8284L32.5039 83.6198L33.2679 80.7699L32.9206 80.7004L33.3374 79.4492Z" fill="white"/>
<path d="M31.1143 79.3809L32.9202 80.0065L31.7394 83.4124L29.9336 82.7869L30.142 82.1613L31.2532 82.5783L31.5311 81.8137L30.4198 81.3967L30.6281 80.7711L31.7394 81.1881L32.0173 80.4235L30.906 80.0065L31.1143 79.3809Z" fill="white"/>
<path d="M28.1274 78.1289L28.7525 78.4069L28.1274 79.7972L29.3081 80.3532L29.9332 78.963L30.5583 79.2411L29.1692 82.508L28.5441 82.23L29.0998 80.9093L27.919 80.3532L27.3634 81.6739L26.7383 81.3959L28.1274 78.1289Z" fill="white"/>
<path d="M24.5864 79.5896L25.2115 79.9371L26.5312 77.3652L27.1563 77.7128L25.8366 80.2847L26.4617 80.6322L26.1839 81.1883L24.3086 80.2152L24.5864 79.5896Z" fill="white"/>
<path d="M22.2931 77.6426C22.432 77.4341 22.6404 77.2256 22.8488 77.156C23.0571 77.0865 23.2655 77.017 23.5433 77.0865C23.6822 77.0865 23.8211 77.156 23.9601 77.2951C23.9601 77.2951 24.099 77.3646 24.3768 77.5731L25.0713 76.4609L25.6964 76.8085L23.8211 79.867L22.9182 79.3109C22.7098 79.1718 22.5709 79.1023 22.5015 78.9633C22.2931 78.7548 22.2237 78.5462 22.1542 78.3377C22.0847 78.1292 22.1542 77.9207 22.2931 77.6426ZM23.5433 78.9633L24.099 78.1292L23.7517 77.9207C23.4044 77.7121 23.1266 77.7121 22.9182 77.9902C22.7098 78.2682 22.8488 78.5463 23.196 78.7548L23.5433 78.9633Z" fill="white"/>
<path d="M18.6821 73.2644C19.0293 73.0558 19.3766 72.9863 19.7239 72.9863C20.0712 72.9863 20.4184 73.1254 20.6963 73.4034C21.113 73.7509 21.3214 74.168 21.3908 74.6546C21.4603 75.1411 21.3214 75.6277 20.9741 76.0448C20.6268 76.4618 20.2101 76.6704 19.7239 76.7399C19.2377 76.8094 18.7515 76.6704 18.3348 76.3228C17.9875 76.0448 17.7791 75.7667 17.7097 75.4192C17.6402 75.0716 17.6402 74.7241 17.7791 74.307L18.4042 74.7936C18.3348 75.2107 18.4737 75.5582 18.7515 75.7667C19.0293 75.9753 19.3072 76.0448 19.585 75.9753C19.8628 75.9058 20.1406 75.7667 20.349 75.5582C20.5573 75.2802 20.6268 75.0021 20.6268 74.7241C20.6268 74.3765 20.4879 74.0985 20.2101 73.9595C19.8628 73.6814 19.5155 73.6814 19.1682 73.8205L18.6821 73.2644Z" fill="white"/>
<path d="M17.2241 70.2754L17.7103 70.762L15.6961 72.8473L16.599 73.7509L18.6132 71.6656L19.0994 72.1522L16.599 74.7241L14.6543 72.8473L17.2241 70.2754Z" fill="white"/>
<path d="M13.1257 68.329C13.5425 67.9814 13.9592 67.8424 14.5148 67.9119C15.001 67.9814 15.4178 68.19 15.765 68.5375C16.1123 68.9546 16.2512 69.3716 16.1818 69.8582C16.1123 70.3448 15.904 70.7618 15.5567 71.1094C15.1399 71.4569 14.7232 71.5959 14.237 71.5264C13.7508 71.4569 13.3341 71.2484 12.9868 70.9008C12.6396 70.4838 12.5006 70.0667 12.5701 69.5802C12.5006 69.0936 12.709 68.6765 13.1257 68.329ZM13.6119 68.8851C13.3341 69.0936 13.1952 69.3716 13.1952 69.6497C13.1257 69.9972 13.2646 70.2752 13.473 70.4838C13.6814 70.6923 13.9592 70.8313 14.237 70.8313C14.5843 70.8313 14.8621 70.7618 15.0705 70.5533C15.3483 70.3448 15.4872 70.0667 15.4872 69.7887C15.5567 69.4411 15.4178 69.1631 15.2094 68.9546C15.001 68.6765 14.7232 68.607 14.3759 68.5375C14.1676 68.5375 13.8898 68.6765 13.6119 68.8851Z" fill="white"/>
<path d="M10.8342 66.2437C11.0425 66.1047 11.2509 66.0352 11.5287 66.0352C11.7371 66.0352 12.0149 66.1047 12.2233 66.2437C12.3622 66.3132 12.4316 66.4522 12.5706 66.5912C12.5706 66.5912 12.64 66.7303 12.8484 67.0083L13.8902 66.2437L14.3069 66.7998L11.3898 68.8851L10.7647 67.9814C10.6258 67.7729 10.5564 67.6339 10.4869 67.4949C10.4174 67.2168 10.348 67.0083 10.4174 66.7998C10.4869 66.5912 10.6258 66.3827 10.8342 66.2437ZM11.4593 67.9119L12.2927 67.3559L12.0844 67.0778C11.8065 66.7303 11.5982 66.6608 11.3204 66.7998C11.0425 67.0083 11.0425 67.2863 11.2509 67.6339L11.4593 67.9119Z" fill="white"/>
<path d="M9.23643 64.4368L9.5837 65.0624L12.0841 63.5332L12.4314 64.1588L9.93098 65.688L10.2783 66.3136L9.72262 66.6611L8.61133 64.8539L9.23643 64.4368Z" fill="white"/>
<path d="M10.2789 60.0566L10.6262 60.6822L8.54255 61.7249L11.3902 62.0724L11.668 62.6285L8.47309 64.2273L8.12582 63.6017L10.2095 62.559L7.36181 62.2115L7.08398 61.6554L10.2789 60.0566Z" fill="white"/>
<path d="M8.12599 57.7625C8.82055 57.4844 9.30673 57.7625 9.65401 58.5966L10.0707 59.5698L6.73689 60.8905L6.32015 59.9173C6.18124 59.5698 6.18125 59.2917 6.2507 59.0832C6.32016 58.8051 6.52852 58.5966 6.80634 58.5271C7.08416 58.3881 7.36199 58.4576 7.63981 58.6661C7.57035 58.1795 7.70926 57.9015 8.12599 57.7625ZM7.08416 59.0832C6.8758 59.1527 6.80634 59.3612 6.8758 59.7088L7.01471 59.9868L7.77872 59.7088L7.70926 59.5002C7.63981 59.2917 7.5009 59.1527 7.36199 59.1527C7.29253 59.0832 7.22307 59.0832 7.08416 59.0832ZM8.33436 59.5002L9.16783 59.1527L9.02892 58.7356C8.89001 58.3881 8.68164 58.249 8.40382 58.3881C8.126 58.5271 8.05654 58.7356 8.19545 59.0832L8.33436 59.5002Z" fill="white"/>
<path d="M8.19433 54.3574L8.4027 55.0525L7.01359 55.4696L7.43032 56.7207L8.81943 56.2342L9.0278 56.9293L5.62448 58.0414L5.41612 57.3463L6.80522 56.9293L6.38849 55.6781L4.99938 56.0952L4.79102 55.4001L8.19433 54.3574Z" fill="white"/>
<path d="M5.48571 50.742C5.9719 50.603 6.45809 50.742 6.87482 51.0201C7.29155 51.2981 7.56938 51.7152 7.70829 52.2018C7.8472 52.6883 7.70829 53.1749 7.43047 53.592C7.15265 54.009 6.73592 54.2871 6.24973 54.4261C5.76354 54.5651 5.27735 54.4261 4.86062 54.148C4.44389 53.87 4.16606 53.4529 4.02715 52.9664C3.88824 52.4798 4.02715 51.9932 4.30497 51.5762C4.5828 51.0896 4.99953 50.8115 5.48571 50.742ZM5.62463 51.4371C5.27735 51.5066 5.06899 51.6457 4.86062 51.9237C4.65225 52.2018 4.65225 52.4798 4.65225 52.7578C4.72171 53.0359 4.86062 53.3139 5.13844 53.4529C5.41626 53.592 5.69408 53.6615 6.04136 53.592C6.38864 53.5224 6.597 53.3834 6.80537 53.1054C7.01373 52.8273 7.08319 52.5493 7.01374 52.2713C6.94428 51.9237 6.73591 51.7152 6.45809 51.5762C6.24972 51.3676 5.9719 51.3676 5.62463 51.4371Z" fill="white"/>
<path d="M2.42969 48.1707C2.63805 48.1707 2.84642 48.1707 3.05478 48.3098C3.26315 48.4488 3.33261 48.5878 3.33261 48.8658C3.33261 49.0744 3.26315 49.2829 3.12424 49.4219C2.98533 49.5609 2.77696 49.7 2.5686 49.7V49.2829C2.70751 49.2829 2.77696 49.2134 2.84642 49.1439C2.91587 49.0744 2.98533 49.0049 2.91587 48.8658C2.91587 48.6573 2.77696 48.5878 2.49914 48.5878L2.42969 48.1707ZM6.87483 47.0586L6.94429 47.7537L4.65226 48.0317L7.15265 49.3524L7.22211 49.978L3.67988 50.3951L3.61043 49.7L5.97191 49.4219L3.47152 48.1012L3.40206 47.4757L6.87483 47.0586Z" fill="white"/>
<path d="M6.87535 42.3324V43.0275L3.95823 42.958V44.2092L6.87535 44.2787V44.9738L3.26367 44.9043L3.33313 42.1934L6.87535 42.3324Z" fill="white"/>
<path d="M5.55513 38.0213C6.04132 38.0908 6.45805 38.2993 6.80533 38.7164C7.1526 39.1334 7.22206 39.5505 7.1526 40.1066C7.08315 40.5932 6.87478 41.0102 6.45805 41.3578C6.04132 41.7053 5.62458 41.7748 5.06894 41.7748C4.58275 41.7053 4.16602 41.4968 3.81875 41.0797C3.47147 40.6627 3.40201 40.2456 3.47147 39.6895C3.54092 39.203 3.74929 38.7859 4.16602 38.4383C4.58276 38.0908 4.99949 37.9518 5.55513 38.0213ZM5.41622 38.7164C5.06894 38.6469 4.79112 38.7859 4.58275 38.9249C4.30493 39.1334 4.16602 39.342 4.16602 39.6895C4.09657 39.9676 4.23547 40.3151 4.44384 40.5237C4.65221 40.8017 4.93003 40.9407 5.20785 40.9407C5.55513 41.0102 5.83295 40.8712 6.11077 40.7322C6.38859 40.5237 6.52751 40.3151 6.59696 39.9676C6.66642 39.62 6.52751 39.342 6.31914 39.1334C6.04132 38.9249 5.76349 38.7859 5.41622 38.7164Z" fill="white"/>
<path d="M8.68172 35.1023L8.5428 35.7278L7.84825 35.5888L7.43152 37.6046L8.12607 37.7436L7.98716 38.3692L6.66751 38.0912L6.73696 37.8132L4.09766 36.2144L4.23657 35.4498L7.29261 35.1023L7.36206 34.8242L8.68172 35.1023ZM7.15369 35.8669L5.00058 36.0754L6.87587 37.1181L7.15369 35.8669Z" fill="white"/>
<path d="M5.83308 32.1136L5.48581 33.2258L8.26402 34.0599L8.05566 34.755L4.65234 33.7819L5.20799 31.9746L5.83308 32.1136Z" fill="white"/>
<path d="M8.19377 28.8469C8.67995 29.0554 9.02723 29.3335 9.2356 29.82C9.44396 30.3066 9.44396 30.7237 9.30505 31.2102C9.09669 31.6968 8.81887 32.0444 8.33268 32.2529C7.84649 32.4614 7.3603 32.4614 6.87411 32.3224C6.38793 32.1139 6.04065 31.8358 5.83228 31.3493C5.62392 30.8627 5.62392 30.3761 5.76283 29.9591C5.97119 29.4725 6.24902 29.1249 6.7352 28.9164C7.29085 28.7079 7.70758 28.7079 8.19377 28.8469ZM7.9854 29.542C7.70758 29.403 7.3603 29.403 7.08248 29.542C6.80466 29.681 6.59629 29.8895 6.45738 30.1676C6.31847 30.4456 6.38793 30.7237 6.52684 31.0712C6.66575 31.3493 6.87411 31.5578 7.22139 31.6968C7.49921 31.8358 7.84649 31.8358 8.12431 31.6968C8.40213 31.5578 8.6105 31.3493 8.74941 31.0712C8.88832 30.7932 8.81887 30.4456 8.67996 30.1676C8.47159 29.8895 8.26322 29.681 7.9854 29.542Z" fill="white"/>
<path d="M8.19489 26.3444L7.91707 26.97L10.5564 28.2212L10.2786 28.8468L7.56979 27.6651L7.29197 28.2907L6.73633 28.0127L7.63925 26.0664L8.19489 26.3444Z" fill="white"/>
<path d="M11.0431 23.4948C11.5293 23.7729 11.8071 24.1204 11.946 24.607C12.085 25.0936 12.0155 25.5801 11.7377 25.9972C11.4599 26.4143 11.1126 26.7618 10.6264 26.9008C10.1402 27.0399 9.65402 26.9704 9.23728 26.6923C8.82055 26.4143 8.47328 26.0667 8.40382 25.5801C8.33437 25.0936 8.33436 24.607 8.61218 24.1899C8.89001 23.7729 9.23729 23.4253 9.72348 23.2863C10.1402 23.1473 10.6264 23.2168 11.0431 23.4948ZM10.6958 24.1204C10.418 23.9814 10.1402 23.9119 9.79293 23.9814C9.51511 24.0509 9.23729 24.2595 9.09838 24.5375C8.95946 24.8155 8.89001 25.0936 9.02892 25.4411C9.09838 25.7192 9.30674 25.9972 9.58456 26.1362C9.86238 26.2753 10.1402 26.3448 10.4875 26.2753C10.8348 26.2057 11.0431 25.9972 11.182 25.7192C11.3209 25.4411 11.3904 25.1631 11.2515 24.8155C11.182 24.5375 10.9737 24.2595 10.6958 24.1204Z" fill="white"/>
<path d="M13.335 21.4781C13.9601 21.8951 13.9601 22.4512 13.4739 23.2158L12.8488 24.1195L9.93164 22.1037L10.5567 21.2695C10.7651 20.9915 10.9735 20.783 11.1818 20.7134C11.4597 20.6439 11.7375 20.6439 11.9458 20.8525C12.2237 21.061 12.2931 21.2695 12.2931 21.6171C12.6404 21.2 12.9877 21.2 13.335 21.4781ZM11.5986 21.339C11.3902 21.2 11.1818 21.2695 11.0429 21.5476L10.8346 21.8256L11.5291 22.3122L11.668 22.1037C11.8069 21.8951 11.8764 21.7561 11.8069 21.6171C11.8069 21.4781 11.7375 21.4086 11.5986 21.339ZM12.0153 22.5902L12.7793 23.1463L12.9877 22.7988C13.196 22.5207 13.196 22.2427 12.9182 22.1037C12.6404 21.8951 12.432 21.9646 12.2237 22.3122L12.0153 22.5902Z" fill="white"/>
<path d="M13.4736 17.377L14.0292 19.5318L16.2518 19.6708L15.6962 20.3659L13.6819 20.2269L15.0016 21.2695L14.5849 21.8256L11.8066 19.6013L12.2234 19.0452L13.543 20.0878L12.9874 18.0721L13.4736 17.377Z" fill="white"/>
<path d="M18.4052 17.3774L17.919 17.8639L16.2521 16.1957L16.8772 18.9761L16.4605 19.3932L13.8906 16.8908L14.3768 16.4042L16.0437 18.0725L15.4186 15.2921L15.8354 14.875L18.4052 17.3774Z" fill="white"/>
<path d="M21.9464 12.9984C22.0853 13.346 22.0853 13.763 21.9464 14.1106C21.877 14.4581 21.6686 14.7362 21.3213 15.0142C20.9046 15.3618 20.4184 15.5008 19.9322 15.4313C19.446 15.3618 19.0293 15.1533 18.682 14.7362C18.3347 14.3191 18.2653 13.9021 18.3347 13.346C18.4042 12.8594 18.6126 12.4423 19.0293 12.0948C19.3766 11.8168 19.7239 11.7472 20.0711 11.6777C20.4184 11.6777 20.7657 11.7472 21.113 11.9558L20.4879 12.4423C20.0711 12.3033 19.7239 12.3033 19.446 12.5814C19.1682 12.7899 19.0293 12.9984 19.0293 13.346C19.0293 13.6935 19.0988 13.9716 19.3071 14.1801C19.5155 14.4581 19.7933 14.5972 20.0711 14.6667C20.4184 14.7362 20.6962 14.6667 20.9046 14.4581C21.2519 14.1801 21.3908 13.9021 21.3213 13.485L21.9464 12.9984Z" fill="white"/>
<path d="M25.2114 12.2342L24.5863 12.5818L22.9888 10.1489L21.947 10.844L23.5445 13.2769L22.9194 13.6244L20.9746 10.6355L23.2666 9.17578L25.2114 12.2342Z" fill="white"/>
<path d="M28.0576 8.75801C28.266 9.24458 28.3354 9.73115 28.1965 10.1482C28.0576 10.6348 27.7103 10.9823 27.2936 11.2604C26.8074 11.4689 26.3907 11.5384 25.9045 11.3994C25.4183 11.2604 25.071 10.9128 24.7932 10.4958C24.5848 10.0092 24.5154 9.59213 24.6543 9.10556C24.7932 8.61899 25.1405 8.27144 25.5572 8.06291C26.0434 7.85438 26.4601 7.78487 26.9463 7.92389C27.4325 7.9934 27.7798 8.27144 28.0576 8.75801ZM27.3631 9.03605C27.2241 8.75801 27.0158 8.54948 26.6685 8.41046C26.3907 8.27144 26.0434 8.34095 25.7656 8.47997C25.4878 8.61899 25.2794 8.82752 25.2099 9.17507C25.1405 9.45311 25.1405 9.80066 25.2794 10.0787C25.4183 10.3567 25.6267 10.5653 25.974 10.7043C26.2518 10.8433 26.5991 10.7738 26.8769 10.6348C27.1547 10.4958 27.3631 10.2872 27.4325 9.93968C27.5714 9.66164 27.5714 9.3836 27.3631 9.03605Z" fill="white"/>
<path d="M30.5601 7.02012C30.6295 7.29816 30.699 7.50669 30.6295 7.71522C30.5601 7.92376 30.4212 8.13229 30.2823 8.34082C30.1433 8.41033 30.0044 8.47984 29.8655 8.61886C29.8655 8.61886 29.7266 8.68837 29.4488 8.82739L29.935 10.0091L29.3099 10.2871L27.9902 6.95061L28.9626 6.53355C29.171 6.46404 29.3099 6.39453 29.5183 6.39453C29.7961 6.39453 30.0044 6.39453 30.2128 6.53355C30.3517 6.60306 30.4906 6.74208 30.5601 7.02012ZM28.8237 7.22865L29.171 8.2018L29.5183 8.06278C29.935 7.92376 30.0739 7.64571 29.935 7.36767C29.7961 7.02012 29.5183 6.95061 29.171 7.15914L28.8237 7.22865Z" fill="white"/>
<path d="M32.7119 5.83963L32.0174 6.04816L32.9203 8.82857L32.2258 9.0371L31.3228 6.2567L30.6283 6.46523L30.4199 5.83963L32.4341 5.14453L32.7119 5.83963Z" fill="white"/>
<path d="M36.7397 7.85442L36.0452 7.99344L35.4895 5.6996L34.5172 8.34099L33.8921 8.48001L33.0586 5.0045L33.7531 4.86548L34.3088 7.15932L35.2812 4.51793L35.9063 4.37891L36.7397 7.85442Z" fill="white"/>
<path d="M39.449 6.25507C39.5879 6.95018 39.1712 7.43675 38.3377 7.57577L37.2959 7.71479L36.7402 4.16977L37.7821 4.03075C38.1293 3.96123 38.4072 4.03075 38.6155 4.10026C38.8934 4.23928 39.0323 4.44781 39.0323 4.79536C39.1017 5.14291 38.9628 5.35144 38.7545 5.55997C39.1712 5.62948 39.3796 5.83801 39.449 6.25507ZM38.3377 5.00389C38.2683 4.72585 38.1293 4.65634 37.7821 4.72585L37.4348 4.79536L37.5737 5.55997L37.8515 5.49046C38.0599 5.42095 38.1988 5.35144 38.2683 5.28193C38.3377 5.14291 38.3377 5.0734 38.3377 5.00389ZM37.7126 6.11605L37.8515 7.01969L38.2683 6.95018C38.6155 6.88067 38.8239 6.74165 38.7545 6.39409C38.685 6.11605 38.4766 5.97703 38.1293 6.04654L37.7126 6.11605Z" fill="white"/>
<path d="M42.7834 7.08994L42.0889 7.15945L41.95 5.69974L40.6303 5.76925L40.7692 7.22896L40.0747 7.29847L39.7969 3.75345L40.4914 3.68394L40.6303 5.07415L41.95 5.00464L41.8805 3.61443L42.5751 3.54492L42.7834 7.08994Z" fill="white"/>
<path d="M45.6319 6.04729C45.6319 6.39484 45.493 6.67289 45.2151 6.88142C45.0068 7.02044 44.6595 7.08995 44.3122 7.08995H43.3398L43.4093 3.54492H44.1039V4.93513C44.4511 4.93513 44.729 4.93513 44.8679 5.00464C45.3541 5.14366 45.6319 5.49121 45.6319 6.04729ZM44.9373 6.04729C44.9373 5.83876 44.8679 5.69974 44.7984 5.63023C44.729 5.56072 44.5206 5.56072 44.3817 5.56072H44.1733V6.53386H44.3817C44.6595 6.46435 44.8679 6.32533 44.9373 6.04729ZM46.5348 7.15946H45.8402L45.9097 3.61443H46.6043L46.5348 7.15946Z" fill="white"/>
<path d="M50.076 7.57582L49.2426 7.50631L48.548 6.1161L47.5756 7.36729L46.7422 7.29778L48.2007 5.62953L47.2978 3.82227L48.1313 3.89177L48.6869 5.14296L49.5204 4.0308L50.3539 4.10031L49.0342 5.69904L50.076 7.57582Z" fill="white"/>
<path d="M55.3553 7.6468C55.147 7.99435 54.8692 8.20288 54.5219 8.3419C54.1746 8.48092 53.8273 8.48092 53.48 8.41141C52.9939 8.27239 52.5771 7.99435 52.2993 7.57729C52.0215 7.16023 51.952 6.67365 52.0909 6.18708C52.2299 5.70051 52.5077 5.28345 52.9244 5.07492C53.3411 4.79687 53.8273 4.72736 54.3135 4.86639C54.7302 4.9359 55.0081 5.14443 55.2859 5.42247C55.4942 5.70051 55.6332 6.04806 55.7026 6.46512L54.9386 6.25659C54.7997 5.83953 54.5913 5.631 54.1746 5.49198C53.8968 5.42247 53.5495 5.49198 53.3411 5.631C53.0633 5.77002 52.9244 6.04806 52.8549 6.3261C52.7855 6.67365 52.7855 6.9517 52.9244 7.22974C53.0633 7.50778 53.2717 7.71631 53.619 7.78582C54.0357 7.85533 54.3135 7.78582 54.6608 7.50778L55.3553 7.6468Z" fill="white"/>
<path d="M57.9945 8.619C57.8556 8.96655 57.6473 9.17508 57.3694 9.3141C57.0916 9.38361 56.8138 9.38361 56.3971 9.24459L55.4941 8.89704L56.6749 5.56055L58.6196 6.25565L58.4113 6.88124L57.1611 6.46418L56.9527 7.15928L57.2305 7.22879C57.9251 7.43733 58.2029 7.9239 57.9945 8.619ZM57.3 8.34096C57.3694 8.13243 57.3694 7.99341 57.3 7.9239C57.2305 7.85439 57.0916 7.78488 56.8833 7.71537L56.6054 7.64586L56.2582 8.54949L56.536 8.619C56.9527 8.75802 57.2305 8.68851 57.3 8.34096Z" fill="white"/>
<path d="M61.9541 9.59312C61.7457 10.0797 61.3984 10.4272 60.9122 10.5663C60.426 10.7748 59.9398 10.7053 59.4537 10.4968C58.9675 10.2882 58.6896 9.94067 58.4813 9.4541C58.2729 8.96753 58.3424 8.48096 58.5507 8.0639C58.7591 7.57733 59.1064 7.29928 59.5926 7.09075C60.0788 6.88222 60.565 6.95173 60.9817 7.16026C61.4679 7.3688 61.7457 7.71635 61.9541 8.20292C62.1624 8.68949 62.1624 9.10655 61.9541 9.59312ZM61.329 9.31508C61.4679 9.03704 61.4679 8.759 61.3984 8.41145C61.329 8.13341 61.1206 7.92488 60.8428 7.78586C60.5649 7.64684 60.2871 7.64684 59.9399 7.78586C59.5926 7.92488 59.4537 8.13341 59.3147 8.41145C59.1758 8.68949 59.1758 9.03704 59.2453 9.31508C59.3148 9.59312 59.5231 9.87116 59.8009 10.0102C60.0788 10.1492 60.426 10.1492 60.7039 10.0102C60.9817 9.80165 61.1901 9.59312 61.329 9.31508Z" fill="white"/>
<path d="M64.871 10.4966C64.7321 10.7051 64.5932 10.9137 64.3848 10.9832C64.1764 11.1222 63.9681 11.1222 63.6902 11.0527C63.5513 11.0527 63.4124 10.9832 63.204 10.9137C63.204 10.9137 63.0651 10.8442 62.7873 10.7051L62.1622 11.8173L61.5371 11.4698L63.2735 8.3418L64.1764 8.89788C64.3848 9.0369 64.5237 9.10641 64.5932 9.24543C64.8015 9.45396 64.871 9.66249 64.9404 9.87102C65.0793 10.01 65.0099 10.2881 64.871 10.4966ZM63.6208 9.24543L63.1346 10.1491L63.4819 10.3576C63.8291 10.5661 64.107 10.5661 64.3153 10.2186C64.4542 9.94053 64.3848 9.66249 64.0375 9.45396L63.6208 9.24543Z" fill="white"/>
<path d="M66.1894 14.3893L65.6337 13.9722L66.4672 12.721L65.3559 11.9564L64.5224 13.2076L63.9668 12.7905L65.981 9.87109L66.5367 10.2882L65.7032 11.4698L66.8145 12.2344L67.6479 11.0528L68.2036 11.4698L66.1894 14.3893Z" fill="white"/>
<path d="M69.1078 15.2927C68.8995 15.5708 68.6216 15.7098 68.2744 15.7098C67.9965 15.7098 67.7187 15.5708 67.3714 15.2927L66.6074 14.6671L68.8995 11.8867L69.4551 12.3733L68.6216 13.4159C68.8995 13.6245 69.1078 13.833 69.1773 13.972C69.5246 14.3891 69.4551 14.8757 69.1078 15.2927ZM68.5522 14.8061C68.6911 14.6671 68.6911 14.5281 68.6911 14.3891C68.6216 14.2501 68.5522 14.1806 68.4133 14.0415L68.2049 13.9025L67.5798 14.6671L67.7882 14.8061C68.1354 15.0842 68.4133 15.0842 68.5522 14.8061ZM69.1773 16.7524L68.6216 16.2659L70.9137 13.4855L71.4693 13.972L69.1773 16.7524Z" fill="white"/>
<path d="M71.6768 19.254L71.1212 18.698L71.4684 17.1687L69.9404 17.5163L69.3848 16.9602L71.5379 16.5431L71.9546 14.5273L72.5103 15.0834L72.163 16.4736L73.4826 16.1261L74.0383 16.6822L72.0241 17.0992L71.6768 19.254Z" fill="white"/>
<path d="M77.3017 20.5755L75.0791 20.6451L74.454 22.7999L73.8984 22.1048L74.5235 20.1585L73.2038 21.2011L72.7871 20.6451L75.6348 18.4902L76.0515 19.0463L74.7319 20.089L76.8155 20.0195L77.3017 20.5755Z" fill="white"/>
<path d="M77.9274 24.7455C77.5107 25.0236 77.0245 25.0931 76.5383 25.0236C76.0521 24.8846 75.6354 24.676 75.3576 24.1894C75.0797 23.7724 75.0103 23.2858 75.0797 22.7992C75.2186 22.3127 75.4965 21.8956 75.9132 21.6176C76.3299 21.3395 76.8161 21.27 77.3023 21.3395C77.7885 21.4785 78.2052 21.7566 78.4831 22.1736C78.7609 22.5907 78.8303 23.0773 78.7609 23.5639C78.622 24.1199 78.3442 24.4675 77.9274 24.7455ZM77.5107 24.1894C77.7885 23.9809 77.9274 23.7724 78.0663 23.4943C78.1358 23.2163 78.0663 22.8687 77.9274 22.6602C77.7885 22.3822 77.5107 22.2432 77.1634 22.1736C76.8161 22.1041 76.5383 22.1736 76.2605 22.3127C75.9827 22.5212 75.8438 22.7297 75.7048 23.0773C75.6354 23.4248 75.6354 23.7029 75.8438 23.9809C76.0521 24.259 76.2605 24.398 76.6078 24.4675C76.955 24.398 77.2329 24.3285 77.5107 24.1894Z" fill="white"/>
<path d="M81.4699 27.8044L78.275 29.4032L77.9972 28.7776L79.803 27.874C79.8724 27.8044 80.0114 27.8044 80.1503 27.7349C80.2892 27.6654 80.4281 27.5959 80.4975 27.5959L77.6499 27.9435L77.4415 27.5264L79.4557 25.4411C79.3863 25.4411 79.3168 25.5106 79.1779 25.5801C79.039 25.6496 78.9695 25.7191 78.9001 25.7191L77.0942 26.6228L76.8164 25.9972L80.0114 24.3984L80.4281 25.3021L78.4833 27.2484L81.1921 26.9008L81.4699 27.8044Z" fill="white"/>
<path d="M79.5256 32.8088L79.2478 32.1137L79.8729 31.5576L79.3867 30.3064H78.5532L78.2754 29.6113L82.0955 29.6808L82.3038 30.2369L79.5256 32.8088ZM80.4285 31.1406L81.4704 30.2369L80.0812 30.3064L80.4285 31.1406Z" fill="white"/>
<path d="M80.3578 35.5891L80.1494 34.894L81.608 34.477L81.2607 33.2258L79.8021 33.6429L79.5938 32.9478L82.9971 31.9746L83.2055 32.6697L81.8163 33.0868L82.1636 34.338L83.5527 33.9209L83.7611 34.616L80.3578 35.5891Z" fill="white"/>
<path d="M80.3595 39.2724L80.2206 38.6468L80.9151 38.5078L80.5678 36.5615L79.8733 36.7005L79.7344 36.0749L81.054 35.7969L81.1235 36.0749L84.1795 36.492L84.3184 37.2566L81.6097 38.7858L81.6791 39.0639L80.3595 39.2724ZM81.4708 38.0212L83.346 36.9785L81.1929 36.7005L81.4708 38.0212Z" fill="white"/>
<path d="M82.5119 44.2083C82.1646 44.0693 81.8174 43.8607 81.609 43.5827C81.4006 43.3047 81.2617 42.9571 81.2617 42.54C81.2617 41.984 81.4006 41.5669 81.7479 41.2193C82.0952 40.8718 82.5119 40.6633 83.0676 40.5938C83.5537 40.5938 84.0399 40.7328 84.3872 41.0803C84.7345 41.4279 84.9429 41.8449 85.0123 42.3315C85.0123 42.7486 84.9429 43.0961 84.7345 43.3742C84.5261 43.6522 84.2483 43.9302 83.901 44.0693L83.8316 43.3047C84.1788 43.0961 84.3178 42.7486 84.3178 42.3315C84.3178 41.984 84.1788 41.7754 83.901 41.5669C83.6232 41.3584 83.3454 41.2889 83.0676 41.2889C82.7203 41.2889 82.4425 41.4279 82.2341 41.6364C82.0257 41.8449 81.8868 42.123 81.8868 42.4705C81.8868 42.8876 82.0952 43.1656 82.4425 43.3742L82.5119 44.2083Z" fill="white"/>
<path d="M81.2617 47.6142V46.8496L82.0257 46.5715L82.0952 45.2508L81.3312 44.9033V44.1387L84.8734 45.6679V46.2935L81.2617 47.6142ZM82.7203 46.363L84.0399 45.9459L82.7203 45.4594V46.363Z" fill="white"/>
<path d="M84.2473 51.9929L80.7051 51.5063L80.7745 50.8112L82.7887 51.0892C82.8582 51.0892 82.9971 51.0893 83.136 51.1588C83.2749 51.1588 83.4138 51.2283 83.4833 51.2283L80.9134 49.9076L80.9829 49.421L83.8306 48.8649C83.7611 48.8649 83.6222 48.8649 83.4833 48.8649C83.3444 48.8649 83.2055 48.8649 83.136 48.7954L81.1218 48.5174L81.1913 47.8223L84.7335 48.3088L84.5946 49.282L81.8858 49.7686L84.3168 51.0197L84.2473 51.9929Z" fill="white"/>
<path d="M79.873 54.983L80.0814 54.2184L80.9149 54.1488L81.2622 52.8977L80.5676 52.4111L80.776 51.6465L83.9015 53.8708L83.7625 54.4964L79.873 54.983ZM81.54 54.0793L82.9291 53.9403L81.7483 53.1757L81.54 54.0793Z" fill="white"/>
<path d="M81.3996 58.2502C81.1218 58.1807 80.9134 58.0417 80.7745 57.8331C80.6356 57.6246 80.5661 57.4161 80.5661 57.138C80.5661 56.999 80.5661 56.86 80.6356 56.6515C80.6356 56.6515 80.7051 56.5124 80.7745 56.1649L79.5938 55.7478L79.8021 55.0527L83.2055 56.1649L82.8582 57.2076C82.7888 57.4161 82.7193 57.5551 82.6498 57.6941C82.5109 57.9027 82.3026 58.0417 82.0942 58.1112C81.8858 58.1807 81.608 58.3892 81.3996 58.2502ZM82.372 56.7905L81.3996 56.4429L81.2607 56.7905C81.1218 57.2076 81.1913 57.4856 81.5385 57.5551C81.8858 57.6941 82.0942 57.4856 82.2331 57.138L82.372 56.7905Z" fill="white"/>
<path d="M78.6226 61.3766C78.3448 61.0985 78.1364 60.751 78.0669 60.4034C77.9975 60.0559 77.9975 59.7083 78.2058 59.3608C78.4142 58.8742 78.7615 58.5266 79.2477 58.3876C79.7339 58.1791 80.2201 58.2486 80.7062 58.4571C81.1924 58.6657 81.5397 59.0132 81.6786 59.4998C81.887 59.9864 81.8175 60.4729 81.6786 60.89C81.5397 61.2376 81.2619 61.5156 80.9841 61.7241C80.6368 61.9327 80.2895 62.0022 79.9422 61.9327L80.2201 61.2376C80.6368 61.168 80.9146 60.9595 81.123 60.612C81.2619 60.3339 81.2619 60.0559 81.123 59.7083C80.9841 59.4303 80.7757 59.2218 80.4979 59.0827C80.2201 58.9437 79.8728 58.9437 79.5949 59.0132C79.2477 59.0827 79.0393 59.2913 78.9004 59.6388C78.7615 59.9864 78.7615 60.3339 79.0393 60.6815L78.6226 61.3766Z" fill="white"/>
<path d="M79.1782 65.3406L78.2753 63.3248L76.0527 63.6028L76.4695 62.8382L78.4837 62.6296L77.0251 61.7955L77.3724 61.1699L80.4979 62.9077L80.1506 63.5333L78.692 62.6992L79.595 64.5759L79.1782 65.3406Z" fill="white"/>
<path d="M75.6359 67.5647C75.2191 67.2866 74.9413 66.8696 74.8024 66.383C74.7329 65.8964 74.8024 65.4099 75.0802 64.9928C75.358 64.5757 75.7748 64.2977 76.261 64.2282C76.7471 64.1587 77.2333 64.2282 77.6501 64.5062C78.0668 64.7843 78.3446 65.2013 78.4141 65.6879C78.4835 66.1745 78.4141 66.6611 78.1362 67.0781C77.8584 67.4952 77.4417 67.7732 76.9555 67.8427C76.5388 67.9818 76.0526 67.8427 75.6359 67.5647ZM76.0526 67.0086C76.3304 67.2171 76.6082 67.2171 76.9555 67.2171C77.3028 67.1476 77.5111 67.0086 77.7195 66.7306C77.8584 66.4525 77.9279 66.1745 77.8584 65.8964C77.789 65.5489 77.5806 65.3404 77.3722 65.1318C77.0944 64.9233 76.8166 64.9233 76.4693 64.9233C76.122 64.9928 75.9137 65.1318 75.7053 65.4099C75.4969 65.6879 75.497 65.966 75.5664 66.3135C75.5664 66.522 75.7748 66.8001 76.0526 67.0086Z" fill="white"/>
<path d="M72.0234 69.1618L72.4402 68.6058L74.246 70.135L73.4125 67.4241L73.8293 66.9375L76.6075 69.1618L76.1908 69.7179L74.3849 68.2582L75.2184 70.9691L74.8017 71.4557L72.0234 69.1618ZM75.9824 71.5252C75.774 71.3862 75.7046 71.1776 75.7046 70.9691C75.7046 70.7606 75.7046 70.552 75.8435 70.3435C75.9824 70.135 76.1908 70.0655 76.3991 70.0655C76.6075 70.0655 76.8159 70.135 77.0242 70.274L76.7464 70.6216C76.677 70.552 76.538 70.4825 76.4686 70.4825C76.3991 70.4825 76.2602 70.4825 76.1908 70.6216C76.0518 70.7606 76.1213 70.9691 76.2602 71.1081L75.9824 71.5252Z" fill="white"/>
<path d="M69.2456 74.376C68.8983 73.9589 68.6899 73.5419 68.7594 73.0553C68.7594 72.5687 68.9678 72.1517 69.3845 71.7346C69.7318 71.3871 70.218 71.248 70.7042 71.248C71.1904 71.248 71.6765 71.4566 72.0238 71.8736C72.3711 72.2212 72.51 72.7078 72.51 73.1943C72.51 73.6809 72.3016 74.1675 71.8849 74.515C71.5376 74.8626 71.0514 75.0016 70.5652 75.0016C70.0096 75.0016 69.5929 74.7931 69.2456 74.376ZM69.8012 73.8894C70.0096 74.098 70.2874 74.237 70.6347 74.3065C70.982 74.3065 71.2598 74.237 71.4682 74.0285C71.6765 73.8199 71.8154 73.5419 71.8154 73.1943C71.8154 72.8468 71.6765 72.5687 71.4682 72.3602C71.2598 72.1517 70.982 72.0127 70.6347 71.9431C70.2874 71.9431 70.0096 72.0127 69.8012 72.2212C69.5234 72.4297 69.454 72.7078 69.454 73.0553C69.454 73.4029 69.5929 73.6809 69.8012 73.8894Z" fill="white"/>
<path d="M66.6055 75.5575C66.3971 75.2795 66.3277 74.9319 66.3971 74.6539C66.4666 74.3758 66.675 74.0978 66.9528 73.8893L67.7168 73.2637L69.8699 76.1136L68.2724 77.3648L67.8557 76.8782L68.8975 76.0441L68.4808 75.488L68.2724 75.627C67.5779 76.1831 67.0222 76.1831 66.6055 75.5575ZM67.0917 75.1405C67.2306 75.2795 67.3001 75.349 67.439 75.349C67.5779 75.349 67.7168 75.2795 67.8557 75.1405L68.0641 75.0014L67.5084 74.2368L67.3001 74.3758C67.0222 74.6539 66.9528 74.9319 67.0917 75.1405Z" fill="white"/>
<path d="M63.2031 76.5307L63.8282 76.1137L66.0508 77.9209L65.2868 75.21L65.9119 74.793L66.8842 78.477L66.2591 78.8941L63.2031 76.5307Z" fill="white"/>
<path d="M60.2852 78.0597L60.9797 77.7121L61.6048 78.2682L62.7856 77.6426L62.6466 76.8085L63.3412 76.4609L63.7579 80.284L63.2023 80.562L60.2852 78.0597ZM62.0216 78.6853L63.0634 79.6584L62.855 78.2682L62.0216 78.6853Z" fill="white"/>
<path d="M57.5781 80.4234C57.5781 80.0064 57.6476 79.6588 57.856 79.3808C58.0643 79.1028 58.3421 78.8247 58.6894 78.6857C59.1756 78.4772 59.6618 78.4772 60.148 78.6857C60.6342 78.8942 60.9814 79.2418 61.1898 79.6588C61.3982 80.1454 61.3982 80.632 61.1898 81.049C60.9814 81.5356 60.7036 81.8832 60.2174 82.0917C59.8702 82.2307 59.4534 82.3002 59.1061 82.2307C58.7589 82.1612 58.4116 81.9527 58.1338 81.6746L58.8283 81.3966C59.1756 81.6746 59.5229 81.6746 59.8702 81.5356C60.148 81.3966 60.3563 81.1881 60.4953 80.91C60.6342 80.632 60.5647 80.2844 60.4258 80.0064C60.2869 79.7284 60.0785 79.5198 59.8007 79.3808C59.5229 79.2418 59.1756 79.2418 58.8978 79.3808C58.5505 79.5198 58.3421 79.7979 58.2727 80.2149L57.5781 80.4234Z" fill="white"/>
<path d="M56.0493 82.8557L56.7439 82.6471L55.7715 79.8667L56.466 79.6582L57.4384 82.4386L58.133 82.2301L58.3413 82.8557L56.3271 83.5508L56.0493 82.8557Z" fill="white"/>
<path d="M52.0215 80.9091L52.716 80.7006L53.3411 82.9944L54.2441 80.2835L54.8692 80.1445L55.7721 83.62L55.0775 83.8286L54.4524 81.5347L53.5495 84.2456L52.9244 84.3847L52.0215 80.9091Z" fill="white"/>
<defs>
<linearGradient id="paint0_linear_13_89974" x1="44.0213" y1="12.3516" x2="44.0213" y2="75.7449" gradientUnits="userSpaceOnUse">
<stop stop-color="#1AB8EC"/>
<stop offset="1" stop-color="#02489F"/>
</linearGradient>
<linearGradient id="paint1_linear_13_89974" x1="44.0336" y1="-0.0683594" x2="44.0336" y2="87.9316" gradientUnits="userSpaceOnUse">
<stop stop-color="#1AB8EC"/>
<stop offset="1" stop-color="#02489F"/>
</linearGradient>
</defs>
</svg>
