<svg width="32" height="32" viewBox="0 0 32 32" fill="none" xmlns="http://www.w3.org/2000/svg">
<g clip-path="url(#clip0_13_90142)">
<path d="M20.5273 10.3418H11.4799C11.1791 10.3432 10.8911 10.4636 10.679 10.6768C10.4668 10.89 10.3477 11.1785 10.3477 11.4793V20.5215C10.3477 20.8218 10.4669 21.1098 10.6793 21.3221C10.8916 21.5344 11.1796 21.6537 11.4799 21.6537H20.5273C20.8276 21.6537 21.1156 21.5344 21.328 21.3221C21.5403 21.1098 21.6596 20.8218 21.6596 20.5215V11.4793C21.6596 11.1785 21.5405 10.89 21.3283 10.6768C21.1161 10.4636 20.8281 10.3432 20.5273 10.3418ZM16.0036 13.7385C16.4517 13.7385 16.8897 13.8714 17.2622 14.1205C17.6347 14.3696 17.925 14.7235 18.0962 15.1376C18.2674 15.5517 18.312 16.0073 18.2242 16.4467C18.1364 16.8861 17.9202 17.2896 17.603 17.606C17.2858 17.9225 16.8818 18.1378 16.4422 18.2246C16.0026 18.3114 15.5471 18.2658 15.1334 18.0936C14.7197 17.9214 14.3664 17.6303 14.1182 17.2572C13.87 16.8842 13.7381 16.4458 13.7391 15.9978C13.7405 15.3981 13.9797 14.8234 14.4042 14.3999C14.8288 13.9764 15.4039 13.7385 16.0036 13.7385ZM11.7616 20.5215C11.7238 20.5247 11.6858 20.5195 11.6502 20.5065C11.6146 20.4935 11.5822 20.4728 11.5554 20.446C11.5286 20.4192 11.5079 20.3868 11.4949 20.3512C11.4818 20.3156 11.4767 20.2775 11.4799 20.2397V15.4342H12.6643C12.6171 15.6182 12.5978 15.8081 12.6069 15.9978C12.5813 16.459 12.6501 16.9205 12.8089 17.3543C12.9678 17.788 13.2135 18.1848 13.5309 18.5203C13.8484 18.8559 14.2309 19.1231 14.6552 19.3058C15.0794 19.4885 15.5365 19.5827 15.9984 19.5827C16.4603 19.5827 16.9174 19.4885 17.3416 19.3058C17.7659 19.1231 18.1484 18.8559 18.4659 18.5203C18.7833 18.1848 19.029 17.788 19.1879 17.3543C19.3467 16.9205 19.4155 16.459 19.3899 15.9978C19.399 15.8081 19.3797 15.6182 19.3325 15.4342H20.5221V20.2397C20.5244 20.2773 20.5187 20.315 20.5053 20.3502C20.492 20.3854 20.4713 20.4174 20.4447 20.444C20.418 20.4707 20.3861 20.4913 20.3508 20.5047C20.3156 20.518 20.278 20.5238 20.2404 20.5215H11.7616ZM20.5273 12.8932C20.5289 12.9304 20.5226 12.9675 20.5089 13.0021C20.4952 13.0367 20.4744 13.068 20.4479 13.0941C20.4213 13.1201 20.3896 13.1403 20.3547 13.1534C20.3199 13.1664 20.2827 13.172 20.2456 13.1698H19.1134C19.076 13.1728 19.0385 13.1678 19.0032 13.1551C18.968 13.1424 18.9359 13.1222 18.9092 13.096C18.8825 13.0697 18.8617 13.038 18.8483 13.0031C18.8349 12.9681 18.8292 12.9306 18.8316 12.8932V11.761C18.8284 11.7232 18.8335 11.6852 18.8466 11.6495C18.8596 11.6139 18.8803 11.5816 18.9071 11.5548C18.9339 11.5279 18.9663 11.5073 19.0019 11.4942C19.0375 11.4812 19.0756 11.4761 19.1134 11.4793H20.2456C20.2832 11.477 20.3208 11.4827 20.3561 11.496C20.3913 11.5094 20.4233 11.5301 20.4499 11.5567C20.4765 11.5833 20.4972 11.6153 20.5106 11.6505C20.5239 11.6858 20.5296 11.7234 20.5273 11.761V12.8932Z" fill="white"/>
<path d="M21.9125 29.0985C18.7736 30.5182 15.2292 30.7639 11.9245 29.7907C8.61972 28.8175 5.77416 26.6903 3.90558 23.796C2.03701 20.9017 1.26961 17.4327 1.74303 14.0204C2.21645 10.608 3.89922 7.47896 6.48514 5.20266C9.07106 2.92637 12.3883 1.6541 15.8331 1.61735C19.278 1.5806 22.6216 2.78182 25.2555 5.00243C27.8894 7.22304 29.6385 10.3155 30.1846 13.717C30.7307 17.1185 30.0375 20.603 28.2311 23.5365L29.5459 24.5226C31.6071 21.2361 32.4046 17.3129 31.7902 13.4825C31.1759 9.65206 29.1914 6.17507 26.2059 3.69798C23.2203 1.22089 19.4368 -0.0877268 15.5588 0.0154308C11.6807 0.118588 7.97215 1.6265 5.12249 4.25881C2.27284 6.89112 0.476045 10.4687 0.0661869 14.3264C-0.343671 18.184 0.661297 22.0593 2.89424 25.2316C5.12718 28.4039 8.43615 30.6574 12.2059 31.5731C15.9757 32.4888 19.9497 32.0044 23.3891 30.2099L21.9125 29.0985Z" fill="white"/>
</g>
<defs>
<clipPath id="clip0_13_90142">
<rect width="32" height="32" fill="white"/>
</clipPath>
</defs>
</svg>
