<svg width="24" height="21" viewBox="0 0 24 21" fill="none" xmlns="http://www.w3.org/2000/svg">
<path fill-rule="evenodd" clip-rule="evenodd" d="M4.63651 1.78235C4.02497 2.13717 3.45106 2.55706 2.92416 3.03518C2.92416 3.03518 2.92416 3.89823 2.91067 4.60817C2.87461 5.68709 2.76195 6.76184 2.57359 7.82375C2.45667 8.57642 2.22047 9.22405 1.99563 9.84054C1.77968 10.4326 1.57421 10.996 1.49494 11.5961C1.39574 12.2876 1.49415 12.9939 1.77809 13.6285L2.0882 17.3034L3.63876 17.387V17.554C3.7137 17.8157 3.74113 18.0894 3.71966 18.3614C3.66708 18.5645 3.57061 18.7527 3.43751 18.9118C3.3044 19.0709 3.13811 19.1968 2.95112 19.2801C2.21246 19.2609 1.47431 19.3357 0.753369 19.5028C-0.203935 19.7673 -0.00168767 20.4633 -0.00168767 20.4633L2.62753 20.6025L6.67247 20.7278H12.6994C14.8142 20.7278 16.0673 20.6523 16.8438 20.6055C17.0673 20.592 17.2513 20.5809 17.4051 20.5747C18.0927 20.5469 19.9399 20.352 21.2882 20.1571C22.0981 20.0612 22.8816 19.801 23.5938 19.3915C23.775 19.2833 23.9085 19.1069 23.9663 18.8992C24.0242 18.6916 24.0018 18.4689 23.9039 18.2779C23.7091 17.7214 23.3958 17.2171 22.9871 16.8023C23.0631 16.1444 23.0127 15.4774 22.8388 14.8396C22.6375 14.1923 22.2411 13.6284 21.7075 13.2302C21.1738 12.8321 20.5309 12.6204 19.8725 12.6262C18.8829 12.7002 17.8884 12.5966 16.9331 12.32C16.0442 12.0172 15.2704 11.4326 14.7219 10.6496C14.007 9.7732 13.4375 8.78073 13.0365 7.71239C12.7138 6.94136 12.4654 6.13939 12.2949 5.3181C12.1642 4.6975 12.0652 4.07022 11.9983 3.43886C11.9702 3.27048 11.9397 3.01248 11.9069 2.73457C11.8611 2.34636 11.8106 1.91891 11.7556 1.64315C11.7341 1.53519 11.7266 1.43664 11.7195 1.3437C11.6956 1.02926 11.6766 0.779091 11.1354 0.446008C10.2266 0.0311693 9.20595 -0.0426908 8.25 0.237204C6.97169 0.54453 5.75095 1.06653 4.63651 1.78235ZM22.6095 18.0273C22.6134 17.6586 22.5151 17.2963 22.3263 16.9833C21.8544 17.1503 20.0342 17.4705 19.5757 17.5401C19.1173 17.6097 17.7555 17.7907 17.4319 17.7907C17.378 18.4449 17.8634 19.0713 18.9555 19.0713C19.8622 19.0984 20.7686 19.0048 21.6522 18.7929C22.3802 18.6398 22.5151 18.3892 22.6095 18.0273ZM6.83421 15.0066V17.4984H5.48589C5.48589 17.4984 5.14881 18.96 7.61623 19.4472C9.72409 19.7321 11.8589 19.7321 13.9668 19.4472C14.4398 19.456 14.9061 19.3308 15.3151 19.0853C15.4493 18.9299 15.548 18.7455 15.604 18.5455C15.66 18.3456 15.6719 18.1352 15.6387 17.9299C14.8136 17.9308 13.9893 17.875 13.1713 17.7628C12.3847 17.6061 11.6226 17.3392 10.9061 16.9694C10.505 16.7525 10.1129 16.5076 9.75826 16.2861C9.36182 16.0386 9.01212 15.8202 8.74881 15.7026C8.14196 15.3873 7.49854 15.1534 6.83421 15.0066ZM10.9735 5.20675C10.9735 5.49889 10.7441 5.73572 10.4612 5.73572C10.1782 5.73572 9.9488 5.49889 9.9488 5.20675C9.9488 4.91461 10.1782 4.67778 10.4612 4.67778C10.7441 4.67778 10.9735 4.91461 10.9735 5.20675ZM10.178 3.50849C10.461 3.50849 10.6904 3.27166 10.6904 2.97952C10.6904 2.68738 10.461 2.45055 10.178 2.45055C9.89507 2.45055 9.66568 2.68738 9.66568 2.97952C9.66568 3.27166 9.89507 3.50849 10.178 3.50849ZM12.3083 9.63347C12.3083 9.92562 12.0789 10.1624 11.796 10.1624C11.513 10.1624 11.2836 9.92562 11.2836 9.63347C11.2836 9.34133 11.513 9.1045 11.796 9.1045C12.0789 9.1045 12.3083 9.34133 12.3083 9.63347ZM13.023 12.2922C13.3059 12.2922 13.5353 12.0553 13.5353 11.7632C13.5353 11.471 13.3059 11.2342 13.023 11.2342C12.74 11.2342 12.5106 11.471 12.5106 11.7632C12.5106 12.0553 12.74 12.2922 13.023 12.2922ZM11.351 7.42006C11.351 7.7122 11.1217 7.94903 10.8387 7.94903C10.5557 7.94903 10.3263 7.7122 10.3263 7.42006C10.3263 7.12792 10.5557 6.89109 10.8387 6.89109C11.1217 6.89109 11.351 7.12792 11.351 7.42006Z" fill="#02489F"/>
</svg>
