<svg width="382" height="27" viewBox="0 0 382 27" fill="none" xmlns="http://www.w3.org/2000/svg">
<path fill-rule="evenodd" clip-rule="evenodd" d="M367.775 9.37979L369.784 6.2109H363.836V0.728516H379.273L371.948 11.8294L367.775 9.37979Z" fill="#02489F"/>
<path fill-rule="evenodd" clip-rule="evenodd" d="M332.66 21.1514H321.987L319.998 26.0699H312.701L323.86 0.728516H330.914L342.111 26.0699H334.669L332.68 21.1514H332.66ZM330.564 15.8828L327.314 7.7759L324.063 15.8828H330.564Z" fill="#02489F"/>
<path fill-rule="evenodd" clip-rule="evenodd" d="M311.489 20.3934V26.0702H282.176V20.3934H283.088C284.572 20.3934 285.63 19.3436 286.241 17.312C286.976 14.4533 287.361 11.5155 287.386 8.56354L287.668 0.787109H308.044V20.3934H311.489ZM293.635 9.16621C293.578 11.4726 293.361 13.7722 292.985 16.0483C292.771 17.5882 292.243 19.0674 291.432 20.3934H301.009V6.4153H293.742L293.635 9.16621Z" fill="#02489F"/>
<path fill-rule="evenodd" clip-rule="evenodd" d="M242.576 21.1514H231.903L229.914 26.0699H222.617L233.785 0.728516H240.83L252.037 26.0699H244.595L242.605 21.1514H242.576ZM240.481 15.8828L237.211 7.75646L233.97 15.8828H240.481Z" fill="#02489F"/>
<path fill-rule="evenodd" clip-rule="evenodd" d="M172.435 26.5748C169.928 26.6166 167.45 26.032 165.225 24.8737C163.133 23.7782 161.38 22.1295 160.157 20.1066C158.934 18.0836 158.287 15.7637 158.287 13.3986C158.287 11.0335 158.934 8.71356 160.157 6.69062C161.38 4.66767 163.133 3.01898 165.225 1.9235C167.464 0.804904 169.932 0.222656 172.435 0.222656C174.937 0.222656 177.405 0.804904 179.644 1.9235C181.736 3.01898 183.489 4.66767 184.712 6.69062C185.935 8.71356 186.582 11.0335 186.582 13.3986C186.582 15.7637 185.935 18.0836 184.712 20.1066C183.489 22.1295 181.736 23.7782 179.644 24.8737C177.419 26.032 174.941 26.6166 172.435 26.5748ZM172.435 20.6453C173.649 20.6625 174.846 20.3501 175.899 19.7412C176.941 19.1345 177.794 18.2493 178.363 17.1847C178.956 16.0129 179.266 14.7174 179.266 13.4035C179.266 12.0895 178.956 10.794 178.363 9.62216C177.794 8.55757 176.941 7.67244 175.899 7.06566C174.838 6.47319 173.644 6.16218 172.43 6.16218C171.215 6.16218 170.021 6.47319 168.961 7.06566C167.923 7.67546 167.074 8.56006 166.506 9.62216C165.913 10.794 165.603 12.0895 165.603 13.4035C165.603 14.7174 165.913 16.0129 166.506 17.1847C167.07 18.2576 167.919 19.1527 168.961 19.7704C170.02 20.3681 171.219 20.6702 172.435 20.6453Z" fill="#02489F"/>
<path fill-rule="evenodd" clip-rule="evenodd" d="M96.2946 0.72876C98.3427 0.679416 100.378 1.07055 102.262 1.87578C103.868 2.56361 105.237 3.70866 106.199 5.16885C107.161 6.62904 107.673 8.34008 107.673 10.0896C107.673 11.8392 107.161 13.5502 106.199 15.0104C105.237 16.4706 103.868 17.6157 102.262 18.3035C100.378 19.1087 98.3427 19.4999 96.2946 19.4505H91.8894V26.0702H84.7285V0.72876H96.2946ZM95.8579 13.8029C97.0477 13.888 98.2284 13.5431 99.1861 12.8308C99.5654 12.4891 99.8628 12.066 100.056 11.593C100.249 11.12 100.333 10.6094 100.302 10.0994C100.333 9.58645 100.249 9.07315 100.055 8.59712C99.8623 8.12109 99.5653 7.69442 99.1861 7.34844C98.2304 6.6322 97.0481 6.2869 95.8579 6.37639H91.8894V13.8029H95.8579Z" fill="#02489F"/>
<path fill-rule="evenodd" clip-rule="evenodd" d="M67.0595 26.5748C64.5526 26.6166 62.0749 26.032 59.8502 24.8737C57.7578 23.7782 56.005 22.1295 54.7819 20.1066C53.5588 18.0836 52.9121 15.7637 52.9121 13.3986C52.9121 11.0335 53.5588 8.71356 54.7819 6.69062C56.005 4.66767 57.7578 3.01898 59.8502 1.9235C62.0894 0.804904 64.5573 0.222656 67.0595 0.222656C69.5617 0.222656 72.0297 0.804904 74.2689 1.9235C76.3612 3.01898 78.1141 4.66767 79.3372 6.69062C80.5603 8.71356 81.2069 11.0335 81.2069 13.3986C81.2069 15.7637 80.5603 18.0836 79.3372 20.1066C78.1141 22.1295 76.3612 23.7782 74.2689 24.8737C72.0442 26.032 69.5664 26.6166 67.0595 26.5748ZM67.0595 20.6453C68.2744 20.6625 69.4714 20.3501 70.5235 19.7412C71.5657 19.1345 72.419 18.2493 72.9881 17.1847C73.5814 16.0129 73.8905 14.7174 73.8905 13.4035C73.8905 12.0895 73.5814 10.794 72.9881 9.62216C72.419 8.55757 71.5657 7.67244 70.5235 7.06566C69.463 6.47319 68.2689 6.16218 67.0547 6.16218C65.8404 6.16218 64.6463 6.47319 63.5858 7.06566C62.5484 7.67546 61.699 8.56006 61.131 9.62216C60.5377 10.794 60.2285 12.0895 60.2285 13.4035C60.2285 14.7174 60.5377 16.0129 61.131 17.1847C61.6947 18.2576 62.5445 19.1527 63.5858 19.7704C64.6447 20.3681 65.8443 20.6702 67.0595 20.6453Z" fill="#02489F"/>
<path fill-rule="evenodd" clip-rule="evenodd" d="M278.964 0.728516V26.0699H271.813V16.1939H262.052V26.0699H254.9V0.728516H262.052V10.2546H271.813V0.728516H278.964Z" fill="#02489F"/>
<path fill-rule="evenodd" clip-rule="evenodd" d="M213.128 26.07L213.09 12.6459L205.114 26.0797L196.895 12.9278V26.07H190.326V0.728516H196.216L205.104 15.3579L213.779 0.728516H219.668L219.736 26.07H213.128Z" fill="#02489F"/>
<path fill-rule="evenodd" clip-rule="evenodd" d="M142.297 8.99097L150.244 0.728516H157.763L146.421 13.3555L157.831 26.0699H149.778L142.297 18.0116V8.99097Z" fill="#02489F"/>
<path fill-rule="evenodd" clip-rule="evenodd" d="M130.517 6.41503H122.783V26.0699H115.739V6.41503H107.967V0.728516H130.517V6.41503Z" fill="#02489F"/>
<path fill-rule="evenodd" clip-rule="evenodd" d="M48.9914 0.728516V26.0699H41.9082V6.41503H32.2925V26.0699H25.248V0.728516H48.9914Z" fill="#02489F"/>
<path fill-rule="evenodd" clip-rule="evenodd" d="M16.0692 26.5753C13.34 26.6223 10.6359 26.0473 8.1612 24.8936C5.9358 23.8626 4.03355 22.2426 2.65957 20.2083C1.35432 18.1798 0.660156 15.8174 0.660156 13.4039C0.660156 10.9905 1.35432 8.6281 2.65957 6.59956C4.03662 4.56558 5.93778 2.94315 8.1612 1.90454C10.6374 0.755356 13.3405 0.180538 16.0692 0.222884C17.1701 0.222852 18.2695 0.304076 19.3585 0.465897V6.619C18.4196 6.30848 17.4363 6.15415 16.4476 6.16213C15.0399 6.13554 13.6462 6.44544 12.382 7.06614C11.2333 7.6332 10.2729 8.52106 9.61665 9.62264C8.97431 10.779 8.63719 12.0805 8.63719 13.4039C8.63719 14.7273 8.97431 16.0288 9.61665 17.1852C10.2764 18.3018 11.2478 19.2006 12.4111 19.7709C14.586 20.8008 17.072 20.9573 19.3585 20.2083V26.3614C18.2693 26.5183 17.1695 26.5898 16.0692 26.5753Z" fill="#02489F"/>
<path d="M140.782 0.875H133.66V26.2164H140.782V0.875Z" fill="#02489F"/>
<path fill-rule="evenodd" clip-rule="evenodd" d="M348.448 16.758C348.41 15.9869 348.603 15.2222 349.001 14.5611L349.796 13.3072L358.063 0.787109H351.339L345.081 10.2744L345.022 10.3618C344.392 11.2141 343.84 12.1218 343.373 13.0739C342.811 14.2231 342.525 15.4881 342.538 16.7677C342.478 18.5781 342.95 20.3664 343.897 21.9098C344.795 23.2771 346.064 24.3594 347.555 25.0301C349.157 25.7229 350.884 26.0802 352.63 26.0802C354.375 26.0802 356.102 25.7229 357.704 25.0301C359.192 24.3593 360.458 23.2767 361.353 21.9098C362.307 20.3693 362.783 18.5796 362.721 16.7677C362.738 15.6095 362.514 14.4605 362.061 13.3946C361.65 12.4377 361.049 11.5745 360.295 10.8576C359.219 9.91418 357.965 9.19687 356.608 8.74823L353.998 12.7434C354.26 12.8275 354.514 12.9382 354.754 13.0739C355.379 13.4276 355.896 13.9451 356.249 14.5708C356.606 15.2531 356.792 16.0119 356.792 16.7823C356.792 17.5526 356.606 18.3114 356.249 18.9937C355.893 19.6072 355.376 20.1114 354.754 20.4518C354.107 20.7992 353.383 20.9765 352.649 20.9669C351.899 20.9788 351.158 20.8017 350.495 20.4518C349.879 20.1069 349.367 19.6035 349.01 18.9937C348.624 18.3132 348.43 17.5405 348.448 16.758Z" fill="#02489F"/>
<path fill-rule="evenodd" clip-rule="evenodd" d="M365.496 24.0185L365.758 24.1935C367.25 25.1001 368.911 25.6926 370.639 25.935C372.368 26.1773 374.127 26.0643 375.81 25.6029C377.382 25.1342 378.784 24.2192 379.847 22.9687C380.993 21.5867 381.706 19.8955 381.894 18.1084C382.073 16.9638 382.007 15.7941 381.7 14.677C381.428 13.6688 380.949 12.7285 380.293 11.9164C379.424 10.8546 378.312 10.0178 377.052 9.47656L374.51 13.3648C375.038 13.838 375.47 14.409 375.781 15.0464C376.044 15.7711 376.127 16.5491 376.022 17.313C375.917 18.0769 375.628 18.8037 375.18 19.4304C374.748 19.9889 374.17 20.4163 373.511 20.6649C372.821 20.9248 372.076 21.0051 371.347 20.8982C370.605 20.8066 369.897 20.5291 369.29 20.0914C369.015 19.8939 368.77 19.6582 368.562 19.3915L365.496 24.0185Z" fill="#02489F"/>
</svg>
