<svg width="125" height="72" viewBox="0 0 125 72" fill="none" xmlns="http://www.w3.org/2000/svg">
<path fill-rule="evenodd" clip-rule="evenodd" d="M88.9855 71.7764L68.4926 51.2467L53.0357 35.7618H36.1136L59.9636 59.8785H36.2591C23.0241 59.8785 12.0015 49.2637 12.0015 35.9951C12.004 29.639 14.5202 23.5428 18.9993 19.0411C23.4784 14.5394 29.5554 11.9988 35.9001 11.9757L94.5841 11.7521L70.6176 35.7618L71.8499 36.938L75.7893 40.8846L106.732 71.7764H124.411L88.1801 35.4799L123.596 0H35.9001C26.3695 0 17.2292 3.79285 10.49 10.5442C3.75087 17.2955 -0.0351562 26.4522 -0.0351562 36C-0.0351562 45.5478 3.75087 54.7045 10.49 61.4558C17.2292 68.2072 26.3695 72 35.9001 72H36.0553L88.9855 71.7764Z" fill="url(#paint0_linear_1003_13)"/>
<defs>
<linearGradient id="paint0_linear_1003_13" x1="62.1881" y1="0" x2="62.1881" y2="72" gradientUnits="userSpaceOnUse">
<stop stop-color="#1AB8EC"/>
<stop offset="1" stop-color="#02489F"/>
</linearGradient>
</defs>
</svg>
