<svg width="194" height="150" viewBox="0 0 194 150" fill="none" xmlns="http://www.w3.org/2000/svg">
<path d="M115.656 70.7142L149.341 104.594L168.118 123.479L194 149.511L78.6509 150H78.3126C57.5428 150 37.6237 141.702 22.9372 126.93C8.25077 112.159 0 92.1249 0 71.2352C0 50.3455 8.25077 30.3114 22.9372 15.5401C29.3752 9.06502 36.8186 3.83371 44.8985 0L65.2899 20.379C56.3524 22.7278 48.1131 27.4389 41.4813 34.1307C31.7201 43.9801 26.2366 57.318 26.2311 71.2246C26.2311 100.255 50.2524 123.479 79.095 123.479H130.754L78.7778 70.7142H115.656Z" fill="url(#paint0_linear_1003_5)" fill-opacity="0.15"/>
<defs>
<linearGradient id="paint0_linear_1003_5" x1="97" y1="0" x2="97" y2="150" gradientUnits="userSpaceOnUse">
<stop stop-color="#1AB8EC"/>
<stop offset="1" stop-color="#02489F"/>
</linearGradient>
</defs>
</svg>
