<svg width="32" height="32" viewBox="0 0 32 32" fill="none" xmlns="http://www.w3.org/2000/svg">
<g clip-path="url(#clip0_13_90136)">
<path d="M21.9125 29.0995C18.7747 30.5183 15.2318 30.7635 11.9284 29.7904C8.62506 28.8174 5.7808 26.6908 3.91314 23.7976C2.04548 20.9043 1.27853 17.4368 1.75186 14.0258C2.22518 10.6148 3.90732 7.48703 6.49219 5.21165C9.07707 2.93628 12.3929 1.66447 15.8364 1.62764C19.2799 1.59082 22.6222 2.79141 25.2551 5.01098C27.8881 7.23055 29.6367 10.3216 30.1829 13.7217C30.729 17.1218 30.0364 20.605 28.2311 23.5375L29.5459 24.5236C31.6071 21.2371 32.4046 17.3139 31.7902 13.4835C31.1759 9.65304 29.1914 6.17604 26.2059 3.69896C23.2203 1.22187 19.4368 -0.0867502 15.5588 0.0164073C11.6807 0.119565 7.97215 1.62748 5.12249 4.25979C2.27284 6.8921 0.476045 10.4697 0.0661869 14.3273C-0.343671 18.185 0.661297 22.0603 2.89424 25.2326C5.12718 28.4049 8.43615 30.6584 12.2059 31.5741C15.9757 32.4898 19.9497 32.0053 23.3891 30.2109L21.9125 29.0995Z" fill="white"/>
<path d="M23.6915 12.1315C23.4985 11.9645 22.7471 11.975 22.0062 11.975C21.4415 11.9531 20.876 11.9793 20.3157 12.0532C20.1539 12.1158 19.7939 12.9924 19.3191 13.8951C18.7973 14.9125 18.1295 15.8934 17.7121 15.8882C17.1903 15.8882 17.2946 14.2029 17.326 12.9715C17.326 12.1576 17.2164 11.9019 17.0964 11.8237C16.7544 11.6535 16.3936 11.524 16.0215 11.4376C16.0215 11.4376 13.6736 11.2602 13.3396 12.2828C13.7884 12.3402 14.5606 12.1993 14.258 15.3508C14.258 15.5021 13.8979 16.8013 12.8022 15.043C12.5205 14.6099 11.4769 12.0011 11.1169 12.0011C9.89598 11.9698 8.70635 11.9176 8.27851 12.1576C7.85066 12.3976 8.80027 14.1873 10.3656 16.6031C11.6283 18.5806 12.9744 20.125 15.2702 20.5163C15.91 20.599 16.5593 20.5726 17.1903 20.438C17.4355 20.318 17.1381 18.6066 17.9573 18.4449C18.3225 18.3718 19.7261 20.2293 20.2583 20.438C20.8338 20.5855 21.4294 20.6384 22.0219 20.5946C22.8097 20.5685 23.6967 20.6624 23.7854 20.1302C23.9785 18.951 21.4062 17.4118 21.3279 16.6813C21.2757 16.1595 22.2723 15.1891 22.7889 14.4534C23.3993 13.5351 24.0828 12.4602 23.6915 12.1315Z" fill="white"/>
</g>
<defs>
<clipPath id="clip0_13_90136">
<rect width="32" height="32" fill="white"/>
</clipPath>
</defs>
</svg>
