<svg width="32" height="32" viewBox="0 0 32 32" fill="none" xmlns="http://www.w3.org/2000/svg">
<g clip-path="url(#clip0_13_90139)">
<path fill-rule="evenodd" clip-rule="evenodd" d="M22.7731 13.2946C22.7731 12.7591 22.5601 12.2455 22.1811 11.8668C21.802 11.4881 21.2879 11.2754 20.7518 11.2754H11.2829C10.7469 11.2754 10.2328 11.4881 9.85372 11.8668C9.47467 12.2455 9.26172 12.7591 9.26172 13.2946V18.7054C9.26172 18.9703 9.31404 19.2326 9.41568 19.4773C9.51732 19.722 9.66628 19.9442 9.85404 20.1313C10.0418 20.3184 10.2646 20.4667 10.5098 20.5676C10.755 20.6685 11.0178 20.7201 11.2829 20.7194H20.7518C21.017 20.7201 21.2797 20.6685 21.5249 20.5676C21.7701 20.4667 21.993 20.3184 22.1807 20.1313C22.3685 19.9442 22.5175 19.722 22.6191 19.4773C22.7207 19.2326 22.7731 18.9703 22.7731 18.7054V13.2946ZM14.6673 18.2619V13.2007L18.5269 15.7417L14.6673 18.2619Z" fill="white"/>
<path d="M21.934 29.0985C18.792 30.5182 15.2442 30.7639 11.9362 29.7907C8.62818 28.8175 5.77983 26.6903 3.90943 23.796C2.03902 20.9017 1.27088 17.4327 1.74476 14.0204C2.21864 10.608 3.90306 7.47896 6.49151 5.20266C9.07997 2.92637 12.4004 1.6541 15.8487 1.61735C19.2969 1.5806 22.6438 2.78182 25.2802 5.00243C27.9167 7.22304 29.6676 10.3155 30.2142 13.717C30.7608 17.1185 30.0669 20.603 28.2588 23.5365L29.5749 24.5226C31.6381 21.2361 32.4364 17.3129 31.8214 13.4825C31.2064 9.65206 29.22 6.17507 26.2315 3.69798C23.243 1.22089 19.4558 -0.0877268 15.574 0.0154308C11.6922 0.118588 7.97998 1.6265 5.12753 4.25881C2.27509 6.89112 0.476534 10.4687 0.0662746 14.3264C-0.343985 18.184 0.661968 22.0593 2.8971 25.2316C5.13223 28.4039 8.44443 30.6574 12.2179 31.5731C15.9913 32.4888 19.9692 32.0044 23.412 30.2099L21.934 29.0985Z" fill="white"/>
</g>
<defs>
<clipPath id="clip0_13_90139">
<rect width="32" height="32" fill="white"/>
</clipPath>
</defs>
</svg>
