<svg width="694" height="697" viewBox="0 0 694 697" fill="none" xmlns="http://www.w3.org/2000/svg">
<g clip-path="url(#clip0_131_104)">
<mask id="mask0_131_104" style="mask-type:alpha" maskUnits="userSpaceOnUse" x="98" y="102" width="494" height="494">
<ellipse cx="345.348" cy="349.248" rx="246.507" ry="246.507" transform="rotate(105 345.348 349.248)" fill="#C4C4C4"/>
</mask>
<g mask="url(#mask0_131_104)">
<path d="M1127.51 1262.35L684.906 540.711L941.709 -295.292L939.203 -294.349L218.765 -25.4544L-380.948 -569.76L-380.948 -566.639L-385.133 318.676L-1012.6 818.287L-1010.1 819.266L-292.253 1097.5L-80.315 1950.58L369.076 1234.73L1127.51 1262.35ZM681.968 541.179L682.376 541.803L1122.28 1259.04L367.779 1231.59L367.372 1232.24L-79.2689 1943.73L-290.123 1095.09L-290.75 1094.85L-1006.73 817.326L-382.54 320.311L-382.54 319.506L-378.361 -563.519L218.239 -22.0346L218.865 -22.2779L937.412 -290.493L681.968 541.179Z" fill="#02489F"/>
<path d="M1110.83 1250.53L681.281 539.738L928.143 -281.894L925.675 -280.995L218.04 -23.214L-373.073 -552.006L-373.073 -548.985L-382.351 318.657L-994.543 813.476L-992.1 814.449L-290.229 1092.9L-77.47 1927.5L-75.9228 1925.08L367.154 1229.5L1110.83 1250.53ZM678.387 540.206L678.769 540.83L1105.73 1247.33L365.876 1226.45L365.475 1227.07L-76.4615 1920.84L-288.124 1090.53L-288.75 1090.27L-988.843 812.571L-379.807 320.267L-379.807 319.481L-370.542 -545.909L217.526 -19.838L218.153 -20.0751L923.964 -277.182L678.387 540.206Z" fill="#02489F"/>
<path d="M1094.16 1238.7L1092.72 1236.29L677.658 538.751L914.572 -268.502L912.167 -267.647L217.311 -20.9993L-365.195 -534.277L-379.603 318.638L-976.535 808.67L-974.161 809.631L-288.201 1088.29L-74.5901 1904.43L-73.0741 1902.09L365.229 1224.33L1094.16 1238.7ZM674.796 539.219L675.165 539.843L1089.18 1235.59L363.964 1221.3L363.569 1221.92L-73.6316 1897.92L-286.127 1085.97L-286.754 1085.72L-970.96 807.752L-377.078 320.223L-377.078 319.461L-362.739 -528.336L216.791 -17.6732L910.494 -263.915L674.796 539.219Z" fill="#02489F"/>
<path d="M1077.49 1226.88L1076.11 1224.52L674.019 537.773L901.004 -255.103L216.61 -18.7765L-357.32 -516.547L-357.389 -513.689L-376.853 318.62L-958.526 803.86L-956.227 804.821L-286.171 1083.69L-71.7651 1881.36L-70.2805 1879.09L363.299 1219.14L1077.49 1226.88ZM671.206 538.234L671.563 538.859L1072.63 1223.86L362.059 1216.14L361.671 1216.77L-70.8068 1875.01L-284.129 1081.38L-284.724 1081.13L-953.07 802.967L-374.347 320.187L-374.347 319.444L-354.927 -510.75L216.084 -15.4691L216.71 -15.675L897.058 -250.603L671.206 538.234Z" fill="#02489F"/>
<path d="M1060.82 1215.06L1059.49 1212.75L670.392 536.811L887.436 -241.692L885.156 -240.931L215.853 -16.5555L-349.446 -498.818L-374.108 318.595L-940.527 799.054L-938.297 800.002L-284.147 1079.11L-68.914 1858.28L-67.4544 1856.09L361.377 1213.95L1060.82 1215.06ZM667.636 537.248L1056.09 1212.1L360.168 1210.99L359.792 1211.55L-67.9744 1852.09L-282.13 1076.81L-282.706 1076.56L-935.184 798.186L-371.602 320.142L-371.602 319.418L-347.109 -493.164L215.358 -13.3229L215.946 -13.5226L883.565 -237.349L667.636 537.248Z" fill="#02489F"/>
<path d="M1044.12 1203.23L666.765 535.812L873.867 -228.32L871.65 -227.602L215.125 -14.341L-341.534 -481.084L-371.289 318.575L-922.48 794.241L-282.118 1074.48L-66.0641 1835.19L-64.6296 1833.08L359.435 1208.74L1044.12 1203.23ZM664.028 536.261L664.359 536.842L1039.53 1200.35L358.245 1205.83L357.875 1206.38L-65.1495 1829.18L-280.145 1072.24L-280.702 1072L-917.294 793.393L-368.884 320.098L-368.884 319.399L-339.31 -475.574L214.643 -11.1522L215.219 -11.3394L870.102 -224.064L664.028 536.261Z" fill="#02489F"/>
<path d="M1027.47 1191.43L663.138 534.832L860.306 -214.927L214.399 -12.1123L-333.691 -463.353L-368.551 318.576L-904.451 789.455L-280.094 1069.9L-63.2071 1812.14L-61.8039 1810.1L357.556 1203.55L1027.47 1191.43ZM660.445 535.276L660.758 535.843L1022.97 1188.6L356.334 1200.68L-62.3176 1806.26L-278.133 1067.66L-899.402 788.607L-366.146 320.055L-366.146 319.381L-331.486 -457.987L213.923 -8.97958L214.481 -9.15432L856.628 -210.796L660.445 535.276Z" fill="#02489F"/>
<path d="M1010.8 1179.58L1009.64 1177.44L659.493 533.853L846.718 -201.535L213.666 -9.89688L-325.817 -445.631L-365.789 318.532L-886.43 784.626L-884.419 785.556L-278.04 1065.27L-60.3574 1789.06L-58.9792 1787.11L355.601 1198.35L1010.8 1179.58ZM656.855 534.315L657.156 534.864L1006.42 1176.87L354.424 1195.52L354.067 1196.03L-59.4928 1783.34L-276.135 1063.09L-276.655 1062.85L-881.512 783.821L-363.415 320.011L-363.415 319.387L-323.675 -440.376L213.171 -6.7829L213.71 -6.94516L843.16 -197.497L656.855 534.315Z" fill="#02489F"/>
<path d="M994.129 1167.76L993.021 1165.68L655.885 532.873L833.163 -188.137L831.134 -187.551L212.94 -7.68221L-317.942 -427.902L-363.045 318.513L-868.432 779.82L-276.041 1060.67L-57.5061 1765.99L353.679 1193.15L994.129 1167.76ZM653.267 533.303L989.864 1165.1L352.545 1190.37L-56.6355 1760.42L-274.136 1058.51L-274.631 1058.28L-863.621 779.033L-360.683 319.967L-360.646 319.343L-315.85 -422.81L212.477 -4.63061L213.003 -4.78661L829.693 -184.212L653.267 533.303Z" fill="#02489F"/>
<path d="M977.459 1155.94L976.407 1153.91L652.257 531.893L819.601 -174.751L817.634 -174.202L212.226 -5.48481L-310.056 -410.197L-360.239 318.47L-850.385 775.009L-848.506 775.92L-274.012 1056.07L-54.6316 1742.92L-53.3161 1741.12L351.755 1187.95L977.459 1155.94ZM649.677 532.318L649.946 532.836L973.331 1153.37L350.665 1185.23L-53.7797 1737.51L-272.139 1053.95L-845.731 774.248L-357.952 319.943L-357.915 319.318L-308.008 -405.199L211.756 -2.45823L212.263 -2.60172L816.218 -170.926L649.677 532.318Z" fill="#02489F"/>
<path d="M960.802 1144.11L648.63 530.914L806.038 -161.359L804.159 -160.847L211.486 -3.24442L-302.182 -392.443L-357.477 318.47L-832.364 770.205L-272.002 1051.46L-51.8134 1719.85L349.825 1182.76L960.802 1144.11ZM646.087 531.332L646.343 531.832L956.756 1141.6L348.704 1180.06L348.378 1180.5L-50.999 1714.58L-270.122 1049.38L-270.58 1049.15L-827.841 769.462L-355.222 319.887L-355.178 319.306L-300.19 -387.632L211.035 -0.286442L802.749 -157.64L646.087 531.332Z" fill="#02489F"/>
<path d="M944.12 1132.29L645.002 529.946L792.475 -147.955L790.627 -147.487L210.758 -1.02322L-294.321 -374.721L-294.509 -372.518L-354.69 318.451L-814.317 765.392L-812.588 766.285L-269.929 1046.86L-48.9512 1696.78L347.901 1177.57L944.12 1132.29ZM642.503 530.346L642.741 530.826L940.198 1129.85L346.799 1174.9L346.479 1175.32L-48.1682 1691.66L-268.143 1044.78L-268.582 1044.56L-809.944 764.675L-352.491 319.842L-352.441 319.287L-292.373 -370.04L210.345 1.89105L210.815 1.77249L789.305 -144.354L642.503 530.346Z" fill="#02489F"/>
<path d="M927.452 1120.47L926.556 1118.6L641.377 528.955L778.908 -134.575L210.027 1.19287L-286.446 -357.01L-286.653 -354.888L-351.958 318.433L-796.318 760.588L-794.658 761.468L-267.935 1042.25L-46.0935 1673.71L-44.8406 1672.14L345.98 1172.37L927.452 1120.47ZM638.915 529.361L639.14 529.822L923.644 1118.09L344.89 1169.75L-45.3418 1668.74L-266.144 1040.23L-266.557 1040.01L-792.053 759.889L-349.759 319.8L-349.709 319.269L-284.529 -352.454L209.595 4.06347L210.046 3.95739L775.801 -131.067L638.915 529.361Z" fill="#02489F"/>
<path d="M910.782 1108.65L909.936 1106.85L637.748 527.975L765.357 -121.182L209.299 3.4149L-278.573 -339.268L-278.793 -337.227L-349.19 318.396L-778.291 755.765L-265.876 1037.64L-43.2132 1650.63L-42.0167 1649.13L344.055 1167.17L910.782 1108.65ZM635.324 528.375L635.531 528.818L907.086 1106.34L342.984 1164.6L342.683 1164.98L-42.5116 1645.83L-264.147 1035.66L-774.157 755.103L-347.029 319.756L-346.973 319.251L-276.738 -334.856L208.873 6.23558L209.299 6.14198L762.325 -117.781L635.324 528.375Z" fill="#02489F"/>
<path d="M894.119 1096.83L634.122 526.995L751.783 -107.79L750.117 -107.447L208.573 5.63613L-270.699 -321.545L-270.93 -319.585L-346.421 318.395L-760.287 750.978L-758.771 751.839L-263.858 1033.05L-40.3686 1627.57L342.151 1161.97L894.119 1096.83ZM631.735 527.388L631.929 527.813L890.53 1094.59L341.074 1159.43L340.786 1159.78L-39.6859 1622.89L-262.148 1031.09L-262.518 1030.87L-756.228 750.316L-344.266 319.725L-344.21 319.238L-268.92 -317.264L208.153 8.41317L208.56 8.32577L748.852 -104.489L631.735 527.388Z" fill="#02489F"/>
<path d="M877.45 1085.01L630.495 526.015L738.24 -94.4048L207.84 7.85134L-262.831 -303.822L-343.639 318.352L-742.252 746.148L-261.853 1028.44L-37.5434 1604.51L-36.4034 1603.16L340.203 1156.78L877.45 1085.01ZM628.171 526.402L628.352 526.808L873.998 1082.83L339.195 1154.27L338.913 1154.6L-36.8293 1599.96L-260.15 1026.51L-260.5 1026.31L-738.368 745.53L-341.535 319.675L-261.102 -299.672L207.464 10.5846L207.852 10.5098L735.408 -91.2097L628.171 526.402Z" fill="#02489F"/>
<path d="M860.781 1073.19L626.868 525.035L724.64 -80.9951L207.107 10.1156L-254.962 -286.057L-255.219 -284.259L-340.908 318.344L-724.279 741.354L-259.83 1023.83L-34.6927 1581.46L-33.5777 1580.21L338.28 1151.58L860.781 1073.19ZM624.556 525.415L624.726 525.802L857.442 1071.09L337.259 1149.12L336.996 1149.43L-34.0224 1577.04L-258.151 1021.94L-258.477 1021.74L-720.471 740.736L-338.834 319.642L-338.772 319.212L-253.283 -282.069L206.713 12.7615L207.076 12.6929L721.903 -77.9185L624.556 525.415Z" fill="#02489F"/>
<path d="M844.12 1061.37L623.243 524.068L711.093 -67.6275L709.614 -67.3966L206.389 12.2878L-247.074 -268.377L-247.343 -266.661L-338.125 318.326L-706.231 736.549L-704.921 737.379L-257.798 1019.24L-31.8345 1558.37L-30.757 1557.17L336.359 1146.39L844.12 1061.37ZM620.969 524.43L621.126 524.798L840.857 1059.33L335.332 1143.97L335.075 1144.25L-31.2143 1554.12L-256.151 1017.37L-256.458 1017.18L-702.572 735.95L-336.114 319.587L-336.051 319.187L-245.458 -264.464L205.963 14.9337L206.314 14.8776L708.406 -64.6258L620.969 524.43Z" fill="#02489F"/>
<path d="M827.455 1049.55L826.828 1048.04L619.614 523.081L697.528 -54.2423L205.66 14.4838L-239.208 -250.68L-335.358 318.282L-688.217 731.725L-686.964 732.536L-255.765 1014.6L-28.999 1535.29L-27.9529 1534.15L334.427 1141.19L827.455 1049.55ZM617.377 523.443L617.515 523.786L824.298 1047.58L333.444 1138.81L333.206 1139.07L-28.3601 1531.19L-254.149 1012.8L-684.678 731.163L-333.391 319.542L-333.329 319.168L-237.667 -246.892L205.215 17.0798L205.541 17.0362L694.904 -51.3593L617.377 523.443Z" fill="#02489F"/>
<path d="M810.792 1037.73L810.241 1036.27L615.987 522.096L683.973 -40.8557L682.613 -40.6935L204.933 16.7187L-231.334 -232.943L-332.595 318.276L-670.207 726.926L-253.754 1010.02L-26.1362 1512.25L-25.1214 1511.18L332.498 1135.99L810.792 1037.73ZM613.763 522.458L613.888 522.782L807.71 1035.82L331.508 1133.65L331.283 1133.89L-25.5286 1508.26L-252.15 1008.23L-252.413 1008.05L-666.774 726.377L-330.635 319.499L-330.572 319.15L-229.824 -229.299L204.545 19.2835L204.852 19.2461L681.479 -38.0413L613.763 522.458Z" fill="#02489F"/>
<path d="M794.129 1025.91L793.621 1024.51L612.359 521.116L670.41 -27.4702L669.113 -27.3392L204.206 18.94L-223.46 -215.221L-329.827 318.257L-652.192 722.152L-651.077 722.939L-251.725 1005.43L-23.3115 1489.19L-22.328 1488.19L330.581 1130.8L794.129 1025.91ZM610.198 521.472L610.311 521.771L791.172 1024.07L329.629 1128.5L329.416 1128.71L-22.6851 1485.36L-250.152 1003.65L-250.397 1003.48L-648.878 721.591L-327.904 319.462L-327.841 319.144L-221.976 -211.695L203.824 21.4549L668.005 -24.7245L610.198 521.472Z" fill="#02489F"/>
<path d="M777.468 1014.09L608.753 520.136L656.862 -14.0848L655.61 -13.9849L203.456 21.1614L-215.622 -197.498L-215.923 -196.1L-327.094 318.238L-634.205 717.316L-633.159 718.09L-249.7 1000.82L-20.4283 1466.13L-19.4761 1465.2L328.659 1125.6L777.468 1014.09ZM606.611 520.473L606.711 520.754L774.611 1012.33L327.72 1123.37L327.526 1123.56L-19.8644 1462.42L-248.152 999.079L-248.372 998.916L-630.942 716.798L-325.171 319.418L-325.108 319.131L-214.181 -194.097L203.105 23.6326L203.362 23.6326L654.52 -11.4388L606.611 520.473Z" fill="#02489F"/>
<path d="M760.805 1002.28L760.392 1001L605.114 519.157L643.294 -0.673476L642.123 -0.611083L202.755 23.4021L-207.723 -179.781L-208.03 -178.458L-324.3 318.214L-616.164 712.511L-247.676 996.215L-17.5839 1443.07L-16.6694 1442.21L326.737 1120.41L760.805 1002.28ZM603.021 519.494L603.109 519.75L758.049 1000.56L325.816 1118.19L325.634 1118.36L-17.0202 1439.47L-246.141 994.524L-246.335 994.374L-613.076 712.012L-322.415 319.381L-322.352 319.119L-206.357 -176.474L202.385 25.8297L202.617 25.8297L641.045 1.87261L603.021 519.494Z" fill="#02489F"/>
<path d="M744.142 990.494L743.772 989.245L601.486 518.178L629.738 12.701L628.623 12.7384L202.028 25.6124L-199.843 -162.051L-321.526 318.215L-598.148 707.726L-597.234 708.462L-245.647 991.617L-14.7342 1420.01L-13.8509 1419.21L324.807 1115.22L744.142 990.494ZM599.438 518.546L599.507 518.771L741.486 988.802L323.905 1113.03L323.742 1113.18L-14.2017 1416.54L-244.156 989.932L-595.173 707.239L-319.703 319.338L-319.646 319.107L-198.533 -158.912L201.658 27.9838L201.871 27.9838L627.545 15.1098L599.438 518.546Z" fill="#02489F"/>
<path d="M727.486 978.636L597.86 517.197L616.176 26.0735L201.295 27.8145L-191.98 -144.353L-192.3 -143.18L-318.769 318.171L-580.145 702.901L-243.623 987.01L-11.8835 1396.95L-11.0379 1396.22L322.884 1110.02L727.486 978.636ZM595.843 517.522L724.924 977.044L321.995 1107.87L321.851 1108L-11.3698 1393.63L-242.151 985.357L-242.301 985.232L-577.269 702.433L-316.971 319.269L-190.715 -141.296L200.951 30.161L201.132 30.161L614.097 28.4262L595.843 517.522Z" fill="#02489F"/>
<path d="M710.823 966.83L710.541 965.725L594.239 516.218L602.621 39.4471L601.631 39.4471L200.569 30.0302L-184.112 -126.605L-316.006 318.183L-562.135 698.128L-561.346 698.826L-241.599 982.412L-9.03303 1373.9L320.961 1104.82L710.823 966.83ZM592.253 516.543L592.297 516.718L708.355 965.288L320.091 1102.72L319.959 1102.82L-8.53821 1370.67L-240.152 980.783L-240.278 980.677L-559.36 697.647L-314.24 319.257L-314.183 319.082L-182.891 -123.691L200.218 32.3205L200.375 32.3205L600.604 41.6812L592.253 516.543Z" fill="#02489F"/>
<path d="M694.164 955.016L590.585 515.239L589.038 52.8207L588.111 52.7708L199.84 32.2397L-176.24 -108.926L-176.572 -107.909L-313.246 318.127L-544.127 693.291L-543.4 693.965L-239.584 977.812L-6.19106 1350.84L-5.41427 1350.22L319.036 1099.63L694.164 955.016ZM587.121 55.0486L588.662 515.594L691.79 953.525L318.178 1097.55L318.071 1097.64L-5.7087 1347.73L-238.175 976.208L-238.275 976.115L-541.465 692.861L-311.504 319.219L-311.46 319.076L-175.069 -106.086L199.496 34.5174L199.621 34.5174L587.121 55.0486Z" fill="#02489F"/>
<path d="M677.508 943.202L677.301 942.216L586.99 514.258L575.514 66.1928L199.114 34.4537L-168.372 -91.2167L-310.476 318.101L-526.123 688.454L-525.459 689.115L-237.548 973.206L-3.33408 1327.79L-2.59488 1327.25L317.113 1094.44L677.508 943.202ZM573.634 68.2896L585.067 514.545L585.067 514.657L675.222 941.767L316.28 1092.39L316.193 1092.46L-2.86423 1324.79L-236.151 971.634L-236.233 971.559L-523.548 688.067L-308.772 319.175L-308.729 319.062L-167.244 -88.4834L198.769 36.6878L198.876 36.6878L573.634 68.2896Z" fill="#02489F"/>
<path d="M660.858 931.389L660.683 930.459L583.363 513.278L561.958 79.5664L561.15 79.4728L198.388 36.6508L-160.497 -73.5058L-160.83 -72.6384L-307.707 318.083L-508.113 683.674L-235.531 968.607L-0.489942 1304.74L0.211657 1304.26L315.191 1089.25L660.858 931.389ZM560.154 81.6133L581.453 513.584L581.453 513.665L658.653 930.01L314.333 1087.22L314.27 1087.27L-0.0702643 1301.84L-234.153 967.059L-234.209 967.003L-505.658 683.281L-306.035 319.138L-306.004 319.056L-159.42 -70.8724L198.049 38.8724L198.124 38.8724L560.154 81.6133Z" fill="#02489F"/>
<path d="M644.202 919.577L644.064 918.716L579.736 512.25L548.415 92.9656L197.617 38.8796L-152.642 -55.8008L-304.976 318.103L-490.115 678.87L-489.57 679.494L-233.476 964.059L2.36063 1281.7L2.99961 1281.3L313.243 1084.1L644.202 919.577ZM546.667 94.9127L577.876 512.543L642.084 918.248L312.453 1082.07L312.409 1082.07L2.78663 1278.88L-232.123 962.493L-487.729 678.471L-303.322 319.145L-151.596 -53.2609L197.285 41.0387L546.667 94.9127Z" fill="#02489F"/>
<path d="M627.546 907.769L627.439 906.964L576.117 511.319L534.835 106.338L196.923 41.0938L-144.773 -38.0976L-145.092 -37.3737L-302.2 318.045L-472.111 674.064L-471.623 674.644L-231.47 959.421L5.21161 1258.64L311.345 1078.86L627.546 907.769ZM533.181 108.216L574.3 511.593L625.523 906.483L310.531 1076.92L5.62506 1255.97L-230.136 957.924L-469.819 673.702L-300.571 319.075L-143.771 -35.6514L196.566 43.2281L533.181 108.216Z" fill="#02489F"/>
<path d="M610.894 895.956L572.5 510.358L521.303 119.705L520.676 119.556L196.226 43.3097L-136.907 -20.3867L-137.22 -19.7626L-299.426 317.965L-454.109 669.259L-453.677 669.808L-229.474 954.791L8.05409 1235.61L8.63667 1235.3L309.44 1073.67L610.894 895.956ZM519.693 121.515L570.696 510.645L608.908 894.721L308.631 1071.75L8.45503 1233.03L-228.152 953.318L-451.904 668.91L-297.816 319.019L-135.942 -18.0403L195.9 45.4127L519.693 121.515Z" fill="#02489F"/>
<path d="M594.25 884.15L568.874 509.305L507.753 133.092L507.189 132.936L195.48 45.5197L195.43 45.5197L-129.058 -2.68161L-296.708 318.041L-436.125 664.455L-435.749 664.973L-227.444 950.212L-227.407 950.249L10.9042 1212.55L11.4429 1212.29L307.498 1068.5L307.542 1068.5L594.25 884.15ZM567.094 509.642L592.364 882.958L306.715 1066.59L11.2801 1210.08L-226.135 948.758L-433.989 664.118L-295.085 318.983L-128.118 -0.422564L195.161 47.5978L506.206 134.821L567.094 509.642Z" fill="#02489F"/>
<path d="M577.6 872.342L577.6 871.718L565.265 508.38L565.265 508.286L494.229 146.464L493.721 146.296L194.773 47.6965L194.685 47.6965L-121.165 14.9903L-121.459 15.502L-293.927 317.952L-293.927 318.039L-418.115 659.648L-417.79 660.135L-225.421 945.611L-225.358 945.674L13.7482 1189.51L14.2431 1189.29L305.562 1063.3L305.631 1063.25L577.6 872.342ZM563.499 508.654L575.783 871.225L304.81 1061.42L14.1491 1187.14L-224.13 944.176L-416.079 659.33L-292.348 318.944L-120.288 17.1932L194.434 49.7809L492.713 148.131L563.499 508.654Z" fill="#02489F"/>
<path d="M561.652 507.399L561.652 507.262L480.661 159.831L480.217 159.662L194.06 49.9362L193.941 49.9362L-113.289 32.7188L-113.565 33.1618L-291.131 317.933L-291.175 318.064L-400.123 654.843L-223.309 941.105L16.612 1166.47L17.0568 1166.3L303.684 1058.11L303.784 1058.04L560.956 860.535L560.956 859.979L561.652 507.399ZM479.227 161.435L559.892 507.668L559.209 859.443L302.901 1056.25L16.9566 1164.18L-222.125 939.595L-398.15 654.537L-289.603 318.906L-112.456 34.8093L193.715 51.9644L479.227 161.435Z" fill="#02489F"/>
<path d="M558.011 506.413L558.011 506.232L467.117 173.198L466.728 173.029L193.307 52.1392L193.15 52.1392L-105.454 50.4043L-105.711 50.785L-288.401 317.877L-288.451 318.051L-382.127 650.044L-221.386 936.425L-221.261 936.531L19.4425 1143.43L19.8434 1143.3L301.734 1052.93L301.86 1052.83L544.286 848.728L544.286 848.241L558.011 506.413ZM465.732 174.746L556.301 506.682L542.626 847.66L300.983 1051.1L19.7933 1141.24L-220.127 935.021L-380.235 649.763L-286.898 318.888L-104.658 52.42L192.956 54.1486L465.732 174.746Z" fill="#02489F"/>
<path d="M554.422 505.434L554.353 505.222L453.574 186.565L453.242 186.396L192.58 54.3418L192.386 54.3418L-97.5925 68.0708L-97.8305 68.3891L-285.652 317.839L-364.143 645.208L-363.955 645.57L-219.382 931.833L-219.226 931.958L22.2799 1120.42L22.6307 1120.33L299.818 1047.76L299.974 1047.61L527.667 836.921L527.698 836.497L554.422 505.434ZM452.233 188.056L552.693 505.696L526.063 835.892L299.072 1045.91L22.6307 1118.3L-218.129 930.429L-362.314 644.958L-284.123 318.838L-96.7969 70.0241L192.261 56.295L452.233 188.056Z" fill="#02489F"/>
<path d="M550.815 504.454L550.721 504.198L440.038 199.932L191.861 56.5391L191.623 56.5391L-89.7109 85.7943L-89.9239 86.0502L-282.863 317.833L-282.919 318.101L-346.15 640.433L-346.006 640.758L-217.358 927.238L-217.157 927.382L25.1376 1097.37L297.902 1042.57L298.077 1042.39L511.03 825.119L511.08 824.758L550.815 504.454ZM438.741 201.368L549.092 504.716L509.464 824.121L297.156 1040.74L25.4634 1095.33L-216.098 925.84L-344.384 640.165L-281.397 318.807L-88.9655 87.6789L191.554 58.536L438.741 201.368Z" fill="#02489F"/>
<path d="M547.206 503.469L426.494 213.288L426.268 213.144L191.134 58.7363L190.858 58.78L-81.8684 103.48L-82.0626 103.686L-280.144 317.803L-328.166 635.629L-328.06 635.904L-215.347 922.653L-215.103 922.803L27.9499 1074.33L28.2067 1074.3L295.985 1037.4L296.185 1037.17L494.386 813.32L494.436 813.021L547.206 503.469ZM425.241 214.679L545.483 503.737L492.863 812.353L295.227 1035.57L28.2882 1072.36L-214.082 921.255L-326.456 635.374L-278.622 318.776L-81.1355 105.303L190.814 60.7333L425.241 214.679Z" fill="#02489F"/>
<path d="M543.603 502.488L543.447 502.157L412.956 226.66L412.781 226.529L190.4 60.9258L190.081 61.0007L-74.0134 121.196L-74.17 121.352L-277.401 317.771L-277.438 318.145L-310.182 630.829L-213.336 918.065L-213.042 918.221L30.8249 1051.31L31.0316 1051.31L294.067 1032.25L477.754 801.518L477.804 801.281L543.603 502.488ZM411.741 227.995L541.868 502.744L476.288 800.576L293.322 1030.38L31.1381 1049.39L-212.071 916.667L-308.54 630.58L-275.885 318.75L-73.2993 122.937L190.087 62.9353L411.741 227.995Z" fill="#02489F"/>
<path d="M540.002 501.51L539.801 501.142L399.426 240.016L399.294 239.91L189.674 63.1172L-66.1581 138.851L-66.2834 138.958L-274.657 317.734L-274.657 318.165L-292.197 626.026L-292.147 626.201L-211.338 913.48L-210.994 913.643L33.6938 1028.29L33.8504 1028.29L292.182 1027.04L292.42 1026.7L461.116 789.719L461.166 789.545L540.002 501.51ZM398.273 241.32L538.254 501.766L459.694 788.827L291.405 1025.2L33.9757 1026.45L-210.048 912.076L-290.594 625.789L-273.116 318.758L-65.4628 140.543L189.361 65.1391L398.273 241.32Z" fill="#02489F"/>
<path d="M536.406 500.523L536.155 500.117L385.889 253.37L385.807 253.295L188.966 65.3008L188.565 65.4506L-58.3027 156.561L-58.3904 156.63L-271.92 317.721L-271.92 318.22L-274.219 621.257L-274.219 621.376L-209.346 908.936L-208.945 909.092L36.5128 1005.26L36.6193 1005.26L290.246 1021.88L290.497 1021.49L444.491 777.918L444.528 777.805L536.406 500.523ZM384.736 254.649L534.633 500.785L443.1 777.025L289.488 1020.01L36.826 1003.45L-208.031 907.495L-272.628 620.995L-270.329 318.701L-57.5949 158.209L188.634 67.3477L384.736 254.649Z" fill="#02489F"/>
<path d="M532.811 499.537L532.51 499.1L372.358 266.724L372.314 266.68L188.246 67.4785L187.801 67.6782L-50.4468 174.24L-50.4969 174.272L-269.182 317.684L-269.182 318.239L-256.271 616.459L-256.271 616.521L-207.36 904.356L-206.896 904.506L39.3323 982.25L39.3886 982.25L288.336 1016.74L288.593 1016.27L427.859 766.124L427.859 766.067L532.811 499.537ZM371.231 267.96L531.013 499.799L426.506 765.25L287.565 1014.83L39.6517 980.509L-206.001 902.877L-254.718 616.203L-267.616 318.676L-49.8078 175.844L187.901 69.5629L371.231 267.96Z" fill="#02489F"/>
<path d="M529.227 498.552L528.864 498.09L358.809 280.085L187.525 69.6446L187.037 69.9067L-42.5855 191.876L-266.457 317.603L-238.268 611.616L-205.318 899.757L-204.792 899.882L42.2073 959.235L286.425 1011.59L286.694 1011.04L411.228 754.342L529.227 498.552ZM187.168 71.7851L357.719 281.296L527.379 498.82L409.906 753.481L285.642 1009.61L42.4641 957.494L-203.971 898.272L-236.777 611.398L-264.828 318.658L-41.9465 193.487L187.168 71.7851Z" fill="#02489F"/>
<path d="M525.651 497.564L525.212 497.078L345.272 293.395L186.786 71.8086L186.254 72.1394L-34.7741 209.567L-263.732 317.527L-263.626 318.226L-220.302 606.841L-203.345 895.15L-202.719 895.25L45.1075 936.194L284.521 1006.44L284.784 1005.82L394.628 742.496L525.651 497.564ZM186.442 74.0115L344.188 294.581L523.746 497.839L393.325 741.648L283.7 1004.41L45.3518 934.515L-201.936 893.659L-218.849 606.66L-262.072 318.644L-34.1477 211.152L186.442 74.0115Z" fill="#02489F"/>
<path d="M522.08 496.58L521.566 496.068L331.76 306.77L186.091 73.963L185.521 74.3811L-26.8874 227.216L-261.014 317.503L-202.343 602.024L-201.359 890.646L-200.683 890.702L47.8826 913.236L282.623 1001.31L377.99 730.747L522.08 496.58ZM185.709 76.2657L330.695 307.962L330.764 308.024L520.1 496.873L376.699 729.91L281.758 999.192L48.1708 911.526L48.1019 911.526L-199.881 889.061L-200.864 601.837L-200.864 601.737L-259.235 318.651L-26.2046 228.789L-26.1357 228.739L185.709 76.2657Z" fill="#02489F"/>
<path d="M518.547 495.624L517.921 495.093L318.254 320.117L185.377 76.1153L-19.0378 244.882L-258.332 317.44L-258.107 318.289L-184.408 597.237L-199.404 886.089L-198.653 886.089L50.702 890.22L280.725 996.177L280.963 995.347L361.371 718.957L518.547 495.624ZM184.976 78.5054L317.183 321.259L317.29 321.347L516.449 495.88L360.093 718.121L279.848 993.949L51.009 888.542L-197.851 884.404L-182.929 597.019L-182.967 596.875L-256.484 318.632L-18.4427 246.436L-18.3362 246.349L184.976 78.5054Z" fill="#02489F"/>
<path d="M514.964 494.602L514.262 494.065L304.736 333.46L184.663 78.2442L184.036 78.8682L-11.1953 262.544L-255.607 317.379L-166.423 592.427L-197.406 881.535L-196.567 881.485L53.5644 867.219L278.827 991.068L344.758 707.177L514.964 494.602ZM184.212 80.7654L303.683 334.621L303.834 334.733L512.784 494.907L343.486 706.34L343.442 706.54L277.906 988.727L53.8525 865.547L53.6709 865.547L-195.796 879.775L-164.976 592.215L-165.039 592.021L-253.684 318.633L-10.5814 264.104L-10.4436 263.973L184.212 80.7654Z" fill="#02489F"/>
<path d="M511.424 493.607L291.217 346.794L183.955 80.3575L183.259 81.0939L-3.34646 280.202L-252.914 317.308L-252.532 318.306L-148.464 587.625L-195.446 877.002L56.3769 844.221L276.941 985.96L277.129 984.887L328.145 695.38L511.424 493.607ZM183.504 83.0409L290.146 347.955L290.34 348.079L509.106 493.931L326.861 694.55L326.817 694.799L275.951 983.476L56.7026 842.554L56.4834 842.554L-193.723 875.117L-147.011 587.432L-147.098 587.201L-250.878 318.637L-2.73882 281.75L-2.57593 281.575L183.504 83.0409Z" fill="#02489F"/>
<path d="M507.898 492.617L506.952 492.074L277.68 360.138L183.228 82.4375L4.47767 297.84L-250.258 317.185L-130.511 582.835L-193.498 872.48L-192.464 872.268L59.2459 821.233L275.062 980.877L275.212 979.629L311.545 683.569L507.898 492.617ZM182.783 85.3331L276.653 361.299L276.885 361.43L505.392 492.96L310.261 682.764L310.223 683.069L274.009 978.243L59.5341 819.555L59.271 819.611L-191.662 870.489L-129.064 582.629L-129.176 582.367L-248.053 318.658L5.11036 299.412L5.29204 299.194L182.783 85.3331Z" fill="#02489F"/>
<path d="M504.396 491.617L264.181 373.472L182.545 84.5391L12.3458 315.517L-247.57 317.146L-246.944 318.325L-112.557 578.034L-191.562 867.972L-190.415 867.654L62.0902 798.241L273.195 975.807L294.913 671.81L504.396 491.617ZM182.013 87.6469L263.104 374.639L263.386 374.777L501.703 491.991L293.661 670.98L272.049 972.931L62.3721 796.557L62.0777 796.638L-189.57 865.819L-111.097 577.829L-245.215 318.687L12.9597 317.071L182.013 87.6469Z" fill="#02489F"/>
<path d="M500.913 490.633L499.66 490.115L250.669 386.804L181.844 86.588L20.1889 333.161L-244.945 317.029L-94.6035 573.238L-189.632 863.488L-188.379 863.045L64.9281 775.254L271.322 970.768L278.32 660.03L500.913 490.633ZM181.268 89.9953L249.579 387.99L249.905 388.121L497.969 491.032L277.029 659.188L277.029 659.587L270.095 967.623L65.2538 773.544L64.9218 773.657L-187.433 861.135L-93.1376 573.007L-93.3318 572.676L-242.358 318.689L20.809 334.703L21.0158 334.378L181.268 89.9953Z" fill="#02489F"/>
<path d="M492.938 491.986L247.505 390.223L179.964 95.8105L179.168 97.0212L21.4597 337.66L-238.557 321.884L-91.0839 573.125L-184.246 857.79L65.397 771.216L267.839 962.917L267.87 961.388L274.66 658.176L492.938 491.986ZM179.4 99.1554L246.428 391.384L246.747 391.515L490.038 492.392L273.389 657.34L273.389 657.739L266.63 959.821L65.6788 769.537L65.3594 769.649L-182.078 855.475L-89.6368 572.919L-89.831 572.594L-236.013 323.556L22.0735 339.207L22.2802 338.895L179.4 99.1554Z" fill="#02489F"/>
<path d="M484.958 493.358L483.749 492.853L244.343 393.63L178.092 105.033L22.7386 342.171L-232.166 326.763L-87.5623 573.005L-178.851 852.091L65.8679 767.171L264.357 955.071L270.997 656.316L484.958 493.358ZM177.534 108.322L243.309 394.759L243.622 394.89L482.108 493.752L269.75 655.498L263.154 952.02L66.1498 765.524L65.8303 765.636L-176.746 849.814L-86.1403 572.812L-86.3282 572.487L-229.66 328.379L23.34 343.681L23.5404 343.369L177.534 108.322Z" fill="#02489F"/>
<path d="M476.983 494.726L475.787 494.233L241.178 397.063L176.218 114.258L175.448 115.431L24.0157 346.653L-225.777 331.594L-84.0426 572.894L-173.458 846.401L66.3432 763.135L260.873 947.228L267.35 654.463L476.983 494.726ZM175.673 117.497L240.151 398.186L240.458 398.311L474.177 495.119L266.097 653.652L266.097 654.039L259.689 944.22L66.6125 761.512L66.2993 761.624L-171.385 844.154L-82.6394 572.694L-82.821 572.382L-223.316 333.211L24.6045 348.15L24.805 347.844L175.673 117.497Z" fill="#02489F"/>
<path d="M469.004 496.097L467.807 495.623L238.016 400.474L174.34 123.473L25.2881 351.143L-219.381 336.453L-218.673 337.652L-80.5213 572.78L-168.064 840.72L-166.874 840.302L66.8138 759.089L257.391 939.369L257.422 937.909L263.687 652.601L469.004 496.097ZM173.801 126.662L236.995 401.579L237.302 401.71L466.247 496.484L262.465 651.809L256.201 936.418L67.0832 757.497L66.7699 757.603L-166.028 838.492L-79.1432 572.586L-216.957 338.038L25.8832 352.616L26.0774 352.317L173.801 126.662Z" fill="#02489F"/>
<path d="M461.029 497.498L234.852 403.891L172.467 132.699L26.566 355.64L-213.004 341.287L-77.0008 572.664L-162.671 835.007L-161.499 834.601L67.2836 755.054L253.908 931.522L260.022 650.745L461.029 497.498ZM171.934 135.863L233.85 405.008L234.151 405.133L458.317 497.847L258.826 649.971L258.826 650.339L252.768 928.62L67.5529 753.481L67.246 753.594L-160.666 832.847L-75.6415 572.477L-75.8232 572.171L-210.611 342.865L27.136 357.087L27.3302 356.794L171.934 135.863Z" fill="#02489F"/>
<path d="M453.054 498.837L451.92 498.369L231.688 407.314L170.586 141.92L169.853 143.037L27.8366 360.136L-206.615 346.164L-73.475 572.549L-157.278 829.306L67.7586 751.007L250.436 923.668L250.468 922.258L256.356 648.889L453.054 498.837ZM170.066 145.003L230.704 408.381L230.999 408.506L450.385 499.211L255.185 648.121L255.185 648.514L249.303 920.842L68.0154 749.466L67.7148 749.572L-155.292 827.172L-72.1721 572.381L-72.3475 572.081L-204.272 347.724L28.4004 361.59L28.5946 361.303L170.066 145.003Z" fill="#02489F"/>
<path d="M445.074 500.212L443.959 499.751L228.513 410.755L168.715 151.152L167.994 152.251L29.116 364.638L-200.23 351.028L-199.56 352.17L-69.953 572.458L-151.883 823.637L68.2299 746.973L246.936 915.821L252.699 647.032L445.074 500.212ZM168.195 154.173L227.555 411.785L227.843 411.904L442.456 500.581L251.547 646.283L251.547 646.645L245.834 913.025L68.4867 745.456L68.1923 745.562L-149.947 821.515L-68.6438 572.252L-197.925 352.526L29.6672 366.036L29.8551 365.749L168.195 154.173Z" fill="#02489F"/>
<path d="M437.112 501.577L436.015 501.127L225.38 414.154L166.835 160.367L30.3868 369.123L-193.873 355.874L-193.215 356.992L-66.4333 572.318L-146.49 817.918L68.6989 742.926L243.471 907.968L249.059 645.176L437.112 501.577ZM166.346 163.344L224.409 415.184L224.697 415.302L434.55 501.939L247.931 644.433L247.931 644.77L242.394 905.197L68.9495 741.441L68.6613 741.541L-144.592 815.852L-65.1491 572.138L-65.3183 571.85L-191.58 357.353L30.9318 370.502L31.1198 370.221L166.346 163.344Z" fill="#02489F"/>
<path d="M429.125 502.95L222.198 417.568L164.962 169.584L164.266 170.645L31.6646 373.622L-187.434 360.729L-186.807 361.828L-62.913 572.206L-141.078 812.221L-139.982 811.84L69.1687 738.889L239.97 900.118L245.376 643.316L429.125 502.95ZM164.467 172.511L221.265 418.585L221.546 418.697L426.594 503.305L244.267 642.593L238.898 897.416L69.4004 737.429L-139.199 810.193L-61.6476 572.032L-61.8167 571.745L-185.222 362.177L32.2096 374.976L32.3913 374.702L164.467 172.511Z" fill="#02489F"/>
<path d="M421.145 504.317L219.035 420.989L163.083 178.809L32.9434 378.117L-181.068 365.586L-180.442 366.665L-59.3916 572.095L-135.703 806.53L-134.625 806.15L69.6394 734.846L236.488 892.268L241.718 641.464L421.145 504.317ZM162.601 181.685L218.121 421.987L218.397 422.099L418.665 504.673L240.628 640.746L240.628 641.09L235.441 889.616L69.8837 733.386L69.6081 733.486L-133.867 804.527L-58.145 571.92L-178.882 367.008L33.4759 379.446L33.6513 379.177L162.601 181.685Z" fill="#02489F"/>
<path d="M413.17 505.69L412.13 505.265L215.871 424.408L161.209 188.031L34.2141 382.615L-174.68 370.44L-174.053 371.501L-55.8845 571.976L-130.31 800.832L-129.258 800.464L70.1145 730.808L233.004 884.404L238.059 639.585L413.17 505.69ZM160.721 190.852L214.963 425.387L215.232 425.493L410.733 506.033L236.988 638.905L231.976 881.815L70.3588 729.398L70.0894 729.497L-128.512 798.91L-54.6317 571.807L-54.7946 571.533L-172.519 371.838L34.7341 383.919L34.9032 383.657L160.721 190.852Z" fill="#02489F"/>
<path d="M405.195 507.062L404.174 506.637L212.707 427.827L159.33 197.254L35.4917 387.107L-168.297 375.294L-167.67 376.33L-52.3457 571.863L-124.917 795.165L70.584 726.77L229.52 876.572L234.394 637.749L405.195 507.062ZM158.866 200.031L211.824 428.788L212.087 428.894L402.802 507.399L233.348 637.063L233.348 637.388L228.512 874.013L70.8158 725.384L70.5464 725.478L-123.15 793.218L-51.1492 571.682L-51.3121 571.413L-166.192 376.648L35.9991 388.374L36.1682 388.112L158.866 200.031Z" fill="#02489F"/>
<path d="M397.215 508.43L209.545 431.248L157.458 206.479L36.7643 391.602L-161.906 380.176L-48.8241 571.758L-119.522 789.438L71.0548 722.727L226.032 868.754L230.737 635.922L397.215 508.43ZM157 209.187L208.68 432.184L394.873 508.76L229.703 635.217L225.043 866.214L71.2803 721.373L71.0172 721.46L-117.794 787.559L-47.6339 571.583L-159.839 381.492L37.2655 392.856L37.4284 392.6L157 209.187Z" fill="#02489F"/>
<path d="M389.24 509.802L206.381 434.661L155.578 215.695L154.951 216.663L38.0417 396.101L-155.523 385.005L-45.3041 571.632L-114.142 783.746L71.5241 718.689L222.549 860.872L227.078 634.031L389.24 509.802ZM155.133 218.373L205.535 435.603L386.941 510.127L226.063 633.376L226.063 633.688L221.584 858.413L71.7558 717.378L71.499 717.472L-112.432 781.898L-44.1515 571.47L-44.3081 571.214L-153.494 386.322L38.5303 397.33L38.6932 397.081L155.133 218.373Z" fill="#02489F"/>
<path d="M381.266 511.17L380.301 510.777L203.217 438.082L153.73 224.92L153.103 225.869L39.3382 400.601L-149.115 389.868L-41.7649 571.528L-108.717 778.087L72 714.665L219.066 853.022L223.413 632.179L381.266 511.17ZM153.247 227.528L202.39 438.986L379.042 511.494L222.436 631.53L222.436 631.842L218.132 850.614L72.2318 713.323L71.9812 713.417L-107.076 776.24L-40.6749 571.359L-40.8253 571.109L-147.148 391.153L39.7955 401.8L39.9584 401.556L153.247 227.528Z" fill="#02489F"/>
<path d="M373.283 512.542L372.344 512.155L200.077 441.5L151.824 234.148L151.197 235.078L40.5832 405.093L-142.746 394.715L-38.2585 571.408L-103.344 772.351L-102.386 772.02L72.4682 710.608L215.581 845.171L219.741 630.318L373.283 512.542ZM151.404 236.713L199.238 442.386L371.078 512.854L218.782 629.688L218.782 629.993L214.648 842.793L72.6812 709.328L72.4306 709.416L-101.715 770.572L-37.156 571.252L-37.3064 571.002L-140.804 395.976L41.0593 406.273L41.2159 406.029L151.404 236.713Z" fill="#02489F"/>
<path d="M365.31 513.909L196.89 444.92L149.952 243.354L41.8686 409.574L-136.356 399.59L-135.804 400.532L-34.7369 571.29L-97.9495 766.66L-97.0098 766.329L72.9392 706.552L212.099 837.321L216.096 628.465L365.31 513.909ZM149.539 245.862L196.094 445.788L363.149 514.221L215.144 627.847L215.144 628.14L211.185 835.012L73.1584 705.304L72.9142 705.385L-96.3521 764.906L-33.6595 571.134L-134.451 400.8L42.3259 410.754L42.4825 410.517L149.539 245.862Z" fill="#02489F"/>
<path d="M357.335 515.282L193.726 448.341L148.072 252.59L43.1396 414.081L-129.973 404.427L-31.2169 571.178L-92.5564 760.963L-91.6418 760.638L73.4146 702.527L208.616 829.489L212.437 626.624L357.335 515.282ZM147.702 255.036L192.949 449.189L193.181 449.283L355.218 515.594L211.504 626L207.745 827.212L73.6151 701.304L73.377 701.385L-90.9653 759.259L-30.1583 571.028L-30.3024 570.791L-128.106 405.637L43.5906 415.21L43.7409 414.979L147.702 255.036Z" fill="#02489F"/>
<path d="M349.356 516.649L190.563 451.754L146.2 261.807L145.636 262.68L44.4187 418.58L-123.582 409.281L-27.6953 571.066L-87.1618 755.265L73.8856 698.477L205.134 821.62L205.134 820.528L208.774 624.752L349.356 516.649ZM145.824 264.203L189.805 452.565L190.031 452.659L347.263 516.936L207.84 624.178L207.84 624.459L204.232 819.43L74.0861 697.285L73.8481 697.373L-85.6333 753.599L-26.6617 570.916L-26.7995 570.685L-121.759 410.461L44.8697 419.684L45.02 419.46L145.824 264.203Z" fill="#02489F"/>
<path d="M341.382 518.02L340.517 517.665L187.4 455.173L144.327 271.029L45.6966 423.072L-117.174 414.135L-116.654 415.015L-24.1685 570.952L-81.7621 749.572L74.3556 694.444L201.651 813.774L205.115 622.891L341.382 518.02ZM143.945 273.37L186.655 455.99L186.88 456.077L339.39 518.314L204.226 622.304L200.787 811.602L74.5497 693.271L74.3243 693.352L-80.2774 747.943L-23.16 570.802L-23.2978 570.577L-115.395 415.29L46.1414 424.151L46.2855 423.933L143.945 273.37Z" fill="#02489F"/>
<path d="M333.401 519.387L332.562 519.043L184.237 458.592L142.448 280.252L46.9689 427.564L-110.809 418.99L-20.6474 570.833L-76.3678 743.875L74.8259 690.4L198.169 805.924L201.458 621.056L333.401 519.387ZM142.066 282.542L183.511 459.384L331.428 519.674L200.587 620.47L200.587 620.738L197.329 803.814L75.0389 689.258L74.8197 689.339L-74.8957 742.283L-19.6451 570.671L-19.7766 570.446L-109.061 420.113L47.3886 428.619L142.066 282.542Z" fill="#02489F"/>
<path d="M325.427 520.76L324.606 520.423L181.073 462.013L140.575 289.477L48.2462 432.065L-104.42 423.859L-103.919 424.701L-17.1276 570.728L-71.0002 738.184L75.2764 686.388L194.686 798.074L197.818 619.185L325.427 520.76ZM140.187 291.711L180.365 462.787L180.578 462.874L323.497 521.041L196.96 618.629L193.877 796.008L75.4831 685.246L75.2639 685.321L-69.5594 736.624L-16.1629 570.578L-16.2944 570.359L-102.741 424.957L48.6345 433.069L48.7661 432.857L140.187 291.711Z" fill="#02489F"/>
<path d="M317.464 522.127L177.909 465.426L138.695 298.699L49.5168 436.557L-98.0313 428.701L-13.608 570.609L-65.6013 732.48L-64.7869 732.193L75.7702 682.319L191.195 790.223L191.195 789.225L194.133 617.312L317.464 522.127ZM138.338 300.883L177.22 466.187L177.426 466.274L315.584 522.407L193.3 616.782L193.3 617.044L190.393 788.214L75.9456 681.233L75.7389 681.308L-64.1981 730.964L-12.6621 570.465L-12.7874 570.253L-96.3712 429.774L49.924 437.587L50.0555 437.375L138.338 300.883Z" fill="#02489F"/>
<path d="M309.472 523.499L174.747 468.845L136.823 307.916L50.7962 441.056L-91.6465 433.568L-10.086 570.508L-60.2 726.807L-59.3919 726.52L76.2415 678.281L187.745 782.372L190.476 615.44L309.472 523.499ZM136.472 310.075L174.058 469.613L174.264 469.7L307.637 523.767L189.674 614.94L186.937 780.412L76.4169 677.22L76.2102 677.295L-58.8407 725.309L-9.1652 570.365L-9.29047 570.153L-90.0241 434.604L51.1908 442.036L136.472 310.075Z" fill="#02489F"/>
<path d="M301.497 524.867L171.583 472.266L134.943 317.147L134.455 317.902L52.0671 445.55L-85.2578 438.411L-6.56004 570.378L-54.7948 721.092L-54.0243 720.817L76.7106 674.244L184.23 774.522L186.811 613.606L301.497 524.867ZM134.605 319.218L170.937 472.99L171.138 473.071L299.705 525.135L186.022 613.125L186.022 613.375L183.466 772.644L76.8798 673.202L76.6793 673.277L-53.4793 719.656L-5.66426 570.26L-5.78954 570.054L-83.673 439.46L52.4868 446.505L52.6121 446.312L134.605 319.218Z" fill="#02489F"/>
<path d="M293.523 526.239L292.778 525.94L168.42 475.685L133.071 326.363L53.3459 450.068L-78.8672 443.266L-3.03851 570.266L-49.3939 715.394L-48.6422 715.125L77.1939 670.194L180.748 766.672L180.748 765.748L183.154 611.746L293.523 526.239ZM132.739 328.379L167.781 476.39L167.975 476.471L291.782 526.495L182.383 611.253L179.996 764.812L77.3505 669.189L-48.1223 713.983L-2.16778 570.134L-2.2868 569.935L-77.3262 444.258L53.7406 450.979L53.8659 450.786L132.739 328.379Z" fill="#02489F"/>
<path d="M285.517 527.612L165.244 479.105L131.179 335.574L54.6235 454.542L-72.4844 448.121L-72.0396 448.864L0.494071 570.147L-43.9821 709.672L-43.2492 709.409L77.6571 666.163L177.259 758.821L179.495 609.893L285.517 527.612ZM130.872 337.559L164.617 479.791L164.805 479.866L283.826 527.862L178.743 609.406L178.743 609.643L176.519 757.012L77.8137 665.177L77.6257 665.246L-42.7606 708.305L1.33348 570.022L1.21445 569.829L-70.981 449.088L54.9931 455.447L55.1121 455.26L130.872 337.559Z" fill="#02489F"/>
<path d="M277.567 528.979L276.859 528.698L162.111 482.519L129.317 344.811L55.8942 459.011L-66.0957 452.977L-65.6635 453.694L4.0012 570.035L-38.5957 704.006L-37.8816 703.75L78.126 662.119L173.781 750.971L175.836 608.065L277.567 528.979ZM129.004 346.758L161.484 483.193L161.672 483.268L275.913 529.229L175.103 607.565L173.067 749.224L78.2826 661.158L78.0947 661.227L-37.3992 702.664L4.82807 569.885L4.71532 569.698L-64.6549 453.919L56.245 459.916L56.364 459.735L129.004 346.758Z" fill="#02489F"/>
<path d="M269.594 530.354L268.905 530.073L158.93 485.94L127.439 354.029L57.1732 463.531L-59.7051 457.839L-59.2917 458.532L7.52275 569.924L-33.1949 698.309L-32.4995 698.06L78.6282 658.083L170.299 743.128L172.178 606.181L269.594 530.354ZM127.139 355.895L158.353 486.595L158.535 486.664L267.977 530.572L171.464 605.72L171.464 605.944L169.585 741.412L78.7534 657.166L78.578 657.235L-32.0422 697.005L8.33083 569.8L-58.2831 458.719L57.4989 464.423L57.6116 464.248L127.139 355.895Z" fill="#02489F"/>
<path d="M261.613 531.719L260.942 531.451L155.766 489.384L125.566 363.252L58.4444 468.029L-53.3223 462.694L11.0491 569.805L-27.8269 692.611L-27.1503 692.368L79.0725 654.039L166.816 735.258L166.816 734.447L168.507 604.321L261.613 531.719ZM125.271 365.099L155.221 490.008L155.39 490.083L260.053 531.957L167.824 603.878L166.139 733.611L79.2166 653.109L79.0412 653.171L-26.6805 691.319L11.8258 569.686L11.7193 569.512L-51.9379 463.574L58.7826 468.859L58.8954 468.691L125.271 365.099Z" fill="#02489F"/>
<path d="M253.639 533.067L253.013 532.805L152.603 492.778L123.687 372.475L123.28 373.099L59.7233 472.534L-46.9316 467.542L14.5707 569.686L-22.4322 686.919L-21.7745 686.682L79.5434 650.001L163.328 727.426L164.856 602.461L253.639 533.067ZM123.406 374.234L152.052 493.39L152.215 493.458L252.123 533.323L164.18 602.036L164.18 602.242L162.676 725.803L79.6812 649.139L79.512 649.202L-21.3422 685.708L15.3286 569.573L15.2221 569.405L-45.5911 468.403L60.0491 473.333L123.406 374.234Z" fill="#02489F"/>
<path d="M245.658 534.457L245.032 534.208L149.439 496.197L121.814 381.697L121.413 382.321L61.0005 477.02L-40.543 472.402L18.0904 569.579L-17.0458 681.22L-16.4193 680.99L80.0125 645.956L159.844 719.593L161.191 600.606L245.658 534.457ZM121.544 383.401L148.9 496.79L149.063 496.859L244.173 534.682L160.521 600.207L159.186 718.027L80.1503 645.101L79.9875 645.163L-15.962 680.028L18.8233 569.46L18.7231 569.298L-39.24 473.226L61.3137 477.8L61.4202 477.638L121.544 383.401Z" fill="#02489F"/>
<path d="M237.683 535.832L237.057 535.589L146.275 499.612L119.965 390.916L62.3343 481.515L-34.1602 477.259L21.5916 569.462L-11.6653 675.55L-11.0389 675.319L80.4881 641.92L156.361 711.726L157.532 598.773L237.683 535.832ZM119.677 392.576L145.755 500.193L145.912 500.255L236.261 536.05L156.899 598.349L156.899 598.542L155.74 710.209L80.6134 641.09L-10.6066 674.37L22.3245 569.349L22.2243 569.193L-32.9011 478.083L62.5786 482.301L62.6788 482.139L119.677 392.576Z" fill="#02489F"/>
<path d="M229.71 537.198L229.084 536.967L143.113 503.031L118.062 400.145L63.5632 486.013L-27.7696 482.113L25.132 569.348L-6.2519 669.82L-5.62547 669.601L80.959 637.906L152.879 703.874L153.875 596.894L229.71 537.198ZM117.812 401.742L142.612 503.593L142.762 503.655L228.332 537.435L153.261 596.507L153.261 596.694L152.278 702.408L81.0843 637.076L80.9277 637.132L-5.24335 668.709L25.8211 569.261L25.7271 569.105L-26.548 482.887L63.8514 486.743L63.9454 486.594L117.812 401.742Z" fill="#02489F"/>
<path d="M221.728 538.57L221.158 538.345L139.948 506.45L116.182 409.361L64.8151 490.487L-21.3809 486.968L28.683 569.261L-0.859234 664.115L81.4279 633.837L149.395 696.023L150.209 595.034L221.728 538.57ZM115.944 410.909L139.466 507.012L139.61 507.068L220.419 538.795L149.633 594.678L149.633 594.865L148.812 694.606L81.5469 633.063L0.111725 663.048L29.3094 569.129L-20.1781 487.71L65.1409 491.211L65.2349 491.068L115.944 410.909Z" fill="#02489F"/>
<path d="M213.754 539.932L213.203 539.719L136.779 509.865L114.309 418.586L113.958 419.135L66.0991 495L-14.9981 491.824L-14.6598 492.379L32.1781 569.137L4.53385 658.438L81.9288 629.794L145.912 688.18L146.538 593.175L213.754 539.932ZM114.077 420.115L136.315 510.396L212.47 540.144L145.981 592.819L145.981 592.975L145.354 686.788L82.0228 629.033L81.8787 629.083L5.4547 657.371L32.817 569.018L32.7293 568.875L-13.8517 492.542L66.381 495.662L114.077 420.115Z" fill="#02489F"/>
<path d="M205.78 541.305L133.622 513.285L112.43 427.791L67.3714 499.5L-8.60742 496.679L-8.28169 497.216L35.6995 568.981L9.92843 652.722L82.3743 625.757L142.429 680.343L142.893 591.335L205.78 541.305ZM112.211 429.251L133.171 513.797L133.309 513.847L204.539 541.511L142.342 590.973L141.884 679.007L82.4808 625.033L10.8305 651.73L36.3196 568.907L-7.52997 497.372L67.6408 500.155L67.7285 500.018L112.211 429.251Z" fill="#02489F"/>
<path d="M197.818 542.678L130.458 516.705L110.557 437.033L68.649 503.993L-2.22464 501.535L-1.90517 502.052L39.2196 568.894L15.3277 647.049L15.8414 646.856L82.8688 621.713L138.934 672.473L139.222 589.475L197.818 542.678ZM110.344 438.419L130.026 517.198L130.158 517.248L196.609 542.877L138.702 589.132L138.702 589.294L138.414 671.206L82.9502 621.021L82.8124 621.07L16.1922 646.07L39.8147 568.794L39.7332 568.663L-1.15972 502.196L68.9121 504.63L68.9936 504.492L110.344 438.419Z" fill="#02489F"/>
<path d="M189.825 544.044L189.33 543.857L127.314 520.143L108.678 446.25L69.9211 508.486L4.14646 506.395L4.45342 506.882L42.7217 568.775L20.7028 641.358L83.2952 617.675L135.445 664.628L135.552 587.602L189.825 544.044ZM108.478 447.573L126.882 520.586L127.007 520.636L188.679 544.225L135.063 587.284L135.063 587.44L134.95 663.399L83.4142 617.001L83.2889 617.051L21.5485 640.403L43.3168 568.681L43.2353 568.55L5.19259 507.026L70.1779 509.098L70.2593 508.967L108.478 447.573Z" fill="#02489F"/>
<path d="M181.844 545.416L124.132 523.544L106.799 455.473L106.51 455.947L71.1988 512.985L10.5547 511.225L46.2609 568.637L26.1151 635.659L26.5912 635.478L83.79 613.637L131.981 656.777L131.912 585.748L181.844 545.416ZM106.617 456.758L123.731 523.999L123.856 524.043L180.748 545.604L131.417 585.443L131.417 585.599L131.486 655.61L83.8777 612.994L83.7524 613.038L26.9044 634.748L46.8497 568.568L11.5382 511.849L71.4431 513.559L71.5183 513.44L106.617 456.758Z" fill="#02489F"/>
<path d="M173.869 546.795L173.412 546.626L120.968 526.963L104.925 464.695L104.643 465.151L72.47 517.465L16.9375 516.092L49.7871 568.512L31.5081 629.924L84.2592 609.555L128.497 648.87L128.497 648.308L128.284 583.888L173.869 546.795ZM104.75 465.925L120.586 527.399L120.705 527.443L172.817 546.969L127.777 583.613L127.777 583.757L128.021 647.822L84.3469 608.987L84.2279 609.037L32.266 629.1L50.3133 568.468L17.8834 516.672L72.708 518.032L72.7832 517.914L104.75 465.925Z" fill="#02489F"/>
<path d="M165.869 548.157L117.803 530.377L103.045 473.92L102.782 474.357L73.7469 521.978L23.3262 520.961L53.3067 568.438L36.9007 624.272L84.7281 605.55L125.013 641.071L125.013 640.534L124.6 582.03L165.869 548.157ZM102.882 475.099L117.44 530.796L117.553 530.839L164.885 548.313L124.168 581.737L124.168 581.874L124.587 639.985L84.8095 604.964L37.6274 623.429L53.8141 568.344L53.739 568.232L24.2345 521.51L73.9787 522.508L102.882 475.099Z" fill="#02489F"/>
<path d="M157.914 549.522L114.641 533.796L101.166 483.143L100.916 483.561L75.038 526.47L29.7285 525.815L29.9916 526.227L56.8466 568.325L42.2947 618.56L85.205 601.499L121.538 633.213L120.911 580.169L157.914 549.522ZM101.016 484.266L114.296 534.189L114.403 534.227L156.956 549.697L120.498 579.913L120.498 580.051L121.087 632.208L85.2801 600.95L85.1736 600.993L42.9838 617.768L57.3101 568.231L57.2412 568.125L30.5617 526.333L75.226 526.957L75.2886 526.844L101.016 484.266Z" fill="#02489F"/>
</g>
</g>
<defs>
<clipPath id="clip0_131_104">
<rect width="512.766" height="504.773" fill="white" transform="matrix(-0.5 0.866025 0.866025 0.5 256.383 0)"/>
</clipPath>
</defs>
</svg>
