<svg width="1855" height="1774" viewBox="0 0 1855 1774" fill="none" xmlns="http://www.w3.org/2000/svg">
<path d="M948.842 196.518L1179.91 620.532L1666.38 732.784L1665.21 733.749L1327.39 1011.75L1426.08 1462.49L1424.53 1461.6L985.493 1210.87L560.001 1377.21L560.229 1375.69L626.714 942.744L265.063 594.787L746.873 577.892L948.842 196.518ZM1178.84 621.846L1178.65 621.467L948.992 200.035L748.057 579.427L747.617 579.441L268.746 596.227L628.511 942.383L628.456 942.762L562.145 1374.59L985.422 1209.13L985.82 1209.36L1423.73 1459.44L1325.55 1011.03L1325.84 1010.79L1662.79 733.53L1178.84 621.846Z" fill="#02489F"/>
<path d="M949.95 208.107L1179.36 622.597L1655.9 735.641L1654.75 736.6L1326.07 1011.46L1419.54 1453.55L1418.04 1452.69L986.293 1209.51L567.515 1369.69L567.728 1368.21L629.567 943.063L277.285 599.977L278.923 599.906L748.91 580.332L949.95 208.107ZM1178.3 623.889L1178.1 623.523L950.083 211.532L750.056 581.833L749.633 581.852L280.868 601.383L631.338 942.704L631.287 943.085L569.584 1367.14L986.22 1207.79L986.609 1208.02L1417.24 1450.56L1324.26 1010.75L1324.55 1010.51L1652.38 736.353L1178.3 623.889Z" fill="#02489F"/>
<path d="M951.059 219.69L951.844 221.089L1178.82 624.659L1645.42 738.496L1644.31 739.436L1324.77 1011.19L1413.01 1444.6L987.084 1208.15L575.012 1362.19L575.212 1360.74L632.421 943.376L289.514 605.143L291.106 605.066L750.918 582.751L951.059 219.69ZM1177.77 625.935L1177.57 625.575L951.181 223.034L752.061 584.242L751.641 584.259L293.006 606.529L634.159 943.018L634.104 943.397L577.051 1359.7L987.018 1206.46L987.394 1206.68L1410.77 1441.7L1322.98 1010.49L1641.99 739.194L1177.77 625.935Z" fill="#02489F"/>
<path d="M952.165 231.278L952.936 232.629L1178.26 626.731L1634.93 741.352L1323.47 1010.9L1406.48 1435.66L1405.04 1434.88L987.874 1206.81L582.51 1354.69L582.689 1353.29L635.274 943.692L301.729 610.341L303.272 610.257L752.939 585.186L952.165 231.278ZM1177.24 627.985L1177.03 627.631L952.273 234.533L754.067 586.652L753.648 586.665L305.14 611.681L636.997 943.345L636.951 943.71L584.503 1352.26L987.811 1205.12L988.179 1205.34L1404.29 1432.83L1321.68 1010.21L1321.96 1009.96L1631.59 742.011L1177.24 627.985Z" fill="#02489F"/>
<path d="M953.273 242.861L954.035 244.173L1177.71 628.791L1624.44 744.204L1623.42 745.109L1322.16 1010.64L1399.95 1426.72L988.668 1205.46L590.006 1347.2L590.171 1345.83L638.117 944.003L313.952 615.525L315.45 615.431L754.959 587.613L953.273 242.861ZM1176.71 630.024L953.393 246.032L756.081 589.055L755.694 589.078L317.284 616.831L639.827 943.665L639.786 944.02L591.954 1344.82L988.615 1203.79L988.973 1203.99L1397.82 1423.96L1320.42 1009.96L1320.68 1009.72L1621.2 744.87L1176.71 630.024Z" fill="#02489F"/>
<path d="M954.375 254.463L1177.17 630.864L1613.97 747.068L1612.99 747.955L1320.86 1010.36L1393.43 1417.76L989.481 1204.08L597.518 1339.69L640.983 944.325L326.184 620.715L327.635 620.611L756.986 590.059L954.375 254.463ZM1176.17 632.083L1175.98 631.754L954.496 257.548L758.085 591.475L757.709 591.501L329.419 621.983L642.652 943.993L642.614 944.337L599.413 1337.38L989.411 1202.46L989.757 1202.66L1391.34 1415.09L1319.14 1009.69L1319.4 1009.46L1610.8 747.707L1176.17 632.083Z" fill="#02489F"/>
<path d="M955.473 266.028L1176.62 632.93L1603.49 749.924L1319.54 1010.09L1386.89 1408.84L990.255 1202.73L605.007 1332.18L643.823 944.639L338.396 625.894L339.801 625.784L759.015 592.467L955.473 266.028ZM1175.64 634.13L1175.45 633.814L955.596 269.057L760.088 593.889L341.556 627.134L645.485 944.311L606.862 1329.93L990.207 1201.13L990.541 1201.32L1384.86 1406.22L1317.86 1009.43L1318.11 1009.2L1600.4 750.555L1175.64 634.13Z" fill="#02489F"/>
<path d="M956.6 277.625L957.329 278.807L1176.08 635.005L1593.01 752.79L1318.25 1009.81L1380.36 1399.9L991.067 1201.38L612.525 1324.68L612.636 1323.43L646.699 944.947L350.624 631.079L351.982 630.958L761.035 594.914L956.6 277.625ZM1175.1 636.172L1174.91 635.867L956.695 280.554L762.098 596.301L761.747 596.332L353.7 632.287L648.317 944.631L648.29 944.956L614.321 1322.49L991.01 1199.79L991.319 1199.97L1378.37 1397.34L1316.56 1009.17L1316.8 1008.95L1590 753.389L1175.1 636.172Z" fill="#02489F"/>
<path d="M957.708 289.208L958.42 290.347L1175.54 637.061L1582.53 755.639L1581.66 756.471L1316.94 1009.54L1373.84 1390.96L991.857 1200.04L620.019 1317.19L649.543 945.275L362.846 636.262L763.06 597.344L957.708 289.208ZM1174.58 638.227L957.81 292.067L764.115 598.697L365.847 637.423L651.152 944.954L651.129 945.265L621.776 1315.05L991.809 1198.46L992.129 1198.62L1371.91 1388.47L1315.3 1008.89L1315.53 1008.68L1579.6 756.227L1174.58 638.227Z" fill="#02489F"/>
<path d="M958.809 300.791L959.513 301.888L1174.98 639.126L1572.05 758.494L1571.22 759.306L1315.65 1009.26L1367.32 1382.02L992.671 1198.67L627.525 1309.68L627.608 1308.49L652.392 945.59L375.068 641.433L376.331 641.299L765.079 599.775L958.809 300.791ZM1174.04 640.275L1173.86 639.995L958.907 303.557L766.115 601.088L377.983 642.557L653.971 945.272L629.224 1307.6L992.593 1197.12L992.912 1197.28L1365.43 1379.58L1314.02 1008.63L1314.23 1008.42L1569.2 759.068L1174.04 640.275Z" fill="#02489F"/>
<path d="M959.922 312.371L1174.44 641.193L1561.57 761.35L1560.78 762.129L1314.33 1008.99L1360.78 1373.07L993.457 1197.31L635.025 1302.17L655.242 945.916L387.281 646.634L767.099 602.209L959.922 312.371ZM1173.51 642.326L1173.33 642.057L960.015 315.082L768.117 603.532L767.808 603.568L390.117 647.737L656.807 945.586L656.791 945.877L636.679 1300.16L993.398 1195.79L993.697 1195.94L1358.96 1370.72L1312.74 1008.36L1558.8 761.908L1173.51 642.326Z" fill="#02489F"/>
<path d="M961.025 323.962L1173.89 643.257L1551.09 764.203L1550.33 764.979L1313.03 1008.71L1354.25 1364.14L1353.1 1363.61L994.259 1195.94L642.537 1294.66L642.587 1293.56L658.11 946.212L399.502 651.812L769.117 604.638L961.025 323.962ZM1172.98 644.373L1172.81 644.119L961.12 326.592L770.128 605.945L769.83 605.983L402.259 652.889L659.642 945.924L659.628 946.204L644.135 1292.71L994.196 1194.46L994.485 1194.6L1352.49 1361.85L1311.47 1008.08L1311.66 1007.89L1548.4 764.736L1172.98 644.373Z" fill="#02489F"/>
<path d="M962.136 335.545L962.807 336.521L1173.35 645.324L1540.61 767.062L1311.72 1008.44L1347.73 1355.21L1346.62 1354.7L995.047 1194.6L650.031 1287.17L650.068 1286.1L660.955 946.543L411.726 656.99L412.86 656.822L771.149 607.071L962.136 335.545ZM1172.45 646.42L1172.28 646.177L962.229 338.1L772.133 608.354L414.399 658.04L662.465 946.238L662.455 946.504L651.59 1285.27L994.996 1193.13L995.273 1193.25L1346.02 1352.96L1310.18 1007.83L1310.36 1007.64L1537.99 767.59L1172.45 646.42Z" fill="#02489F"/>
<path d="M963.246 347.131L963.894 348.06L1172.8 647.392L1530.14 769.912L1310.42 1008.16L1341.19 1346.26L1340.12 1345.79L995.856 1193.25L657.546 1279.67L663.825 946.847L423.965 662.165L425.046 662.003L773.177 609.504L963.246 347.131ZM1171.92 648.471L1171.76 648.243L963.337 349.61L774.141 610.764L773.87 610.805L426.538 663.189L665.295 946.561L659.049 1277.82L995.797 1191.8L996.063 1191.91L1339.53 1344.1L1308.91 1007.57L1309.07 1007.38L1527.6 770.434L1171.92 648.471Z" fill="#02489F"/>
<path d="M964.35 358.71L1172.25 649.456L1519.65 772.772L1519.01 773.494L1309.11 1007.89L1334.66 1337.32L1333.63 1336.88L996.639 1191.88L665.028 1272.17L665.033 1271.18L666.667 947.164L436.171 667.345L775.199 611.923L964.35 358.71ZM1171.38 650.519L1171.23 650.302L964.437 361.117L776.149 613.179L775.895 613.221L438.683 668.347L668.122 946.881L668.122 947.124L666.51 1270.36L996.595 1190.44L996.851 1190.55L1333.05 1335.23L1307.62 1007.3L1307.78 1007.12L1517.19 773.273L1171.38 650.519Z" fill="#02489F"/>
<path d="M965.459 370.295L1171.71 651.523L1509.19 775.62L1307.81 1007.61L1328.14 1328.39L997.454 1190.53L672.547 1264.67L669.517 947.493L448.384 672.541L449.378 672.366L777.219 614.368L965.459 370.295ZM1170.86 652.557L1170.71 652.352L965.555 372.616L778.17 615.579L777.926 615.623L450.837 673.488L670.955 947.205L670.957 947.436L673.957 1262.93L997.399 1189.11L1326.58 1326.35L1306.35 1007.02L1306.5 1006.85L1506.8 776.102L1170.86 652.557Z" fill="#02489F"/>
<path d="M966.565 381.877L1171.16 653.587L1498.69 778.486L1306.48 1007.33L1321.59 1319.44L1320.63 1319.05L998.234 1189.18L680.027 1257.19L672.37 947.81L460.592 677.717L461.526 677.524L779.243 616.798L966.565 381.877ZM1170.32 654.617L1170.17 654.423L966.656 384.121L780.166 618.001L779.94 618.043L462.971 678.65L673.782 947.524L673.788 947.741L681.416 1255.49L998.181 1187.79L998.412 1187.88L1320.09 1317.48L1305.06 1006.77L1305.2 1006.61L1496.39 778.956L1170.32 654.617Z" fill="#02489F"/>
<path d="M967.67 393.456L1170.61 655.649L1488.22 781.341L1487.69 782.003L1305.2 1007.06L1315.08 1310.51L1314.16 1310.15L999.031 1187.82L687.532 1249.67L687.494 1248.79L675.219 948.123L472.821 682.902L473.723 682.715L781.261 619.226L967.67 393.456ZM1169.78 656.665L1169.64 656.483L967.752 395.646L782.164 620.422L781.952 620.468L475.102 683.812L676.61 947.845L676.618 948.051L688.868 1248.04L998.979 1186.47L999.194 1186.55L1313.61 1308.6L1303.77 1006.52L1303.9 1006.36L1485.97 781.807L1169.78 656.665Z" fill="#02489F"/>
<path d="M968.78 405.038L969.352 405.78L1170.07 657.718L1477.75 784.199L1303.91 1006.79L1308.57 1301.58L999.842 1186.47L695.042 1242.18L694.997 1241.33L678.09 948.444L485.046 688.097L485.905 687.907L783.286 621.662L968.78 405.038ZM1169.25 658.716L1169.12 658.55L968.858 407.156L784.179 622.824L783.985 622.868L487.255 688.953L679.444 948.165L696.326 1240.59L999.777 1185.14L999.98 1185.22L1307.14 1299.74L1302.5 1006.27L1302.61 1006.12L1475.57 784.668L1169.25 658.716Z" fill="#02489F"/>
<path d="M969.886 416.618L970.451 417.306L1169.52 659.784L1467.27 787.051L1466.8 787.674L1302.6 1006.51L1302.04 1292.64L1000.63 1185.11L702.533 1234.68L680.924 948.76L497.252 693.265L498.069 693.07L785.303 624.094L969.886 416.618ZM1168.71 660.776L1168.58 660.622L969.954 418.681L786.179 625.249L785.997 625.293L499.397 694.104L682.269 948.484L682.284 948.665L703.781 1233.14L1000.58 1183.79L1000.77 1183.86L1300.66 1290.85L1301.22 1005.97L1301.32 1005.83L1465.17 787.475L1168.71 660.776Z" fill="#02489F"/>
<path d="M970.999 428.2L971.549 428.851L1168.98 661.852L1456.8 789.909L1456.36 790.51L1301.3 1006.24L1295.51 1283.7L1001.43 1183.75L710.021 1227.17L709.949 1226.4L683.781 949.076L509.467 698.462L510.238 698.261L787.333 626.524L970.999 428.2ZM1168.19 662.814L1168.07 662.673L971.072 430.183L788.198 627.648L788.033 627.693L511.537 699.245L685.104 948.808L685.118 948.976L711.241 1225.7L1001.38 1182.46L1001.56 1182.52L1294.19 1281.96L1299.94 1005.71L1454.76 790.309L1168.19 662.814Z" fill="#02489F"/>
<path d="M972.1 439.782L1168.43 663.91L1446.32 792.761L1445.91 793.349L1299.98 1005.97L1288.97 1274.78L1288.19 1274.53L1002.21 1182.41L717.52 1219.7L717.435 1218.96L686.627 949.397L521.684 703.629L522.415 703.425L789.348 628.955L972.1 439.782ZM1167.65 664.869L1167.54 664.74L972.159 441.691L790.186 630.056L790.035 630.096L523.678 704.409L687.928 949.132L687.946 949.286L718.704 1218.24L1002.17 1181.13L1002.33 1181.18L1287.7 1273.1L1298.65 1005.44L1298.73 1005.32L1444.34 793.159L1167.65 664.869Z" fill="#02489F"/>
<path d="M973.208 451.361L973.727 451.931L1167.88 665.982L1435.83 795.613L1435.47 796.172L1298.67 1005.68L1282.46 1265.84L1281.72 1265.61L1003.02 1181.05L725.029 1212.18L689.483 949.715L533.9 708.812L534.586 708.608L791.375 631.386L973.208 451.361ZM1167.12 666.916L1167.02 666.8L973.277 453.21L792.212 632.474L792.074 632.514L535.841 709.562L690.756 949.442L690.775 949.581L726.154 1210.81L1002.98 1179.78L1003.12 1179.83L1281.21 1264.22L1297.37 1005.17L1297.43 1005.06L1433.93 795.994L1167.12 666.916Z" fill="#02489F"/>
<path d="M974.301 462.928L974.813 463.466L1167.34 668.044L1425.36 798.466L1425.03 799.004L1297.37 1005.4L1275.93 1256.89L1003.81 1179.67L732.518 1204.68L732.414 1204.01L692.334 950.025L546.114 713.988L546.76 713.781L793.394 633.815L974.301 462.928ZM1166.57 668.947L1166.48 668.849L974.382 464.719L794.218 634.882L794.097 634.92L547.984 714.719L693.592 949.772L733.604 1203.35L1003.77 1178.46L1003.9 1178.49L1274.75 1255.35L1296.09 1004.91L1296.16 1004.8L1423.55 798.858L1166.57 668.947Z" fill="#02489F"/>
<path d="M975.426 474.519L1166.79 670.113L1414.89 801.329L1296.07 1005.14L1269.41 1247.97L1268.74 1247.79L1004.61 1178.33L740.02 1197.19L695.185 950.347L558.326 719.172L558.928 718.964L795.416 636.249L975.426 474.519ZM1166.05 671.013L975.485 476.235L796.224 637.3L796.119 637.334L560.117 719.869L696.421 950.094L696.44 950.204L741.069 1195.91L1004.58 1177.13L1268.26 1246.47L1294.81 1004.64L1294.87 1004.55L1413.14 801.681L1166.05 671.013Z" fill="#02489F"/>
<path d="M976.532 486.095L976.998 486.549L1166.25 672.175L1404.43 804.185L1404.14 804.672L1294.77 1004.86L1262.87 1239.02L1005.39 1176.97L747.505 1189.68L747.384 1189.1L698.039 950.662L570.541 724.35L797.44 638.678L976.532 486.095ZM1165.52 673.06L1165.45 672.988L976.593 487.751L798.236 639.709L798.146 639.743L572.28 725.029L699.256 950.415L699.272 950.507L748.532 1188.45L1005.36 1175.79L1005.47 1175.81L1261.78 1237.59L1293.54 1004.38L1293.59 1004.3L1402.75 804.54L1165.52 673.06Z" fill="#02489F"/>
<path d="M977.637 497.672L1165.69 674.254L1393.95 807.055L1393.71 807.526L1293.47 1004.59L1256.36 1230.1L1255.77 1229.97L1006.2 1175.62L755.016 1182.2L754.889 1181.65L700.885 950.983L582.752 729.535L583.282 729.33L799.46 641.108L977.637 497.672ZM1392.3 807.363L1164.97 675.099L977.7 499.267L800.244 642.124L800.17 642.152L584.426 730.184L702.079 950.747L702.097 950.823L755.985 1181.01L1006.16 1174.46L1006.24 1174.47L1255.29 1228.71L1292.25 1004.11L1292.28 1004.05L1392.3 807.363Z" fill="#02489F"/>
<path d="M978.743 509.246L979.172 509.63L1165.15 676.303L1383.49 809.895L1292.17 1004.31L1249.84 1221.17L1007 1174.27L762.526 1174.71L762.387 1174.19L703.741 951.295L594.965 734.709L595.44 734.498L801.48 643.537L978.743 509.246ZM1381.92 810.222L1164.46 677.168L1164.41 677.136L978.803 510.782L802.256 644.531L802.197 644.555L596.58 735.333L704.916 951.056L704.93 951.117L763.449 1173.55L1006.96 1173.12L1007.02 1173.13L1248.81 1219.83L1290.97 1003.85L1291 1003.79L1381.92 810.222Z" fill="#02489F"/>
<path d="M979.851 520.819L980.261 521.171L1164.6 678.369L1373.02 812.753L1372.84 813.177L1290.88 1004.05L1243.32 1212.23L1242.8 1212.15L1007.8 1172.91L770.009 1167.21L706.589 951.615L607.173 739.891L607.611 739.683L803.501 645.967L979.851 520.819ZM1371.49 813.056L1163.91 679.223L1163.87 679.2L979.906 522.299L804.26 646.968L804.217 646.985L608.725 740.511L707.746 951.378L707.758 951.422L770.902 1166.11L1007.75 1171.78L1007.8 1171.79L1242.33 1210.95L1289.68 1003.58L1289.7 1003.54L1371.49 813.056Z" fill="#02489F"/>
<path d="M980.961 532.396L981.347 532.709L1164.08 680.45L1362.55 815.597L1289.56 1003.79L1236.8 1203.31L1008.57 1171.56L777.505 1159.72L777.352 1159.27L709.425 951.903L619.381 745.067L619.76 744.867L805.496 648.397L980.961 532.396ZM1361.09 815.902L1163.41 681.282L981.016 533.818L806.274 649.365L806.262 649.386L620.894 745.661L710.585 951.684L778.381 1158.66L1008.52 1170.45L1235.84 1202.07L1288.4 1003.34L1361.09 815.902Z" fill="#02489F"/>
<path d="M982.061 543.97L982.429 544.252L1163.51 682.499L1352.07 818.466L1288.26 1003.5L1230.28 1194.38L1229.83 1194.33L1009.38 1170.21L784.997 1152.22L784.849 1151.82L712.285 952.24L631.593 750.248L807.542 650.827L982.061 543.97ZM1350.67 818.744L1162.86 683.315L982.122 545.333L808.271 651.782L633.028 750.805L713.405 952.011L785.828 1151.2L1009.34 1169.11L1229.35 1193.19L1287.1 1003.07L1350.67 818.744Z" fill="#02489F"/>
<path d="M983.17 555.54L1162.96 684.551L1341.61 821.311L1341.51 821.662L1286.97 1003.21L1223.76 1185.45L1223.36 1185.42L1010.21 1168.86L792.493 1144.73L792.344 1144.36L715.144 952.576L643.791 755.421L644.111 755.223L809.57 653.245L983.17 555.54ZM1340.26 821.587L1162.31 685.358L983.217 556.871L810.29 654.192L645.182 755.961L716.248 952.346L793.293 1143.74L1010.15 1167.77L1222.87 1184.3L1285.84 1002.77L1340.26 821.587Z" fill="#02489F"/>
<path d="M984.281 567.11L1162.45 686.64L1331.14 824.162L1331.06 824.485L1285.67 1002.95L1285.65 1002.97L1217.24 1176.53L1010.95 1167.51L799.987 1137.25L799.837 1136.91L717.99 952.886L717.983 952.857L656.012 760.604L656.292 760.412L811.58 655.68L811.592 655.658L984.281 567.11ZM1161.78 687.42L984.335 568.378L812.302 656.611L657.338 761.123L719.082 952.656L800.761 1136.29L1010.95 1166.44L1216.39 1175.42L1284.55 1002.51L1329.85 824.431L1161.78 687.42Z" fill="#02489F"/>
<path d="M985.387 578.681L985.695 578.859L1161.89 688.681L1161.93 688.708L1320.68 827.004L1320.62 827.302L1284.39 1002.67L1284.37 1002.72L1210.74 1167.59L1210.4 1167.59L1011.79 1166.16L1011.74 1166.14L807.484 1129.75L807.336 1129.45L720.84 953.203L720.827 953.154L668.215 765.783L668.461 765.6L813.6 658.118L813.645 658.098L985.387 578.681ZM1161.25 689.472L985.423 579.894L814.316 659.024L669.502 766.263L721.917 952.977L808.22 1128.84L1011.74 1165.1L1209.9 1166.53L1283.26 1002.24L1319.43 827.275L1161.25 689.472Z" fill="#02489F"/>
<path d="M1161.34 690.739L1161.41 690.779L1310.21 829.868L1310.17 830.135L1283.08 1002.38L1283.04 1002.44L1204.21 1158.65L1203.91 1158.66L1012.59 1164.79L1012.51 1164.77L814.971 1122.26L723.665 953.449L680.42 770.951L680.63 770.78L815.627 660.523L815.692 660.495L986.49 590.247L986.765 590.406L1161.34 690.739ZM1309.01 830.116L1160.71 691.53L986.533 591.42L816.324 661.44L681.648 771.434L724.748 953.297L815.684 1121.38L1012.54 1163.76L1203.41 1157.65L1281.97 1001.97L1309.01 830.116Z" fill="#02489F"/>
<path d="M1160.79 692.815L1160.88 692.866L1299.75 832.722L1299.72 832.961L1281.77 1002.13L1281.73 1002.2L1197.69 1149.74L1197.43 1149.76L1013.39 1163.46L1013.29 1163.44L822.465 1114.77L726.529 953.84L726.513 953.748L692.62 776.135L692.799 775.975L817.638 662.963L817.726 662.932L987.593 601.829L987.834 601.968L1160.79 692.815ZM1298.59 832.962L1160.18 693.58L987.649 602.951L818.331 663.857L693.806 776.59L727.582 953.621L823.141 1113.92L1013.32 1162.43L1196.92 1148.78L1280.68 1001.72L1298.59 832.962Z" fill="#02489F"/>
<path d="M1160.26 694.862L1160.34 694.957L1289.29 835.575L1289.28 835.786L1280.48 1001.86L1280.42 1001.95L1191.19 1140.83L1190.96 1140.86L1014.19 1162.12L829.968 1107.29L829.842 1107.1L729.369 954.165L729.352 954.052L704.807 781.31L704.95 781.162L819.653 665.386L819.768 665.35L988.706 613.384L988.925 613.49L1160.26 694.862ZM1288.17 835.809L1159.64 695.639L988.759 614.468L820.351 666.279L705.953 781.741L730.42 953.949L830.612 1106.46L1014.13 1161.08L1190.45 1139.88L1279.42 1001.45L1288.17 835.809Z" fill="#02489F"/>
<path d="M1159.71 696.918L1159.81 697.037L1278.82 838.423L1279.18 1001.58L1279.12 1001.7L1184.66 1131.89L1184.47 1131.92L1014.98 1160.75L1014.83 1160.7L837.441 1099.8L837.321 1099.63L732.213 954.478L732.199 954.339L717.017 786.484L821.666 667.808L821.806 667.773L989.809 624.946L990.002 625.025L1159.71 696.918ZM1277.75 838.651L1159.09 697.691L989.857 626.002L822.362 668.699L718.116 786.905L733.262 954.257L838.076 1099L1014.92 1159.75L1183.94 1130.98L1278.11 1001.16L1277.75 838.651Z" fill="#02489F"/>
<path d="M1159.18 698.976L1268.37 841.279L1268.38 841.431L1277.89 1001.31L1277.79 1001.44L1178.15 1122.97L1177.99 1123.01L1015.78 1159.42L844.934 1092.31L844.829 1092.18L735.056 954.798L735.052 954.635L729.212 791.676L729.3 791.559L823.683 670.229L823.854 670.196L990.916 636.512L991.078 636.573L1159.18 698.976ZM1267.33 841.499L1158.55 699.748L990.962 637.538L824.375 671.126L730.287 792.075L736.107 954.574L845.547 1091.54L1015.73 1158.39L1177.45 1122.09L1276.81 1000.9L1267.33 841.499Z" fill="#02489F"/>
<path d="M1158.64 701.031L1158.76 701.203L1257.91 844.128L1257.93 844.252L1276.6 1001.05L1276.47 1001.18L1171.62 1114.05L1171.5 1114.08L1016.57 1158.08L1016.38 1157.99L852.421 1084.83L737.897 955.119L737.903 954.929L741.415 796.835L741.474 796.734L825.688 672.646L992.024 648.073L992.156 648.116L1158.64 701.031ZM1256.9 844.345L1158.02 701.813L992.073 649.064L826.399 673.546L742.455 797.23L738.948 954.895L853.011 1084.09L1016.52 1157.05L1170.96 1113.2L1275.52 1000.63L1256.9 844.345Z" fill="#02489F"/>
<path d="M1158.1 703.083L1158.22 703.287L1247.46 846.977L1247.47 847.072L1275.31 1000.78L1165.12 1105.14L1165.03 1105.17L1017.37 1156.73L1017.16 1156.61L859.911 1077.34L859.839 1077.27L740.734 955.443L740.751 955.227L753.62 801.996L753.665 801.919L827.729 675.061L827.963 675.04L993.13 659.634L993.231 659.66L1158.1 703.083ZM1246.49 847.172L1157.48 703.871L993.167 660.589L828.419 675.969L754.611 802.383L741.795 955.209L860.484 1076.62L1017.3 1155.68L1164.48 1104.31L1274.22 1000.36L1246.49 847.172Z" fill="#02489F"/>
<path d="M1157.57 705.137L1157.7 705.376L1237.01 849.831L1237.02 849.892L1274.03 1000.51L1273.84 1000.66L1158.6 1096.21L1158.54 1096.24L1018.16 1155.39L1017.91 1155.25L867.382 1069.85L867.324 1069.82L743.549 955.761L743.586 955.519L765.809 807.183L765.839 807.131L829.73 677.488L829.996 677.477L994.242 671.193L994.308 671.206L1157.57 705.137ZM1236.05 850.033L1156.93 705.935L994.288 672.132L830.44 678.396L766.796 807.547L744.636 955.525L867.965 1069.14L1018.12 1154.33L1157.98 1095.4L1272.93 1000.09L1236.05 850.033Z" fill="#02489F"/>
<path d="M1157.03 707.188L1157.16 707.46L1226.55 852.679L1226.56 852.713L1272.75 1000.24L1272.52 1000.4L1152.08 1087.3L1152.05 1087.31L1018.95 1154.05L1018.68 1153.89L874.857 1062.38L874.826 1062.36L746.377 956.089L746.435 955.818L777.992 812.365L778.008 812.337L831.729 679.896L832.033 679.903L995.345 682.749L995.373 682.765L1157.03 707.188ZM1225.62 852.882L1156.39 707.998L995.392 683.665L832.454 680.82L778.944 812.705L747.495 955.842L875.425 1061.69L1018.91 1153L1151.47 1086.52L1271.62 999.812L1225.62 852.882Z" fill="#02489F"/>
<path d="M1156.5 709.234L1156.62 709.545L1216.09 855.537L1271.47 999.974L1271.2 1000.14L1145.6 1078.39L1019.77 1152.73L882.369 1054.9L749.231 956.397L749.319 956.103L790.19 817.521L833.733 682.309L834.078 682.331L996.442 694.304L1156.5 709.234ZM1270.31 999.539L1215.18 855.728L1155.84 710.067L996.492 695.201L834.486 683.257L791.124 817.892L750.349 956.158L882.901 1054.23L1019.71 1151.63L1144.98 1077.61L1270.31 999.539Z" fill="#02489F"/>
<path d="M1155.97 711.277L1156.08 711.632L1205.66 858.403L1270.19 999.72L1269.87 999.888L1139.07 1069.49L1020.58 1151.41L1020.26 1151.16L889.837 1047.42L752.068 956.741L752.197 956.404L802.408 822.672L835.733 684.715L836.117 684.764L997.578 705.861L1155.97 711.277ZM1269 999.261L1204.76 858.598L1155.29 712.137L997.628 706.745L836.506 685.7L803.307 823.031L753.207 956.473L890.339 1046.75L1020.49 1150.28L1138.46 1068.73L1269 999.261Z" fill="#02489F"/>
<path d="M1155.44 713.318L1155.54 713.717L1195.2 861.239L1268.92 999.449L1268.56 999.611L1132.58 1060.57L1021.36 1150.08L897.323 1039.95L754.859 957.051L755.024 956.702L814.549 827.862L837.731 687.117L998.658 717.411L1155.44 713.318ZM1267.68 998.98L1194.31 861.423L1194.3 861.372L1154.73 714.209L998.704 718.285L838.532 688.147L815.477 828.209L815.457 828.243L756.063 956.775L897.836 1039.27L897.886 1039.3L1021.3 1148.88L1131.99 1059.78L1132.04 1059.76L1267.68 998.98Z" fill="#02489F"/>
<path d="M1154.91 715.33L1154.99 715.79L1184.76 864.077L1267.66 999.185L1126.08 1051.66L1022.16 1148.78L1021.8 1148.43L904.794 1032.48L757.673 957.388L757.886 957.018L826.738 833.044L839.734 689.516L840.212 689.635L999.767 728.959L1154.91 715.33ZM1266.37 998.7L1183.89 864.279L1183.88 864.201L1154.19 716.29L999.818 729.828L840.586 690.584L827.656 833.373L758.948 957.104L905.323 1031.82L905.383 1031.88L1022.09 1147.53L1125.48 1050.92L1125.55 1050.89L1266.37 998.7Z" fill="#02489F"/>
<path d="M1154.4 717.386L1154.46 717.885L1174.32 866.925L1266.4 998.929L1265.92 999.059L1119.57 1042.75L1022.96 1147.46L912.286 1025L760.492 957.705L760.755 957.306L838.927 838.203L841.72 691.91L1000.87 740.505L1154.4 717.386ZM1265.03 998.431L1173.45 867.112L1173.43 867.006L1153.62 718.373L1000.92 741.37L1000.81 741.334L842.615 693.031L839.836 838.539L839.784 838.628L761.82 957.415L912.802 1024.35L912.88 1024.43L1022.89 1146.15L1118.97 1042.01L1119.08 1041.98L1265.03 998.431Z" fill="#02489F"/>
<path d="M1153.88 719.414L1163.88 869.775L1265.16 998.674L1264.6 998.807L1113.07 1033.85L1023.76 1146.15L1023.38 1145.68L919.767 1017.53L763.292 958.034L851.102 843.385L843.711 694.297L844.295 694.511L1001.98 752.054L1153.88 719.414ZM1263.7 998.13L1163 869.971L1163 869.84L1153.06 720.462L1002.03 752.924L1001.89 752.874L844.658 695.493L852.018 843.701L851.956 843.809L764.714 957.724L920.276 1016.87L920.366 1016.98L1023.68 1144.77L1112.48 1033.11L1112.61 1033.07L1263.7 998.13Z" fill="#02489F"/>
<path d="M1153.37 721.431L1153.37 722.051L1153.43 872.628L1263.92 998.436L1106.57 1024.95L1024.58 1144.87L927.24 1010.05L766.082 958.363L766.481 957.915L863.286 848.534L845.69 696.671L846.35 696.954L1003.1 763.599L1153.37 721.431ZM1262.36 997.828L1152.57 872.803L1152.57 872.651L1152.49 722.567L1003.14 764.461L1002.97 764.393L846.693 697.942L864.198 848.871L864.095 848.985L767.588 958.028L927.753 1009.4L927.851 1009.53L1024.48 1143.37L1105.97 1024.19L1106.13 1024.17L1262.36 997.828Z" fill="#02489F"/>
<path d="M1152.87 723.441L1143 875.469L1262.69 998.173L1100.06 1016.03L1025.36 1143.56L1024.96 1142.92L934.719 1002.58L768.862 958.698L769.345 958.224L875.465 853.699L847.666 699.039L1004.19 775.148L1152.87 723.441ZM1261 997.548L1142.12 875.667L1142.13 875.489L1151.92 724.661L1004.24 776.002L848.763 700.425L876.379 854.041L876.255 854.163L770.493 958.332L935.236 1001.92L1025.27 1141.96L1099.47 1015.29L1261 997.548Z" fill="#02489F"/>
<path d="M1152.36 725.438L1152.26 726.203L1132.57 878.317L1261.48 997.934L1093.57 1007.13L1026.17 1142.3L942.197 995.111L771.629 959.029L772.205 958.538L887.642 858.866L849.628 701.401L1005.3 786.683L1152.36 725.438ZM1259.63 997.245L1131.67 878.515L1131.7 878.317L1151.33 726.774L1005.35 787.559L1005.15 787.445L850.834 702.904L888.581 859.194L888.431 859.325L773.418 958.618L942.728 994.455L942.836 994.645L1026.08 1140.56L1092.98 1006.39L1093.2 1006.38L1259.63 997.245Z" fill="#02489F"/>
<path d="M1149.43 728.978L1129.98 878.898L1256.38 996.226L1255.56 996.272L1091.71 1005.22L1025.58 1137.77L943.256 993.409L775.982 958.003L889.776 859.788L852.523 705.358L853.288 705.779L1005.18 789.014L1149.43 728.978ZM1254.57 995.548L1129.1 879.097L1129.13 878.903L1148.41 730.291L1005.23 789.879L1005.03 789.765L853.71 706.837L890.686 860.128L890.54 860.253L777.743 957.596L943.769 992.755L943.875 992.944L1025.48 1136.04L1091.12 1004.48L1091.33 1004.47L1254.57 995.548Z" fill="#02489F"/>
<path d="M1146.48 732.516L1146.39 733.256L1127.39 879.483L1251.29 994.514L1089.84 1003.3L1024.99 1133.23L944.315 991.709L780.332 956.973L891.908 860.711L855.411 709.312L1005.06 791.35L1146.48 732.516ZM1249.5 993.849L1126.54 879.67L1126.57 879.478L1145.48 733.807L1005.11 792.197L856.578 710.776L892.803 861.042L892.657 861.168L782.057 956.587L944.815 991.064L944.922 991.249L1024.9 1131.54L1089.26 1002.58L1089.47 1002.57L1249.5 993.849Z" fill="#02489F"/>
<path d="M1143.54 736.054L1143.44 736.784L1124.79 880.063L1246.19 992.805L1245.39 992.849L1087.98 1001.4L1024.41 1128.71L945.369 990.009L784.678 955.944L894.038 861.631L858.298 713.269L1004.93 793.676L1143.54 736.054ZM1244.44 992.148L1123.95 880.248L1123.97 880.061L1142.54 737.324L1004.98 794.525L1004.79 794.414L859.449 714.711L894.917 861.962L894.773 862.084L786.379 955.565L945.867 989.375L945.969 989.554L1024.31 1127.03L1087.41 1000.68L1087.62 1000.67L1244.44 992.148Z" fill="#02489F"/>
<path d="M1140.59 739.591L1140.49 740.315L1122.21 880.644L1241.1 991.096L1086.13 999.487L1023.83 1124.17L1023.44 1123.48L946.429 988.306L789.024 954.908L789.569 954.441L896.176 862.553L861.198 717.226L861.929 717.628L1004.81 796.01L1140.59 739.591ZM1239.37 990.451L1121.37 880.832L1121.4 880.643L1139.62 740.838L1004.86 796.838L862.319 718.655L897.039 862.874L896.898 862.998L790.705 954.542L946.917 987.683L1023.74 1122.52L1085.57 998.773L1085.77 998.763L1239.37 990.451Z" fill="#02489F"/>
<path d="M1137.63 743.118L1119.62 881.227L1236.01 989.385L1084.26 997.574L1023.25 1119.65L947.484 986.606L793.38 953.884L793.914 953.423L898.302 863.474L864.086 721.183L1004.69 798.345L1137.63 743.118ZM1234.29 988.744L1118.78 881.401L1118.81 881.218L1136.68 744.354L1004.73 799.155L1004.55 799.05L865.197 722.573L899.156 863.79L899.013 863.909L795.018 953.513L947.964 985.99L948.063 986.167L1023.15 1118.02L1083.71 996.88L1083.91 996.868L1234.29 988.744Z" fill="#02489F"/>
<path d="M1134.7 746.662L1134.61 747.354L1117.02 881.806L1230.91 987.676L1230.15 987.718L1082.4 995.663L1022.65 1115.11L948.541 984.901L797.729 952.855L900.435 864.394L866.98 725.133L867.686 725.52L1004.56 800.679L1134.7 746.662ZM1229.24 987.052L1116.22 881.986L1116.24 881.805L1133.75 747.869L1004.61 801.475L1004.41 801.363L868.055 726.499L901.27 864.708L901.132 864.825L799.35 952.486L948.995 984.308L949.093 984.479L1022.55 1113.51L1081.84 994.97L1082.04 994.957L1229.24 987.052Z" fill="#02489F"/>
<path d="M1131.75 750.202L1131.66 750.882L1114.42 882.39L1225.81 985.965L1225.06 986.006L1080.54 993.751L1022.06 1110.58L1021.69 1109.92L949.59 983.196L802.07 951.82L902.567 865.317L869.868 729.101L1004.44 803.013L1131.75 750.202ZM1224.17 985.358L1113.64 882.568L1113.66 882.392L1130.82 751.386L1004.49 803.794L1004.31 803.691L870.938 730.442L903.39 865.623L903.254 865.738L803.67 951.473L950.064 982.61L1021.98 1109.01L1080 993.08L1080.2 993.069L1224.17 985.358Z" fill="#02489F"/>
<path d="M1128.81 753.73L1128.72 754.398L1111.85 882.959L1220.72 984.257L1078.68 991.841L1021.47 1106.06L1021.11 1105.42L950.658 981.499L806.431 950.794L904.701 866.239L872.766 733.046L1004.32 805.333L1128.81 753.73ZM1219.11 983.647L1111.06 883.144L1111.09 882.968L1127.9 754.889L1004.37 806.1L1004.2 806.004L873.83 734.368L905.506 866.539L905.375 866.653L807.992 950.45L951.113 980.919L951.207 981.084L1021.39 1104.51L1078.15 991.179L1078.35 991.167L1219.11 983.647Z" fill="#02489F"/>
<path d="M1125.86 757.274L1109.26 883.554L1215.63 982.549L1214.91 982.589L1076.82 989.93L1020.91 1101.51L1020.54 1100.88L951.718 979.8L810.79 949.758L811.29 949.327L906.834 867.162L875.656 737.015L1004.2 807.68L1125.86 757.274ZM1214.04 981.957L1108.49 883.723L1108.52 883.552L1124.97 758.418L1004.24 808.432L876.688 738.314L907.622 867.465L812.328 949.412L952.164 979.227L952.258 979.392L1020.82 1100L1076.31 989.275L1076.49 989.264L1214.04 981.957Z" fill="#02489F"/>
<path d="M1122.91 760.812L1106.66 884.134L1210.53 980.839L1074.96 988.016L1020.31 1096.98L1019.95 1096.37L952.771 978.097L815.129 948.735L815.624 948.313L908.964 868.084L878.545 740.97L1004.07 810.009L1122.91 760.812ZM1208.97 980.255L1105.91 884.299L1105.93 884.131L1122.03 761.932L1004.12 810.75L1003.95 810.652L879.559 742.242L909.756 868.38L909.628 868.488L816.642 948.403L953.212 977.533L1020.23 1095.5L1074.45 987.374L1074.64 987.364L1208.97 980.255Z" fill="#02489F"/>
<path d="M1119.97 764.349L1119.89 764.983L1104.08 884.718L1205.44 979.131L1073.1 986.107L1019.73 1092.45L1019.38 1091.84L953.83 976.406L819.483 947.709L819.965 947.296L911.099 869.005L881.446 744.933L1003.96 812.349L1119.97 764.349ZM1203.91 978.566L1103.33 884.885L1103.36 884.722L1119.11 765.451L1004 813.071L882.435 746.178L911.866 869.288L911.74 869.392L820.945 947.372L954.269 975.837L954.359 975.996L1019.65 1090.99L1072.6 985.479L1072.78 985.471L1203.91 978.566Z" fill="#02489F"/>
<path d="M1117.02 767.882L1116.94 768.506L1101.49 885.297L1200.34 977.421L1071.24 984.193L1019.14 1087.92L1018.81 1087.32L954.891 974.693L823.819 946.668L913.229 869.924L884.329 748.882L1003.83 814.676L1117.02 767.882ZM1198.84 976.856L1100.76 885.458L1100.78 885.298L1116.18 768.964L1003.87 815.387L1003.71 815.294L885.308 750.109L913.98 870.206L913.857 870.312L825.284 946.354L955.321 974.155L955.407 974.312L1019.07 1086.5L1070.76 983.581L1070.93 983.573L1198.84 976.856Z" fill="#02489F"/>
<path d="M1114.08 771.422L1098.89 885.878L1195.25 975.709L1069.38 982.284L1018.54 1083.38L955.942 972.989L828.184 945.648L915.361 870.848L887.202 752.833L1003.69 816.999L1114.08 771.422ZM1193.78 975.161L1098.18 886.037L1113.25 772.481L1003.75 817.71L888.177 754.046L916.094 871.123L915.976 871.228L829.604 945.333L956.367 972.453L1018.48 1081.99L1068.9 981.679L1069.07 981.672L1193.78 975.161Z" fill="#02489F"/>
<path d="M1111.13 774.958L1096.31 886.462L1190.16 974.004L1189.5 974.036L1067.51 980.371L1017.97 1078.86L957.006 971.292L832.529 944.624L917.492 871.77L890.11 756.8L1003.59 819.342L1111.13 774.958ZM1188.7 973.458L1095.6 886.61L1110.32 775.997L1003.62 820.029L1003.47 819.939L891.052 757.977L918.206 872.03L918.086 872.13L833.929 944.31L957.414 970.771L957.496 970.921L1017.9 1077.48L1067.05 979.779L1067.22 979.77L1188.7 973.458Z" fill="#02489F"/>
<path d="M1108.19 778.493L1108.11 779.08L1093.72 887.042L1185.07 972.278L1184.42 972.316L1065.66 978.446L1017.39 1074.31L958.066 969.578L836.872 943.567L919.619 872.683L893.004 760.755L1003.46 821.674L1108.19 778.493ZM1183.64 971.771L1093.03 887.191L1107.4 779.495L1003.51 822.34L1003.35 822.251L893.93 761.902L920.348 872.952L920.231 873.049L838.252 943.287L958.459 969.089L958.54 969.235L1017.31 1072.98L1065.2 977.878L1065.36 977.868L1183.64 971.771Z" fill="#02489F"/>
<path d="M1105.24 782.029L1105.17 782.603L1091.13 887.609L1179.96 970.579L1179.33 970.622L1063.79 976.547L1016.8 1069.79L959.121 967.883L841.236 942.556L841.672 942.179L921.758 873.609L895.896 764.71L1003.34 824.011L1105.24 782.029ZM1178.58 970.053L1090.46 887.77L1104.46 783.026L1003.38 824.663L1003.23 824.576L896.807 765.849L922.451 873.869L922.337 873.967L842.579 942.262L959.512 967.384L959.593 967.53L1016.73 1068.47L1063.34 975.976L1063.51 975.968L1178.58 970.053Z" fill="#02489F"/>
<path d="M1102.3 785.568L1088.53 888.205L1174.88 968.875L1061.94 974.638L1016.2 1065.25L1015.9 1064.71L960.178 966.185L845.582 941.528L846.012 941.16L923.895 874.538L898.786 768.669L1003.22 826.338L1102.3 785.568ZM1173.52 968.363L1087.88 888.349L1101.53 786.543L1003.25 826.983L1003.11 826.899L899.668 769.779L924.575 874.786L924.465 874.883L846.903 941.242L960.562 965.699L1016.15 1063.97L1061.48 974.076L1061.65 974.066L1173.52 968.363Z" fill="#02489F"/>
<path d="M1099.35 789.103L1085.94 888.787L1169.77 967.164L1060.07 972.725L1015.63 1060.73L961.236 964.484L849.934 940.499L850.354 940.141L926.022 875.453L901.67 772.621L1003.09 828.665L1099.35 789.103ZM1168.46 966.647L1085.3 888.927L1085.32 888.786L1098.59 790.057L1003.13 829.303L902.549 773.7L926.684 875.704L926.577 875.798L851.229 940.202L961.611 964.005L961.687 964.144L1015.56 1059.47L1059.64 972.181L1059.8 972.172L1168.46 966.647Z" fill="#02489F"/>
<path d="M1096.41 792.642L1083.35 889.369L1164.68 965.453L1164.09 965.482L1058.21 970.81L1015.04 1056.2L962.293 962.782L854.286 939.469L928.16 876.377L904.572 776.582L905.113 776.894L1002.97 831.004L1096.41 792.642ZM1163.39 964.954L1082.74 889.511L1082.76 889.373L1095.67 793.591L1002.99 831.627L1002.85 831.547L905.399 777.652L928.806 876.619L928.695 876.711L855.544 939.192L962.661 962.315L962.736 962.449L1014.98 1054.96L1057.79 970.273L1057.95 970.263L1163.39 964.954Z" fill="#02489F"/>
<path d="M1093.46 796.178L1093.39 796.705L1080.76 889.951L1159.59 963.742L1056.35 968.898L1014.47 1051.65L1014.18 1051.15L963.352 961.077L858.636 938.435L930.288 877.297L907.462 780.537L1002.85 833.336L1093.46 796.178ZM1158.32 963.262L1080.15 890.084L1080.17 889.948L1092.75 797.075L1002.89 833.942L908.29 781.583L930.923 877.537L930.819 877.625L859.864 938.169L963.712 960.623L963.784 960.755L1014.4 1050.45L1055.95 968.371L1056.09 968.362L1158.32 963.262Z" fill="#02489F"/>
<path d="M1090.52 799.719L1090.45 800.23L1078.18 890.533L1154.5 962.035L1054.49 966.99L1013.88 1047.14L964.412 959.379L862.989 937.408L932.422 878.222L910.356 784.495L1002.72 835.663L1090.52 799.719ZM1153.25 961.57L1077.58 890.665L1089.81 800.608L1002.76 836.259L1002.63 836.183L911.16 785.511L933.048 878.443L932.945 878.528L864.194 937.137L964.778 958.931L964.851 959.06L1013.82 1045.95L1054.09 966.483L1153.25 961.57Z" fill="#02489F"/>
<path d="M1087.57 803.253L1087.5 803.754L1075.58 891.115L1149.4 960.324L1052.63 965.076L1013.28 1042.6L1013.01 1042.11L965.464 957.675L867.328 936.389L934.533 879.145L913.246 788.452L1002.61 837.99L1087.57 803.253ZM1148.18 959.877L1075 891.242L1075.02 891.112L1086.88 804.123L1002.64 838.571L914.038 789.44L935.156 879.37L935.057 879.456L868.509 936.125L965.812 957.243L965.883 957.37L1013.22 1041.46L1052.24 964.598L1052.38 964.594L1148.18 959.877Z" fill="#02489F"/>
<path d="M1084.63 806.784L1073 891.698L1144.31 958.616L1050.77 963.167L1012.71 1038.07L966.527 955.975L871.688 935.358L872.061 935.039L936.69 880.063L916.14 792.412L916.634 792.697L1002.49 840.338L1084.63 806.784ZM1143.13 958.168L1072.43 891.82L1072.44 891.693L1083.96 807.629L1002.52 840.9L1002.39 840.825L916.906 793.38L937.277 880.287L937.181 880.367L872.837 935.1L966.867 955.55L966.936 955.673L1012.65 1036.95L1050.38 962.672L1050.52 962.668L1143.13 958.168Z" fill="#02489F"/>
<path d="M1081.68 810.329L1070.4 892.28L1139.21 956.907L1048.91 961.254L1012.11 1033.54L967.573 954.271L876.024 934.32L876.396 934.004L938.816 880.986L919.037 796.354L1002.37 842.675L1081.68 810.329ZM1138.04 956.463L1069.83 892.4L1069.84 892.273L1081.02 811.156L1002.39 843.213L919.777 797.312L939.39 881.202L939.294 881.283L877.151 934.078L967.906 953.859L967.975 953.981L1012.06 1032.44L1048.53 960.78L1138.04 956.463Z" fill="#02489F"/>
<path d="M1078.74 813.864L1067.81 892.86L1134.11 955.196L1133.6 955.221L1047.05 959.343L1011.53 1029.01L968.642 952.57L880.39 933.289L880.745 932.987L940.948 881.906L921.923 800.325L1002.24 845.002L1078.74 813.864ZM1132.99 954.771L1067.27 892.971L1067.29 892.849L1078.09 814.67L1002.25 845.528L1002.13 845.457L922.634 801.238L941.512 882.12L941.418 882.198L881.474 933.051L968.956 952.163L969.022 952.284L1011.47 1027.93L1046.69 958.864L1046.83 958.857L1132.99 954.771Z" fill="#02489F"/>
<path d="M1075.79 817.399L1075.73 817.851L1065.22 893.44L1129.02 953.485L1045.18 957.423L1010.95 1024.47L969.699 950.868L884.743 932.255L885.089 931.962L943.088 882.824L924.815 804.281L925.272 804.545L1002.12 847.334L1075.79 817.399ZM1127.93 953.073L1064.69 893.554L1064.71 893.435L1075.17 818.183L1002.15 847.854L925.521 805.182L943.629 883.034L885.802 932.032L970.011 950.477L970.076 950.592L1010.9 1023.43L1044.84 956.968L1044.97 956.962L1127.93 953.073Z" fill="#02489F"/>
<path d="M1072.84 820.951L1062.63 894.03L1123.93 951.789L1043.33 955.518L1010.37 1019.95L1010.13 1019.51L970.764 949.164L889.114 931.226L889.452 930.94L945.216 883.749L927.708 808.243L1002 849.667L1072.84 820.951ZM1122.86 951.373L1062.11 894.142L1062.13 894.028L1072.23 821.712L1002.03 850.176L1001.91 850.108L928.393 809.123L945.748 883.953L945.661 884.026L890.137 931.015L971.064 948.786L971.126 948.9L1010.31 1018.93L1042.99 955.078L1043.11 955.072L1122.86 951.373Z" fill="#02489F"/>
<path d="M1069.9 824.475L1069.83 824.904L1060.05 894.597L1118.83 950.067L1041.47 953.615L1009.78 1015.41L1009.54 1014.99L971.811 947.468L893.443 930.191L893.772 929.912L947.344 884.672L930.596 812.196L1001.86 851.99L1069.9 824.475ZM1117.78 949.666L1059.54 894.713L1059.55 894.599L1069.3 825.218L1001.9 852.493L931.258 813.047L947.864 884.869L947.776 884.942L894.446 929.985L972.121 947.104L972.181 947.213L1009.72 1014.43L1041.13 953.184L1041.25 953.177L1117.78 949.666Z" fill="#02489F"/>
<path d="M1066.95 828.009L1066.9 828.428L1057.46 895.187L1113.74 948.36L1039.61 951.695L1009.19 1010.88L1008.97 1010.48L972.873 945.766L897.801 929.158L898.123 928.886L949.489 885.577L933.491 816.15L1001.76 854.329L1066.95 828.009ZM1112.73 947.975L1056.97 895.284L1056.99 895.174L1066.39 828.742L1001.78 854.812L1001.67 854.748L934.137 816.992L949.978 885.777L949.894 885.844L898.774 928.962L973.165 945.403L1009.16 1009.93L1039.26 951.28L1039.38 951.274L1112.73 947.975Z" fill="#02489F"/>
<path d="M1064.01 831.549L1063.95 831.956L1054.85 895.762L1108.65 946.649L1037.74 949.785L1008.61 1006.35L973.934 944.063L902.144 928.142L902.457 927.878L951.614 886.513L936.392 820.113L936.793 820.345L1001.63 856.668L1064.01 831.549ZM1107.65 946.267L1054.39 895.852L1054.4 895.747L1063.45 832.25L1001.66 857.131L937.014 820.917L952.115 886.708L952.034 886.776L903.109 927.946L974.213 943.715L974.269 943.817L1008.56 1005.41L1037.43 949.381L1037.55 949.374L1107.65 946.267Z" fill="#02489F"/>
<path d="M1061.07 835.091L1061.02 835.475L1052.27 896.35L1103.55 944.941L1103.13 944.964L1035.88 947.869L1008.02 1001.82L974.992 942.364L906.491 927.111L906.796 926.854L953.743 887.435L939.272 824.068L1001.51 858.998L1061.07 835.091ZM1102.6 944.578L1051.81 896.447L1051.83 896.347L1060.52 835.765L1001.53 859.452L1001.43 859.393L939.889 824.852L954.208 887.613L954.129 887.678L907.4 926.919L975.263 942.022L975.316 942.123L1007.98 1000.91L1035.58 947.481L1102.6 944.578Z" fill="#02489F"/>
<path d="M1058.11 838.624L1058.06 839.004L1049.68 896.931L1098.45 943.23L1098.03 943.249L1034.02 945.958L1007.43 997.282L976.043 940.66L910.839 926.084L911.131 925.842L955.875 888.358L942.153 828.019L1001.38 861.331L1058.11 838.624ZM1097.54 942.876L1049.23 897.027L1049.25 896.928L1057.58 839.291L1001.39 861.775L942.741 828.79L956.337 888.534L956.26 888.597L911.737 925.891L976.31 940.333L976.362 940.429L1007.4 996.405L1033.72 945.581L1033.83 945.575L1097.54 942.876Z" fill="#02489F"/>
<path d="M1055.17 842.159L1055.11 842.537L1047.09 897.514L1093.37 941.508L1032.18 944.018L1006.85 992.752L977.098 938.969L915.175 925.054L915.467 924.812L958.008 889.276L945.055 831.981L1001.25 863.657L1055.17 842.159ZM1092.47 941.176L1046.66 897.605L1046.67 897.51L1054.66 842.797L1001.28 864.089L1001.19 864.034L945.629 832.719L958.454 889.452L916.059 924.87L977.362 938.641L977.411 938.734L1006.8 991.897L1031.86 943.673L1031.97 943.67L1092.47 941.176Z" fill="#02489F"/>
<path d="M1052.23 845.697L1052.16 846.071L1044.5 898.097L1088.27 939.812L1030.3 942.13L1006.26 988.221L978.161 937.26L919.548 924.026L919.834 923.78L960.127 890.192L947.949 835.939L1001.14 865.996L1052.23 845.697ZM1087.4 939.479L1044.08 898.184L1044.09 898.092L1051.72 846.308L1001.16 866.409L1001.07 866.355L948.503 836.654L960.573 890.368L960.5 890.429L920.384 923.847L978.4 936.946L978.451 937.037L1006.23 987.398L1030.02 941.78L1030.12 941.777L1087.4 939.479Z" fill="#02489F"/>
<path d="M1049.28 849.234L1049.23 849.579L1041.91 898.678L1083.17 938.104L1028.45 940.235L1005.68 983.687L979.215 935.535L923.903 922.998L962.273 891.122L950.842 839.895L1001.02 868.331L1049.28 849.234ZM1082.34 937.78L1041.5 898.755L1041.51 898.668L1048.8 849.815L1001.03 868.716L1000.94 868.663L951.377 840.586L962.69 891.284L924.707 922.825L979.458 935.264L1005.66 982.883L1028.18 939.868L1028.28 939.863L1082.34 937.78Z" fill="#02489F"/>
<path d="M1046.34 852.77L1046.29 853.102L1039.32 899.261L1078.08 936.39L1077.71 936.406L1026.58 938.311L1005.09 979.154L1004.92 978.829L980.27 933.846L928.245 921.96L964.415 892.027L953.731 843.847L1000.9 870.666L1046.34 852.77ZM1077.26 936.068L1038.93 899.338L1045.87 853.341L1000.91 871.042L1000.84 870.998L954.261 844.519L964.819 892.198L964.753 892.254L929.034 921.812L980.51 933.565L980.556 933.65L1005.07 978.385L1026.33 937.983L1077.26 936.068Z" fill="#02489F"/>
<path d="M1043.4 856.306L1036.74 899.84L1073 934.688L1024.72 936.401L1004.51 974.622L1004.34 974.309L981.351 932.158L932.608 920.938L966.542 892.962L956.62 847.801L1000.77 872.988L1043.4 856.306ZM1072.21 934.379L1036.36 899.916L1036.37 899.834L1042.94 856.858L1000.79 873.363L957.126 848.451L966.93 893.116L933.356 920.777L981.565 931.874L1004.48 973.894L1024.47 936.082L1024.56 936.078L1072.21 934.379Z" fill="#02489F"/>
<path d="M1040.45 859.835L1034.14 900.422L1067.89 932.972L1022.85 934.489L1003.92 970.093L1003.75 969.788L982.389 930.45L936.943 919.899L937.184 919.701L968.676 893.873L959.512 851.77L1000.64 875.327L1040.45 859.835ZM1067.14 932.681L1033.77 900.494L1033.79 900.415L1040 860.373L1000.66 875.681L1000.58 875.635L959.99 852.388L969.042 894.031L968.978 894.084L937.673 919.753L982.607 930.185L982.649 930.263L1003.9 969.38L1022.61 934.178L1022.71 934.177L1067.14 932.681Z" fill="#02489F"/>
<path d="M1037.51 863.381L1037.46 863.678L1031.55 900.989L1062.8 931.266L1021 932.581L1003.33 965.568L1003.18 965.278L983.451 928.76L941.293 918.878L970.802 894.817L962.407 855.729L1000.53 877.67L1037.51 863.381ZM1062.09 930.987L1031.21 901.076L1031.22 901L1037.09 863.894L1000.55 878.002L1000.47 877.957L962.875 856.323L971.169 894.951L971.109 894.998L942.006 918.734L983.667 928.494L983.708 928.571L1003.32 964.873L1020.77 932.28L1020.86 932.277L1062.09 930.987Z" fill="#02489F"/>
<path d="M1034.55 866.92L1028.96 901.586L1057.7 929.558L1057.38 929.565L1019.14 930.667L1002.76 961.034L984.521 927.057L945.646 917.84L945.87 917.657L972.935 895.726L965.3 859.677L1000.41 879.992L1034.55 866.92ZM1057.01 929.281L1028.62 901.653L1028.64 901.579L1034.15 867.406L1000.42 880.323L1000.34 880.279L965.737 860.254L973.278 895.867L973.221 895.916L946.321 917.711L984.722 926.786L1002.73 960.371L1018.92 930.383L1019 930.38L1057.01 929.281Z" fill="#02489F"/>
<path d="M1031.6 870.452L1031.56 870.725L1026.37 902.166L1052.6 927.846L1052.3 927.854L1017.28 928.76L1002.17 956.499L985.584 925.354L950.014 916.82L975.086 896.659L968.219 863.648L968.497 863.808L1000.3 882.308L1031.6 870.452ZM1051.95 927.581L1026.05 902.229L1026.06 902.158L1031.22 870.92L1000.29 882.636L1000.22 882.595L968.602 864.182L975.392 896.778L975.333 896.822L950.637 916.682L985.755 925.108L1002.15 955.867L1017.07 928.481L1017.15 928.478L1051.95 927.581Z" fill="#02489F"/>
<path d="M1028.65 874.003L1023.78 902.75L1047.51 926.138L1047.22 926.143L1015.41 926.843L1001.58 951.963L986.62 923.643L954.342 915.779L977.199 897.572L971.085 867.591L971.35 867.745L1000.17 884.654L1028.65 874.003ZM1046.88 925.882L1023.47 902.809L1023.48 902.741L1028.3 874.443L1000.19 884.95L1000.12 884.911L971.501 868.111L977.512 897.7L954.965 915.662L986.81 923.42L986.845 923.489L1001.56 951.359L1015.21 926.578L1046.88 925.882Z" fill="#02489F"/>
<path d="M1025.72 877.531L1021.19 903.331L1042.41 924.43L1042.14 924.434L1013.56 924.925L1001 947.425L1000.87 947.178L987.684 921.932L958.701 914.754L979.339 898.495L973.984 871.547L1000.04 887.002L1025.72 877.531ZM1041.81 924.184L1020.9 903.388L1020.91 903.325L1025.36 877.953L1000.05 887.278L999.981 887.239L974.353 872.056L979.632 898.614L979.581 898.654L959.289 914.641L987.862 921.731L987.895 921.795L1000.98 946.867L1013.37 924.694L1013.44 924.695L1041.81 924.184Z" fill="#02489F"/>
</svg>
