<svg width="24" height="24" viewBox="0 0 24 24" fill="none" xmlns="http://www.w3.org/2000/svg">
<g clip-path="url(#clip0_13_8545)">
<path d="M23.7034 16.4544L16.4177 23.7571H16.2686C16.2235 23.7747 16.1752 23.7828 16.1268 23.7809C16.0784 23.7791 16.0309 23.7672 15.9873 23.7462C15.9436 23.7252 15.9047 23.6955 15.873 23.6588C15.8412 23.6221 15.8173 23.5793 15.8028 23.533C15.1764 21.9103 15.0915 20.128 15.5606 18.4528C15.7744 17.7518 16.1512 17.1117 16.6599 16.5851C17.1851 16.0707 17.8233 15.6869 18.5233 15.4645C20.1893 15.0038 21.9586 15.0888 23.573 15.7073C23.6282 15.6945 23.6855 15.6945 23.7407 15.7073C23.7768 15.7406 23.8057 15.781 23.8254 15.826C23.8452 15.871 23.8554 15.9196 23.8554 15.9688C23.8554 16.018 23.8452 16.0666 23.8254 16.1116C23.8057 16.1566 23.7768 16.197 23.7407 16.2303" fill="#02489F"/>
<path fill-rule="evenodd" clip-rule="evenodd" d="M0.950311 0.168093L16.7702 16.0809C16.6249 16.1955 16.4879 16.3204 16.3602 16.4545C16.2215 16.5775 16.0966 16.7153 15.9876 16.8654L0.167702 0.952529C0.114709 0.901942 0.0725192 0.841092 0.0436918 0.773671C0.0148644 0.70625 0 0.633663 0 0.560311C0 0.486959 0.0148644 0.414372 0.0436918 0.346951C0.0725192 0.27953 0.114709 0.218681 0.167702 0.168093C0.218171 0.114977 0.278879 0.0726885 0.346143 0.0437938C0.413407 0.0148991 0.485825 0 0.559006 0C0.632187 0 0.704606 0.0148991 0.77187 0.0437938C0.839133 0.0726885 0.899841 0.114977 0.950311 0.168093Z" fill="#02489F"/>
<path d="M21.2597 19.4414L23.4212 21.6079C23.6234 21.819 23.7368 22.0998 23.738 22.3924C23.7384 22.5419 23.7089 22.69 23.6513 22.8279C23.5937 22.9658 23.5091 23.0908 23.4026 23.1955L22.9181 23.6811C22.7076 23.8837 22.4274 23.9974 22.1355 23.9986C21.9903 24.0021 21.846 23.9758 21.7114 23.9211C21.5768 23.8665 21.4548 23.7848 21.3529 23.6811L19.1914 21.5146L21.2411 19.4414H21.2597Z" fill="#02489F"/>
<path d="M7.56504 23.7568L0.279331 16.454C0.215163 16.3821 0.179688 16.289 0.179688 16.1926C0.179687 16.0961 0.215163 16.003 0.279331 15.9311C0.340328 15.9144 0.404669 15.9144 0.465666 15.9311C2.091 15.2599 3.89114 15.1418 5.58989 15.5949C6.29411 15.8078 6.93445 16.1929 7.45324 16.7155C7.97467 17.2355 8.35888 17.8774 8.57125 18.5832C9.03307 20.2605 8.94156 22.0425 8.31039 23.6634C8.29583 23.7097 8.27194 23.7525 8.24022 23.7892C8.20849 23.8259 8.16959 23.8556 8.12592 23.8766C8.08226 23.8976 8.03476 23.9094 7.98636 23.9113C7.93796 23.9132 7.8897 23.9051 7.84455 23.8875H7.69548" fill="#02489F"/>
<path fill-rule="evenodd" clip-rule="evenodd" d="M23.8342 0.952529L7.95839 16.8093C7.84406 16.6637 7.71952 16.5264 7.58572 16.3984C7.45809 16.2643 7.3211 16.1395 7.17578 16.0249L23.0516 0.168093C23.102 0.114977 23.1627 0.0726885 23.23 0.0437938C23.2973 0.0148991 23.3697 0 23.4429 0C23.516 0 23.5885 0.0148991 23.6557 0.0437938C23.723 0.0726885 23.7837 0.114977 23.8342 0.168093C23.8872 0.218681 23.9293 0.27953 23.9582 0.346951C23.987 0.414372 24.0019 0.486959 24.0019 0.560311C24.0019 0.633663 23.987 0.706251 23.9582 0.773671C23.9293 0.841092 23.8872 0.901942 23.8342 0.952529Z" fill="#02489F"/>
<path d="M4.8074 21.5154L2.64591 23.6819C2.42864 23.8857 2.14225 23.9992 1.84467 23.9995C1.69964 24.0019 1.55561 23.975 1.42116 23.9205C1.2867 23.8659 1.16458 23.7848 1.06206 23.6819L0.577591 23.1963C0.366942 22.9894 0.246388 22.7075 0.242188 22.4119C0.247068 22.1201 0.359966 21.8405 0.558958 21.6275L2.72045 19.4609L4.78877 21.5341L4.8074 21.5154Z" fill="#02489F"/>
</g>
<defs>
<clipPath id="clip0_13_8545">
<rect width="24" height="24" fill="white"/>
</clipPath>
</defs>
</svg>
