<svg width="24" height="14" viewBox="0 0 24 14" fill="none" xmlns="http://www.w3.org/2000/svg">
<g clip-path="url(#clip0_13_8552)">
<path d="M23.6263 3.56486C23.5328 3.56486 21.6627 3.43162 21.086 0.400391C21.0652 0.306373 21.0155 0.222512 20.9449 0.162151C20.8743 0.101791 20.7868 0.0683988 20.6964 0.067289H19.138C19.047 0.0747156 18.9604 0.112456 18.8905 0.175197C18.8207 0.237939 18.7709 0.322524 18.7484 0.417046C18.3588 2.56555 17.4705 3.56486 15.9588 3.56486C15.3656 3.4754 14.8062 3.21606 14.3397 2.81435C13.8733 2.41264 13.5173 1.88353 13.3094 1.28311C13.3094 1.18318 12.9354 0.317115 12.9198 0.317115C12.9017 0.226084 12.8544 0.144663 12.7861 0.0868945C12.7178 0.0291261 12.6328 -0.0013688 12.5458 0.000668586H11.4549C11.3749 -0.0098521 11.2941 0.0115181 11.228 0.0606874C11.1618 0.109857 11.115 0.18337 11.0964 0.26715C11.0964 0.26715 10.7536 1.14987 10.6912 1.26646C10.4878 1.8775 10.1293 2.41605 9.65598 2.82193C9.18262 3.22781 8.61298 3.48503 8.01071 3.56486C6.45227 3.56486 5.61071 2.56555 5.2211 0.417046C5.21087 0.310344 5.16654 0.210673 5.09557 0.134828C5.0246 0.0589834 4.93134 0.0116021 4.83149 0.000668586H3.27305C3.18377 -0.000664586 3.09698 0.0321842 3.02838 0.0932767C2.95978 0.154369 2.9139 0.239674 2.89903 0.333771C2.33799 3.43162 0.452272 3.56486 0.37435 3.56486C0.323172 3.567 0.272893 3.57991 0.226387 3.60284C0.179881 3.62577 0.138063 3.65828 0.103323 3.6985C0.068584 3.73872 0.0416057 3.78586 0.023932 3.83724C0.00625829 3.88861 -0.00176406 3.9432 0.000323912 3.99789V5.6634C0.00128743 5.71732 0.012891 5.7704 0.0343755 5.8192C0.05586 5.86799 0.0867413 5.91138 0.124999 5.94654C0.158679 5.98524 0.199794 6.0157 0.245525 6.03583C0.291256 6.05595 0.340519 6.06526 0.389934 6.06312C1.10185 6.00822 1.79325 5.78378 2.41347 5.40626C3.03369 5.02874 3.56701 4.50769 3.97435 3.88131C4.41947 4.58023 5.02327 5.14702 5.72921 5.52861C6.43515 5.9102 7.22014 6.09411 8.01071 6.06312C8.79934 6.04945 9.57336 5.83354 10.2676 5.43357C10.9619 5.0336 11.5561 4.46126 12.0003 3.76472C12.4454 4.46028 13.0399 5.03187 13.7339 5.43173C14.428 5.83158 15.2016 6.04808 15.9899 6.06312C16.7727 6.0856 17.5482 5.8976 18.2453 5.51638C18.9424 5.13517 19.5387 4.57294 19.9795 3.88131C20.3869 4.50769 20.9202 5.02874 21.5404 5.40626C22.1606 5.78378 22.852 6.00822 23.564 6.06312C23.6157 6.06552 23.6674 6.05639 23.7157 6.03632C23.764 6.01625 23.8078 5.98568 23.8445 5.94654C23.9119 5.86951 23.9507 5.76883 23.9536 5.6634V3.99789C23.9553 3.89612 23.9235 3.79692 23.8637 3.71773C23.8038 3.63854 23.7198 3.58442 23.6263 3.56486Z" fill="#02489F"/>
<path d="M23.6263 10.5931C23.5328 10.5931 21.6627 10.4599 21.086 7.42866C21.0652 7.33464 21.0155 7.25078 20.9449 7.19042C20.8743 7.13006 20.7868 7.09667 20.6964 7.09556H19.138C19.0462 7.1004 18.9585 7.13721 18.8881 7.20037C18.8178 7.26352 18.7687 7.34955 18.7484 7.44531C18.3588 9.59382 17.4705 10.5931 15.9588 10.5931C15.3674 10.5051 14.8091 10.2483 14.3428 9.84964C13.8766 9.451 13.5196 8.92534 13.3094 8.32803C13.3094 8.21145 12.9354 7.36204 12.9198 7.36204C12.9017 7.27101 12.8544 7.18959 12.7861 7.13182C12.7178 7.07405 12.6328 7.04355 12.5458 7.04559H11.4549C11.3749 7.03507 11.2941 7.05644 11.228 7.10561C11.1618 7.15478 11.115 7.22829 11.0964 7.31207C11.0964 7.31207 10.7536 8.19479 10.6912 8.31138C10.4854 8.91931 10.1259 9.45438 9.65276 9.85717C9.17958 10.26 8.61119 10.5147 8.01071 10.5931C6.45227 10.5931 5.61071 9.59382 5.2211 7.44531C5.2008 7.34955 5.15172 7.26352 5.08137 7.20037C5.01102 7.13721 4.92326 7.1004 4.83149 7.09556H3.27305C3.18377 7.09422 3.09698 7.12707 3.02838 7.18816C2.95978 7.24926 2.9139 7.33456 2.89903 7.42866C2.33799 10.4599 0.452272 10.5931 0.37435 10.5931C0.323172 10.5953 0.272893 10.6082 0.226387 10.6311C0.179881 10.654 0.138063 10.6865 0.103323 10.7268C0.068584 10.767 0.0416057 10.8141 0.023932 10.8655C0.00625829 10.9169 -0.00176406 10.9715 0.000323912 11.0262V12.6917C0.00585488 12.7998 0.0505748 12.9013 0.124999 12.9748C0.158679 13.0135 0.199794 13.044 0.245525 13.0641C0.291256 13.0842 0.340519 13.0935 0.389934 13.0914C1.1 13.0285 1.78865 12.8007 2.40777 12.4238C3.02689 12.047 3.56154 11.5302 3.97435 10.9096C4.41947 11.6085 5.02327 12.1753 5.72921 12.5569C6.43515 12.9385 7.22014 13.1224 8.01071 13.0914C8.80124 13.0786 9.57712 12.8614 10.2719 12.4582C10.9667 12.055 11.5598 11.4779 12.0003 10.7763C12.4428 11.476 13.0362 12.0515 13.7306 12.4545C14.425 12.8574 15.1999 13.0759 15.9899 13.0914C16.7727 13.1139 17.5482 12.9259 18.2453 12.5447C18.9424 12.1634 19.5387 11.6012 19.9795 10.9096C20.3924 11.5302 20.927 12.047 21.5461 12.4238C22.1652 12.8007 22.8539 13.0285 23.564 13.0914C23.6157 13.0938 23.6674 13.0847 23.7157 13.0646C23.764 13.0445 23.8078 13.0139 23.8445 12.9748C23.9096 12.8962 23.9481 12.7965 23.9536 12.6917V11.0262C23.9553 10.9244 23.9235 10.8252 23.8637 10.746C23.8038 10.6668 23.7198 10.6127 23.6263 10.5931Z" fill="#02489F"/>
</g>
<defs>
<clipPath id="clip0_13_8552">
<rect width="24" height="13.0909" fill="white"/>
</clipPath>
</defs>
</svg>
