<svg width="694" height="697" viewBox="0 0 694 697" fill="none" xmlns="http://www.w3.org/2000/svg">
<g clip-path="url(#clip0_329_2)">
<mask id="mask0_329_2" style="mask-type:alpha" maskUnits="userSpaceOnUse" x="98" y="102" width="494" height="494">
<ellipse cx="345.346" cy="349.246" rx="246.507" ry="246.507" transform="rotate(105 345.346 349.246)" fill="#C4C4C4"/>
</mask>
<g mask="url(#mask0_329_2)">
<path d="M1127.5 1262.35L684.904 540.709L941.707 -295.294L939.202 -294.351L218.763 -25.4563L-380.95 -569.762L-380.95 -566.641L-385.135 318.674L-1012.61 818.285L-1010.1 819.264L-292.255 1097.5L-80.317 1950.58L369.074 1234.72L1127.5 1262.35ZM681.966 541.177L682.374 541.801L1122.28 1259.04L367.777 1231.58L367.37 1232.24L-79.2708 1943.73L-290.125 1095.09L-290.752 1094.84L-1006.74 817.324L-382.542 320.309L-382.542 319.504L-378.363 -563.521L218.237 -22.0365L218.863 -22.2799L937.41 -290.495L681.966 541.177Z" fill="white"/>
<path d="M1110.83 1250.52L681.279 539.736L928.141 -281.896L925.673 -280.997L218.038 -23.216L-373.075 -552.008L-373.075 -548.987L-382.353 318.655L-994.545 813.474L-992.102 814.447L-290.231 1092.9L-77.472 1927.5L-75.9248 1925.08L367.152 1229.5L1110.83 1250.52ZM678.385 540.204L678.767 540.828L1105.73 1247.32L365.874 1226.45L365.473 1227.07L-76.4634 1920.84L-288.126 1090.53L-288.752 1090.27L-988.845 812.569L-379.809 320.265L-379.809 319.479L-370.544 -545.911L217.524 -19.8399L218.151 -20.077L923.962 -277.184L678.385 540.204Z" fill="white"/>
<path d="M1094.16 1238.7L1092.72 1236.28L677.658 538.749L914.572 -268.504L912.167 -267.649L217.311 -21.0012L-365.195 -534.279L-379.603 318.636L-976.535 808.668L-974.161 809.629L-288.201 1088.29L-74.5901 1904.43L-73.0741 1902.08L365.229 1224.33L1094.16 1238.7ZM674.796 539.217L675.165 539.841L1089.18 1235.58L363.964 1221.29L363.569 1221.92L-73.6316 1897.92L-286.127 1085.97L-286.754 1085.72L-970.96 807.75L-377.078 320.221L-377.078 319.459L-362.739 -528.338L216.791 -17.6751L910.494 -263.917L674.796 539.217Z" fill="white"/>
<path d="M1077.48 1226.87L1076.11 1224.52L674.017 537.771L901.002 -255.105L216.608 -18.7785L-357.322 -516.549L-357.391 -513.691L-376.854 318.618L-958.528 803.858L-956.229 804.819L-286.173 1083.69L-71.7671 1881.35L-70.2825 1879.09L363.298 1219.14L1077.48 1226.87ZM671.204 538.233L671.561 538.857L1072.62 1223.86L362.057 1216.14L361.669 1216.76L-70.8087 1875.01L-284.131 1081.38L-284.726 1081.13L-953.071 802.965L-374.349 320.185L-374.349 319.442L-354.929 -510.751L216.082 -15.471L216.708 -15.677L897.056 -250.605L671.204 538.233Z" fill="white"/>
<path d="M1060.82 1215.05L1059.49 1212.75L670.392 536.809L887.436 -241.694L885.156 -240.933L215.853 -16.5574L-349.446 -498.82L-374.108 318.593L-940.527 799.052L-938.297 800L-284.147 1079.1L-68.914 1858.28L-67.4544 1856.09L361.377 1213.95L1060.82 1215.05ZM667.636 537.246L1056.09 1212.1L360.168 1210.98L359.792 1211.55L-67.9744 1852.09L-282.13 1076.81L-282.706 1076.56L-935.184 798.184L-371.602 320.14L-371.602 319.416L-347.109 -493.166L215.358 -13.3249L215.946 -13.5246L883.565 -237.351L667.636 537.246Z" fill="white"/>
<path d="M1044.12 1203.23L666.765 535.81L873.867 -228.322L871.65 -227.604L215.125 -14.343L-341.534 -481.086L-371.289 318.573L-922.48 794.24L-282.118 1074.48L-66.0641 1835.19L-64.6296 1833.08L359.435 1208.74L1044.12 1203.23ZM664.028 536.259L664.359 536.84L1039.53 1200.34L358.245 1205.83L357.875 1206.38L-65.1495 1829.18L-280.145 1072.24L-280.702 1072L-917.294 793.391L-368.884 320.096L-368.884 319.397L-339.31 -475.576L214.643 -11.1541L215.219 -11.3413L870.102 -224.066L664.028 536.259Z" fill="white"/>
<path d="M1027.47 1191.43L663.137 534.831L860.304 -214.929L214.397 -12.1143L-333.693 -463.355L-368.553 318.574L-904.453 789.453L-280.096 1069.89L-63.2091 1812.13L-61.8059 1810.1L357.554 1203.55L1027.47 1191.43ZM660.443 535.274L660.756 535.841L1022.97 1188.59L356.333 1200.67L-62.3196 1806.25L-278.135 1067.66L-899.404 788.605L-366.148 320.053L-366.148 319.379L-331.488 -457.989L213.921 -8.98153L214.479 -9.15627L856.626 -210.798L660.443 535.274Z" fill="white"/>
<path d="M1010.8 1179.58L1009.64 1177.44L659.493 533.851L846.718 -201.537L213.666 -9.89883L-325.817 -445.633L-365.789 318.53L-886.43 784.624L-884.419 785.554L-278.04 1065.27L-60.3574 1789.06L-58.9792 1787.1L355.601 1198.35L1010.8 1179.58ZM656.855 534.313L657.156 534.862L1006.42 1176.87L354.424 1195.52L354.067 1196.03L-59.4928 1783.33L-276.135 1063.09L-276.655 1062.85L-881.512 783.819L-363.415 320.009L-363.415 319.385L-323.675 -440.378L213.171 -6.78485L213.71 -6.94711L843.16 -197.499L656.855 534.313Z" fill="white"/>
<path d="M994.127 1167.76L993.019 1165.68L655.883 532.871L833.161 -188.139L831.132 -187.553L212.938 -7.68416L-317.944 -427.904L-363.047 318.511L-868.434 779.818L-276.043 1060.67L-57.5081 1765.99L353.677 1193.15L994.127 1167.76ZM653.265 533.301L989.862 1165.1L352.543 1190.37L-56.6374 1760.42L-274.138 1058.51L-274.633 1058.27L-863.623 779.032L-360.685 319.965L-360.647 319.341L-315.852 -422.812L212.475 -4.63256L213.001 -4.78857L829.691 -184.214L653.265 533.301Z" fill="white"/>
<path d="M977.457 1155.94L976.405 1153.91L652.255 531.892L819.599 -174.753L817.632 -174.204L212.224 -5.48676L-310.058 -410.199L-360.241 318.468L-850.387 775.007L-848.508 775.918L-274.014 1056.07L-54.6336 1742.91L-53.3181 1741.12L351.753 1187.95L977.457 1155.94ZM649.675 532.316L649.944 532.834L973.329 1153.37L350.663 1185.23L-53.7817 1737.51L-272.141 1053.95L-845.733 774.246L-357.954 319.941L-357.917 319.317L-308.009 -405.201L211.754 -2.46018L212.261 -2.60367L816.216 -170.928L649.675 532.316Z" fill="white"/>
<path d="M960.802 1144.11L648.63 530.912L806.038 -161.361L804.159 -160.849L211.486 -3.24637L-302.182 -392.445L-357.477 318.468L-832.364 770.203L-272.002 1051.46L-51.8134 1719.85L349.825 1182.76L960.802 1144.11ZM646.087 531.33L646.343 531.83L956.756 1141.6L348.704 1180.06L348.378 1180.49L-50.999 1714.58L-270.122 1049.38L-270.58 1049.15L-827.841 769.46L-355.222 319.885L-355.178 319.304L-300.19 -387.634L211.035 -0.288395L802.749 -157.642L646.087 531.33Z" fill="white"/>
<path d="M944.12 1132.29L645.002 529.944L792.475 -147.957L790.627 -147.489L210.758 -1.02518L-294.321 -374.723L-294.509 -372.52L-354.69 318.449L-814.317 765.391L-812.588 766.283L-269.929 1046.85L-48.9512 1696.78L347.901 1177.57L944.12 1132.29ZM642.503 530.344L642.741 530.824L940.198 1129.85L346.799 1174.9L346.479 1175.31L-48.1682 1691.66L-268.143 1044.78L-268.582 1044.56L-809.944 764.673L-352.491 319.84L-352.441 319.285L-292.373 -370.042L210.345 1.8891L210.815 1.77054L789.305 -144.356L642.503 530.344Z" fill="white"/>
<path d="M927.45 1120.47L926.555 1118.6L641.375 528.953L778.906 -134.577L210.025 1.19091L-286.448 -357.012L-286.655 -354.89L-351.96 318.431L-796.32 760.586L-794.66 761.466L-267.937 1042.25L-46.0955 1673.71L-44.8426 1672.14L345.978 1172.36L927.45 1120.47ZM638.913 529.359L639.138 529.821L923.642 1118.09L344.888 1169.75L-45.3438 1668.74L-266.146 1040.23L-266.559 1040.01L-792.054 759.887L-349.761 319.798L-349.711 319.267L-284.531 -352.456L209.593 4.06152L210.044 3.95544L775.799 -131.069L638.913 529.359Z" fill="white"/>
<path d="M910.78 1108.65L909.934 1106.85L637.746 527.974L765.355 -121.184L209.297 3.41294L-278.575 -339.269L-278.794 -337.229L-349.192 318.394L-778.293 755.763L-265.878 1037.64L-43.2151 1650.63L-42.0186 1649.13L344.053 1167.17L910.78 1108.65ZM635.322 528.373L635.529 528.816L907.084 1106.34L342.982 1164.6L342.681 1164.97L-42.5135 1645.83L-264.149 1035.66L-774.159 755.101L-347.031 319.754L-346.975 319.249L-276.74 -334.858L208.871 6.23362L209.297 6.14003L762.323 -117.783L635.322 528.373Z" fill="white"/>
<path d="M894.118 1096.83L634.12 526.993L751.781 -107.792L750.115 -107.449L208.571 5.63418L-270.701 -321.547L-270.932 -319.587L-346.423 318.393L-760.289 750.976L-758.773 751.837L-263.86 1033.04L-40.3706 1627.57L342.149 1161.97L894.118 1096.83ZM631.733 527.386L631.927 527.811L890.528 1094.59L341.072 1159.43L340.784 1159.78L-39.6879 1622.89L-262.15 1031.09L-262.52 1030.87L-756.23 750.314L-344.268 319.723L-344.212 319.236L-268.921 -317.266L208.151 8.41121L208.558 8.32381L748.85 -104.491L631.733 527.386Z" fill="white"/>
<path d="M877.448 1085.01L630.493 526.014L738.238 -94.4068L207.838 7.84939L-262.832 -303.824L-343.641 318.35L-742.254 746.146L-261.855 1028.44L-37.5454 1604.51L-36.4053 1603.15L340.201 1156.77L877.448 1085.01ZM628.169 526.4L628.35 526.806L873.996 1082.83L339.193 1154.27L338.911 1154.6L-36.8313 1599.96L-260.152 1026.51L-260.502 1026.31L-738.37 745.528L-341.537 319.673L-261.104 -299.674L207.462 10.5827L207.85 10.5078L735.406 -91.2116L628.169 526.4Z" fill="white"/>
<path d="M860.779 1073.19L626.866 525.033L724.638 -80.997L207.105 10.1136L-254.964 -286.059L-255.221 -284.261L-340.91 318.342L-724.281 741.352L-259.832 1023.83L-34.6947 1581.46L-33.5796 1580.21L338.279 1151.57L860.779 1073.19ZM624.554 525.413L624.724 525.8L857.44 1071.09L337.257 1149.12L336.994 1149.43L-34.0244 1577.04L-258.153 1021.94L-258.478 1021.74L-720.473 740.734L-338.836 319.64L-338.773 319.21L-253.285 -282.071L206.711 12.7595L207.074 12.6909L721.901 -77.9205L624.554 525.413Z" fill="white"/>
<path d="M844.118 1061.37L623.241 524.066L711.091 -67.6294L709.613 -67.3986L206.387 12.2859L-247.076 -268.379L-247.345 -266.663L-338.127 318.324L-706.233 736.547L-704.923 737.377L-257.8 1019.23L-31.8364 1558.37L-30.759 1557.17L336.357 1146.38L844.118 1061.37ZM620.967 524.428L621.124 524.796L840.855 1059.33L335.33 1143.97L335.073 1144.25L-31.2163 1554.12L-256.153 1017.37L-256.46 1017.17L-702.574 735.948L-336.116 319.585L-336.053 319.185L-245.46 -264.466L205.961 14.9318L206.312 14.8757L708.404 -64.6278L620.967 524.428Z" fill="white"/>
<path d="M827.453 1049.55L826.827 1048.03L619.612 523.079L697.526 -54.2443L205.658 14.4818L-239.21 -250.682L-335.36 318.28L-688.219 731.723L-686.966 732.534L-255.767 1014.6L-29.001 1535.29L-27.9549 1534.15L334.425 1141.18L827.453 1049.55ZM617.375 523.441L617.513 523.785L824.296 1047.58L333.442 1138.81L333.204 1139.07L-28.3621 1531.19L-254.15 1012.79L-684.68 731.161L-333.393 319.54L-333.331 319.166L-237.669 -246.894L205.213 17.0778L205.539 17.0342L694.902 -51.3612L617.375 523.441Z" fill="white"/>
<path d="M810.792 1037.73L810.241 1036.27L615.987 522.094L683.973 -40.8577L682.613 -40.6954L204.933 16.7167L-231.334 -232.945L-332.595 318.274L-670.207 726.924L-253.754 1010.02L-26.1362 1512.25L-25.1214 1511.18L332.498 1135.99L810.792 1037.73ZM613.763 522.456L613.888 522.78L807.71 1035.82L331.508 1133.65L331.283 1133.89L-25.5286 1508.26L-252.15 1008.23L-252.413 1008.04L-666.774 726.375L-330.635 319.497L-330.572 319.148L-229.824 -229.301L204.545 19.2815L204.852 19.2441L681.479 -38.0432L613.763 522.456Z" fill="white"/>
<path d="M794.129 1025.91L793.621 1024.51L612.359 521.114L670.41 -27.4722L669.113 -27.3412L204.206 18.9381L-223.46 -215.223L-329.827 318.255L-652.192 722.15L-651.077 722.937L-251.725 1005.42L-23.3115 1489.18L-22.328 1488.19L330.581 1130.79L794.129 1025.91ZM610.198 521.47L610.311 521.769L791.172 1024.06L329.629 1128.5L329.416 1128.71L-22.6851 1485.36L-250.152 1003.65L-250.397 1003.48L-648.878 721.589L-327.904 319.46L-327.841 319.142L-221.976 -211.697L203.824 21.453L668.005 -24.7264L610.198 521.47Z" fill="white"/>
<path d="M777.466 1014.09L608.751 520.134L656.86 -14.0867L655.608 -13.9869L203.454 21.1594L-215.624 -197.5L-215.924 -196.102L-327.096 318.236L-634.207 717.314L-633.161 718.088L-249.702 1000.82L-20.4302 1466.13L-19.478 1465.2L328.658 1125.6L777.466 1014.09ZM606.609 520.471L606.709 520.752L774.609 1012.33L327.718 1123.37L327.524 1123.56L-19.8664 1462.42L-248.154 999.077L-248.374 998.914L-630.944 716.796L-325.173 319.416L-325.11 319.129L-214.183 -194.099L203.103 23.6306L203.36 23.6306L654.518 -11.4407L606.609 520.471Z" fill="white"/>
<path d="M760.801 1002.28L760.388 1001L605.11 519.157L643.29 -0.673476L642.119 -0.611083L202.751 23.4021L-207.727 -179.781L-208.033 -178.458L-324.304 318.214L-616.168 712.511L-247.68 996.215L-17.5878 1443.07L-16.6733 1442.21L326.733 1120.41L760.801 1002.28ZM603.017 519.494L603.105 519.75L758.045 1000.56L325.812 1118.19L325.63 1118.36L-17.0241 1439.47L-246.145 994.524L-246.339 994.374L-613.08 712.012L-322.419 319.381L-322.356 319.119L-206.361 -176.474L202.381 25.8297L202.613 25.8297L641.041 1.87261L603.017 519.494Z" fill="white"/>
<path d="M744.142 990.492L743.772 989.243L601.486 518.176L629.738 12.699L628.623 12.7365L202.028 25.6105L-199.843 -162.053L-321.526 318.213L-598.148 707.724L-597.234 708.46L-245.647 991.615L-14.7342 1420.01L-13.8509 1419.21L324.807 1115.21L744.142 990.492ZM599.438 518.544L599.507 518.769L741.486 988.8L323.905 1113.03L323.742 1113.18L-14.2017 1416.53L-244.156 989.93L-595.173 707.237L-319.703 319.336L-319.646 319.105L-198.533 -158.914L201.658 27.9819L201.871 27.9819L627.545 15.1079L599.438 518.544Z" fill="white"/>
<path d="M727.482 978.634L597.856 517.196L616.172 26.0715L201.291 27.8126L-191.984 -144.355L-192.304 -143.182L-318.773 318.169L-580.149 702.899L-243.627 987.008L-11.8874 1396.95L-11.0418 1396.22L322.88 1110.01L727.482 978.634ZM595.839 517.52L724.92 977.042L321.991 1107.87L321.847 1108L-11.3737 1393.62L-242.155 985.355L-242.305 985.23L-577.273 702.431L-316.975 319.267L-190.719 -141.298L200.947 30.159L201.129 30.159L614.093 28.4242L595.839 517.52Z" fill="white"/>
<path d="M710.821 966.828L710.539 965.723L594.237 516.216L602.619 39.4452L601.629 39.4452L200.567 30.0283L-184.114 -126.607L-316.008 318.181L-562.137 698.126L-561.347 698.825L-241.601 982.41L-9.03498 1373.9L320.959 1104.82L710.821 966.828ZM592.251 516.541L592.295 516.716L708.353 965.286L320.089 1102.71L319.957 1102.82L-8.54017 1370.67L-240.154 980.781L-240.28 980.675L-559.362 697.645L-314.242 319.255L-314.185 319.08L-182.893 -123.693L200.216 32.3185L200.373 32.3185L600.602 41.6793L592.251 516.541Z" fill="white"/>
<path d="M694.162 955.014L590.583 515.237L589.036 52.8188L588.109 52.7688L199.838 32.2377L-176.242 -108.928L-176.574 -107.911L-313.248 318.125L-544.129 693.289L-543.402 693.963L-239.586 977.81L-6.19302 1350.84L-5.41622 1350.22L319.034 1099.63L694.162 955.014ZM587.119 55.0466L588.66 515.592L691.788 953.523L318.176 1097.55L318.07 1097.64L-5.71065 1347.73L-238.177 976.206L-238.277 976.113L-541.467 692.859L-311.506 319.218L-311.462 319.074L-175.071 -106.088L199.494 34.5155L199.619 34.5155L587.119 55.0466Z" fill="white"/>
<path d="M677.506 943.2L677.299 942.214L586.988 514.256L575.512 66.1908L199.112 34.4518L-168.374 -91.2187L-310.478 318.099L-526.125 688.452L-525.461 689.113L-237.55 973.204L-3.33603 1327.79L-2.59684 1327.25L317.112 1094.44L677.506 943.2ZM573.632 68.2876L585.065 514.543L585.065 514.655L675.22 941.765L316.278 1092.39L316.191 1092.46L-2.86618 1324.79L-236.153 971.632L-236.234 971.557L-523.55 688.065L-308.774 319.173L-308.731 319.06L-167.246 -88.4854L198.767 36.6859L198.874 36.6859L573.632 68.2876Z" fill="white"/>
<path d="M660.858 931.387L660.683 930.457L583.363 513.276L561.958 79.5645L561.15 79.4709L198.388 36.6488L-160.497 -73.5078L-160.83 -72.6404L-307.707 318.081L-508.113 683.672L-235.531 968.605L-0.489942 1304.74L0.211657 1304.25L315.191 1089.25L660.858 931.387ZM560.154 81.6114L581.453 513.582L581.453 513.663L658.653 930.008L314.333 1087.22L314.27 1087.27L-0.0702643 1301.84L-234.153 967.058L-234.209 967.001L-505.658 683.279L-306.035 319.136L-306.004 319.055L-159.42 -70.8743L198.049 38.8704L198.124 38.8704L560.154 81.6114Z" fill="white"/>
<path d="M644.2 919.575L644.062 918.714L579.734 512.248L548.413 92.9637L197.615 38.8776L-152.644 -55.8027L-304.978 318.101L-490.117 678.868L-489.572 679.492L-233.478 964.057L2.35868 1281.7L2.99765 1281.3L313.241 1084.1L644.2 919.575ZM546.665 94.9107L577.874 512.541L642.082 918.246L312.451 1082.07L312.407 1082.07L2.78467 1278.88L-232.124 962.491L-487.731 678.469L-303.324 319.143L-151.597 -53.2628L197.283 41.0368L546.665 94.9107Z" fill="white"/>
<path d="M627.544 907.767L627.437 906.962L576.115 511.317L534.833 106.336L196.921 41.0919L-144.775 -38.0996L-145.094 -37.3757L-302.202 318.043L-472.113 674.062L-471.625 674.642L-231.472 959.419L5.20966 1258.64L311.344 1078.86L627.544 907.767ZM533.179 108.214L574.298 511.591L625.521 906.481L310.529 1076.92L5.62311 1255.97L-230.138 957.922L-469.821 673.7L-300.573 319.073L-143.773 -35.6533L196.564 43.2261L533.179 108.214Z" fill="white"/>
<path d="M610.894 895.954L572.5 510.356L521.303 119.703L520.676 119.554L196.226 43.3078L-136.907 -20.3886L-137.22 -19.7646L-299.426 317.963L-454.109 669.257L-453.677 669.806L-229.474 954.789L8.05409 1235.61L8.63667 1235.3L309.44 1073.67L610.894 895.954ZM519.693 121.513L570.696 510.643L608.908 894.719L308.631 1071.75L8.45503 1233.03L-228.152 953.316L-451.904 668.908L-297.816 319.017L-135.942 -18.0422L195.9 45.4108L519.693 121.513Z" fill="white"/>
<path d="M594.25 884.148L568.874 509.303L507.753 133.09L507.189 132.934L195.48 45.5178L195.43 45.5178L-129.058 -2.68356L-296.708 318.039L-436.125 664.453L-435.749 664.971L-227.444 950.21L-227.407 950.247L10.9042 1212.55L11.4429 1212.29L307.498 1068.5L307.542 1068.5L594.25 884.148ZM567.094 509.64L592.364 882.956L306.715 1066.59L11.2801 1210.08L-226.135 948.756L-433.989 664.116L-295.085 318.981L-128.118 -0.424517L195.161 47.5959L506.206 134.819L567.094 509.64Z" fill="white"/>
<path d="M577.598 872.34L577.598 871.716L565.263 508.378L565.263 508.284L494.227 146.462L493.719 146.294L194.771 47.6946L194.683 47.6946L-121.167 14.9883L-121.461 15.5L-293.928 317.95L-293.928 318.037L-418.117 659.646L-417.792 660.133L-225.423 945.609L-225.36 945.672L13.7463 1189.51L14.2411 1189.29L305.56 1063.3L305.629 1063.25L577.598 872.34ZM563.497 508.652L575.781 871.223L304.808 1061.42L14.1472 1187.13L-224.132 944.174L-416.081 659.328L-292.35 318.942L-120.29 17.1912L194.432 49.7789L492.711 148.129L563.497 508.652Z" fill="white"/>
<path d="M561.65 507.398L561.65 507.26L480.659 159.829L480.215 159.66L194.058 49.9343L193.939 49.9343L-113.291 32.7168L-113.567 33.1599L-291.133 317.931L-291.177 318.062L-400.125 654.841L-223.311 941.103L16.6101 1166.47L17.0548 1166.3L303.682 1058.11L303.782 1058.04L560.954 860.533L560.954 859.977L561.65 507.398ZM479.225 161.433L559.89 507.666L559.207 859.441L302.899 1056.25L16.9546 1164.18L-222.127 939.593L-398.152 654.535L-289.605 318.904L-112.458 34.8074L193.713 51.9624L479.225 161.433Z" fill="white"/>
<path d="M558.009 506.411L558.009 506.231L467.115 173.196L466.726 173.027L193.305 52.1373L193.148 52.1373L-105.456 50.4024L-105.713 50.783L-288.403 317.875L-288.453 318.049L-382.129 650.042L-221.388 936.423L-221.263 936.529L19.4405 1143.43L19.8414 1143.3L301.732 1052.93L301.858 1052.83L544.284 848.726L544.284 848.239L558.009 506.411ZM465.731 174.744L556.299 506.68L542.624 847.659L300.981 1051.1L19.7913 1141.23L-220.129 935.019L-380.237 649.761L-286.9 318.886L-104.66 52.418L192.954 54.1467L465.731 174.744Z" fill="white"/>
<path d="M554.42 505.432L554.351 505.22L453.572 186.563L453.24 186.394L192.578 54.3398L192.384 54.3398L-97.5945 68.0689L-97.8325 68.3871L-285.654 317.837L-364.145 645.206L-363.957 645.568L-219.384 931.831L-219.228 931.956L22.2779 1120.42L22.6288 1120.33L299.816 1047.75L299.972 1047.61L527.665 836.919L527.696 836.495L554.42 505.432ZM452.231 188.054L552.691 505.694L526.062 835.89L299.07 1045.91L22.6288 1118.3L-218.131 930.427L-362.315 644.956L-284.125 318.836L-96.7989 70.0221L192.259 56.2931L452.231 188.054Z" fill="white"/>
<path d="M550.813 504.452L550.719 504.196L440.036 199.93L191.859 56.5371L191.621 56.5371L-89.7129 85.7924L-89.9258 86.0482L-282.865 317.831L-282.921 318.099L-346.152 640.431L-346.008 640.756L-217.36 927.236L-217.159 927.38L25.1357 1097.36L297.9 1042.57L298.075 1042.39L511.028 825.117L511.078 824.756L550.813 504.452ZM438.739 201.366L549.09 504.714L509.462 824.119L297.154 1040.74L25.4614 1095.33L-216.1 925.838L-344.386 640.163L-281.399 318.805L-88.9674 87.677L191.552 58.5341L438.739 201.366Z" fill="white"/>
<path d="M547.204 503.467L426.492 213.286L426.266 213.142L191.132 58.7344L190.856 58.7781L-81.8704 103.478L-82.0646 103.684L-280.146 317.801L-328.168 635.628L-328.062 635.902L-215.349 922.651L-215.105 922.801L27.948 1074.33L28.2048 1074.3L295.983 1037.4L296.183 1037.17L494.384 813.318L494.434 813.019L547.204 503.467ZM425.239 214.677L545.481 503.735L492.862 812.351L295.225 1035.57L28.2862 1072.35L-214.084 921.253L-326.458 635.372L-278.624 318.774L-81.1374 105.301L190.812 60.7314L425.239 214.677Z" fill="white"/>
<path d="M543.601 502.486L543.445 502.156L412.954 226.658L412.779 226.527L190.398 60.9239L190.079 60.9988L-74.0153 121.194L-74.1719 121.35L-277.403 317.769L-277.44 318.143L-310.184 630.827L-213.338 918.063L-213.044 918.219L30.8229 1051.31L31.0297 1051.31L294.065 1032.24L477.752 801.517L477.802 801.279L543.601 502.486ZM411.739 227.993L541.866 502.742L476.286 800.574L293.32 1030.38L31.1362 1049.39L-212.073 916.665L-308.542 630.578L-275.887 318.748L-73.3012 122.935L190.085 62.9333L411.739 227.993Z" fill="white"/>
<path d="M540 501.508L539.799 501.14L399.424 240.014L399.292 239.908L189.672 63.1152L-66.1601 138.85L-66.2854 138.956L-274.659 317.732L-274.659 318.163L-292.199 626.024L-292.149 626.199L-211.34 913.478L-210.996 913.641L33.6919 1028.28L33.8484 1028.28L292.18 1027.04L292.418 1026.7L461.114 789.718L461.164 789.543L540 501.508ZM398.271 241.318L538.252 501.764L459.692 788.825L291.403 1025.2L33.9738 1026.44L-210.05 912.074L-290.596 625.787L-273.118 318.756L-65.4648 140.541L189.359 65.1371L398.271 241.318Z" fill="white"/>
<path d="M536.406 500.521L536.155 500.115L385.889 253.368L385.807 253.293L188.966 65.2989L188.565 65.4486L-58.3027 156.559L-58.3904 156.628L-271.92 317.719L-271.92 318.218L-274.219 621.255L-274.219 621.374L-209.346 908.934L-208.945 909.09L36.5128 1005.26L36.6193 1005.26L290.246 1021.88L290.497 1021.49L444.491 777.916L444.528 777.803L536.406 500.521ZM384.736 254.647L534.633 500.783L443.1 777.023L289.488 1020.01L36.826 1003.45L-208.031 907.493L-272.628 620.993L-270.329 318.699L-57.5949 158.207L188.634 67.3458L384.736 254.647Z" fill="white"/>
<path d="M532.809 499.535L532.508 499.098L372.356 266.722L372.313 266.679L188.244 67.4766L187.799 67.6763L-50.4487 174.238L-50.4989 174.27L-269.184 317.682L-269.184 318.237L-256.273 616.457L-256.273 616.519L-207.362 904.354L-206.898 904.504L39.3303 982.248L39.3867 982.248L288.334 1016.74L288.591 1016.27L427.858 766.122L427.858 766.066L532.809 499.535ZM371.229 267.958L531.011 499.797L426.504 765.248L287.563 1014.83L39.6498 980.507L-206.003 902.875L-254.72 616.201L-267.618 318.674L-49.8098 175.842L187.899 69.5609L371.229 267.958Z" fill="white"/>
<path d="M529.223 498.55L528.86 498.088L358.805 280.084L187.521 69.6426L187.033 69.9047L-42.5894 191.875L-266.461 317.601L-238.272 611.614L-205.322 899.755L-204.796 899.88L42.2034 959.233L286.421 1011.58L286.691 1011.04L411.224 754.34L529.223 498.55ZM187.164 71.7831L357.715 281.294L527.375 498.818L409.902 753.479L285.638 1009.61L42.4602 957.492L-203.975 898.27L-236.781 611.396L-264.832 318.656L-41.9504 193.485L187.164 71.7831Z" fill="white"/>
<path d="M525.649 497.562L525.21 497.076L345.27 293.393L186.784 71.8067L186.252 72.1374L-34.7761 209.565L-263.734 317.525L-263.628 318.224L-220.304 606.839L-203.347 895.148L-202.721 895.248L45.1056 936.192L284.519 1006.44L284.782 1005.82L394.626 742.494L525.649 497.562ZM186.44 74.0096L344.186 294.579L523.744 497.837L393.323 741.646L283.698 1004.41L45.3499 934.513L-201.938 893.657L-218.851 606.658L-262.074 318.642L-34.1496 211.15L186.44 74.0096Z" fill="white"/>
<path d="M522.078 496.578L521.564 496.066L331.758 306.768L186.089 73.961L185.519 74.3791L-26.8893 227.214L-261.016 317.501L-202.345 602.023L-201.361 890.644L-200.685 890.7L47.8807 913.234L282.621 1001.31L377.988 730.745L522.078 496.578ZM185.707 76.2637L330.693 307.96L330.762 308.022L520.098 496.871L376.697 729.908L281.756 999.191L48.1688 911.525L48.1 911.525L-199.883 889.059L-200.866 601.835L-200.866 601.735L-259.237 318.649L-26.2065 228.787L-26.1377 228.737L185.707 76.2637Z" fill="white"/>
<path d="M518.543 495.622L517.917 495.091L318.25 320.115L185.373 76.1134L-19.0417 244.88L-258.336 317.438L-258.11 318.287L-184.412 597.235L-199.408 886.087L-198.656 886.087L50.6981 890.218L280.721 996.175L280.959 995.345L361.367 718.955L518.543 495.622ZM184.972 78.5035L317.179 321.257L317.286 321.345L516.445 495.878L360.089 718.119L279.844 993.947L51.0051 888.54L-197.855 884.402L-182.933 597.017L-182.971 596.873L-256.488 318.63L-18.4466 246.434L-18.3401 246.347L184.972 78.5035Z" fill="white"/>
<path d="M514.962 494.6L514.26 494.063L304.734 333.458L184.661 78.2422L184.034 78.8663L-11.1973 262.542L-255.609 317.377L-166.425 592.425L-197.408 881.533L-196.569 881.483L53.5624 867.217L278.825 991.066L344.756 707.175L514.962 494.6ZM184.21 80.7634L303.681 334.619L303.832 334.731L512.782 494.905L343.484 706.338L343.44 706.538L277.904 988.725L53.8506 865.545L53.6689 865.545L-195.798 879.773L-164.978 592.213L-165.041 592.019L-253.686 318.631L-10.5834 264.102L-10.4456 263.971L184.21 80.7634Z" fill="white"/>
<path d="M511.424 493.605L291.217 346.792L183.955 80.3556L183.259 81.0919L-3.34646 280.2L-252.914 317.306L-252.532 318.304L-148.464 587.623L-195.446 877L56.3769 844.219L276.941 985.958L277.129 984.885L328.145 695.378L511.424 493.605ZM183.504 83.039L290.146 347.953L290.34 348.077L509.106 493.929L326.861 694.548L326.817 694.797L275.951 983.474L56.7026 842.552L56.4834 842.552L-193.723 875.115L-147.011 587.43L-147.098 587.199L-250.878 318.635L-2.73882 281.748L-2.57593 281.573L183.504 83.039Z" fill="white"/>
<path d="M507.898 492.615L506.952 492.072L277.68 360.136L183.228 82.4356L4.47767 297.838L-250.258 317.183L-130.511 582.833L-193.498 872.478L-192.464 872.266L59.2459 821.231L275.062 980.875L275.212 979.627L311.545 683.567L507.898 492.615ZM182.783 85.3312L276.653 361.297L276.885 361.428L505.392 492.958L310.261 682.762L310.223 683.067L274.009 978.241L59.5341 819.553L59.271 819.609L-191.662 870.487L-129.064 582.627L-129.176 582.365L-248.053 318.656L5.11036 299.41L5.29204 299.192L182.783 85.3312Z" fill="white"/>
<path d="M504.392 491.615L264.177 373.47L182.542 84.5372L12.3419 315.515L-247.574 317.144L-246.948 318.323L-112.561 578.032L-191.566 867.97L-190.419 867.652L62.0863 798.24L273.191 975.806L294.91 671.808L504.392 491.615ZM182.009 87.6449L263.1 374.637L263.382 374.775L501.699 491.989L293.657 670.978L272.045 972.929L62.3682 796.555L62.0738 796.636L-189.574 865.817L-111.101 577.827L-245.219 318.685L12.9558 317.069L182.009 87.6449Z" fill="white"/>
<path d="M500.909 490.629L499.657 490.111L250.665 386.8L181.84 86.584L20.185 333.157L-244.949 317.026L-94.6074 573.234L-189.636 863.484L-188.383 863.041L64.9242 775.25L271.319 970.764L278.316 660.026L500.909 490.629ZM181.264 89.9914L249.575 387.986L249.901 388.117L497.965 491.029L277.025 659.184L277.025 659.583L270.091 967.619L65.2499 773.54L64.9179 773.653L-187.437 861.132L-93.1415 573.003L-93.3357 572.672L-242.362 318.686L20.8051 334.699L21.0119 334.374L181.264 89.9914Z" fill="white"/>
<path d="M492.936 491.984L247.503 390.221L179.962 95.8086L179.166 97.0192L21.4577 337.658L-238.559 321.882L-91.0858 573.123L-184.248 857.788L65.395 771.214L267.837 962.915L267.868 961.386L274.658 658.174L492.936 491.984ZM179.398 99.1535L246.426 391.382L246.745 391.513L490.036 492.39L273.387 657.338L273.387 657.737L266.628 959.819L65.6769 769.535L65.3574 769.648L-182.08 855.473L-89.6388 572.917L-89.833 572.592L-236.015 323.554L22.0716 339.205L22.2783 338.893L179.398 99.1535Z" fill="white"/>
<path d="M484.956 493.357L483.747 492.851L244.341 393.628L178.09 105.031L22.7366 342.169L-232.168 326.761L-87.5642 573.003L-178.853 852.089L65.8659 767.169L264.355 955.07L270.995 656.314L484.956 493.357ZM177.532 108.32L243.307 394.757L243.62 394.888L482.106 493.75L269.748 655.496L263.152 952.018L66.1478 765.522L65.8283 765.634L-176.748 849.812L-86.1422 572.81L-86.3302 572.485L-229.662 328.377L23.338 343.679L23.5384 343.367L177.532 108.32Z" fill="white"/>
<path d="M476.983 494.724L475.787 494.231L241.178 397.061L176.218 114.256L175.448 115.429L24.0157 346.651L-225.777 331.592L-84.0426 572.892L-173.458 846.399L66.3432 763.133L260.873 947.226L267.35 654.461L476.983 494.724ZM175.673 117.495L240.151 398.184L240.458 398.309L474.177 495.117L266.097 653.65L266.097 654.037L259.689 944.218L66.6125 761.51L66.2993 761.622L-171.385 844.152L-82.6394 572.692L-82.821 572.38L-223.316 333.209L24.6045 348.148L24.805 347.842L175.673 117.495Z" fill="white"/>
<path d="M469.002 496.095L467.805 495.621L238.014 400.472L174.338 123.471L25.2862 351.141L-219.383 336.451L-218.675 337.65L-80.5233 572.778L-168.066 840.718L-166.876 840.3L66.8119 759.087L257.389 939.367L257.42 937.907L263.685 652.599L469.002 496.095ZM173.799 126.66L236.993 401.577L237.3 401.708L466.245 496.482L262.463 651.807L256.199 936.416L67.0812 757.495L66.768 757.601L-166.03 838.49L-79.1451 572.584L-216.959 338.036L25.8813 352.614L26.0755 352.315L173.799 126.66Z" fill="white"/>
<path d="M461.025 497.496L234.848 403.889L172.463 132.697L26.5621 355.638L-213.008 341.285L-77.0047 572.662L-162.675 835.005L-161.503 834.599L67.2797 755.052L253.904 931.52L260.018 650.743L461.025 497.496ZM171.93 135.861L233.846 405.006L234.147 405.131L458.313 497.845L258.822 649.969L258.822 650.337L252.764 928.618L67.549 753.479L67.2421 753.592L-160.67 832.845L-75.6454 572.475L-75.8271 572.169L-210.615 342.863L27.1321 357.085L27.3263 356.792L171.93 135.861Z" fill="white"/>
<path d="M453.052 498.835L451.918 498.367L231.686 407.312L170.584 141.918L169.851 143.035L27.8347 360.134L-206.617 346.162L-73.477 572.547L-157.28 829.304L67.7567 751.005L250.435 923.666L250.466 922.256L256.354 648.887L453.052 498.835ZM170.064 145.001L230.702 408.379L230.997 408.504L450.383 499.209L255.183 648.119L255.183 648.512L249.301 920.84L68.0135 749.464L67.7128 749.57L-155.294 827.17L-72.174 572.379L-72.3494 572.079L-204.274 347.722L28.3984 361.588L28.5926 361.301L170.064 145.001Z" fill="white"/>
<path d="M445.07 500.21L443.955 499.749L228.509 410.754L168.711 151.15L167.99 152.249L29.1121 364.636L-200.234 351.026L-199.564 352.168L-69.957 572.456L-151.887 823.635L68.226 746.971L246.932 915.819L252.695 647.03L445.07 500.21ZM168.191 154.171L227.551 411.783L227.839 411.902L442.452 500.579L251.543 646.281L251.543 646.643L245.83 913.023L68.4828 745.454L68.1884 745.56L-149.951 821.513L-68.6477 572.25L-197.929 352.524L29.6633 366.034L29.8512 365.747L168.191 154.171Z" fill="white"/>
<path d="M437.11 501.575L436.013 501.125L225.378 414.152L166.833 160.365L30.3849 369.121L-193.875 355.873L-193.217 356.99L-66.4353 572.317L-146.492 817.916L68.697 742.924L243.469 907.966L249.057 645.174L437.11 501.575ZM166.344 163.342L224.407 415.182L224.695 415.3L434.548 501.937L247.929 644.431L247.929 644.768L242.392 905.195L68.9475 741.439L68.6594 741.539L-144.594 815.85L-65.1511 572.136L-65.3202 571.848L-191.582 357.351L30.9299 370.5L31.1178 370.219L166.344 163.342Z" fill="white"/>
<path d="M429.121 502.95L222.194 417.568L164.958 169.584L164.262 170.645L31.6607 373.622L-187.438 360.729L-186.811 361.828L-62.9169 572.206L-141.082 812.221L-139.986 811.84L69.1647 738.889L239.966 900.118L245.372 643.316L429.121 502.95ZM164.463 172.511L221.261 418.585L221.543 418.697L426.59 503.305L244.263 642.593L238.894 897.416L69.3965 737.429L-139.203 810.193L-61.6515 572.032L-61.8206 571.745L-185.226 362.177L32.2057 374.976L32.3874 374.702L164.463 172.511Z" fill="white"/>
<path d="M421.143 504.315L219.033 420.987L163.081 178.807L32.9415 378.115L-181.07 365.584L-180.444 366.663L-59.3936 572.093L-135.705 806.529L-134.627 806.148L69.6374 734.844L236.486 892.266L241.716 641.462L421.143 504.315ZM162.599 181.684L218.119 421.985L218.395 422.097L418.663 504.671L240.626 640.744L240.626 641.088L235.44 889.614L69.8817 733.384L69.6061 733.484L-133.869 804.525L-58.147 571.918L-178.884 367.006L33.4739 379.444L33.6493 379.175L162.599 181.684Z" fill="white"/>
<path d="M413.166 505.688L412.126 505.263L215.867 424.406L161.205 188.029L34.2102 382.613L-174.684 370.438L-174.057 371.499L-55.8885 571.974L-130.314 800.83L-129.262 800.462L70.1106 730.806L233 884.403L238.055 639.583L413.166 505.688ZM160.717 190.85L214.959 425.385L215.228 425.491L410.729 506.031L236.984 638.903L231.972 881.813L70.3549 729.396L70.0855 729.496L-128.516 798.908L-54.6356 571.805L-54.7985 571.531L-172.522 371.836L34.7301 383.917L34.8993 383.655L160.717 190.85Z" fill="white"/>
<path d="M405.195 507.062L404.174 506.637L212.707 427.827L159.33 197.254L35.4917 387.107L-168.297 375.294L-167.67 376.33L-52.3457 571.863L-124.917 795.165L70.584 726.77L229.52 876.572L234.394 637.749L405.195 507.062ZM158.866 200.031L211.824 428.788L212.087 428.894L402.802 507.399L233.348 637.063L233.348 637.388L228.512 874.013L70.8158 725.384L70.5464 725.478L-123.15 793.218L-51.1492 571.682L-51.3121 571.413L-166.192 376.648L35.9991 388.374L36.1682 388.112L158.866 200.031Z" fill="white"/>
<path d="M397.211 508.428L209.541 431.246L157.454 206.477L36.7604 391.6L-161.91 380.174L-48.828 571.756L-119.526 789.436L71.0509 722.725L226.028 868.752L230.733 635.92L397.211 508.428ZM156.996 209.185L208.676 432.182L394.869 508.758L229.699 635.215L225.039 866.212L71.2764 721.371L71.0133 721.458L-117.797 787.557L-47.6378 571.581L-159.843 381.49L37.2616 392.854L37.4245 392.598L156.996 209.185Z" fill="white"/>
<path d="M389.24 509.8L206.381 434.659L155.578 215.693L154.951 216.661L38.0417 396.099L-155.523 385.003L-45.3041 571.63L-114.142 783.744L71.5241 718.687L222.549 860.87L227.078 634.029L389.24 509.8ZM155.133 218.371L205.535 435.601L386.941 510.125L226.063 633.374L226.063 633.686L221.584 858.411L71.7558 717.376L71.499 717.47L-112.432 781.896L-44.1515 571.468L-44.3081 571.212L-153.494 386.32L38.5303 397.328L38.6932 397.079L155.133 218.371Z" fill="white"/>
<path d="M381.264 511.168L380.299 510.775L203.215 438.08L153.728 224.918L153.101 225.867L39.3363 400.599L-149.117 389.866L-41.7669 571.526L-108.719 778.085L71.998 714.663L219.064 853.02L223.411 632.177L381.264 511.168ZM153.245 227.527L202.388 438.985L379.04 511.492L222.434 631.528L222.434 631.84L218.13 850.612L72.2298 713.321L71.9792 713.415L-107.078 776.238L-40.6769 571.357L-40.8272 571.108L-147.15 391.151L39.7936 401.798L39.9564 401.554L153.245 227.527Z" fill="white"/>
<path d="M373.283 512.54L372.344 512.153L200.077 441.498L151.824 234.147L151.197 235.076L40.5832 405.091L-142.746 394.714L-38.2585 571.406L-103.344 772.349L-102.386 772.018L72.4682 710.606L215.581 845.169L219.741 630.316L373.283 512.54ZM151.404 236.711L199.238 442.384L371.078 512.852L218.782 629.686L218.782 629.991L214.648 842.791L72.6812 709.326L72.4306 709.414L-101.715 770.57L-37.156 571.25L-37.3064 571L-140.804 395.974L41.0593 406.271L41.2159 406.028L151.404 236.711Z" fill="white"/>
<path d="M365.31 513.907L196.89 444.918L149.952 243.352L41.8686 409.572L-136.356 399.588L-135.804 400.53L-34.7369 571.288L-97.9495 766.658L-97.0098 766.327L72.9392 706.55L212.099 837.319L216.096 628.463L365.31 513.907ZM149.539 245.86L196.094 445.786L363.149 514.219L215.144 627.845L215.144 628.138L211.185 835.01L73.1584 705.302L72.9142 705.383L-96.3521 764.904L-33.6595 571.132L-134.451 400.798L42.3259 410.752L42.4825 410.515L149.539 245.86Z" fill="white"/>
<path d="M357.335 515.28L193.726 448.339L148.072 252.588L43.1396 414.079L-129.973 404.425L-31.2169 571.176L-92.5564 760.961L-91.6418 760.636L73.4146 702.525L208.616 829.487L212.437 626.623L357.335 515.28ZM147.702 255.034L192.949 449.187L193.181 449.281L355.218 515.592L211.504 625.998L207.745 827.21L73.6151 701.302L73.377 701.383L-90.9653 759.257L-30.1583 571.026L-30.3024 570.789L-128.106 405.635L43.5906 415.208L43.7409 414.977L147.702 255.034Z" fill="white"/>
<path d="M349.352 516.647L190.56 451.752L146.196 261.805L145.632 262.678L44.4148 418.578L-123.586 409.279L-27.6992 571.064L-87.1657 755.263L73.8817 698.475L205.13 821.618L205.13 820.526L208.77 624.75L349.352 516.647ZM145.82 264.201L189.802 452.563L190.027 452.657L347.26 516.934L207.836 624.176L207.836 624.457L204.228 819.428L74.0822 697.283L73.8442 697.371L-85.6372 753.597L-26.6656 570.914L-26.8034 570.683L-121.763 410.459L44.8658 419.682L45.0161 419.458L145.82 264.201Z" fill="white"/>
<path d="M341.38 518.018L340.515 517.663L187.398 455.171L144.325 271.027L45.6947 423.07L-117.176 414.133L-116.656 415.013L-24.1705 570.95L-81.764 749.57L74.3536 694.442L201.649 813.772L205.114 622.889L341.38 518.018ZM143.943 273.368L186.653 455.988L186.878 456.076L339.388 518.312L204.224 622.302L200.785 811.6L74.5478 693.269L74.3223 693.35L-80.2794 747.941L-23.162 570.8L-23.2998 570.575L-115.397 415.288L46.1394 424.149L46.2835 423.931L143.943 273.368Z" fill="white"/>
<path d="M333.397 519.385L332.558 519.041L184.233 458.59L142.445 280.25L46.965 427.562L-110.813 418.988L-20.6513 570.831L-76.3718 743.873L74.822 690.398L198.165 805.922L201.454 621.054L333.397 519.385ZM142.062 282.54L183.507 459.383L331.424 519.672L200.583 620.468L200.583 620.736L197.326 803.812L75.035 689.256L74.8158 689.337L-74.8996 742.281L-19.649 570.669L-19.7805 570.444L-109.065 420.111L47.3847 428.617L142.062 282.54Z" fill="white"/>
<path d="M325.425 520.758L324.604 520.421L181.071 462.011L140.573 289.475L48.2442 432.063L-104.422 423.857L-103.921 424.699L-17.1295 570.726L-71.0021 738.182L75.2744 686.386L194.684 798.072L197.816 619.183L325.425 520.758ZM140.185 291.709L180.364 462.785L180.577 462.872L323.495 521.039L196.958 618.628L193.876 796.006L75.4812 685.244L75.2619 685.319L-69.5613 736.622L-16.1648 570.576L-16.2964 570.358L-102.743 424.955L48.6326 433.068L48.7641 432.855L140.185 291.709Z" fill="white"/>
<path d="M317.464 522.125L177.909 465.424L138.695 298.697L49.5168 436.555L-98.0313 428.699L-13.608 570.607L-65.6013 732.478L-64.7869 732.191L75.7702 682.317L191.195 790.221L191.195 789.223L194.133 617.31L317.464 522.125ZM138.338 300.881L177.22 466.185L177.426 466.272L315.584 522.405L193.3 616.78L193.3 617.042L190.393 788.212L75.9456 681.231L75.7389 681.306L-64.1981 730.962L-12.6621 570.463L-12.7874 570.251L-96.3712 429.772L49.924 437.585L50.0555 437.373L138.338 300.881Z" fill="white"/>
<path d="M309.47 523.497L174.745 468.843L136.821 307.914L50.7942 441.054L-91.6485 433.566L-10.088 570.506L-60.202 726.805L-59.3939 726.518L76.2396 678.279L187.743 782.37L190.474 615.438L309.47 523.497ZM136.47 310.073L174.056 469.611L174.263 469.698L307.635 523.765L189.673 614.938L186.935 780.411L76.415 677.218L76.2083 677.293L-58.8426 725.307L-9.16715 570.363L-9.29243 570.151L-90.026 434.602L51.1889 442.034L136.47 310.073Z" fill="white"/>
<path d="M301.493 524.865L171.579 472.264L134.939 317.145L134.451 317.9L52.0632 445.548L-85.2617 438.409L-6.56395 570.376L-54.7987 721.09L-54.0282 720.815L76.7067 674.242L184.226 774.521L186.807 613.604L301.493 524.865ZM134.601 319.216L170.934 472.988L171.134 473.069L299.702 525.133L186.018 613.123L186.018 613.373L183.462 772.642L76.8759 673.2L76.6754 673.275L-53.4832 719.654L-5.66817 570.258L-5.79345 570.052L-83.6769 439.458L52.4829 446.503L52.6082 446.31L134.601 319.216Z" fill="white"/>
<path d="M293.519 526.237L292.774 525.938L168.416 475.683L133.067 326.361L53.342 450.066L-78.8711 443.264L-3.04242 570.264L-49.3978 715.392L-48.6461 715.123L77.19 670.192L180.744 766.67L180.744 765.746L183.15 611.744L293.519 526.237ZM132.735 328.377L167.777 476.388L167.971 476.469L291.778 526.493L182.379 611.251L179.992 764.81L77.3466 669.187L-48.1262 713.981L-2.17169 570.133L-2.29071 569.933L-77.3301 444.256L53.7367 450.977L53.862 450.784L132.735 328.377Z" fill="white"/>
<path d="M285.514 527.61L165.24 479.103L131.175 335.572L54.6196 454.541L-72.4883 448.119L-72.0436 448.862L0.490165 570.145L-43.986 709.67L-43.2531 709.407L77.6532 666.161L177.255 758.819L179.491 609.891L285.514 527.61ZM130.868 337.557L164.614 479.789L164.801 479.864L283.822 527.86L178.739 609.404L178.739 609.641L176.516 757.01L77.8098 665.175L77.6218 665.244L-42.7645 708.303L1.32957 570.02L1.21055 569.827L-70.9849 449.086L54.9892 455.445L55.1082 455.258L130.868 337.557Z" fill="white"/>
<path d="M277.565 528.977L276.857 528.696L162.109 482.517L129.315 344.809L55.8922 459.009L-66.0977 452.975L-65.6654 453.692L3.99924 570.033L-38.5976 704.004L-37.8835 703.748L78.124 662.118L173.779 750.969L175.834 608.063L277.565 528.977ZM129.002 346.756L161.482 483.191L161.67 483.266L275.911 529.227L175.101 607.563L173.065 749.222L78.2806 661.157L78.0927 661.225L-37.4011 702.662L4.82612 569.883L4.71336 569.696L-64.6569 453.917L56.243 459.914L56.3621 459.733L129.002 346.756Z" fill="white"/>
<path d="M269.592 530.352L268.903 530.071L158.928 485.938L127.437 354.027L57.1712 463.529L-59.707 457.837L-59.2936 458.53L7.52079 569.922L-33.1968 698.307L-32.5015 698.058L78.6262 658.081L170.297 743.126L172.176 606.179L269.592 530.352ZM127.137 355.893L158.351 486.593L158.533 486.662L267.975 530.57L171.462 605.718L171.462 605.942L169.583 741.41L78.7515 657.164L78.5761 657.233L-32.0442 697.003L8.32888 569.798L-58.2851 458.717L57.4969 464.421L57.6097 464.246L127.137 355.893Z" fill="white"/>
<path d="M261.611 531.717L260.94 531.449L155.764 489.382L125.564 363.25L58.4424 468.027L-53.3242 462.692L11.0471 569.803L-27.8288 692.609L-27.1523 692.366L79.0705 654.037L166.814 735.256L166.814 734.445L168.505 604.319L261.611 531.717ZM125.269 365.097L155.219 490.006L155.388 490.081L260.051 531.955L167.822 603.876L166.137 733.609L79.2146 653.107L79.0392 653.169L-26.6825 691.317L11.8239 569.684L11.7174 569.51L-51.9399 463.572L58.7807 468.857L58.8934 468.689L125.269 365.097Z" fill="white"/>
<path d="M253.637 533.065L253.011 532.803L152.601 492.776L123.686 372.473L123.278 373.097L59.7214 472.532L-46.9336 467.54L14.5687 569.684L-22.4342 686.917L-21.7764 686.68L79.5414 649.999L163.326 727.424L164.854 602.459L253.637 533.065ZM123.404 374.232L152.05 493.388L152.213 493.457L252.121 533.321L164.178 602.034L164.178 602.24L162.674 725.801L79.6792 649.137L79.5101 649.2L-21.3442 685.706L15.3267 569.571L15.2202 569.403L-45.5931 468.401L60.0471 473.331L123.404 374.232Z" fill="white"/>
<path d="M245.654 534.455L245.028 534.206L149.435 496.195L121.81 381.695L121.409 382.319L60.9966 477.018L-40.5469 472.4L18.0865 569.577L-17.0497 681.218L-16.4232 680.988L80.0086 645.954L159.84 719.591L161.187 600.604L245.654 534.455ZM121.541 383.399L148.897 496.788L149.059 496.857L244.17 534.68L160.517 600.205L159.182 718.025L80.1464 645.099L79.9836 645.161L-15.9659 680.027L18.8194 569.458L18.7192 569.296L-39.2439 473.224L61.3098 477.798L61.4163 477.636L121.541 383.399Z" fill="white"/>
<path d="M237.683 535.828L237.057 535.585L146.275 499.608L119.965 390.912L62.3343 481.511L-34.1602 477.255L21.5916 569.458L-11.6653 675.546L-11.0389 675.315L80.4881 641.916L156.361 711.722L157.532 598.769L237.683 535.828ZM119.677 392.572L145.755 500.189L145.912 500.251L236.261 536.046L156.899 598.345L156.899 598.538L155.74 710.205L80.6134 641.086L-10.6066 674.366L22.3245 569.346L22.2243 569.19L-32.9011 478.079L62.5786 482.297L62.6788 482.135L119.677 392.572Z" fill="white"/>
<path d="M229.706 537.196L229.08 536.965L143.109 503.029L118.058 400.143L63.5593 486.011L-27.7735 482.111L25.1281 569.346L-6.2558 669.818L-5.62938 669.6L80.9551 637.904L152.875 703.872L153.871 596.892L229.706 537.196ZM117.808 401.74L142.608 503.591L142.758 503.653L228.328 537.433L153.257 596.505L153.257 596.692L152.274 702.406L81.0804 637.074L80.9238 637.13L-5.24726 668.707L25.8172 569.259L25.7232 569.103L-26.5519 482.885L63.8475 486.741L63.9415 486.592L117.808 401.74Z" fill="white"/>
<path d="M221.726 538.568L221.156 538.343L139.947 506.448L116.18 409.359L64.8132 490.485L-21.3828 486.966L28.681 569.259L-0.861187 664.114L81.4259 633.835L149.393 696.021L150.207 595.032L221.726 538.568ZM115.942 410.907L139.464 507.01L139.608 507.066L220.417 538.793L149.631 594.676L149.631 594.863L148.81 694.604L81.545 633.061L0.109772 663.046L29.3074 569.128L-20.1801 487.708L65.1389 491.209L65.2329 491.066L115.942 410.907Z" fill="white"/>
<path d="M213.752 539.93L213.201 539.717L136.777 509.863L114.307 418.584L113.956 419.133L66.0971 494.998L-15 491.822L-14.6617 492.377L32.1761 569.135L4.5319 658.436L81.9269 629.792L145.91 688.178L146.536 593.173L213.752 539.93ZM114.075 420.113L136.313 510.394L212.468 540.142L145.979 592.818L145.979 592.974L145.352 686.786L82.0208 629.031L81.8767 629.081L5.45275 657.369L32.8151 569.016L32.7274 568.873L-13.8537 492.54L66.379 495.66L114.075 420.113Z" fill="white"/>
<path d="M205.778 541.303L133.62 513.283L112.428 427.789L67.3695 499.498L-8.60938 496.678L-8.28364 497.214L35.6975 568.98L9.92648 652.72L82.3723 625.755L142.428 680.341L142.891 591.333L205.778 541.303ZM112.209 429.249L133.169 513.795L133.307 513.845L204.537 541.509L142.34 590.971L141.883 679.005L82.4788 625.031L10.8285 651.728L36.3177 568.905L-7.53193 497.37L67.6389 500.153L67.7266 500.016L112.209 429.249Z" fill="white"/>
<path d="M197.816 542.676L130.456 516.703L110.555 437.031L68.6471 503.991L-2.22659 501.533L-1.90712 502.051L39.2176 568.892L15.3257 647.047L15.8394 646.854L82.8669 621.711L138.932 672.471L139.22 589.473L197.816 542.676ZM110.342 438.417L130.024 517.196L130.156 517.246L196.607 542.876L138.7 589.13L138.7 589.292L138.412 671.204L82.9483 621.019L82.8105 621.068L16.1902 646.068L39.8127 568.792L39.7313 568.661L-1.16168 502.194L68.9102 504.628L68.9916 504.491L110.342 438.417Z" fill="white"/>
<path d="M189.823 544.042L189.328 543.855L127.312 520.141L108.676 446.248L69.9191 508.484L4.14451 506.394L4.45146 506.88L42.7197 568.773L20.7009 641.356L83.2932 617.673L135.443 664.626L135.55 587.601L189.823 544.042ZM108.476 447.571L126.88 520.584L127.005 520.634L188.677 544.223L135.061 587.282L135.061 587.438L134.948 663.397L83.4122 616.999L83.287 617.049L21.5465 640.401L43.3148 568.679L43.2334 568.548L5.19064 507.024L70.1759 509.096L70.2574 508.965L108.476 447.571Z" fill="white"/>
<path d="M181.84 545.414L124.128 523.542L106.795 455.471L106.506 455.945L71.1949 512.983L10.5508 511.223L46.257 568.635L26.1112 635.657L26.5873 635.476L83.7861 613.635L131.977 656.775L131.908 585.746L181.84 545.414ZM106.613 456.756L123.727 523.997L123.852 524.041L180.744 545.602L131.413 585.441L131.413 585.597L131.482 655.608L83.8738 612.992L83.7485 613.036L26.9005 634.746L46.8458 568.566L11.5343 511.847L71.4392 513.557L71.5144 513.438L106.613 456.756Z" fill="white"/>
<path d="M173.865 546.795L173.408 546.626L120.964 526.963L104.921 464.695L104.639 465.151L72.4661 517.465L16.9336 516.092L49.7832 568.512L31.5042 629.924L84.2553 609.555L128.493 648.87L128.493 648.308L128.28 583.888L173.865 546.795ZM104.746 465.925L120.582 527.399L120.701 527.443L172.813 546.969L127.773 583.613L127.773 583.757L128.017 647.822L84.343 608.987L84.224 609.037L32.2621 629.1L50.3094 568.468L17.8795 516.672L72.7041 518.032L72.7793 517.914L104.746 465.925Z" fill="white"/>
<path d="M165.867 548.155L117.801 530.375L103.043 473.918L102.78 474.355L73.745 521.976L23.3242 520.959L53.3048 568.436L36.8988 624.27L84.7262 605.548L125.011 641.069L125.011 640.532L124.598 582.028L165.867 548.155ZM102.88 475.097L117.438 530.794L117.551 530.837L164.883 548.311L124.166 581.735L124.166 581.872L124.585 639.983L84.8076 604.962L37.6254 623.427L53.8122 568.343L53.737 568.23L24.2325 521.508L73.9768 522.506L102.88 475.097Z" fill="white"/>
<path d="M157.912 549.52L114.639 533.794L101.164 483.141L100.914 483.559L75.0361 526.468L29.7266 525.813L29.9897 526.225L56.8446 568.323L42.2927 618.558L85.203 601.497L121.536 633.211L120.909 580.167L157.912 549.52ZM101.014 484.264L114.294 534.188L114.401 534.225L156.954 549.695L120.496 579.911L120.496 580.049L121.085 632.206L85.2782 600.948L85.1717 600.992L42.9818 617.766L57.3082 568.229L57.2393 568.123L30.5597 526.331L75.224 526.955L75.2866 526.843L101.014 484.264Z" fill="white"/>
</g>
</g>
<defs>
<clipPath id="clip0_329_2">
<rect width="512.766" height="504.773" fill="white" transform="matrix(-0.5 0.866025 0.866025 0.5 256.383 0)"/>
</clipPath>
</defs>
</svg>
