<svg width="1149" height="380" viewBox="0 0 1149 380" fill="none" xmlns="http://www.w3.org/2000/svg">
<g clip-path="url(#clip0_131_204)">
<g clip-path="url(#clip1_131_204)">
<path d="M217.832 1470.6L238.565 629.414L-397.758 36.1718L-395.139 35.7425L356.858 -89.4447L600.645 -855.638L602.198 -852.949L1046.29 -92.0579L1833.3 27.6443L1831.64 29.7299L1354.1 625.151L1596.69 1465.33L854.892 1071.05L217.832 1470.6ZM241.319 628.361L241.281 629.101L220.669 1465.16L854.443 1067.7L855.119 1068.06L1592.39 1459.95L1351.07 624.13L1351.49 623.605L1827.79 29.7239L1044.87 -89.3639L1044.47 -90.0578L601.53 -848.979L359.011 -86.7582L358.352 -86.6576L-391.683 38.1786L241.319 628.361Z" fill="white"/>
<path d="M226.257 1452.14L241.193 626.778L-379.449 40.9965L-376.884 40.5482L358.596 -87.8737L602.722 -836.437L604.224 -833.834L1043.89 -90.6957L1815.41 32.4455L1813.8 34.4947L1350.07 622.185L1582.77 1446.85L1580.24 1445.53L853.943 1065.59L226.257 1452.14ZM243.909 625.747L243.892 626.474L229.039 1446.86L853.521 1062.33L854.176 1062.67L1578.59 1441.61L1347.09 621.184L1347.5 620.653L1810.07 34.4899L1042.51 -88.0482L1042.12 -88.7258L603.583 -829.928L360.716 -85.2187L360.061 -85.1127L-373.519 42.9869L243.909 625.747Z" fill="white"/>
<path d="M234.676 1433.69L234.711 1430.9L243.809 624.134L-361.142 45.8152L-358.653 45.3603L360.321 -86.325L604.781 -817.254L1041.52 -89.35L1797.57 37.2261L1796.01 39.2305L1346.04 619.22L1568.82 1428.4L1566.35 1427.13L853.022 1060.18L234.676 1433.69ZM246.499 623.119L246.492 623.84L237.405 1428.54L852.596 1056.94L853.245 1057.28L1564.76 1423.26L1343.1 618.247L1343.52 617.721L1792.33 39.1976L1040.14 -86.7333L1039.76 -87.3894L605.63 -810.917L362.423 -83.7161L-355.361 47.7477L246.499 623.119Z" fill="white"/>
<path d="M243.101 1415.24L243.113 1412.53L246.445 621.486L-342.834 50.6399L362.029 -84.7579L606.845 -798.074L608.326 -795.645L1039.15 -88.0036L1779.72 42.0021L1778.22 43.9693L1342.01 616.257L1554.91 1409.91L1552.51 1408.69L852.091 1054.75L243.101 1415.24ZM249.088 620.491L249.092 621.206L245.772 1410.24L851.665 1051.55L852.309 1051.9L1550.93 1404.91L1339.1 615.279L1339.49 614.769L1774.59 43.9362L1037.78 -85.4124L1037.41 -86.0525L607.676 -791.892L364.126 -82.1683L363.486 -82.0354L-337.209 52.5623L249.088 620.491Z" fill="white"/>
<path d="M251.525 1396.8L251.519 1394.15L249.08 618.861L-324.517 55.4752L-322.181 55.0016L363.785 -83.2189L608.911 -778.894L1036.79 -86.6658L1761.88 46.7773L1760.44 48.6995L1337.99 613.312L1540.99 1391.44L1538.65 1390.27L851.162 1049.33L251.525 1396.8ZM251.662 617.872L254.106 1391.91L850.725 1046.17L851.33 1046.48L1537.1 1386.56L1335.12 612.332L1335.49 611.831L1756.87 48.677L1035.41 -84.0907L1035.05 -84.7145L609.719 -772.864L365.818 -80.6782L365.214 -80.5587L-319.034 57.3003L251.662 617.872Z" fill="white"/>
<path d="M259.973 1378.33L251.697 616.203L-306.218 60.2777L-303.958 59.7975L365.513 -81.6704L610.948 -759.69L1034.36 -85.2861L1744.01 51.5712L1333.95 610.332L1527.06 1372.95L1524.78 1371.84L850.238 1043.87L259.973 1378.33ZM254.269 615.234L254.273 615.899L262.479 1373.57L849.812 1040.78L850.402 1041.07L1523.28 1368.22L1331.14 609.379L1331.5 608.893L1739.13 53.4094L1033.05 -82.7821L1032.7 -83.3845L611.781 -753.84L367.513 -79.1612L366.926 -79.037L-300.87 62.0802L254.269 615.234Z" fill="white"/>
<path d="M268.383 1359.92L254.318 613.563L-287.921 65.1003L367.241 -80.11L613.035 -740.526L1032.01 -83.9295L1726.15 56.3784L1329.93 607.382L1513.13 1354.5L1510.91 1353.44L849.263 1038.47L268.383 1359.92ZM256.85 612.61L256.864 613.254L270.835 1355.24L848.883 1035.39L1509.44 1349.87L1327.13 606.428L1721.4 58.1483L1030.68 -81.4632L1030.34 -82.044L613.814 -734.808L369.208 -77.6461L368.643 -77.5205L-282.71 66.8388L256.85 612.61Z" fill="white"/>
<path d="M276.795 1341.44L276.725 1339.02L256.961 610.913L-269.596 69.9108L368.975 -78.5631L615.099 -721.35L1029.62 -82.5978L1708.29 61.1451L1707.02 62.9426L1325.87 604.415L1499.2 1336.02L1497.05 1335.02L848.356 1033.02L276.795 1341.44ZM259.454 610.004L259.469 610.626L279.205 1336.94L847.96 1030L848.518 1030.26L1495.61 1331.52L1323.15 603.482L1323.47 603.014L1703.66 62.8876L1028.31 -80.147L1028 -80.6848L615.875 -715.761L370.949 -76.1247L370.406 -75.9977L-264.534 71.6277L259.454 610.004Z" fill="white"/>
<path d="M285.219 1323L285.136 1320.66L259.571 608.281L-251.297 74.7418L-249.263 74.2418L370.701 -77.0139L617.165 -702.17L1027.25 -81.2545L1690.45 65.9204L1321.86 601.442L1485.28 1317.55L847.421 1027.59L285.219 1323ZM262.032 607.355L287.557 1318.59L847.009 1024.63L1481.76 1313.18L1319.16 600.524L1319.46 600.075L1685.93 67.6262L1025.95 -78.8314L1025.61 -79.3506L617.903 -696.745L372.618 -74.6136L372.088 -74.4874L-246.366 76.4051L262.032 607.355Z" fill="white"/>
<path d="M293.64 1304.55L293.533 1302.28L262.194 605.638L-233.001 79.5575L-231.04 79.0563L372.405 -75.4758L619.204 -683.007L1024.82 -79.9029L1672.57 70.7138L1671.41 72.4301L1317.83 598.477L1471.33 1299.09L1469.31 1298.19L846.482 1022.16L293.64 1304.55ZM264.619 604.725L264.646 605.305L295.903 1300.29L846.064 1019.27L1467.91 1294.86L1315.17 597.582L1668.2 72.3636L1023.59 -77.501L1023.25 -78.0201L619.933 -677.684L374.314 -73.1002L373.807 -72.9724L-228.195 81.1783L264.619 604.725Z" fill="white"/>
<path d="M302.051 1286.11L264.82 602.997L-214.698 84.3792L-212.831 83.8892L374.156 -73.9118L621.283 -663.806L1022.45 -78.5349L1654.72 75.5007L1313.81 595.504L1457.43 1280.6L845.557 1016.72L302.051 1286.11ZM267.211 602.097L267.239 602.654L304.272 1281.94L845.174 1013.84L845.671 1014.05L1454.11 1276.47L1311.16 594.639L1311.44 594.213L1650.47 77.1014L1021.22 -76.1968L1020.9 -76.6753L621.967 -658.672L376.015 -71.586L-210.026 85.9552L267.211 602.097Z" fill="white"/>
<path d="M310.484 1267.66L267.452 600.366L-196.391 89.2125L-194.572 88.7003L375.885 -72.357L623.355 -644.637L624.612 -642.832L1020.05 -77.1698L1636.84 80.2956L1635.8 81.9212L1309.74 592.562L1443.5 1262.15L844.627 1011.3L310.484 1267.66ZM269.795 599.472L269.83 600.004L312.632 1263.61L844.241 1008.45L844.723 1008.65L1440.28 1258.12L1307.18 591.661L1307.45 591.251L1632.73 81.8433L1018.86 -74.8812L1018.54 -75.3349L624.012 -639.638L377.69 -70.0503L377.228 -69.9197L-191.879 90.7452L269.795 599.472Z" fill="white"/>
<path d="M318.903 1249.21L318.74 1247.15L270.069 597.715L-178.092 94.0217L377.615 -70.8101L625.409 -625.472L626.642 -623.746L1017.7 -75.8319L1619 85.0716L1618.01 86.6523L1305.74 589.581L1429.57 1243.68L1427.71 1242.94L843.683 1005.86L318.903 1249.21ZM272.383 596.845L272.419 597.355L320.988 1245.27L843.317 1003.07L1426.45 1239.76L1303.2 588.726L1303.44 588.333L1614.99 86.5828L1016.49 -73.5648L1016.18 -73.9971L626.03 -620.597L379.414 -68.5503L378.974 -68.4183L-173.681 95.5048L272.383 596.845Z" fill="white"/>
<path d="M327.328 1230.77L327.159 1228.8L272.696 595.073L-159.8 98.8492L379.346 -69.2565L627.482 -606.283L628.685 -604.633L1015.3 -74.4934L1601.13 89.8452L1301.68 586.627L1415.61 1225.21L1413.84 1224.51L842.749 1000.43L327.328 1230.77ZM274.975 594.216L275.018 594.7L329.35 1226.94L842.392 997.685L842.836 997.859L1412.62 1221.42L1299.21 585.779L1597.25 91.3233L1014.13 -72.2503L1013.83 -72.658L628.102 -601.571L381.115 -67.0366L380.703 -66.9063L-155.506 100.278L274.975 594.216Z" fill="white"/>
<path d="M335.743 1212.32L275.318 592.432L-141.491 103.666L-139.89 103.136L381.072 -67.7015L629.541 -587.107L630.714 -585.534L1012.93 -73.1214L1583.3 94.6398L1582.43 96.133L1297.66 583.668L1401.7 1206.75L841.797 995.009L335.743 1212.32ZM277.562 591.588L277.606 592.05L337.708 1208.62L841.458 992.286L841.879 992.444L1398.78 1203.05L1295.22 582.827L1295.43 582.461L1579.49 96.0808L1011.74 -70.9083L1011.45 -71.2999L630.144 -582.537L382.814 -65.5163L382.421 -65.3898L-137.332 105.058L277.562 591.588Z" fill="white"/>
<path d="M344.167 1193.88L277.944 589.792L-123.208 108.493L382.805 -66.1546L631.608 -567.935L1010.52 -71.7801L1565.42 99.4132L1293.65 580.694L1387.8 1188.28L1386.15 1187.68L840.884 989.565L344.167 1193.88ZM280.131 588.974L280.177 589.414L346.045 1190.29L840.504 986.909L840.91 987.054L1384.93 1184.71L1291.23 579.876L1291.43 579.525L1561.78 100.805L1009.37 -69.5972L632.19 -563.502L384.487 -63.9852L384.117 -63.8573L-119.189 109.844L280.131 588.974Z" fill="white"/>
<path d="M352.589 1175.44L280.568 587.15L-104.866 113.312L384.56 -64.5656L633.697 -548.726L634.811 -547.305L1008.17 -70.4328L1547.61 104.186L1289.62 577.727L1373.89 1169.83L1372.31 1169.31L839.947 984.132L352.589 1175.44ZM282.741 586.333L282.789 586.75L354.408 1171.97L839.603 981.512L839.981 981.645L1371.11 1166.35L1287.24 576.929L1287.42 576.595L1544.04 105.54L1007.04 -68.2869L1006.77 -68.6269L634.24 -544.458L386.215 -62.4808L385.869 -62.36L-100.986 114.608L282.741 586.333Z" fill="white"/>
<path d="M361.005 1157L283.198 584.52L-86.5897 118.12L-85.2062 117.587L386.257 -63.0503L635.724 -529.582L636.809 -528.237L1005.77 -69.0702L1529.74 108.987L1529.03 110.351L1285.59 574.769L1359.95 1151.35L1358.42 1150.84L839.012 978.705L361.005 1157ZM285.329 583.706L285.378 584.101L362.79 1153.62L838.692 976.115L839.052 976.23L1357.3 1147.99L1283.25 573.977L1283.42 573.659L1526.3 110.283L1004.68 -66.9877L1004.42 -67.3008L636.284 -525.41L387.94 -60.9811L387.611 -60.8557L-82.7901 119.376L285.329 583.706Z" fill="white"/>
<path d="M369.424 1138.55L369.207 1136.94L285.821 581.874L-68.2903 122.937L387.975 -61.5172L637.78 -510.432L1003.38 -67.7361L1511.88 113.755L1511.21 115.075L1281.54 571.787L1346.03 1132.86L1344.56 1132.4L838.083 973.269L369.424 1138.55ZM287.92 581.078L287.973 581.442L371.152 1135.29L837.747 970.738L838.078 970.841L1343.44 1129.64L1279.25 571.028L1508.56 115.024L1002.32 -65.6753L1002.08 -65.967L638.342 -506.404L389.649 -59.5003L389.348 -59.3766L-64.6036 124.121L287.92 581.078Z" fill="white"/>
<path d="M377.842 1120.11L377.589 1118.58L288.444 579.227L-49.9968 127.757L-48.7497 127.223L389.711 -59.9518L639.848 -491.247L1001.01 -66.3727L1494.04 118.542L1277.54 568.836L1332.11 1114.42L1330.71 1114L837.156 967.839L377.842 1120.11ZM290.532 578.437L290.586 578.779L379.537 1116.94L836.841 965.332L837.152 965.424L1329.6 1111.29L1275.27 568.082L1275.4 567.795L1490.82 119.769L999.932 -64.3473L999.704 -64.6174L640.366 -487.358L391.321 -57.9338L391.039 -57.814L-46.4571 128.947L290.532 578.437Z" fill="white"/>
<path d="M386.26 1101.67L385.997 1100.21L291.069 576.584L-31.6989 132.572L-30.521 132.043L391.441 -58.3989L641.91 -472.074L998.621 -65.019L1476.2 123.351L1475.64 124.581L1273.51 565.876L1318.21 1095.94L1316.87 1095.57L836.214 962.407L386.26 1101.67ZM293.1 575.82L293.153 576.134L387.878 1098.61L835.889 959.957L836.177 960.034L1315.77 1092.96L1271.28 565.128L1271.4 564.861L1473.08 124.509L997.57 -63.0282L997.358 -63.2715L642.391 -468.3L393.02 -56.4209L-28.2687 133.747L293.1 575.82Z" fill="white"/>
<path d="M394.674 1083.23L293.674 573.953L-13.4152 137.396L-12.2903 136.861L393.188 -56.8565L644.001 -452.918L644.955 -451.862L996.265 -63.6819L1458.36 128.093L1457.85 129.278L1269.48 562.91L1304.26 1077.5L1302.98 1077.17L835.278 956.98L394.674 1083.23ZM295.68 573.182L295.734 573.473L396.25 1080.3L834.973 954.59L835.236 954.66L1301.93 1074.58L1267.28 562.176L1267.39 561.927L1455.3 129.264L995.201 -61.7127L995.005 -61.9291L644.457 -449.273L394.719 -54.9007L394.498 -54.7734L-10.0882 138.515L295.68 573.182Z" fill="white"/>
<path d="M403.097 1064.79L402.812 1063.48L296.312 571.306L4.90255 142.232L5.93874 141.705L394.907 -55.2726L646.04 -433.735L646.961 -432.747L993.857 -62.3183L1440.49 132.891L1265.45 559.944L1290.35 1059.04L1289.13 1058.75L834.344 951.549L403.097 1064.79ZM298.275 570.56L298.327 570.824L404.605 1061.95L834.029 949.178L834.272 949.239L1288.07 1056.21L1263.29 559.247L1263.39 559.022L1437.59 133.991L992.82 -60.3785L992.635 -60.5734L646.513 -430.208L396.432 -53.3636L396.233 -53.2488L8.09923 143.312L298.275 570.56Z" fill="white"/>
<path d="M411.532 1046.38L411.228 1045.12L298.938 568.663L23.1902 147.04L24.1656 146.52L396.631 -53.7301L648.1 -414.553L991.477 -60.9449L1422.65 137.69L1422.23 138.778L1261.42 556.985L1276.43 1040.57L1275.28 1040.32L833.418 946.117L411.532 1046.38ZM300.879 567.966L300.932 568.194L412.969 1043.61L833.105 943.788L833.319 943.836L1274.24 1037.84L1259.31 556.271L1419.86 138.745L990.472 -59.0737L990.308 -59.2448L648.539 -411.2L398.128 -51.8696L397.945 -51.7641L26.2701 148.029L300.879 567.966Z" fill="white"/>
<path d="M419.923 1027.91L301.561 566.022L41.4801 151.846L398.354 -52.1942L650.158 -395.406L651.016 -394.553L989.088 -59.6166L1404.8 142.453L1257.39 554.018L1262.51 1022.12L1261.42 1021.9L832.479 940.685L419.923 1027.91ZM303.454 565.303L421.33 1025.27L832.175 938.394L832.364 938.436L1260.41 1019.5L1255.31 553.323L1255.38 553.14L1402.1 143.474L988.092 -57.7793L650.594 -392.144L399.817 -50.3428L399.661 -50.2528L44.4352 152.844L303.454 565.303Z" fill="white"/>
<path d="M428.345 1009.48L428.038 1008.39L304.179 563.386L59.7646 156.657L60.6139 156.167L400.078 -50.6438L652.236 -376.212L986.723 -58.2358L1386.97 147.263L1386.64 148.256L1253.37 551.059L1248.59 1003.66L831.545 935.259L428.345 1009.48ZM306.045 562.682L306.094 562.854L429.696 1006.93L831.243 933.01L831.408 933.036L1246.56 1001.12L1251.32 550.372L1251.37 550.219L1384.35 148.223L985.741 -56.4356L985.606 -56.5583L652.638 -373.095L401.519 -48.8438L401.385 -48.7663L62.6071 157.583L306.045 562.682Z" fill="white"/>
<path d="M436.762 991.048L306.827 560.732L78.074 161.453L78.8448 160.951L401.803 -49.1002L654.277 -357.075L655.068 -356.363L984.326 -56.9158L1369.11 152.017L1368.82 152.958L1249.35 548.094L1234.68 985.199L1233.7 985.046L830.613 929.831L436.762 991.048ZM80.8274 162.424L308.654 560.086L438.057 988.586L830.316 927.615L830.451 927.638L1232.72 982.76L1247.34 547.41L1247.38 547.28L1366.61 152.965L983.375 -55.1119L983.266 -55.2139L654.685 -354.048L403.231 -47.3079L403.124 -47.2459L80.8274 162.424Z" fill="white"/>
<path d="M445.177 972.615L444.864 971.663L309.425 558.106L96.333 166.278L403.528 -47.5514L656.337 -337.915L981.937 -55.5659L1351.26 156.768L1351.01 157.667L1245.31 545.134L1220.76 966.748L1219.86 966.652L829.68 924.404L445.177 972.615ZM98.9889 167.154L311.218 557.401L311.274 557.497L446.425 970.245L829.377 922.227L829.486 922.243L1218.87 964.399L1243.33 544.471L1243.36 544.366L1348.85 157.71L981.009 -53.7968L980.916 -53.8719L656.73 -335L404.935 -45.7967L404.844 -45.744L98.9889 167.154Z" fill="white"/>
<path d="M453.589 954.185L453.276 953.297L312.051 555.465L114.621 171.087L115.268 170.606L405.246 -46.0181L658.394 -318.75L659.111 -318.167L979.553 -54.2101L1333.42 161.571L1241.29 542.169L1206.85 948.291L1206.01 948.224L828.749 918.977L453.589 954.185ZM117.187 171.958L313.843 554.782L313.883 554.852L454.794 951.905L828.476 916.804L828.554 916.816L1205.05 946.003L1239.34 541.519L1239.36 541.442L1331.12 162.449L978.643 -52.4726L978.576 -52.527L658.78 -315.947L406.642 -44.2711L406.577 -44.2339L117.187 171.958Z" fill="white"/>
<path d="M462.003 935.753L461.693 934.942L314.651 552.781L132.908 175.924L407.015 -44.4797L660.462 -299.601L977.219 -52.8408L1315.59 166.346L1315.43 167.154L1237.27 539.267L1192.94 929.847L1192.19 929.819L827.858 913.575L462.003 935.753ZM135.377 176.737L316.393 552.112L463.159 933.558L827.526 911.436L827.564 911.414L1191.18 927.632L1235.33 538.587L1313.34 167.184L976.318 -51.1234L660.828 -296.894L408.375 -42.7834L135.377 176.737Z" fill="white"/>
<path d="M470.419 917.324L470.11 916.578L317.292 550.184L151.213 180.72L408.712 -42.916L662.517 -280.447L663.151 -279.981L974.807 -51.5154L1297.75 171.123L1297.62 171.865L1233.24 536.263L1179.02 911.386L826.879 908.121L470.419 917.324ZM153.567 181.52L318.988 549.521L471.515 915.214L826.612 906.045L1177.34 909.294L1231.35 535.633L1295.6 171.947L973.921 -49.8212L662.874 -277.842L410.08 -41.2536L153.567 181.52Z" fill="white"/>
<path d="M478.832 898.894L319.919 547.565L169.479 185.536L169.942 185.097L410.414 -41.3517L664.581 -261.286L665.16 -260.904L972.389 -50.211L1279.91 175.901L1279.81 176.588L1229.22 533.262L1165.13 892.95L1164.47 892.969L825.933 902.703L478.832 898.894ZM171.761 186.298L321.61 546.919L479.922 896.846L825.67 900.646L1163.5 890.922L1227.36 532.648L1277.85 176.692L971.532 -48.5045L664.921 -258.786L411.74 -39.7007L171.761 186.298Z" fill="white"/>
<path d="M487.237 880.474L322.504 544.86L187.763 190.36L188.169 189.946L412.15 -39.8167L412.193 -39.8416L666.652 -242.14L970.09 -48.799L1262.09 180.671L1262.02 181.303L1225.2 530.321L1225.18 530.372L1151.2 874.485L1150.61 874.532L825.023 897.283L824.985 897.305L487.237 880.474ZM324.198 544.269L488.262 878.513L824.744 895.249L1149.65 872.547L1223.35 529.716L1260.08 181.438L969.167 -47.1831L666.969 -239.727L413.458 -38.1841L189.95 191.083L324.198 544.269Z" fill="white"/>
<path d="M495.653 862.049L495.342 861.511L325.143 542.275L325.097 542.195L206.025 195.184L206.376 194.787L413.844 -38.2913L413.919 -38.3347L668.675 -223L669.182 -222.704L967.662 -47.4971L967.706 -47.4218L1244.24 185.451L1244.21 186.032L1221.18 527.359L1221.15 527.444L1137.3 856.038L1136.77 856.1L824.1 891.843L824.016 891.834L495.653 862.049ZM326.796 541.637L496.656 860.186L823.81 889.852L1135.78 854.193L1219.35 526.761L1242.34 186.185L966.801 -45.8598L669.018 -220.667L415.171 -36.6626L208.155 195.869L326.796 541.637Z" fill="white"/>
<path d="M327.756 539.642L327.688 539.524L224.318 199.983L224.615 199.617L415.57 -36.7129L415.672 -36.7718L670.738 -203.818L671.195 -203.573L965.255 -46.1276L965.358 -46.0364L1226.41 190.225L1217.12 524.523L1123.38 837.602L1122.91 837.677L823.131 886.445L823.008 886.43L504.059 843.629L503.783 843.151L327.756 539.642ZM226.347 200.654L329.4 539.001L505.016 841.822L822.878 884.454L1121.95 835.804L1215.35 523.808L1224.57 190.939L964.428 -44.5314L671.064 -201.604L416.875 -35.1357L226.347 200.654Z" fill="white"/>
<path d="M330.388 536.99L330.298 536.834L242.589 204.794L242.839 204.456L417.311 -35.1862L417.445 -35.2638L672.813 -184.694L673.223 -184.493L962.883 -44.8224L963.013 -44.6966L1208.58 195.006L1213.14 521.443L1213.09 521.596L1109.49 819.155L1109.08 819.24L822.225 881.016L822.065 880.987L512.488 825.196L512.245 824.777L330.388 536.99ZM244.547 205.442L331.989 536.374L513.381 823.454L821.957 879.063L1108.09 817.435L1211.36 520.857L1206.82 195.701L962.096 -43.2063L673.133 -182.563L418.612 -33.6283L244.547 205.442Z" fill="white"/>
<path d="M332.981 534.366L332.935 534.149L260.862 209.603L261.063 209.293L419.031 -33.6485L419.197 -33.7447L674.858 -165.575L675.22 -165.418L960.505 -43.493L1190.74 199.747L1190.76 200.152L1209.14 518.477L1209.07 518.662L1095.6 800.726L1095.26 800.824L821.293 875.602L821.088 875.556L520.874 806.787L520.636 806.437L332.981 534.366ZM262.755 210.224L334.595 533.736L521.738 805.105L821.017 873.646L1094.25 799.076L1207.36 517.888L1189.05 200.438L959.69 -41.8752L675.147 -163.497L420.277 -32.1235L262.755 210.224Z" fill="white"/>
<path d="M335.591 531.733L335.545 531.466L279.131 214.415L420.743 -32.1139L420.948 -32.2318L676.915 -146.398L677.225 -146.283L958.111 -42.1188L958.293 -41.9155L1172.93 204.544L1172.97 204.895L1205.12 515.52L1205.02 515.743L1081.68 782.273L820.362 870.187L820.122 870.118L529.281 788.373L529.058 788.086L335.591 531.733ZM280.957 215.009L337.2 531.105L530.128 786.736L820.089 868.237L1080.39 780.681L1203.34 514.939L1171.28 205.188L957.338 -40.5536L677.213 -144.405L422 -30.545L280.957 215.009Z" fill="white"/>
<path d="M338.195 529.097L297.395 219.216L297.517 218.98L422.458 -30.5792L422.716 -30.6781L678.982 -127.27L679.251 -127.189L955.76 -40.7971L1155.11 209.315L1155.15 209.604L1201.11 512.565L1200.97 512.815L1067.81 763.818L1067.57 763.918L819.431 864.781L819.144 864.681L537.689 769.959L537.497 769.725L338.195 529.097ZM299.162 219.794L339.807 528.475L538.514 768.371L819.169 862.824L1066.53 762.281L1199.33 511.987L1153.51 209.942L954.939 -39.204L679.26 -125.336L423.725 -29.0165L299.162 219.794Z" fill="white"/>
<path d="M340.799 526.468L340.769 526.105L315.665 224.033L315.751 223.834L424.177 -29.0554L424.489 -29.1491L681.058 -108.111L681.27 -108.054L953.391 -39.4656L953.61 -39.1615L1137.29 214.088L1197.1 509.607L1196.93 509.887L1053.88 745.402L1053.71 745.504L818.512 859.388L546.09 751.548L545.929 751.369L340.799 526.468ZM317.373 224.582L342.415 525.828L546.879 750.01L818.223 857.41L1052.66 743.9L1195.32 509.029L1135.75 214.686L952.578 -37.8702L681.311 -106.257L425.446 -27.4788L317.373 224.582Z" fill="white"/>
<path d="M343.401 523.84L343.39 523.424L333.92 228.84L333.98 228.684L425.889 -27.5264L683.1 -89.0034L683.26 -88.974L951.017 -38.1373L951.232 -37.7662L1119.46 218.858L1119.51 219.034L1193.1 506.646L1192.89 506.956L1039.96 726.98L1039.83 727.057L817.536 853.965L817.164 853.792L554.494 733.137L554.364 733.012L343.401 523.84ZM335.558 229.393L345.028 523.195L555.27 731.664L817.287 851.993L1038.81 725.533L1191.3 506.075L1117.97 219.448L950.204 -36.4919L683.345 -87.2015L427.164 -25.9391L335.558 229.393Z" fill="white"/>
<path d="M345.997 521.209L346.01 520.735L352.181 233.642L352.214 233.538L427.584 -25.995L428.003 -26.0646L685.172 -69.849L685.281 -69.8333L948.663 -36.792L948.911 -36.3618L1101.66 223.656L1101.72 223.758L1189.13 503.717L1188.87 504.05L1026.09 708.536L1026 708.589L816.633 848.563L816.222 848.348L562.889 714.731L562.801 714.652L345.997 521.209ZM353.807 234.174L347.648 520.556L563.639 713.273L816.352 846.574L1024.92 707.127L1187.29 503.127L1100.17 224.219L947.785 -35.1594L685.384 -68.0785L428.888 -24.3955L353.807 234.174Z" fill="white"/>
<path d="M348.591 518.577L348.632 518.051L370.436 238.447L370.452 238.388L429.286 -24.476L429.767 -24.5243L687.228 -50.7223L687.286 -50.7203L946.295 -35.4691L946.571 -34.9904L1083.87 228.411L1083.91 228.465L1185.15 500.753L1184.83 501.111L1012.22 690.098L1012.17 690.126L815.714 843.184L815.26 842.908L571.292 696.325L571.264 696.277L348.591 518.577ZM372.019 238.953L350.264 517.912L572.019 694.902L815.425 841.157L1011.08 688.756L1183.25 500.151L1082.41 228.96L945.445 -33.8381L687.477 -49.0236L430.619 -22.8504L372.019 238.953Z" fill="white"/>
<path d="M351.174 515.952L351.256 515.374L388.71 243.249L430.981 -22.9661L431.53 -22.9823L689.255 -31.6286L943.915 -34.1884L1066.02 233.157L1181.11 497.801L1180.72 498.169L998.302 671.689L814.787 837.796L814.286 837.461L579.7 677.933L351.174 515.952ZM432.352 -21.2983L390.248 243.753L352.894 515.268L580.406 676.536L814.478 835.708L997.215 670.315L1179.21 497.188L1064.63 233.708L943.042 -32.4726L689.508 -29.9245L432.352 -21.2983Z" fill="white"/>
<path d="M353.756 513.329L353.891 512.692L406.952 248.013L432.695 -21.4675L433.317 -21.4463L691.358 -12.5133L941.543 -32.9043L941.799 -32.2492L1048.23 237.943L1177.13 494.808L1176.64 495.205L984.353 653.268L813.866 832.419L813.33 832.012L588.055 659.5L353.756 513.329ZM434.087 -19.7398L408.472 248.497L355.527 512.622L588.751 658.123L813.558 830.26L983.308 651.943L1175.18 494.221L1046.89 238.507L940.674 -31.1192L691.609 -10.8369L434.087 -19.7398Z" fill="white"/>
<path d="M356.329 510.711L356.516 510.016L425.201 252.844L434.363 -19.9557L435.06 -19.8778L693.371 6.6039L939.197 -31.578L1030.42 242.689L1173.18 491.91L1172.63 492.294L970.548 634.859L812.939 827.054L596.485 641.131L356.329 510.711ZM435.837 -18.1605L426.708 253.344L426.679 253.432L358.174 509.983L597.176 639.771L812.629 824.803L969.45 633.528L969.509 633.494L1171.12 491.277L1029.06 243.26L1029.01 243.174L938.242 -29.7071L693.568 8.29744L693.484 8.28853L435.837 -18.1605Z" fill="white"/>
<path d="M358.885 508.138L359.159 507.37L443.43 257.657L436.046 -18.4542L695.425 25.7175L936.865 -30.3037L937.093 -29.4606L1012.65 247.449L1169.24 488.952L1168.59 489.325L956.677 616.421L812.015 821.692L811.398 821.095L604.879 622.738L358.885 508.138ZM437.579 -16.5931L444.918 258.11L444.87 258.238L360.813 507.319L605.56 621.384L811.659 819.338L955.578 615.126L1167.06 488.27L1011.27 247.993L1011.23 247.851L935.872 -28.361L695.688 27.3515L695.553 27.3289L437.579 -16.5931Z" fill="white"/>
<path d="M361.449 505.481L361.784 504.671L461.667 262.458L437.716 -16.9744L438.564 -16.7469L697.481 44.8226L934.494 -29.0077L994.818 252.213L1165.25 486.016L1164.51 486.389L942.773 598.015L811.099 816.348L613.271 604.354L361.449 505.481ZM439.357 -15.0251L463.148 262.937L463.075 263.108L363.472 504.664L613.946 603.004L614.083 603.154L810.725 813.875L941.694 596.717L941.85 596.627L1163 485.297L993.471 252.747L993.428 252.549L933.467 -26.9739L697.73 46.4713L697.547 46.4266L439.357 -15.0251Z" fill="white"/>
<path d="M363.993 502.873L479.903 267.254L439.377 -15.5013L440.34 -15.2112L699.534 63.9316L932.149 -27.7319L932.318 -26.6821L977.02 256.975L1161.32 483.083L928.919 579.591L810.178 811.014L809.482 810.183L621.658 585.96L363.993 502.873ZM441.099 -13.4122L481.4 267.723L481.295 267.927L366.143 502.004L622.347 584.608L622.509 584.802L809.791 808.384L927.81 578.317L927.998 578.208L1158.9 482.313L975.677 257.528L975.637 257.286L931.063 -25.5778L699.782 65.5664L699.556 65.4965L441.099 -13.4122Z" fill="white"/>
<path d="M366.525 500.271L367.066 499.334L498.157 272.046L441.033 -14.0698L701.594 83.0068L929.807 -26.5229L959.229 261.74L1157.39 480.15L1156.4 480.48L915.017 561.201L809.259 805.701L808.509 804.7L630.024 567.556L366.525 500.271ZM442.856 -11.7947L499.616 272.538L499.482 272.765L368.846 499.325L630.726 566.226L630.91 566.471L808.851 802.91L913.935 559.897L914.188 559.815L1154.83 479.344L957.885 262.279L957.851 261.997L928.648 -24.1613L701.833 84.6755L701.569 84.5773L442.856 -11.7947Z" fill="white"/>
<path d="M369.035 497.674L516.378 276.85L442.668 -12.5969L703.641 102.139L927.484 -25.225L927.533 -23.8982L941.437 266.497L1153.49 477.225L1152.35 477.519L901.14 542.796L808.341 800.408L638.448 549.182L369.035 497.674ZM444.671 -10.1824L517.883 277.322L517.71 277.58L371.532 496.662L639.11 547.847L807.893 797.361L900.059 541.483L900.352 541.407L1150.71 476.356L940.083 267.043L926.23 -22.7298L703.887 103.783L444.671 -10.1824Z" fill="white"/>
<path d="M371.532 495.099L372.35 494.032L534.605 281.643L444.288 -11.1804L705.688 121.229L925.172 -24.0266L923.644 271.256L1149.6 474.315L1148.31 474.553L887.266 524.389L807.439 795.135L646.824 530.808L371.532 495.099ZM446.477 -8.52947L536.13 282.125L535.916 282.399L374.257 493.985L647.512 529.443L647.711 529.787L806.928 791.816L886.135 523.077L886.476 523.009L1146.55 473.376L922.271 271.784L922.273 271.402L923.778 -21.3143L705.923 122.864L705.584 122.687L446.477 -8.52947Z" fill="white"/>
<path d="M379.048 492.317L539.02 283.024L450.489 -4.16171L451.774 -3.51251L706.835 125.737L922.104 -16.6761L920.566 272.905L1142.15 472.074L884.853 521.143L806.521 786.645L805.733 785.343L649.04 527.399L379.048 492.317ZM452.637 -1.55841L540.522 283.491L540.313 283.762L381.739 491.229L649.716 526.049L649.914 526.393L806.018 783.378L883.775 519.836L884.105 519.775L1139.13 471.153L919.222 273.444L919.227 273.068L920.754 -13.9747L707.078 127.375L706.745 127.209L452.637 -1.55841Z" fill="white"/>
<path d="M386.578 489.545L387.364 488.511L543.429 284.393L456.684 2.85822L707.982 130.258L919.049 -9.30585L917.485 274.546L1134.68 469.835L882.436 517.89L805.606 778.158L651.259 523.98L386.578 489.545ZM458.799 5.41623L544.878 284.854L544.674 285.122L389.219 488.472L651.922 522.658L805.119 774.933L881.375 516.61L881.705 516.549L1131.74 468.915L916.169 275.083L916.168 274.711L917.703 -6.67157L708.218 131.857L707.89 131.688L458.799 5.41623Z" fill="white"/>
<path d="M394.104 486.771L394.885 485.754L547.854 285.782L462.883 9.87807L464.128 10.5074L709.118 134.751L915.972 -1.97871L914.411 276.192L1127.22 467.602L880.022 514.646L804.694 769.672L653.468 520.576L394.104 486.771ZM464.962 12.3993L549.294 286.241L549.093 286.501L396.708 485.72L654.139 519.256L654.332 519.59L804.214 766.493L878.983 513.381L879.308 513.322L1124.33 466.693L913.108 276.715L913.108 276.356L914.664 0.633842L709.358 136.334L709.034 136.17L464.962 12.3993Z" fill="white"/>
<path d="M401.635 484.002L402.426 483L552.267 287.158L469.082 16.8916L710.262 139.255L912.902 5.38064L912.891 6.76389L911.334 277.841L1119.77 465.381L1118.54 465.61L877.606 511.394L803.773 761.176L803.02 759.933L655.687 517.159L401.635 484.002ZM471.131 19.3729L553.692 287.604L553.494 287.869L404.193 482.97L656.341 515.871L803.326 758.043L876.583 510.157L876.905 510.093L1116.92 464.47L910.055 278.357L911.611 7.94766L710.484 140.819L710.169 140.657L471.131 19.3729Z" fill="white"/>
<path d="M409.172 481.255L556.678 288.532L475.276 23.9118L711.399 143.759L909.832 12.7019L908.252 279.482L1112.3 463.126L1111.09 463.357L875.193 508.147L802.854 752.685L657.904 513.74L409.172 481.255ZM477.308 26.3746L558.094 288.998L557.898 289.254L411.673 480.213L658.546 512.48L658.729 512.798L802.389 749.619L874.179 506.925L874.498 506.87L1109.5 462.258L906.993 279.994L906.996 279.64L908.564 15.2481L711.631 145.29L711.318 145.133L477.308 26.3746Z" fill="white"/>
<path d="M416.683 478.462L417.423 477.497L561.098 289.918L481.479 30.9305L482.664 31.53L712.548 148.268L906.778 20.0741L905.171 281.133L1104.83 460.889L872.773 504.899L801.927 744.201L801.198 743.001L660.128 510.328L416.683 478.462ZM483.459 33.3296L562.473 290.351L562.282 290.604L419.159 477.462L660.751 509.086L660.947 509.425L801.493 741.203L871.786 503.698L872.096 503.64L1102.07 460.033L903.969 281.634L903.971 281.289L905.544 22.5792L712.788 149.8L712.478 149.649L483.459 33.3296Z" fill="white"/>
<path d="M424.214 475.692L424.941 474.742L565.535 291.309L487.679 37.9574L488.844 38.547L713.69 152.779L903.72 27.4267L903.713 28.7429L902.104 282.798L1097.38 458.673L870.361 501.653L801.026 735.701L662.342 506.914L424.214 475.692ZM489.628 40.3028L566.869 291.721L566.681 291.966L426.645 474.712L662.959 505.698L663.139 506.01L800.581 732.746L869.386 500.473L869.692 500.419L1094.67 457.804L900.878 283.269L902.487 29.8595L713.913 154.257L713.609 154.103L489.628 40.3028Z" fill="white"/>
<path d="M431.725 472.924L432.442 471.993L569.913 292.686L493.877 44.9681L714.83 157.275L900.675 34.7538L900.666 36.0423L899.014 284.422L1089.91 456.417L867.945 498.399L800.091 727.218L664.542 503.512L431.725 472.924ZM495.777 47.2914L571.259 293.093L571.07 293.338L434.104 471.966L665.14 502.313L665.307 502.604L799.637 724.296L866.991 497.243L867.288 497.187L1087.25 455.578L897.822 284.902L897.824 284.571L899.444 37.1643L715.049 158.733L714.748 158.584L495.777 47.2914Z" fill="white"/>
<path d="M439.262 470.151L574.342 294.053L500.07 51.9847L501.195 52.5545L715.973 161.786L897.565 42.1293L897.574 43.3862L895.937 286.07L1082.43 454.19L1081.3 454.405L865.533 495.153L799.19 718.719L666.777 500.086L439.262 470.151ZM501.951 54.2618L575.649 294.467L575.463 294.704L441.611 469.204L667.368 498.913L798.765 715.859L864.607 494.01L1079.81 453.373L894.764 286.546L894.767 286.215L896.388 44.4726L716.179 163.223L715.886 163.077L501.951 54.2618Z" fill="white"/>
<path d="M446.791 467.375L578.76 295.433L506.273 59.0022L717.113 166.292L894.521 49.4663L894.52 50.7071L892.861 287.717L1074.99 451.947L1073.88 452.153L863.119 491.901L798.274 710.227L668.995 496.676L446.791 467.375ZM508.118 61.2425L580.041 295.84L579.861 296.073L449.097 466.453L669.574 495.517L669.744 495.813L797.852 707.424L862.183 490.764L862.469 490.713L1072.42 451.13L891.705 288.184L893.353 51.7756L717.317 167.701L717.033 167.556L508.118 61.2425Z" fill="white"/>
<path d="M454.316 464.606L454.997 463.726L583.175 296.812L512.468 66.0219L718.26 170.798L891.453 56.815L891.443 58.0396L889.791 289.352L1067.53 449.708L1066.44 449.913L860.7 488.656L797.349 701.725L671.199 493.244L454.316 464.606ZM514.291 68.2107L584.442 297.206L584.263 297.431L456.578 463.695L671.78 492.127L796.942 698.984L859.789 487.562L860.07 487.515L1065.03 448.943L888.632 289.828L888.635 289.51L890.294 59.0903L718.462 172.18L718.187 172.038L514.291 68.2107Z" fill="white"/>
<path d="M461.844 461.841L462.509 460.969L587.592 298.194L518.672 73.0417L719.4 175.305L888.392 64.1636L888.37 65.3667L886.7 291.011L1060.08 447.499L858.29 485.412L796.443 693.252L673.432 489.849L461.844 461.841ZM520.451 75.2053L588.829 298.584L588.656 298.806L464.065 460.946L673.988 488.739L674.15 489.019L796.035 690.547L857.402 484.332L857.679 484.28L1057.59 446.697L885.583 291.448L885.589 291.136L887.26 66.3734L719.595 176.649L719.32 176.506L520.451 75.2053Z" fill="white"/>
<path d="M469.371 459.064L592.008 299.572L524.867 80.0616L720.544 179.807L885.337 71.5338L883.625 292.663L1052.6 445.234L855.874 482.159L795.546 684.784L675.661 486.46L469.371 459.064ZM526.607 82.1691L593.215 299.951L471.546 458.188L676.197 485.34L795.131 682.104L855.007 481.103L855.276 481.048L1050.18 444.471L882.517 293.102L884.218 73.6927L720.738 181.136L720.471 180.996L526.607 82.1691Z" fill="white"/>
<path d="M476.898 456.296L596.421 300.947L531.067 87.0736L532.086 87.5968L721.687 184.317L882.263 78.8585L880.543 294.299L1045.15 442.994L853.463 478.911L794.613 676.265L677.86 483.018L476.898 456.296ZM532.781 89.1604L597.616 301.34L479.032 455.437L678.405 481.95L678.56 482.219L794.218 673.668L852.612 477.897L852.879 477.85L1042.76 442.25L879.473 294.73L879.48 294.432L881.177 80.9988L721.879 185.619L721.615 185.484L532.781 89.1604Z" fill="white"/>
<path d="M484.42 453.523L485.052 452.706L600.837 302.326L537.241 94.1063L538.251 94.6134L722.812 188.837L879.183 86.2223L877.453 295.96L1037.68 440.803L851.051 475.678L793.695 667.774L680.082 479.604L484.42 453.523ZM538.953 96.1154L601.997 302.696L486.49 452.701L680.598 478.561L680.753 478.83L793.298 665.235L850.184 474.636L850.446 474.593L1035.35 440.025L876.433 296.355L876.438 296.066L878.135 88.3047L723.016 190.096L722.755 189.967L538.953 96.1154Z" fill="white"/>
<path d="M491.951 450.753L492.565 449.954L605.231 303.719L543.467 101.118L544.467 101.609L723.978 193.327L876.128 93.5583L874.383 297.597L1030.21 438.525L1029.23 438.715L848.629 472.416L792.778 659.284L682.306 476.184L491.951 450.753ZM545.104 103.12L606.392 304.067L493.998 449.93L682.815 475.166L682.967 475.43L792.396 656.772L847.81 471.419L848.068 471.37L1027.93 437.799L873.359 298.009L873.364 297.719L875.089 95.6067L724.156 194.58L723.9 194.447L545.104 103.12Z" fill="white"/>
<path d="M499.474 447.98L609.669 305.087L549.655 108.122L725.106 197.825L873.071 100.924L873.067 102.009L871.303 299.239L1022.75 436.292L1021.78 436.472L846.208 469.153L791.861 650.792L684.513 472.78L499.474 447.98ZM551.258 110.079L610.783 305.44L501.484 447.178L685.022 471.776L685.168 472.029L791.496 648.349L845.399 468.186L845.649 468.134L1020.51 435.572L870.301 299.638L872.039 102.91L725.3 199.068L725.048 198.941L551.258 110.079Z" fill="white"/>
<path d="M506.999 445.212L614.084 306.466L555.862 115.15L726.255 202.337L869.999 108.253L868.226 300.885L1015.29 434.053L1014.34 434.226L843.796 465.919L790.952 642.316L686.735 469.381L506.999 445.212ZM557.396 117.075L615.173 306.812L615.021 307.008L508.971 444.432L687.226 468.38L790.566 639.922L843.015 464.964L843.26 464.916L1013.08 433.373L867.243 301.281L867.249 301.005L869 110.221L726.43 203.534L726.186 203.409L557.396 117.075Z" fill="white"/>
<path d="M514.526 442.436L618.496 307.841L562.054 122.166L562.972 122.639L727.396 206.848L866.93 115.603L865.147 302.533L1007.83 431.815L841.376 462.662L790.023 633.81L789.48 632.869L688.947 465.952L514.526 442.436ZM563.569 124.045L619.55 308.164L619.403 308.357L516.464 441.647L689.462 464.995L689.602 465.237L789.708 631.475L840.611 461.734L840.859 461.691L1005.69 431.137L864.186 302.916L864.189 302.649L865.953 117.523L727.558 208.023L727.318 207.904L563.569 124.045Z" fill="white"/>
<path d="M522.055 439.67L522.62 438.935L622.915 309.222L568.254 129.188L728.538 211.355L863.85 122.964L863.842 123.98L862.069 304.185L1000.36 429.587L838.971 459.422L789.112 625.325L691.164 462.538L522.055 439.67ZM569.746 131.016L623.962 309.557L623.812 309.744L523.91 438.936L691.635 461.592L788.774 623.026L838.22 458.507L838.454 458.465L998.28 428.919L861.129 304.555L861.135 304.294L862.898 124.84L728.694 212.505L728.462 212.388L569.746 131.016Z" fill="white"/>
<path d="M529.58 436.892L530.13 436.18L627.329 310.6L574.453 136.204L729.68 215.854L860.802 130.299L858.986 305.825L992.898 427.347L836.552 456.167L788.192 616.832L693.387 459.143L529.58 436.892ZM575.92 137.988L628.346 310.923L531.416 436.162L693.843 458.206L693.976 458.437L787.863 614.598L835.801 455.289L836.03 455.25L990.843 426.705L858.045 306.181L858.046 305.923L859.861 132.133L729.845 216.971L575.92 137.988Z" fill="white"/>
<path d="M537.105 434.125L537.642 433.428L631.744 311.981L580.648 143.225L730.821 220.366L857.74 137.66L857.729 138.634L855.911 307.478L985.459 425.103L834.168 452.934L787.274 608.342L695.578 455.727L537.105 434.125ZM582.093 144.958L632.736 312.297L632.597 312.478L538.901 433.412L696.038 454.824L786.94 606.162L833.422 452.052L833.648 452.008L983.446 424.472L855.009 307.827L855.013 307.574L856.846 139.438L730.988 221.425L730.769 221.307L582.093 144.958Z" fill="white"/>
<path d="M544.618 431.358L636.158 313.354L586.851 150.242L731.967 224.867L854.668 144.998L852.832 309.119L977.988 422.861L977.147 423.018L831.72 449.671L786.363 599.847L785.866 598.986L697.808 452.288L544.618 431.358ZM588.244 151.947L637.128 313.669L636.994 313.847L546.371 430.669L698.259 451.418L698.39 451.644L786.051 597.718L831.029 448.823L831.244 448.785L976.03 422.25L851.949 309.464L851.951 309.219L853.777 146.745L732.13 225.956L731.911 225.839L588.244 151.947Z" fill="white"/>
<path d="M552.159 428.582L640.573 314.736L593.043 157.259L733.108 229.38L851.611 152.357L849.761 310.779L970.531 420.65L969.695 420.803L829.307 446.426L785.418 591.373L700.015 448.864L552.159 428.582ZM594.418 158.946L641.546 315.056L641.412 315.234L553.868 427.904L700.455 448.036L785.136 589.284L828.628 445.599L828.843 445.561L968.62 420.032L848.899 311.112L848.901 310.867L850.734 154.053L733.257 230.42L594.418 158.946Z" fill="white"/>
<path d="M559.686 425.807L644.993 316.114L599.252 164.28L600.047 164.688L734.256 233.88L848.542 159.693L846.673 312.411L963.052 418.399L962.254 418.544L826.898 443.177L784.531 582.864L702.25 445.465L559.686 425.807ZM600.573 165.898L645.906 316.418L645.775 316.587L561.357 425.151L702.689 444.66L702.813 444.875L784.252 580.867L826.235 442.363L826.444 442.328L961.209 417.814L845.845 312.753L845.85 312.513L847.703 161.382L734.371 234.91L734.167 234.806L600.573 165.898Z" fill="white"/>
<path d="M567.21 423.042L567.701 422.415L649.407 317.496L605.443 171.298L735.406 238.409L845.473 167.045L843.594 314.061L955.582 416.167L954.803 416.308L824.468 439.928L783.612 574.375L783.152 573.579L704.463 442.052L567.21 423.042ZM606.731 172.87L650.306 317.787L650.18 317.953L568.832 422.4L704.879 441.246L783.331 572.4L823.833 439.14L953.789 415.581L842.782 314.379L842.785 314.148L844.644 168.664L735.52 239.389L735.317 239.285L606.731 172.87Z" fill="white"/>
<path d="M574.762 420.259L653.833 318.869L611.649 178.298L736.535 242.897L842.411 174.391L842.399 175.252L840.504 315.708L948.09 413.916L947.331 414.053L822.064 436.683L782.699 565.881L706.679 438.642L574.762 420.259ZM612.9 179.856L654.713 319.15L654.589 319.308L576.338 419.636L707.082 437.85L707.2 438.055L782.433 563.955L821.439 435.911L821.634 435.877L946.362 413.343L839.721 316.017L839.727 315.791L841.602 175.97L736.668 243.86L736.473 243.758L612.9 179.856Z" fill="white"/>
<path d="M582.263 417.498L582.73 416.905L658.219 320.259L617.84 185.335L737.666 247.378L839.342 181.741L839.329 182.573L837.436 317.349L940.647 411.701L939.907 411.835L819.648 433.431L781.775 557.392L708.908 435.254L582.263 417.498ZM619.078 186.858L659.091 320.529L658.967 320.687L583.806 416.894L709.288 434.46L781.519 555.533L819.035 432.68L819.23 432.646L938.952 411.138L836.652 317.63L836.656 317.413L838.575 183.267L737.815 248.331L737.623 248.234L619.078 186.858Z" fill="white"/>
<path d="M589.789 414.731L590.24 414.147L662.651 321.63L624.039 192.348L738.818 251.905L836.279 189.096L836.269 189.898L834.36 318.997L933.179 409.467L932.458 409.596L817.209 430.2L780.861 548.907L711.109 431.817L589.789 414.731ZM625.226 193.807L663.472 321.909L663.35 322.058L591.284 414.118L711.492 431.066L711.604 431.259L780.62 547.074L816.645 429.471L816.83 429.443L931.541 408.914L833.604 319.29L835.496 190.559L738.982 252.836L738.798 252.741L625.226 193.807Z" fill="white"/>
<path d="M597.319 411.955L597.76 411.392L667.081 323.032L630.237 199.369L739.967 256.413L833.218 196.443L831.276 320.642L925.739 407.217L925.037 407.342L814.817 426.935L779.936 540.4L779.533 539.701L713.336 428.396L597.319 411.955ZM631.409 200.815L667.859 323.299L667.751 323.448L598.775 411.387L713.701 427.676L779.697 538.645L814.23 426.205L814.412 426.172L924.112 406.671L830.55 320.925L830.555 320.722L832.468 197.887L740.089 257.296L739.909 257.206L631.409 200.815Z" fill="white"/>
<path d="M604.832 409.165L605.239 408.629L671.484 324.389L636.438 206.386L637.098 206.722L741.111 260.928L830.147 203.786L828.195 322.283L918.278 404.983L917.595 405.104L812.404 423.687L779.033 531.921L715.544 424.983L604.832 409.165ZM637.556 207.763L672.261 324.643L672.156 324.783L606.26 408.634L715.913 424.282L716.015 424.46L778.785 530.2L811.857 423.014L812.033 422.983L916.74 404.48L827.489 322.562L827.496 322.364L829.426 205.193L741.229 261.778L637.556 207.763Z" fill="white"/>
<path d="M612.371 406.411L612.784 405.886L675.899 325.77L642.634 213.408L643.288 213.747L742.246 265.429L827.082 211.142L825.12 323.937L910.819 402.743L910.167 402.854L809.987 420.436L778.123 523.447L717.765 421.572L612.371 406.411ZM643.712 214.742L676.656 326.014L676.551 326.154L613.757 405.869L718.141 420.895L777.908 521.771L809.444 419.768L809.615 419.741L909.296 402.252L824.433 324.198L824.438 324.008L826.374 212.498L742.365 266.256L742.193 266.169L643.712 214.742Z" fill="white"/>
<path d="M619.898 403.644L620.314 403.123L680.313 327.144L648.806 220.435L743.338 269.962L824.021 218.488L822.057 325.569L903.38 400.52L902.728 400.631L807.571 417.192L777.198 514.94L719.992 418.178L619.898 403.644ZM649.879 221.723L681.048 327.387L680.944 327.518L621.227 403.127L720.324 417.499L720.42 417.665L776.975 513.325L807.05 416.539L901.885 400.028L821.373 325.836L821.381 325.652L823.351 219.822L743.519 270.76L743.352 270.67L649.879 221.723Z" fill="white"/>
<path d="M627.42 400.87L627.843 400.361L684.729 328.524L655.032 227.445L744.523 274.447L820.954 225.838L818.964 327.226L895.885 398.264L895.239 398.386L805.171 413.967L776.28 506.448L722.196 414.746L627.42 400.87ZM656.042 228.698L685.438 328.759L685.34 328.888L628.721 400.392L722.531 414.109L722.624 414.27L776.066 504.887L804.651 413.313L804.813 413.284L894.467 397.806L818.33 327.492L818.333 327.311L820.291 227.11L744.639 275.219L744.483 275.137L656.042 228.698Z" fill="white"/>
<path d="M634.954 398.098L635.331 397.622L689.147 329.902L661.233 234.456L745.676 278.922L817.889 233.186L815.875 328.909L888.421 396.019L802.746 410.691L775.365 497.956L724.418 411.327L634.954 398.098ZM662.208 235.672L689.84 330.147L689.745 330.267L636.189 397.643L724.735 410.735L724.828 410.896L775.16 496.446L802.259 410.084L887.057 395.58L815.273 329.106L817.227 234.422L745.757 279.708L745.605 279.631L662.208 235.672Z" fill="white"/>
<path d="M642.473 395.322L642.84 394.866L693.565 331.276L667.429 241.479L668.004 241.779L746.819 283.449L814.827 240.534L814.813 241.181L812.813 330.535L880.967 393.799L800.303 407.457L774.45 489.472L726.642 407.907L642.473 395.322ZM668.389 242.682L694.227 331.503L643.68 394.869L726.943 407.325L727.021 407.459L774.236 487.996L799.844 406.847L799.992 406.819L879.646 393.335L812.206 330.749L812.21 330.582L814.2 241.721L746.906 284.159L668.389 242.682Z" fill="white"/>
<path d="M649.997 392.554L697.974 332.658L673.62 248.48L747.965 287.956L811.759 247.884L811.746 248.508L809.714 332.144L873.494 391.544L797.911 404.197L773.538 480.992L728.853 404.515L649.997 392.554ZM674.535 249.63L698.616 332.876L698.522 332.987L651.164 392.117L729.146 403.93L773.341 479.571L797.46 403.626L872.226 391.136L809.144 332.387L811.179 249.014L748.06 288.654L747.916 288.58L674.535 249.63Z" fill="white"/>
<path d="M657.512 389.793L702.39 334.038L679.826 255.517L749.104 292.461L808.697 255.23L808.68 255.834L806.649 333.813L866.038 389.33L865.501 389.418L795.475 400.957L772.621 472.478L731.078 401.093L657.512 389.793ZM680.698 256.605L703.006 334.249L702.918 334.357L658.649 389.366L731.353 400.539L731.434 400.679L772.437 471.128L795.06 400.4L795.203 400.375L864.808 388.914L806.089 334.021L806.093 333.868L808.112 256.327L749.195 293.14L749.056 293.062L680.698 256.605Z" fill="white"/>
<path d="M665.053 387.01L665.385 386.604L706.801 335.443L686.027 262.529L750.25 296.963L805.651 262.576L805.629 263.147L803.587 335.445L858.596 387.089L793.102 397.689L771.714 463.989L733.298 397.661L665.053 387.01ZM686.857 263.57L707.393 335.611L707.31 335.716L666.127 386.598L733.559 397.144L733.636 397.279L771.527 462.684L792.664 397.167L792.797 397.148L857.395 386.685L803.03 335.659L803.034 335.506L805.067 263.637L750.334 297.618L750.199 297.545L686.857 263.57Z" fill="white"/>
<path d="M672.584 384.239L711.224 336.797L692.228 269.547L692.711 269.812L751.392 301.474L802.555 269.912L800.481 337.08L851.116 384.859L850.617 384.939L790.668 394.454L770.78 455.507L735.498 394.26L672.584 384.239ZM693.024 270.564L711.795 336.991L711.709 337.091L673.618 383.857L735.771 393.751L735.849 393.886L770.624 454.256L790.273 393.943L790.402 393.919L849.985 384.465L799.942 337.312L802.021 270.938L751.468 302.089L751.344 302.024L693.024 270.564Z" fill="white"/>
<path d="M680.111 381.477L680.419 381.106L715.638 338.177L698.422 276.568L698.891 276.82L752.528 305.965L799.497 277.27L797.391 338.72L843.632 382.589L788.232 391.169L769.833 446.968L769.553 446.484L737.683 390.861L680.111 381.477ZM699.184 277.54L716.183 338.365L716.102 338.461L681.101 381.107L737.982 390.373L738.053 390.496L769.72 445.828L787.874 390.723L788.001 390.708L842.572 382.255L796.917 338.943L798.974 278.239L752.606 306.573L752.482 306.508L699.184 277.54Z" fill="white"/>
<path d="M687.655 378.688L720.054 339.553L704.627 283.586L705.07 283.832L753.679 310.488L796.439 284.631L794.335 340.401L836.194 380.39L785.838 387.951L768.943 438.521L768.676 438.058L739.921 387.434L687.655 378.688ZM705.353 284.522L720.573 339.733L720.498 339.827L688.576 378.335L740.146 386.967L740.215 387.086L768.768 437.374L785.476 387.485L835.151 380.024L793.853 340.571L793.862 340.437L795.933 285.555L753.744 311.06L705.353 284.522Z" fill="white"/>
<path d="M695.159 375.923L724.468 340.932L710.827 290.603L711.25 290.839L754.805 314.998L793.359 291.986L793.338 292.471L791.24 342.056L828.723 378.14L783.413 384.695L768.015 430.026L742.16 384.002L695.159 375.923ZM711.515 291.496L724.959 341.1L724.886 341.185L696.069 375.599L742.388 383.577L742.456 383.695L767.902 428.937L783.075 384.259L783.188 384.244L827.737 377.798L790.796 342.205L790.802 342.079L792.902 292.845L754.886 315.51L754.777 315.445L711.515 291.496Z" fill="white"/>
</g>
</g>
<defs>
<clipPath id="clip0_131_204">
<rect width="1149" height="380" fill="white"/>
</clipPath>
<clipPath id="clip1_131_204">
<rect width="2374.78" height="2302.7" fill="white" transform="translate(736.934 1960.13) rotate(-130.743)"/>
</clipPath>
</defs>
</svg>
